<svg width="144" height="128" viewBox="0 0 144 128" fill="none" xmlns="http://www.w3.org/2000/svg">
<path d="M49.3461 124.261L49.3528 106.114H78.9335C79.8285 106.114 80.6032 105.773 81.2511 105.099C81.899 104.384 82.2129 103.523 82.1995 102.507L82.1528 98.9009H49.2793L49.2192 94.4327C49.1992 92.8632 50.1142 91.6943 51.6904 91.6943H85.2785C87.2087 91.6943 88.9385 93.3908 88.9652 95.3076L88.8717 106.114C88.8851 107.129 88.5645 107.991 87.9233 108.705C87.2755 109.38 86.5007 109.721 85.6057 109.721C86.5007 109.721 87.2821 110.081 87.95 110.789C88.6112 111.504 88.9519 112.345 88.9652 113.321L88.8851 127.74H52.8993C51.0359 127.74 49.3661 126.111 49.3461 124.261ZM82.4333 120.534L82.3865 116.927C82.3732 115.952 82.0325 115.104 81.3713 114.396C80.7034 113.681 79.922 113.327 79.027 113.327H55.8313L55.9248 120.534H82.4333Z" fill="white"/>
<path d="M95.6241 127.74C95.3503 125.75 95.7577 124.067 96.8464 122.678C97.9617 121.255 99.4311 120.54 101.261 120.54H128.397L126.754 113.341H99.4378C97.4141 113.341 95.3837 111.564 95.1099 109.56L95.1165 94.5529C95.1165 92.9166 96.0716 91.7411 97.5677 91.7411H128.451C128.725 93.7648 128.965 95.4746 127.843 96.8638C126.721 98.253 124.61 98.9476 122.814 98.9476H101.248L101.268 106.147H129.446C131.356 106.147 133.28 107.824 133.533 109.721L137.314 127.747H95.6241V127.74Z" fill="white"/>
<path d="M17.1806 91.742C11.6171 91.6885 9.93404 98.6279 9.93404 98.6279L0.303101 127.714H8.22425L17.401 100.725C17.8151 99.5095 18.9038 98.6346 20.2262 98.6279C20.2329 98.6279 20.2462 98.6279 20.2529 98.6279H36.329L36.2555 106.502H24.7945C23.205 106.502 21.9961 107.197 21.1813 108.586C20.3731 110.009 20.1594 111.718 20.5468 113.709H36.2555L36.3089 127.721H43.2884V91.7486H17.1806V91.742Z" fill="white"/>
<path d="M102.112 56.4498C102.112 59.0648 101.319 60.4314 99.691 60.4651C98.1726 60.4989 97.3121 58.9973 96.9579 58.39C92.1833 50.199 87.763 42.4888 82.9969 34.2894L69.4915 11.1589C69.2131 10.425 68.901 10.425 68.5636 11.1168C59.4278 26.8745 50.3089 42.6407 41.1309 58.3731C40.667 59.166 40.0596 60.5157 38.3725 60.4651C36.8203 60.4229 35.9515 59.0732 36.0021 56.5426V19.8054C35.9937 18.6919 36.1792 17.6965 37.2506 17.047L59.0482 3.70186C59.2338 3.59219 59.4531 3.80308 59.335 3.98867C56.9309 7.78469 55.7414 11.8591 50.8066 14.9212C46.4116 17.6459 47.1202 17.2326 42.6831 19.932C41.7046 20.5309 41.0044 21.1045 41.0044 22.5555C41.0044 30.5271 40.9791 39.3002 41.0044 47.2803C41.0128 48.4275 41.519 47.5249 41.519 47.5249C49.7859 33.2012 59.7062 15.5961 67.914 1.23022C68.9769 -0.625615 69.3481 -0.203834 70.2254 1.31458L96.342 47.1453C96.8566 48.0395 97.1603 47.9129 97.194 47.7442V22.8254C97.2109 21.3998 96.6373 20.6153 95.5069 19.9404C90.9854 17.2326 91.9134 17.6122 87.3834 14.9212C84.8865 13.4366 80.1878 6.35064 78.8466 4.03085C78.7201 3.81995 78.9647 3.57532 79.1756 3.71029L100.425 16.6168C101.783 17.376 102.129 18.5317 102.12 20.1682L102.112 56.4498Z" fill="white"/>
<path d="M69.9977 27.9796C69.4072 26.7058 68.7914 26.6636 68.0659 28.0217L48.7315 61.5449C48.7315 61.5449 48.0566 62.6078 48.8833 63.1561L67.7285 74.6791C68.7829 75.4046 69.3312 75.3287 70.3857 74.6201C76.7293 70.377 82.4655 67.1714 88.9947 63.2067C90.0154 62.5909 89.6358 62.0257 89.1887 61.2665L69.9977 27.9796ZM68.2937 40.1184C68.513 39.7388 68.5383 39.3592 69.1203 39.3592C69.6349 39.3592 69.7868 39.8653 70.0061 40.2449C72.0728 43.8048 74.1311 47.3646 76.1894 50.9244H62.0513C64.1349 47.3309 66.2101 43.7289 68.2937 40.1184ZM80.4916 61.469C77.0667 63.5441 73.6503 65.6362 70.2507 67.7535C69.4072 68.2765 68.7492 68.2428 67.8887 67.7029C64.582 65.594 61.2246 63.5694 57.8757 61.5449C56.9056 60.9628 56.4838 60.4567 57.2177 59.2166C57.7576 58.2972 58.289 57.3692 58.8289 56.4498H79.4034C79.9686 57.4114 80.5253 58.3815 81.0905 59.3432C81.7569 60.4651 81.3689 60.9375 80.4916 61.469Z" fill="white"/>
<path d="M137.499 92C137.572 92 137.609 92.0367 137.609 92.11V92.572C137.609 92.6453 137.572 92.682 137.499 92.682H135.706C135.677 92.682 135.662 92.6967 135.662 92.726V97.39C135.662 97.4633 135.625 97.5 135.552 97.5H134.991C134.918 97.5 134.881 97.4633 134.881 97.39V92.726C134.881 92.6967 134.866 92.682 134.837 92.682H133.11C133.037 92.682 133 92.6453 133 92.572V92.11C133 92.0367 133.037 92 133.11 92H137.499Z" fill="white"/>
<path d="M143.121 92.077C143.158 92.0257 143.202 92 143.253 92H143.825C143.898 92 143.935 92.0367 143.935 92.11V97.39C143.935 97.4633 143.898 97.5 143.825 97.5H143.264C143.191 97.5 143.154 97.4633 143.154 97.39V93.606C143.154 93.584 143.147 93.5693 143.132 93.562C143.117 93.5547 143.106 93.562 143.099 93.584L141.636 96.125C141.599 96.1763 141.555 96.202 141.504 96.202H141.383C141.332 96.202 141.288 96.1763 141.251 96.125L139.777 93.595C139.77 93.573 139.759 93.5657 139.744 93.573C139.729 93.5803 139.722 93.595 139.722 93.617V97.39C139.722 97.4633 139.685 97.5 139.612 97.5H139.051C138.978 97.5 138.941 97.4633 138.941 97.39V92.11C138.941 92.0367 138.978 92 139.051 92H139.623C139.674 92 139.718 92.0257 139.755 92.077L141.416 94.904C141.423 94.9113 141.434 94.915 141.449 94.915C141.464 94.915 141.475 94.9113 141.482 94.904L143.121 92.077Z" fill="white"/>
</svg>
