<svg width="120" height="121" viewBox="0 0 120 121" fill="none" xmlns="http://www.w3.org/2000/svg">
<path d="M112.018 89.9389C112.018 94.031 110.775 96.1694 108.225 96.2222C105.846 96.275 104.498 93.9254 103.943 92.975C96.4621 80.1576 89.5367 68.0926 82.0694 55.2621L60.9099 19.0672C60.4738 17.9187 59.9848 17.9187 59.4561 19.0012C45.1428 43.6591 30.8558 68.3302 16.4764 92.9486C15.7495 94.1894 14.7979 96.3014 12.1546 96.2222C9.72277 96.1562 8.36148 94.0442 8.44078 90.0842V32.5973C8.42757 30.8549 8.71833 29.2973 10.3968 28.2809L44.548 7.39819C44.8388 7.22659 45.1824 7.55659 44.9974 7.847C41.2307 13.7871 39.3672 20.1628 31.6356 24.9544C24.7498 29.2181 25.86 28.5713 18.9082 32.7953C17.3751 33.7326 16.2781 34.6302 16.2781 36.9006C16.2781 49.3748 16.2385 63.103 16.2781 75.5904C16.2913 77.3856 17.0843 75.9732 17.0843 75.9732C30.0364 53.5592 45.5789 26.0105 58.4385 3.53054C60.1037 0.626497 60.6853 1.28651 62.0598 3.66254L102.978 75.3792C103.784 76.7784 104.26 76.5804 104.313 76.3164V37.323C104.339 35.0922 103.44 33.8646 101.669 32.8085C94.5854 28.5713 96.0392 29.1653 88.9419 24.9544C85.0299 22.6312 77.6684 11.543 75.5669 7.913C75.3687 7.58299 75.752 7.20019 76.0824 7.41139L109.375 27.6077C111.502 28.7957 112.044 30.6041 112.031 33.165L112.018 89.9389Z" fill="#FD6120"/>
<path d="M61.703 45.3884C60.7778 43.3951 59.813 43.3291 58.6764 45.4544L28.3844 97.9119C28.3844 97.9119 27.3271 99.5751 28.6223 100.433L58.1478 118.465C59.7998 119.6 60.6589 119.481 62.3109 118.372C72.2497 111.733 81.2368 106.716 91.4663 100.512C93.0655 99.5487 92.4708 98.6643 91.7703 97.4763L61.703 45.3884ZM59.0333 64.3834C59.3769 63.7894 59.4165 63.1954 60.3285 63.1954C61.1347 63.1954 61.3726 63.9874 61.7162 64.5814C64.9542 70.1519 68.179 75.7224 71.4038 81.2929H49.2531C52.5176 75.6696 55.7688 70.0331 59.0333 64.3834ZM78.1442 97.7931C72.7783 101.04 67.4257 104.314 62.0995 107.627C60.7778 108.446 59.747 108.393 58.3989 107.548C53.2181 104.248 47.9579 101.08 42.711 97.9119C41.1911 97.0011 40.5303 96.2091 41.6801 94.2687C42.526 92.8298 43.3586 91.3778 44.2045 89.939H76.4393C77.3248 91.4438 78.1971 92.9618 79.0826 94.4667C80.1267 96.2223 79.5187 96.9615 78.1442 97.7931Z" fill="#FD6120"/>
</svg>
