<svg width="51" height="51" viewBox="0 0 51 51" fill="none" xmlns="http://www.w3.org/2000/svg">
<path d="M33.3758 11.8096L11.5846 33.6008L18.9601 40.9762L40.7513 19.0174L33.3758 11.8096Z" fill="white" stroke="black" stroke-width="1.14095"/>
<path d="M42.8052 11.3012C43.1554 11.2544 43.4706 11.1727 43.739 10.9507C44.0892 10.647 44.4044 10.7288 44.7079 11.0325C46.202 12.5393 47.7078 14.0344 49.202 15.5412C49.6339 15.9851 49.6105 16.207 49.1086 16.7092C46.1553 19.6761 43.1904 22.6313 40.2372 25.5865C34.5291 31.2983 28.821 37.0101 23.113 42.7219C21.5138 44.3221 19.9263 45.9106 18.3271 47.5109C17.7901 48.0482 17.6267 48.0716 17.0781 47.5342C16.8096 47.2773 16.6462 47.3123 16.4127 47.5576C15.9692 48.0248 15.5022 48.4687 15.0587 48.9242C14.6968 49.2863 14.3583 49.2863 13.9964 48.9242C11.7552 46.6816 9.51404 44.4389 7.27284 42.1962C6.91098 41.8341 6.93432 41.5071 7.27284 41.1333C7.49462 40.888 8.03158 40.6544 7.62302 40.2573C7.2028 39.8368 6.93432 40.3507 6.68919 40.6077C6.35068 40.9464 6.04718 40.9347 5.73201 40.6194C5.05498 39.9536 4.37795 39.2761 3.7126 38.5986C3.4091 38.2949 3.44412 37.9795 3.73594 37.6759C4.20286 37.2086 4.6581 36.7297 5.13669 36.2742C5.38182 36.0406 5.44019 35.8537 5.16004 35.6084C4.69312 35.2113 4.76316 34.8141 5.16004 34.417C6.18725 33.3891 7.22614 32.3612 8.26503 31.3333C17.2999 22.3042 26.3347 13.2635 35.3812 4.22273C35.638 3.96576 35.9065 3.70879 36.1633 3.44013C36.4551 3.13644 36.7586 3.08972 37.0738 3.40509C38.6263 4.95861 40.1905 6.51212 41.7313 8.06564C42.0932 8.42773 41.9064 8.75479 41.6613 9.1052C41.3344 9.56075 41.3344 10.063 41.5796 10.5419C41.8364 11.0442 42.2799 11.2661 42.8052 11.3012ZM42.8752 12.4108C41.101 12.4108 39.922 10.7522 40.4473 9.09352C40.5874 8.64966 40.5173 8.38101 40.2021 8.06564C39.1516 7.04943 38.1127 6.02154 37.1088 4.97029C36.7236 4.56147 36.5018 4.57315 36.1049 4.97029C31.2373 9.87612 26.3464 14.7586 21.4671 19.6411C16.4594 24.652 11.4634 29.6747 6.4674 34.6856C6.25729 34.8959 6.10554 35.0244 6.40904 35.3281C10.016 38.9257 13.6229 42.535 17.2065 46.1559C17.6034 46.5648 17.8135 46.483 18.1637 46.1326C22.3542 41.9276 26.5448 37.7343 30.7471 33.5293C36.3734 27.8992 41.9998 22.2692 47.6261 16.6392C48.1981 16.0668 48.1981 16.0668 47.6028 15.4828C46.6573 14.5367 45.6884 13.6022 44.7663 12.6327C44.3811 12.2356 44.0309 11.9669 43.4706 12.2823C43.2721 12.3991 43.0153 12.3874 42.8752 12.4108ZM7.37789 39.0191C8.05492 39.0308 8.66191 39.5097 8.83701 40.1638C8.96541 40.6544 8.84868 41.0866 8.55686 41.4837C8.41678 41.6706 8.44013 41.8458 8.61522 41.9977C8.81366 42.1612 8.93039 42.021 9.05879 41.9042C9.25723 41.7173 9.444 41.5071 9.65411 41.3552C9.88757 41.18 10.1327 41.2151 10.3428 41.4253C10.5296 41.6239 10.5413 41.8575 10.3895 42.0677C10.2378 42.2663 10.0743 42.4649 9.88757 42.6284C9.61909 42.862 9.63077 43.0489 9.8759 43.3059C10.1444 43.5745 10.3311 43.5161 10.5413 43.2708C10.6813 43.1073 10.8447 42.9671 11.0082 42.8387C11.2533 42.6518 11.5335 42.6518 11.7552 42.8737C11.9887 43.1073 11.942 43.376 11.7436 43.6096C11.6152 43.7614 11.4751 43.8899 11.335 44.0301C11.1132 44.2286 10.9381 44.3922 11.2416 44.6842C11.5101 44.9528 11.7319 45.0463 12.0004 44.7076C12.1404 44.544 12.2922 44.3922 12.4673 44.2637C12.7124 44.0768 12.9692 44.0418 13.191 44.287C13.4011 44.5207 13.3894 44.7893 13.191 45.0229C13.0509 45.1865 12.9109 45.35 12.7474 45.4902C12.4439 45.7471 12.514 45.9574 12.7708 46.2143C13.0393 46.4947 13.2144 46.4012 13.4361 46.1676C13.5879 45.9924 13.763 45.8289 13.9497 45.6887C14.1832 45.5135 14.4283 45.5252 14.6384 45.7354C14.8486 45.9457 14.8486 46.191 14.6735 46.4246C14.5334 46.6115 14.37 46.7867 14.1949 46.9385C13.9264 47.1605 13.9147 47.3357 14.1599 47.6043C14.4283 47.8847 14.6268 47.8613 14.8719 47.5926C15.082 47.359 15.2921 47.1254 15.5489 46.9502C15.9808 46.6465 15.8991 46.4129 15.5606 46.0859C13.763 44.3104 11.977 42.5116 10.1911 40.7245C8.98876 39.5331 7.79812 38.33 6.59581 37.1385C6.43239 36.975 6.26896 36.6947 5.97714 36.9867C5.6503 37.3138 5.32346 37.6525 4.98494 37.9795C4.87989 38.0847 4.79818 38.1898 4.92658 38.33C5.07833 38.4818 5.20673 38.3884 5.32346 38.2832C5.51022 38.108 5.68532 37.9211 5.87209 37.7576C6.09387 37.559 6.339 37.4539 6.59581 37.6992C6.85261 37.9328 6.85261 38.2248 6.6425 38.4818C6.49075 38.6804 6.28064 38.8322 6.09387 39.0074C5.9538 39.1359 5.81372 39.241 5.97714 39.4396C6.12889 39.6148 6.25729 39.4863 6.38569 39.4046C6.70086 39.1593 7.01603 39.0074 7.37789 39.0191Z" fill="black"/>
<path d="M44.5911 16.0666C44.6028 15.541 45.0114 15.1322 45.5366 15.1439C46.0502 15.1556 46.4705 15.5877 46.4588 16.09C46.4471 16.6039 46.0036 17.0244 45.5016 17.0244C44.988 17.0128 44.5795 16.5806 44.5911 16.0666Z" fill="black"/>
<path d="M36.4311 6.78347C36.9097 6.77179 37.3066 7.16892 37.3183 7.63615C37.33 8.10337 36.9331 8.50051 36.4428 8.50051C35.9526 8.50051 35.5673 8.12673 35.5673 7.64783C35.5673 7.16893 35.9409 6.79515 36.4311 6.78347Z" fill="black"/>
</svg>
