<svg width="51" height="51" viewBox="0 0 51 51" fill="none" xmlns="http://www.w3.org/2000/svg">
<g clip-path="url(#clip0)">
<g filter="url(#filter0_i)">
<ellipse cx="33.667" cy="27.3469" rx="11.4875" ry="11.4875" fill="white"/>
</g>
<g filter="url(#filter1_i)">
<path fill-rule="evenodd" clip-rule="evenodd" d="M0.0479736 7.05901C0.0479736 6.65373 0.393129 6.3252 0.818899 6.3252H6.1768C6.60257 6.3252 6.94772 6.65373 6.94772 7.05901V11.7305H49.2771C49.7028 11.7305 50.048 12.0591 50.048 12.4643V42.7341C50.048 43.1394 49.7028 43.468 49.2771 43.468H6.1768C5.75103 43.468 5.40587 43.1394 5.40587 42.7341V7.79282H0.818899C0.393129 7.79282 0.0479736 7.46428 0.0479736 7.05901ZM6.94772 13.1981V42.0003H48.5061V13.1981H6.94772Z" fill="#242332"/>
<path fill-rule="evenodd" clip-rule="evenodd" d="M14.7575 42.0495C15.1833 42.0495 15.5284 42.3781 15.5284 42.7833V45.5351C15.5284 45.9404 15.1833 46.269 14.7575 46.269C14.3317 46.269 13.9866 45.9404 13.9866 45.5351V42.7833C13.9866 42.3781 14.3317 42.0495 14.7575 42.0495Z" fill="#242332"/>
<path fill-rule="evenodd" clip-rule="evenodd" d="M24.7384 42.0495C25.1641 42.0495 25.5093 42.3781 25.5093 42.7833V45.5351C25.5093 45.9404 25.1641 46.269 24.7384 46.269C24.3126 46.269 23.9674 45.9404 23.9674 45.5351V42.7833C23.9674 42.3781 24.3126 42.0495 24.7384 42.0495Z" fill="#242332"/>
<path fill-rule="evenodd" clip-rule="evenodd" d="M19.7477 42.0495C20.1735 42.0495 20.5187 42.3781 20.5187 42.7833V45.5351C20.5187 45.9404 20.1735 46.269 19.7477 46.269C19.322 46.269 18.9768 45.9404 18.9768 45.5351V42.7833C18.9768 42.3781 19.322 42.0495 19.7477 42.0495Z" fill="#242332"/>
<path fill-rule="evenodd" clip-rule="evenodd" d="M29.7286 42.0495C30.1544 42.0495 30.4995 42.3781 30.4995 42.7833V45.5351C30.4995 45.9404 30.1544 46.269 29.7286 46.269C29.3028 46.269 28.9577 45.9404 28.9577 45.5351V42.7833C28.9577 42.3781 29.3028 42.0495 29.7286 42.0495Z" fill="#242332"/>
<path fill-rule="evenodd" clip-rule="evenodd" d="M6.17961 39.5465C6.60538 39.5465 6.95053 39.875 6.95053 40.2803L6.95053 47.258C6.95053 47.6633 6.60538 47.9919 6.17961 47.9919C5.75384 47.9919 5.40868 47.6633 5.40868 47.2581V40.2803C5.40868 39.875 5.75384 39.5465 6.17961 39.5465Z" fill="#242332"/>
<path d="M10.1113 15.4619H13.2088V18.4103H10.1113V15.4619Z" fill="#242332"/>
<path d="M16.3062 15.4619H19.4037V18.4103H16.3062V15.4619Z" fill="#242332"/>
<path d="M44.532 26.9471C43.0537 25.54 41.0063 24.7327 38.9163 24.7327H38.5673C38.2913 24.7327 38.0144 24.7491 37.7394 24.7761C37.362 24.2904 36.8963 23.8741 36.3576 23.5516C36.3789 23.5303 36.3941 23.5052 36.4154 23.484C37.5162 22.4362 39.0401 21.8355 40.5964 21.8355H44.2012C43.7792 21.1421 43.283 20.497 42.725 19.904H40.5964C38.5054 19.904 36.459 20.7114 34.9808 22.1184C34.7373 22.3502 34.5161 22.6023 34.3061 22.863C34.0951 22.837 33.8871 22.8012 33.669 22.8012C33.322 22.8012 32.9821 22.835 32.6544 22.8988V22.6351C32.6544 21.1537 33.2854 19.7032 34.3863 18.6553L36.7289 16.4255C35.9264 16.2275 35.0924 16.1058 34.2341 16.0691L32.9506 17.2908C31.4734 18.6969 30.6252 20.6457 30.6252 22.6351V22.9673C30.6252 23.23 30.6425 23.4936 30.6709 23.7554C30.1606 24.1146 29.7233 24.5579 29.3844 25.0707C29.3621 25.0504 29.3357 25.0359 29.3134 25.0156C28.2126 23.9678 27.5815 22.5173 27.5815 21.0359V17.6046C26.8531 18.0064 26.1753 18.4786 25.5524 19.0098V21.0359C25.5524 23.0262 26.4006 24.9741 27.8788 26.3812C28.1223 26.613 28.3871 26.8235 28.661 27.0234C28.6336 27.2243 28.5961 27.4222 28.5961 27.6299C28.5961 27.9601 28.6316 28.2837 28.6986 28.5956H28.4216C26.8652 28.5956 25.3414 27.9949 24.2406 26.9471L21.8979 24.7172C21.6899 25.4811 21.5621 26.275 21.5235 27.092L22.807 28.3136C24.2842 29.7197 26.3316 30.5271 28.4216 30.5271H28.7706C29.0466 30.5271 29.3235 30.5106 29.5985 30.4826C29.9769 30.9703 30.4436 31.3866 30.9844 31.7101C30.9631 31.7313 30.9448 31.7555 30.9225 31.7757C29.8217 32.8236 28.2978 33.4242 26.7415 33.4242H23.1367C23.5588 34.1176 24.0549 34.7628 24.6129 35.3557H26.7415C28.8325 35.3557 30.8789 34.5484 32.3571 33.1413C32.6006 32.9095 32.8218 32.6584 33.0328 32.3977C33.2439 32.4228 33.4508 32.4585 33.669 32.4585C34.0159 32.4585 34.3558 32.4247 34.6835 32.361V32.6246C34.6835 34.1061 34.0525 35.5566 32.9517 36.6044L30.609 38.8343C31.4115 39.0322 32.2455 39.1539 33.1038 39.1906L34.3873 37.969C35.8645 36.5629 36.7127 34.614 36.7127 32.6246V32.2924C36.7127 32.0297 36.6954 31.7661 36.666 31.5044C37.1784 31.1442 37.6156 30.699 37.9555 30.1852C37.9778 30.2055 38.0022 30.2229 38.0245 30.2441C39.1253 31.2919 39.7564 32.7424 39.7564 34.2239V37.6551C40.4848 37.2534 41.1626 36.7811 41.7855 36.25V34.2239C41.7855 32.2335 40.9373 30.2856 39.4591 28.8786C39.2156 28.6468 38.9508 28.4353 38.6779 28.2354C38.7043 28.0345 38.7418 27.8375 38.7418 27.6299C38.7418 27.2996 38.7063 26.9761 38.6393 26.6641H38.9163C40.4727 26.6641 41.9965 27.2648 43.0974 28.3126L45.44 30.5425C45.648 29.7786 45.7758 28.9848 45.8144 28.1678L44.532 26.9471ZM33.669 30.5271C31.9909 30.5271 30.6252 29.2272 30.6252 27.6299C30.6252 26.0326 31.9909 24.7327 33.669 24.7327C35.3471 24.7327 36.7127 26.0326 36.7127 27.6299C36.7127 29.2272 35.3471 30.5271 33.669 30.5271Z" fill="#242332"/>
</g>
</g>
<defs>
<filter id="filter0_i" x="22.1794" y="15.8594" width="22.9751" height="27.1692" filterUnits="userSpaceOnUse" color-interpolation-filters="sRGB">
<feFlood flood-opacity="0" result="BackgroundImageFix"/>
<feBlend mode="normal" in="SourceGraphic" in2="BackgroundImageFix" result="shape"/>
<feColorMatrix in="SourceAlpha" type="matrix" values="0 0 0 0 0 0 0 0 0 0 0 0 0 0 0 0 0 0 127 0" result="hardAlpha"/>
<feOffset dy="4.19415"/>
<feGaussianBlur stdDeviation="2.09708"/>
<feComposite in2="hardAlpha" operator="arithmetic" k2="-1" k3="1"/>
<feColorMatrix type="matrix" values="0 0 0 0 0.141176 0 0 0 0 0.137255 0 0 0 0 0.196078 0 0 0 0.6 0"/>
<feBlend mode="normal" in2="shape" result="effect1_innerShadow"/>
</filter>
<filter id="filter1_i" x="0.0479736" y="6.3252" width="50" height="41.6667" filterUnits="userSpaceOnUse" color-interpolation-filters="sRGB">
<feFlood flood-opacity="0" result="BackgroundImageFix"/>
<feBlend mode="normal" in="SourceGraphic" in2="BackgroundImageFix" result="shape"/>
<feColorMatrix in="SourceAlpha" type="matrix" values="0 0 0 0 0 0 0 0 0 0 0 0 0 0 0 0 0 0 127 0" result="hardAlpha"/>
<feOffset dy="1.04854"/>
<feComposite in2="hardAlpha" operator="arithmetic" k2="-1" k3="1"/>
<feColorMatrix type="matrix" values="0 0 0 0 0 0 0 0 0 0 0 0 0 0 0 0 0 0 0.25 0"/>
<feBlend mode="normal" in2="shape" result="effect1_innerShadow"/>
</filter>
<clipPath id="clip0">
<rect width="50" height="50" fill="white" transform="translate(0.568848 0.845703)"/>
</clipPath>
</defs>
</svg>
