<svg width="433" height="95" viewBox="0 0 433 95" fill="none" xmlns="http://www.w3.org/2000/svg">
<g clip-path="url(#clip0)">
<path d="M108.691 2.23022H107.941V92.4602H108.691V2.23022Z" fill="#1D2121"/>
<path d="M79.4501 69.1486C79.4501 72.2486 78.5101 73.8686 76.5801 73.9086C74.7801 73.9486 73.7601 72.1686 73.3401 71.4486C67.6801 61.7386 62.4401 52.5986 56.7901 42.8786L40.7801 15.4586C40.4501 14.5886 40.0801 14.5886 39.6801 15.4086C28.8501 34.0886 18.0401 52.7786 7.16012 71.4286C6.61012 72.3686 5.89012 73.9686 3.89012 73.9086C2.05012 73.8586 1.02012 72.2586 1.08012 69.2586V25.7086C1.07012 24.3886 1.29012 23.2086 2.56012 22.4386L28.4001 6.61859C28.6201 6.48859 28.8801 6.73859 28.7401 6.95859C25.8901 11.4586 24.4801 16.2886 18.6301 19.9186C13.4201 23.1486 14.2601 22.6586 9.00012 25.8586C7.84012 26.5686 7.01012 27.2486 7.01012 28.9686C7.01012 38.4186 6.98012 48.8186 7.01012 58.2786C7.02012 59.6386 7.62012 58.5686 7.62012 58.5686C17.4201 41.5886 29.1801 20.7186 38.9101 3.68859C40.1701 1.48859 40.6101 1.98859 41.6501 3.78859L72.6101 58.1186C73.2201 59.1786 73.5801 59.0286 73.6201 58.8286V29.2886C73.6401 27.5986 72.9601 26.6686 71.6201 25.8686C66.2601 22.6586 67.3601 23.1086 61.9901 19.9186C59.0301 18.1586 53.4601 9.75859 51.8701 7.00859C51.7201 6.75859 52.0101 6.46859 52.2601 6.62859L77.4501 21.9286C79.0601 22.8286 79.4701 24.1986 79.4601 26.1386L79.4501 69.1486Z" fill="#1D2121"/>
<path d="M41.3801 35.3987C40.6801 33.8887 39.9501 33.8387 39.0901 35.4487L16.1701 75.1887C16.1701 75.1887 15.3701 76.4487 16.3501 77.0987L38.6901 90.7587C39.9401 91.6187 40.5901 91.5287 41.8401 90.6887C49.3601 85.6587 56.1601 81.8587 63.9001 77.1587C65.1101 76.4287 64.6601 75.7587 64.1301 74.8587L41.3801 35.3987ZM39.3601 49.7887C39.6201 49.3387 39.6501 48.8887 40.3401 48.8887C40.9501 48.8887 41.1301 49.4887 41.3901 49.9387C43.8401 54.1587 46.2801 58.3787 48.7201 62.5987H31.9601C34.4301 58.3387 36.8901 54.0687 39.3601 49.7887ZM53.8201 75.0987C49.7601 77.5587 45.7101 80.0387 41.6801 82.5487C40.6801 83.1687 39.9001 83.1287 38.8801 82.4887C34.9601 79.9887 30.9801 77.5887 27.0101 75.1887C25.8601 74.4987 25.3601 73.8987 26.2301 72.4287C26.8701 71.3387 27.5001 70.2387 28.1401 69.1487H52.5301C53.2001 70.2887 53.8601 71.4387 54.5301 72.5787C55.3201 73.9087 54.8601 74.4687 53.8201 75.0987Z" fill="#1D2121"/>
<path d="M157.971 73.7603C158.001 73.1503 157.841 72.6303 157.491 72.1803C157.141 71.7403 156.711 71.5103 156.211 71.5103C156.721 71.5103 157.161 71.3003 157.551 70.8803C157.941 70.4403 158.151 69.9003 158.181 69.2703L158.491 62.5403C158.551 61.3503 157.631 60.2903 156.541 60.2903H137.721C136.831 60.2903 136.131 61.0203 136.081 62.0003L135.951 64.7803H154.641L154.541 67.0303C154.511 67.6603 154.301 68.2003 153.911 68.6403C153.521 69.0603 153.071 69.2703 152.571 69.2703H135.751L135.221 80.5703C135.171 81.7203 136.051 82.7403 137.101 82.7403H157.551L157.971 73.7603ZM152.361 73.7603C152.871 73.7603 153.291 73.9803 153.641 74.4303C153.991 74.8703 154.151 75.4003 154.121 76.0103L154.021 78.2603H139.071L139.281 73.7703H152.361V73.7603Z" fill="#1D2121"/>
<path d="M422.381 71.5003C422.371 70.3203 421.461 69.2703 420.451 69.2703H406.381L406.331 64.7803H418.801C419.751 64.7803 420.571 64.3503 421.251 63.4803C421.931 62.6103 422.271 61.5503 422.261 60.2903H404.281C403.421 60.2903 402.791 61.0403 402.801 62.0403L402.901 71.4003C402.911 72.6503 403.871 73.0403 404.941 73.0403H418.901L418.951 78.2503H406.481C405.511 78.2503 404.691 78.6903 404.001 79.5803C403.331 80.4503 403.011 81.5003 403.021 82.7403H422.501L422.381 71.5003Z" fill="#1D2121"/>
<path d="M281.581 71.5003C281.571 70.3203 280.661 69.2703 279.651 69.2703H265.581L265.531 64.7803H278.001C278.951 64.7803 279.771 64.3503 280.451 63.4803C281.131 62.6103 281.471 61.5503 281.461 60.2903H263.481C262.621 60.2903 261.991 61.0403 262.001 62.0403L262.101 71.4003C262.111 72.6503 263.071 73.0403 264.141 73.0403H278.101L278.151 78.2503H265.681C264.711 78.2503 263.891 78.6903 263.201 79.5803C262.531 80.4503 262.211 81.5003 262.221 82.7403H281.701L281.581 71.5003Z" fill="#1D2121"/>
<path d="M183.511 60.2902H168.761C165.621 60.2602 164.871 64.5802 164.871 64.5802L160.291 82.7202H164.771L169.151 65.8902C169.351 65.1302 169.941 64.5902 170.681 64.5802C170.691 64.5802 170.691 64.5802 170.701 64.5802H179.621L179.651 69.4902H173.501C172.601 69.4902 171.941 69.9202 171.521 70.7902C171.101 71.6802 171.041 72.7402 171.311 73.9802H179.671L179.721 82.7202H183.611L183.511 60.2902Z" fill="#1D2121"/>
<path d="M322.851 60.2902H309.181C306.271 60.2602 305.391 64.6702 305.391 64.6702L300.351 83.1802H304.501L309.301 66.0102C309.521 65.2402 310.091 64.6802 310.781 64.6702H310.791H319.201L319.161 69.6802H313.161C312.331 69.6802 311.701 70.1202 311.271 71.0002C310.851 71.9102 310.741 72.9902 310.941 74.2602H319.161L319.191 83.1702H322.841V60.2902H322.851Z" fill="#1D2121"/>
<path d="M235.531 78.8803H227.601V60.2803H223.201V79.7403C223.201 80.6403 223.481 81.3603 224.051 81.9003C224.611 82.4503 225.361 82.7203 226.301 82.7203H239.731L239.561 81.9003C239.181 80.1603 237.501 78.8803 235.531 78.8803Z" fill="#1D2121"/>
<path d="M258.631 78.8803H246.001V73.1703H257.671V69.3203H246.001V64.1303H258.631V60.2803H241.601V79.7103C241.601 80.6103 241.891 81.3403 242.461 81.8903C243.031 82.4503 243.781 82.7203 244.691 82.7203H258.631V78.8803Z" fill="#1D2121"/>
<path d="M295.421 64.1303H301.641C302.161 64.1303 302.621 63.8403 302.801 63.4003L304.081 60.2803H283.931V64.1303H291.011V82.7303H295.411V64.1303H295.421Z" fill="#1D2121"/>
<path d="M212.031 64.1303H218.251C218.771 64.1303 219.231 63.8403 219.411 63.4003L220.691 60.2803H200.541V64.1303H207.621V82.7303H212.021V64.1303H212.031Z" fill="#1D2121"/>
<path d="M198.101 64.1303H204.321C204.841 64.1303 205.301 63.8403 205.481 63.4003L206.761 60.2803H186.611V64.1303H193.691V82.7303H198.091V64.1303H198.101Z" fill="#1D2121"/>
<path d="M336.861 64.1303H343.081C343.601 64.1303 344.061 63.8403 344.241 63.4003L345.521 60.2803H325.371V64.1303H332.451V82.7303H336.851V64.1303H336.861Z" fill="#1D2121"/>
<path d="M352.781 60.2903H348.381V82.7303H352.781V60.2903Z" fill="#1D2121"/>
<path d="M372.761 82.1703C374.051 81.4503 375.051 80.4503 375.761 79.1603C376.471 77.8703 376.831 76.3703 376.831 74.6603V68.8903C376.831 67.1803 376.471 65.6803 375.761 64.3903C375.051 63.1003 374.051 62.0903 372.761 61.3803C371.471 60.6603 369.991 60.3103 368.311 60.3103H364.931C363.251 60.3103 361.771 60.6703 360.481 61.3803C359.191 62.1003 358.191 63.1003 357.481 64.3903C356.771 65.6803 356.411 67.1903 356.411 68.8903V74.6603C356.411 76.3703 356.771 77.8703 357.481 79.1603C358.191 80.4503 359.191 81.4603 360.481 82.1703C361.771 82.8903 363.251 83.2403 364.931 83.2403H368.311C369.991 83.2403 371.481 82.8803 372.761 82.1703ZM360.821 69.0703C360.821 67.6203 361.201 66.4403 361.951 65.5403C362.701 64.6403 363.701 64.1903 364.931 64.1903H368.311C369.541 64.1903 370.541 64.6403 371.291 65.5403C372.041 66.4403 372.421 67.6103 372.421 69.0703V74.4603C372.421 75.9103 372.041 77.0903 371.291 77.9903C370.541 78.8903 369.541 79.3403 368.311 79.3403H364.931C363.701 79.3403 362.701 78.8903 361.951 77.9903C361.201 77.0903 360.821 75.9203 360.821 74.4603V69.0703Z" fill="#1D2121"/>
<path d="M399.101 60.2903H394.791V75.5503L384.071 60.2903H380.151V82.7303H384.451V67.4703L395.171 82.7303H399.101V60.2903Z" fill="#1D2121"/>
<path d="M175.201 48.5602V11.5302H151.031C145.881 11.4702 144.321 18.6202 144.321 18.6202L135.411 48.5702H142.741L151.231 20.7802C151.611 19.5302 152.621 18.6302 153.851 18.6202C153.861 18.6202 153.871 18.6202 153.881 18.6202H168.761L168.691 26.7302H158.081C156.611 26.7302 155.491 27.4402 154.731 28.8702C153.981 30.3402 153.781 32.0902 154.151 34.1402H168.691L168.741 48.5702H175.201V48.5602Z" fill="#1D2121"/>
<path d="M281.351 48.5602V11.5302H257.181C252.031 11.4702 250.471 18.6202 250.471 18.6202L241.561 48.5702H248.891L257.381 20.7802C257.761 19.5302 258.771 18.6302 260.001 18.6202C260.011 18.6202 260.021 18.6202 260.031 18.6202H274.911L274.841 26.7302H264.231C262.761 26.7302 261.641 27.4402 260.881 28.8702C260.131 30.3402 259.931 32.0902 260.301 34.1402H274.841L274.891 48.5702H281.351V48.5602Z" fill="#1D2121"/>
<path d="M180.481 43.5802C180.481 45.0602 180.961 46.2602 181.921 47.1802C182.881 48.1002 184.121 48.5602 185.641 48.5602H198.451C203.061 48.5602 206.551 47.3902 208.921 45.0402C211.291 42.6902 212.481 39.2402 212.481 34.6902V24.3102C212.481 21.7702 211.891 19.5302 210.701 17.5802C209.511 15.6402 207.851 14.1402 205.701 13.0802C203.561 12.0202 201.071 11.4902 198.231 11.4902H180.481V43.5802ZM205.151 24.6202V34.3602C205.151 36.9002 204.571 38.8302 203.401 40.1302C202.231 41.4402 200.511 42.0902 198.241 42.0902H187.821V17.9502H198.031C200.161 17.9502 201.871 18.5602 203.191 19.7802C204.491 21.0002 205.151 22.6102 205.151 24.6202Z" fill="#1D2121"/>
<path d="M225.931 45.1702C226.821 47.4302 228.291 48.5602 230.341 48.5602H233.801L248.101 11.4902H240.501L230.671 39.2902H230.561L220.771 11.4902H213.121L225.931 45.1702Z" fill="#1D2121"/>
<path d="M286.181 48.5602H293.361V23.3502L311.221 48.5602H317.761V11.4902H310.581V36.7002L292.721 11.4902H286.181V48.5602Z" fill="#1D2121"/>
<path d="M328.571 12.9902C326.461 14.1402 324.831 15.7802 323.681 17.8902C322.531 20.0002 321.951 22.4402 321.951 25.2002V34.8502C321.951 37.6102 322.521 40.0502 323.651 42.1602C324.781 44.2702 326.391 45.9102 328.461 47.0602C330.531 48.2102 332.931 48.7902 335.661 48.7902H341.401C344.091 48.7902 346.471 48.2102 348.521 47.0302C350.581 45.8602 352.171 44.2002 353.301 42.0502C354.431 39.9002 355.001 37.4102 355.001 34.5802H347.771C347.771 36.9202 347.181 38.8102 345.991 40.2402C344.801 41.6702 343.271 42.3902 341.391 42.3902H335.651C333.741 42.3902 332.191 41.6702 331.031 40.2102C329.861 38.7602 329.281 36.8602 329.281 34.5202V25.5002C329.281 23.1602 329.881 21.2602 331.091 19.8102C332.291 18.3602 333.891 17.6302 335.871 17.6302H341.501C343.341 17.6302 344.831 18.2702 345.971 19.5402C347.101 20.8202 347.671 22.5002 347.671 24.6002H354.901C354.901 21.9402 354.341 19.6102 353.231 17.6002C352.111 15.5902 350.551 14.0302 348.531 12.9102C346.511 11.7902 344.171 11.2302 341.511 11.2302H335.881C333.121 11.2602 330.681 11.8402 328.571 12.9902Z" fill="#1D2121"/>
<path d="M358.261 43.5802C358.261 45.0602 358.741 46.2602 359.701 47.1802C360.661 48.1002 361.901 48.5602 363.421 48.5602H386.651V42.2002H365.601V32.7702H385.061V26.4102H365.601V17.8302H386.651V11.4702H358.261V43.5802Z" fill="#1D2121"/>
<path d="M390.311 43.5802C390.311 45.0602 390.791 46.2602 391.751 47.1802C392.711 48.1002 393.951 48.5602 395.471 48.5602H408.281C412.891 48.5602 416.381 47.3902 418.751 45.0402C421.121 42.6902 422.311 39.2402 422.311 34.6902V24.3102C422.311 21.7702 421.721 19.5302 420.531 17.5802C419.341 15.6402 417.681 14.1402 415.531 13.0802C413.391 12.0202 410.901 11.4902 408.061 11.4902H390.311V43.5802ZM414.971 24.6202V34.3602C414.971 36.9002 414.391 38.8302 413.221 40.1302C412.051 41.4402 410.331 42.0902 408.061 42.0902H397.641V17.9502H407.851C409.981 17.9502 411.691 18.5602 413.011 19.7802C414.321 21.0002 414.971 22.6102 414.971 24.6202Z" fill="#1D2121"/>
<path d="M425.577 7.23022C425.65 7.23022 425.687 7.26689 425.687 7.34022V7.80223C425.687 7.87556 425.65 7.91223 425.577 7.91223H423.784C423.754 7.91223 423.74 7.92689 423.74 7.95623V12.6202C423.74 12.6936 423.703 12.7302 423.63 12.7302H423.069C422.995 12.7302 422.959 12.6936 422.959 12.6202V7.95623C422.959 7.92689 422.944 7.91223 422.915 7.91223H421.188C421.114 7.91223 421.078 7.87556 421.078 7.80223V7.34022C421.078 7.26689 421.114 7.23022 421.188 7.23022H425.577Z" fill="#1D2121"/>
<path d="M431.199 7.30722C431.235 7.25589 431.279 7.23022 431.331 7.23022H431.903C431.976 7.23022 432.013 7.26689 432.013 7.34022V12.6202C432.013 12.6936 431.976 12.7302 431.903 12.7302H431.342C431.268 12.7302 431.232 12.6936 431.232 12.6202V8.83623C431.232 8.81422 431.224 8.79956 431.21 8.79222C431.195 8.78489 431.184 8.79222 431.177 8.81422L429.714 11.3552C429.677 11.4066 429.633 11.4322 429.582 11.4322H429.461C429.409 11.4322 429.365 11.4066 429.329 11.3552L427.855 8.82523C427.847 8.80322 427.836 8.79589 427.822 8.80322C427.807 8.81056 427.8 8.82522 427.8 8.84722V12.6202C427.8 12.6936 427.763 12.7302 427.69 12.7302H427.129C427.055 12.7302 427.019 12.6936 427.019 12.6202V7.34022C427.019 7.26689 427.055 7.23022 427.129 7.23022H427.701C427.752 7.23022 427.796 7.25589 427.833 7.30722L429.494 10.1342C429.501 10.1416 429.512 10.1452 429.527 10.1452C429.541 10.1452 429.552 10.1416 429.56 10.1342L431.199 7.30722Z" fill="#1D2121"/>
</g>
<defs>
<clipPath id="clip0">
<rect width="432" height="94" fill="white" transform="translate(0.0776367 0.230225)"/>
</clipPath>
</defs>
</svg>
