<svg width="145" height="129" viewBox="0 0 145 129" fill="none" xmlns="http://www.w3.org/2000/svg">
<g clip-path="url(#clip0)">
<path d="M50.2782 125.252L50.2849 107.105H79.8657C80.7606 107.105 81.5354 106.764 82.1832 106.09C82.8311 105.375 83.145 104.514 83.1316 103.498L83.0849 99.8918H50.2114L50.1513 95.4236C50.1313 93.8541 51.0463 92.6853 52.6225 92.6853H86.2106C88.1408 92.6853 89.8706 94.3817 89.8973 96.2986L89.8038 107.105C89.8172 108.12 89.4966 108.982 88.8554 109.696C88.2076 110.371 87.4328 110.712 86.5379 110.712C87.4328 110.712 88.2143 111.072 88.8821 111.78C89.5434 112.495 89.884 113.336 89.8973 114.312L89.8172 128.731H53.8314C51.968 128.731 50.2983 127.102 50.2782 125.252ZM83.3654 121.525L83.3186 117.918C83.3053 116.943 82.9647 116.095 82.3034 115.387C81.6356 114.672 80.8541 114.318 79.9592 114.318H56.7634L56.8569 121.525H83.3654Z" fill="white"/>
<path d="M96.5563 128.731C96.2824 126.741 96.6898 125.058 97.7785 123.669C98.8939 122.246 100.363 121.532 102.193 121.532H129.33L127.687 114.332H100.37C98.3462 114.332 96.3158 112.555 96.042 110.551L96.0487 95.544C96.0487 93.9077 97.0038 92.7322 98.4998 92.7322H129.383C129.657 94.7559 129.897 96.4657 128.775 97.8549C127.653 99.2441 125.543 99.9387 123.746 99.9387H102.18L102.2 107.139H130.378C132.288 107.139 134.212 108.815 134.466 110.712L138.246 128.738H96.5563V128.731Z" fill="white"/>
<path d="M18.1128 92.733C12.5493 92.6795 10.8662 99.6189 10.8662 99.6189L1.23523 128.705H9.15638L18.3332 101.716C18.7473 100.501 19.8359 99.6256 21.1583 99.6189C21.165 99.6189 21.1784 99.6189 21.185 99.6189H37.2611L37.1876 107.493H25.7267C24.1371 107.493 22.9282 108.188 22.1134 109.577C21.3053 111 21.0915 112.71 21.4789 114.7H37.1876L37.2411 128.712H44.2205V92.7396H18.1128V92.733Z" fill="white"/>
<path d="M103.044 57.4407C103.044 60.0558 102.251 61.4223 100.623 61.4561C99.1047 61.4898 98.2443 59.9883 97.89 59.3809C93.1154 51.1899 88.6952 43.4798 83.929 35.2804L70.4236 12.1499C70.1452 11.416 69.8331 11.416 69.4957 12.1077C60.3599 27.8655 51.241 43.6316 42.0631 59.364C41.5991 60.157 40.9918 61.5067 39.3046 61.4561C37.7525 61.4139 36.8836 60.0642 36.9342 57.5335V20.7964C36.9258 19.6829 37.1114 18.6875 38.1827 18.038L59.9803 4.69282C60.1659 4.58316 60.3852 4.79405 60.2671 4.97963C57.863 8.77566 56.6736 12.8501 51.7387 15.9122C47.3438 18.6369 48.0524 18.2236 43.6152 20.9229C42.6367 21.5219 41.9365 22.0955 41.9365 23.5464C41.9365 31.5181 41.9112 40.2911 41.9365 48.2712C41.945 49.4185 42.4511 48.5159 42.4511 48.5159C50.718 34.1922 60.6383 16.587 68.8462 2.22119C69.909 0.365352 70.2802 0.787133 71.1575 2.30554L97.2742 48.1362C97.7887 49.0304 98.0924 48.9039 98.1262 48.7352V23.8164C98.143 22.3907 97.5694 21.6062 96.4391 20.9314C91.9176 18.2236 92.8455 18.6032 88.3156 15.9122C85.8186 14.4275 81.12 7.34161 79.7787 5.02181C79.6522 4.81092 79.8968 4.56629 80.1077 4.70126L101.357 17.6077C102.715 18.367 103.061 19.5226 103.053 21.1591L103.044 57.4407Z" fill="#FD6120"/>
<path d="M70.9298 28.9705C70.3393 27.6967 69.7235 27.6546 68.998 29.0127L49.6636 62.5358C49.6636 62.5358 48.9887 63.5987 49.8154 64.147L68.6606 75.6701C69.7151 76.3955 70.2634 76.3196 71.3178 75.611C77.6614 71.3679 83.3976 68.1624 89.9268 64.1977C90.9475 63.5819 90.5679 63.0167 90.1208 62.2575L70.9298 28.9705ZM69.2258 41.1094C69.4451 40.7298 69.4704 40.3502 70.0525 40.3502C70.567 40.3502 70.7189 40.8563 70.9382 41.2359C73.0049 44.7957 75.0632 48.3556 77.1215 51.9154H62.9834C65.067 48.3218 67.1422 44.7198 69.2258 41.1094ZM81.4237 62.4599C77.9988 64.5351 74.5824 66.6271 71.1828 68.7444C70.3393 69.2675 69.6813 69.2337 68.8209 68.6938C65.5141 66.5849 62.1567 64.5604 58.8078 62.5358C57.8377 61.9538 57.4159 61.4476 58.1498 60.2076C58.6897 59.2881 59.2211 58.3602 59.761 57.4407H80.3355C80.9007 58.4024 81.4574 59.3725 82.0226 60.3341C82.689 61.4561 82.301 61.9285 81.4237 62.4599Z" fill="#FD6120"/>
<path d="M138.431 92.991C138.504 92.991 138.541 93.0276 138.541 93.101V93.563C138.541 93.6363 138.504 93.673 138.431 93.673H136.638C136.609 93.673 136.594 93.6876 136.594 93.717V98.381C136.594 98.4543 136.557 98.491 136.484 98.491H135.923C135.85 98.491 135.813 98.4543 135.813 98.381V93.717C135.813 93.6876 135.798 93.673 135.769 93.673H134.042C133.969 93.673 133.932 93.6363 133.932 93.563V93.101C133.932 93.0276 133.969 92.991 134.042 92.991H138.431Z" fill="white"/>
<path d="M144.053 93.068C144.09 93.0166 144.134 92.991 144.185 92.991H144.757C144.83 92.991 144.867 93.0276 144.867 93.101V98.381C144.867 98.4543 144.83 98.491 144.757 98.491H144.196C144.123 98.491 144.086 98.4543 144.086 98.381V94.597C144.086 94.575 144.079 94.5603 144.064 94.553C144.049 94.5456 144.038 94.553 144.031 94.575L142.568 97.116C142.531 97.1673 142.487 97.193 142.436 97.193H142.315C142.264 97.193 142.22 97.1673 142.183 97.116L140.709 94.586C140.702 94.564 140.691 94.5566 140.676 94.564C140.661 94.5713 140.654 94.586 140.654 94.608V98.381C140.654 98.4543 140.617 98.491 140.544 98.491H139.983C139.91 98.491 139.873 98.4543 139.873 98.381V93.101C139.873 93.0276 139.91 92.991 139.983 92.991H140.555C140.606 92.991 140.65 93.0166 140.687 93.068L142.348 95.895C142.355 95.9023 142.366 95.906 142.381 95.906C142.396 95.906 142.407 95.9023 142.414 95.895L144.053 93.068Z" fill="white"/>
</g>
<defs>
<clipPath id="clip0">
<rect width="144" height="128" fill="white" transform="translate(0.932129 0.990967)"/>
</clipPath>
</defs>
</svg>
