<svg width="51" height="51" viewBox="0 0 51 51" fill="none" xmlns="http://www.w3.org/2000/svg">
<path d="M17.8106 5.48112H18.2955C18.2955 5.31916 18.2147 5.16788 18.08 5.07791C17.9453 4.98794 17.7746 4.97115 17.625 5.03316L17.8106 5.48112ZM9.16393 9.06444L8.97829 8.61648L9.16393 9.06444ZM8.77623 39.403L9.06803 39.0158H9.06803L8.77623 39.403ZM17.8106 46.2103L17.5188 46.5976C17.6657 46.7082 17.8625 46.7263 18.027 46.6442C18.1915 46.5622 18.2955 46.3941 18.2955 46.2103H17.8106ZM42.6023 12.1639C42.8701 12.1639 43.0872 11.9468 43.0872 11.679C43.0872 11.4112 42.8701 11.1941 42.6023 11.1941V12.1639ZM24.894 11.1941C24.6262 11.1941 24.4091 11.4112 24.4091 11.679C24.4091 11.9468 24.6262 12.1639 24.894 12.1639V11.1941ZM35.519 16.591C35.7868 16.591 36.0039 16.3739 36.0039 16.1061C36.0039 15.8383 35.7868 15.6212 35.519 15.6212V16.591ZM17.8106 15.6212C17.5428 15.6212 17.3257 15.8383 17.3257 16.1061C17.3257 16.3739 17.5428 16.591 17.8106 16.591V15.6212ZM42.6023 21.0181C42.8701 21.0181 43.0872 20.801 43.0872 20.5332C43.0872 20.2654 42.8701 20.0483 42.6023 20.0483V21.0181ZM24.894 20.0483C24.6262 20.0483 24.4091 20.2654 24.4091 20.5332C24.4091 20.801 24.6262 21.0181 24.894 21.0181V20.0483ZM31.5768 35.5853C31.5768 35.3175 31.3597 35.1004 31.0919 35.1004C30.8241 35.1004 30.607 35.3175 30.607 35.5853H31.5768ZM30.607 37.3561C30.607 37.6239 30.8241 37.841 31.0919 37.841C31.3597 37.841 31.5768 37.6239 31.5768 37.3561H30.607ZM18.696 5.08061H41.7169V4.1108H18.696V5.08061ZM43.0028 6.36654V45.3249H43.9726V6.36654H43.0028ZM41.7169 46.6108H18.696V47.5806H41.7169V46.6108ZM17.4101 45.3249V6.36653H16.4403V45.3249H17.4101ZM18.696 46.6108C17.9858 46.6108 17.4101 46.0351 17.4101 45.3249H16.4403C16.4403 46.5707 17.4502 47.5806 18.696 47.5806V46.6108ZM43.0028 45.3249C43.0028 46.0351 42.4271 46.6108 41.7169 46.6108V47.5806C42.9627 47.5806 43.9726 46.5707 43.9726 45.3249H43.0028ZM41.7169 5.08061C42.4271 5.08061 43.0028 5.65634 43.0028 6.36654H43.9726C43.9726 5.12073 42.9627 4.1108 41.7169 4.1108V5.08061ZM18.696 4.1108C17.4502 4.1108 16.4403 5.12072 16.4403 6.36653H17.4101C17.4101 5.65634 17.9858 5.08061 18.696 5.08061V4.1108ZM17.625 5.03316L8.97829 8.61648L9.34957 9.5124L17.9963 5.92908L17.625 5.03316ZM7.58614 10.7004V37.9887H8.55595V10.7004H7.58614ZM8.48443 39.7903L17.5188 46.5976L18.1024 45.823L9.06803 39.0158L8.48443 39.7903ZM18.2955 46.2103V5.48112H17.3257V46.2103H18.2955ZM7.58614 37.9887C7.58614 38.697 7.91878 39.3641 8.48443 39.7903L9.06803 39.0158C8.74558 38.7728 8.55595 38.3925 8.55595 37.9887H7.58614ZM8.97829 8.61648C8.13556 8.96571 7.58614 9.78814 7.58614 10.7004H8.55595C8.55595 10.1803 8.86916 9.71149 9.34957 9.5124L8.97829 8.61648ZM42.6023 11.1941H24.894V12.1639H42.6023V11.1941ZM35.519 15.6212H17.8106V16.591H35.519V15.6212ZM42.6023 20.0483H24.894V21.0181H42.6023V20.0483ZM30.607 35.5853V37.3561H31.5768V35.5853H30.607Z" fill="black"/>
</svg>
