<svg width="252" height="86" viewBox="0 0 252 86" fill="none" xmlns="http://www.w3.org/2000/svg">
<path d="M74.3765 64.0787C74.3765 67.0195 73.4848 68.5564 71.6539 68.5943C69.9463 68.6323 68.9786 66.9436 68.5802 66.2606C63.2108 57.049 58.2397 48.3782 52.8798 39.1572L37.6916 13.1448C37.3786 12.3194 37.0276 12.3194 36.6481 13.0973C26.374 30.8184 16.119 48.549 5.79747 66.2416C5.2757 67.1334 4.59266 68.6512 2.69533 68.5943C0.949783 68.5469 -0.0273428 67.029 0.0295772 64.183V22.8686C0.0200905 21.6164 0.228797 20.4969 1.4336 19.7665L25.9471 4.75855C26.1558 4.63523 26.4025 4.87239 26.2697 5.0811C23.566 9.3501 22.2284 13.9322 16.6787 17.3758C11.7361 20.44 12.533 19.9752 7.54301 23.0109C6.44256 23.6844 5.65517 24.3295 5.65517 25.9612C5.65517 34.9261 5.62671 44.7923 5.65517 53.7667C5.66465 55.0568 6.23385 54.0418 6.23385 54.0418C15.5308 37.9334 26.6871 18.1347 35.9176 1.97896C37.1129 -0.108105 37.5304 0.366228 38.517 2.07383L67.8877 53.6149C68.4664 54.6205 68.8079 54.4782 68.8458 54.2884V26.2648C68.8648 24.6616 68.2197 23.7793 66.9485 23.0204C61.8636 19.9752 62.9072 20.4021 57.8128 17.3758C55.0048 15.7062 49.7207 7.73737 48.2123 5.12853C48.07 4.89137 48.3451 4.61625 48.5823 4.76804L72.4792 19.2826C74.0066 20.1364 74.3955 21.4361 74.386 23.2765L74.3765 64.0787Z" fill="#FD6120"/>
<path d="M38.2609 32.0611C37.5968 30.6286 36.9043 30.5812 36.0884 32.1085L14.345 69.8085C14.345 69.8085 13.586 71.0038 14.5157 71.6205L35.7089 84.5792C36.8948 85.3951 37.5114 85.3097 38.6972 84.5128C45.8312 79.741 52.2821 76.1361 59.6248 71.6774C60.7727 70.9849 60.3458 70.3492 59.843 69.4954L38.2609 32.0611ZM36.3446 45.7124C36.5912 45.2855 36.6197 44.8586 37.2742 44.8586C37.8529 44.8586 38.0237 45.4278 38.2703 45.8547C40.5946 49.8581 42.9093 53.8614 45.2241 57.8648H29.3244C31.6676 53.8235 34.0013 49.7727 36.3446 45.7124ZM50.0623 69.7231C46.2107 72.0568 42.3686 74.4095 38.5455 76.7907C37.5968 77.3789 36.8568 77.3409 35.8892 76.7338C32.1704 74.3621 28.3947 72.0853 24.6285 69.8085C23.5376 69.1539 23.0632 68.5847 23.8886 67.1902C24.4957 66.1561 25.0934 65.1126 25.7005 64.0786H48.8385C49.4741 65.16 50.1002 66.251 50.7358 67.3325C51.4853 68.5942 51.0489 69.1255 50.0623 69.7231Z" fill="#FD6120"/>
<path d="M152.914 58.7279L152.922 38.3203H186.188C187.195 38.3203 188.066 37.9373 188.795 37.1787C189.523 36.375 189.876 35.4061 189.861 34.2644L189.809 30.2084H152.832L152.764 25.1835C152.742 23.4184 153.771 22.104 155.543 22.104H193.316C195.487 22.104 197.432 24.0118 197.462 26.1675L197.357 38.3203C197.372 39.462 197.012 40.4309 196.291 41.2346C195.562 41.9932 194.691 42.3763 193.684 42.3763C194.691 42.3763 195.57 42.7819 196.321 43.5781C197.064 44.3818 197.447 45.3281 197.462 46.4248L197.372 62.6411H156.895C154.815 62.6411 152.937 60.8084 152.914 58.7279ZM190.124 54.5367L190.072 50.4807C190.057 49.3841 189.674 48.4302 188.93 47.634C188.179 46.8304 187.3 46.4323 186.294 46.4323H160.208L160.313 54.5367H190.124Z" fill="white"/>
<path d="M204.958 62.6408C204.651 60.4025 205.109 58.5097 206.333 56.9474C207.587 55.3475 209.24 54.5439 211.298 54.5439H241.815L239.967 46.447H209.247C206.971 46.447 204.688 44.449 204.38 42.1957L204.388 25.3184C204.388 23.4782 205.462 22.1562 207.144 22.1562H241.875C242.183 24.4321 242.454 26.3549 241.192 27.9172C239.93 29.4795 237.556 30.2607 235.536 30.2607H211.283L211.305 38.3576H242.994C245.143 38.3576 247.306 40.2428 247.591 42.376L251.842 62.6483H204.958V62.6408Z" fill="white"/>
<path d="M116.741 22.1571C110.485 22.097 108.592 29.901 108.592 29.901L97.7609 62.6116H106.669L116.989 32.2594C117.455 30.8924 118.679 29.9085 120.166 29.901C120.174 29.901 120.189 29.901 120.196 29.901H138.275L138.193 38.7565H125.304C123.516 38.7565 122.157 39.5376 121.24 41.0999C120.332 42.6998 120.091 44.6226 120.527 46.8609H138.193L138.253 62.6191H146.102V22.1571H116.741Z" fill="white"/>
</svg>
