<svg width="51" height="51" viewBox="0 0 51 51" fill="none" xmlns="http://www.w3.org/2000/svg">
<g clip-path="url(#clip0)">
<path fill-rule="evenodd" clip-rule="evenodd" d="M50.3057 44.54H0.305664V7.04004H50.3057V44.54ZM48.7839 8.46491H1.8274V43.1152H48.7839V8.46491Z" fill="#242332"/>
<path fill-rule="evenodd" clip-rule="evenodd" d="M4.19153 39.7931C4.19153 40.1866 3.85088 40.5055 3.43066 40.5055H1.25675C0.836534 40.5055 0.495881 40.1866 0.495881 39.7931C0.495881 39.3996 0.836534 39.0807 1.25675 39.0807H3.43066C3.85088 39.0807 4.19153 39.3996 4.19153 39.7931Z" fill="#242332"/>
<path fill-rule="evenodd" clip-rule="evenodd" d="M4.19153 35.7926C4.19153 36.1861 3.85088 36.505 3.43066 36.505H1.25675C0.836534 36.505 0.495881 36.1861 0.495881 35.7926C0.495881 35.3991 0.836534 35.0802 1.25675 35.0802H3.43066C3.85088 35.0802 4.19153 35.3991 4.19153 35.7926Z" fill="#242332"/>
<path fill-rule="evenodd" clip-rule="evenodd" d="M4.19153 31.7921C4.19153 32.1856 3.85088 32.5046 3.43066 32.5046H1.25675C0.836534 32.5046 0.495881 32.1856 0.495881 31.7921C0.495881 31.3987 0.836534 31.0797 1.25675 31.0797H3.43066C3.85088 31.0797 4.19153 31.3987 4.19153 31.7921Z" fill="#242332"/>
<path fill-rule="evenodd" clip-rule="evenodd" d="M4.19153 15.7187C4.19153 16.1121 3.85088 16.4311 3.43066 16.4311H1.25675C0.836534 16.4311 0.495881 16.1121 0.495881 15.7187C0.495881 15.3252 0.836534 15.0062 1.25675 15.0062H3.43066C3.85088 15.0062 4.19153 15.3252 4.19153 15.7187Z" fill="#242332"/>
<path fill-rule="evenodd" clip-rule="evenodd" d="M4.19153 27.7917C4.19153 28.1851 3.85088 28.5041 3.43066 28.5041H1.25675C0.836534 28.5041 0.495881 28.1851 0.495881 27.7917C0.495881 27.3982 0.836534 27.0792 1.25675 27.0792H3.43066C3.85088 27.0792 4.19153 27.3982 4.19153 27.7917Z" fill="#242332"/>
<path fill-rule="evenodd" clip-rule="evenodd" d="M4.19153 11.7182C4.19153 12.1116 3.85088 12.4306 3.43066 12.4306H1.25675C0.836534 12.4306 0.495881 12.1116 0.495881 11.7182C0.495881 11.3247 0.836534 11.0057 1.25675 11.0057H3.43066C3.85088 11.0057 4.19153 11.3247 4.19153 11.7182Z" fill="#242332"/>
<path fill-rule="evenodd" clip-rule="evenodd" d="M14.402 12.7471C14.8222 12.7471 15.1629 13.066 15.1629 13.4595V21.6016C15.1629 21.9951 14.8222 22.314 14.402 22.314C13.9818 22.314 13.6411 21.9951 13.6411 21.6016V13.4595C13.6411 13.066 13.9818 12.7471 14.402 12.7471Z" fill="#242332"/>
<path fill-rule="evenodd" clip-rule="evenodd" d="M9.667 12.7471C10.0872 12.7471 10.4279 13.066 10.4279 13.4595V21.6016C10.4279 21.9951 10.0872 22.314 9.667 22.314C9.24678 22.314 8.90613 21.9951 8.90613 21.6016V13.4595C8.90613 13.066 9.24678 12.7471 9.667 12.7471Z" fill="#242332"/>
<path fill-rule="evenodd" clip-rule="evenodd" d="M19.137 12.7471C19.5572 12.7471 19.8979 13.066 19.8979 13.4595V25.6726C19.8979 26.0661 19.5572 26.3851 19.137 26.3851C18.7168 26.3851 18.3761 26.0661 18.3761 25.6726V13.4595C18.3761 13.066 18.7168 12.7471 19.137 12.7471Z" fill="#242332"/>
<path fill-rule="evenodd" clip-rule="evenodd" d="M43.6769 34.104C43.6769 34.4974 43.3362 34.8164 42.916 34.8164H29.8726C29.4523 34.8164 29.1117 34.4974 29.1117 34.104C29.1117 33.7105 29.4523 33.3915 29.8726 33.3915H42.916C43.3362 33.3915 43.6769 33.7105 43.6769 34.104Z" fill="#242332"/>
<path fill-rule="evenodd" clip-rule="evenodd" d="M43.6769 38.4642C43.6769 38.8577 43.3362 39.1767 42.916 39.1767H29.8726C29.4523 39.1767 29.1117 38.8577 29.1117 38.4642C29.1117 38.0708 29.4523 37.7518 29.8726 37.7518H42.916C43.3362 37.7518 43.6769 38.0708 43.6769 38.4642Z" fill="#242332"/>
<path d="M10.6318 30.2347H17.0584V33.3494H10.6318V30.2347Z" fill="#242332"/>
<path d="M10.6318 35.6283H17.0584V38.743H10.6318V35.6283Z" fill="#242332"/>
<g filter="url(#filter0_i)">
<rect x="30.1521" y="13.7998" width="12.5501" height="12.5501" rx="0.687316" fill="white"/>
</g>
<path fill-rule="evenodd" clip-rule="evenodd" d="M31.6103 15.2583V24.8918H41.2437V15.2583H31.6103ZM30.7795 13.8C30.4329 13.8 30.1519 14.0809 30.1519 14.4275V25.7226C30.1519 26.0692 30.4329 26.3501 30.7795 26.3501H42.0746C42.4211 26.3501 42.7021 26.0692 42.7021 25.7226V14.4275C42.7021 14.0809 42.4211 13.8 42.0746 13.8H30.7795Z" fill="#242332"/>
<path fill-rule="evenodd" clip-rule="evenodd" d="M45.2644 18.7097C45.2644 19.1124 44.9379 19.4389 44.5352 19.4389L42.4555 19.4389C42.0528 19.4389 41.7264 19.1124 41.7264 18.7097C41.7264 18.307 42.0528 17.9806 42.4555 17.9806H44.5352C44.9379 17.9806 45.2644 18.307 45.2644 18.7097Z" fill="#242332"/>
<path fill-rule="evenodd" clip-rule="evenodd" d="M31.584 18.7097C31.584 19.1124 31.2576 19.4389 30.8549 19.4389L28.7752 19.4389C28.3725 19.4389 28.046 19.1124 28.046 18.7097C28.046 18.307 28.3725 17.9806 28.7752 17.9806H30.8549C31.2576 17.9806 31.584 18.307 31.584 18.7097Z" fill="#242332"/>
<path fill-rule="evenodd" clip-rule="evenodd" d="M45.2644 21.4404C45.2644 21.8431 44.9379 22.1695 44.5352 22.1695H42.4555C42.0528 22.1695 41.7264 21.8431 41.7264 21.4404C41.7264 21.0377 42.0528 20.7112 42.4555 20.7112H44.5352C44.9379 20.7112 45.2644 21.0377 45.2644 21.4404Z" fill="#242332"/>
<path fill-rule="evenodd" clip-rule="evenodd" d="M31.584 21.4404C31.584 21.8431 31.2576 22.1695 30.8549 22.1695H28.7752C28.3725 22.1695 28.046 21.8431 28.046 21.4404C28.046 21.0377 28.3725 20.7112 28.7752 20.7112H30.8549C31.2576 20.7112 31.584 21.0377 31.584 21.4404Z" fill="#242332"/>
<path fill-rule="evenodd" clip-rule="evenodd" d="M34.68 11.6045C35.0827 11.6045 35.4091 11.931 35.4091 12.3337V14.417C35.4091 14.8197 35.0827 15.1462 34.68 15.1462C34.2772 15.1462 33.9508 14.8197 33.9508 14.417V12.3337C33.9508 11.931 34.2772 11.6045 34.68 11.6045Z" fill="#242332"/>
<path fill-rule="evenodd" clip-rule="evenodd" d="M34.68 25.1168C35.0827 25.1168 35.4091 25.4433 35.4091 25.846V27.9293C35.4091 28.3321 35.0827 28.6585 34.68 28.6585C34.2772 28.6585 33.9508 28.3321 33.9508 27.9293V25.846C33.9508 25.4433 34.2772 25.1168 34.68 25.1168Z" fill="#242332"/>
<path fill-rule="evenodd" clip-rule="evenodd" d="M38.4892 11.6046C38.8919 11.6046 39.2183 11.931 39.2183 12.3337V14.4171C39.2183 14.8198 38.8919 15.1462 38.4892 15.1462C38.0865 15.1462 37.76 14.8198 37.76 14.4171V12.3337C37.76 11.931 38.0865 11.6046 38.4892 11.6046Z" fill="#242332"/>
<path fill-rule="evenodd" clip-rule="evenodd" d="M38.4892 25.1169C38.8919 25.1169 39.2183 25.4434 39.2183 25.8461V27.9294C39.2183 28.3321 38.8919 28.6586 38.4892 28.6586C38.0865 28.6586 37.76 28.3321 37.76 27.9294V25.8461C37.76 25.4434 38.0865 25.1169 38.4892 25.1169Z" fill="#242332"/>
</g>
<defs>
<filter id="filter0_i" x="30.1521" y="13.7998" width="14.832" height="15.973" filterUnits="userSpaceOnUse" color-interpolation-filters="sRGB">
<feFlood flood-opacity="0" result="BackgroundImageFix"/>
<feBlend mode="normal" in="SourceGraphic" in2="BackgroundImageFix" result="shape"/>
<feColorMatrix in="SourceAlpha" type="matrix" values="0 0 0 0 0 0 0 0 0 0 0 0 0 0 0 0 0 0 127 0" result="hardAlpha"/>
<feOffset dx="2.2819" dy="3.42285"/>
<feGaussianBlur stdDeviation="1.71143"/>
<feComposite in2="hardAlpha" operator="arithmetic" k2="-1" k3="1"/>
<feColorMatrix type="matrix" values="0 0 0 0 0.141176 0 0 0 0 0.137255 0 0 0 0 0.196078 0 0 0 0.5 0"/>
<feBlend mode="normal" in2="shape" result="effect1_innerShadow"/>
</filter>
<clipPath id="clip0">
<rect width="50" height="50" fill="white" transform="translate(0.305664 0.845703)"/>
</clipPath>
</defs>
</svg>
