<svg width="667" height="367" viewBox="0 0 667 367" fill="none" xmlns="http://www.w3.org/2000/svg">
<rect width="667" height="367" fill="#F6F6F6"/>
<mask id="mask0_4009_5899" style="mask-type:luminance" maskUnits="userSpaceOnUse" x="53" y="57" width="257" height="56">
<path d="M310 57H53V112.921H310V57Z" fill="white"/>
</mask>
<g mask="url(#mask0_4009_5899)">
<path d="M117.615 58.1895H117.169V111.868H117.615V58.1895Z" fill="#1D2121"/>
<path d="M100.219 97.9997C100.219 99.8439 99.6601 100.808 98.5119 100.831C97.4411 100.855 96.8343 99.7963 96.5844 99.368C93.2173 93.5914 90.1 88.154 86.7387 82.3715L77.2143 66.0591C77.0179 65.5415 76.7978 65.5415 76.5599 66.0294C70.117 77.1422 63.6861 88.2611 57.2135 99.3561C56.8863 99.9153 56.458 100.867 55.2681 100.831C54.1735 100.802 53.5608 99.8499 53.5964 98.0651V72.1569C53.5905 71.3716 53.7214 70.6696 54.4769 70.2116L69.8493 60.8001C69.9802 60.7228 70.1349 60.8715 70.0516 61.0024C68.3561 63.6795 67.5173 66.5529 64.0371 68.7124C60.9376 70.6339 61.4373 70.3424 58.3081 72.2461C57.618 72.6685 57.1242 73.0731 57.1242 74.0963C57.1242 79.7182 57.1064 85.9052 57.1242 91.533C57.1302 92.3421 57.4871 91.7056 57.4871 91.7056C63.3172 81.604 70.3133 69.1883 76.1018 59.057C76.8514 57.7482 77.1131 58.0457 77.7318 59.1165L96.1502 91.4379C96.5131 92.0685 96.7272 91.9792 96.751 91.8602V74.2867C96.7629 73.2813 96.3584 72.728 95.5612 72.2521C92.3725 70.3424 93.0269 70.6102 89.8322 68.7124C88.0713 67.6654 84.7577 62.6681 83.8118 61.0321C83.7225 60.8834 83.8951 60.7109 84.0438 60.8061L99.0295 69.9082C99.9873 70.4436 100.231 71.2586 100.225 72.4127L100.219 97.9997Z" fill="#1D2121"/>
<path d="M77.5713 77.9224C77.1548 77.0241 76.7206 76.9943 76.2089 77.9521L62.5737 101.594C62.5737 101.594 62.0977 102.343 62.6807 102.73L75.971 110.856C76.7146 111.368 77.1013 111.315 77.8449 110.815C82.3186 107.822 86.364 105.562 90.9686 102.766C91.6884 102.331 91.4207 101.933 91.1054 101.397L77.5713 77.9224ZM76.3696 86.4831C76.5242 86.2154 76.5421 85.9477 76.9526 85.9477C77.3155 85.9477 77.4226 86.3046 77.5772 86.5723C79.0348 89.0828 80.4863 91.5934 81.9379 94.1039H71.9673C73.4367 91.5696 74.9001 89.0293 76.3696 86.4831ZM84.9719 101.54C82.5566 103.004 80.1472 104.479 77.7498 105.972C77.1548 106.341 76.6908 106.317 76.084 105.937C73.752 104.449 71.3842 103.022 69.0225 101.594C68.3383 101.183 68.0409 100.826 68.5584 99.9518C68.9392 99.3034 69.314 98.649 69.6947 98.0005H84.2045C84.6031 98.6787 84.9957 99.3628 85.3943 100.041C85.8643 100.832 85.5906 101.165 84.9719 101.54Z" fill="#1D2121"/>
<path d="M146.932 100.744C146.95 100.381 146.855 100.072 146.647 99.8039C146.438 99.5422 146.183 99.4053 145.885 99.4053C146.188 99.4053 146.45 99.2804 146.682 99.0305C146.914 98.7688 147.039 98.4475 147.057 98.0727L147.241 94.069C147.277 93.3611 146.73 92.7305 146.081 92.7305H134.885C134.356 92.7305 133.939 93.1648 133.91 93.7478L133.832 95.4016H144.951L144.892 96.7401C144.874 97.1149 144.749 97.4362 144.517 97.6979C144.285 97.9478 144.017 98.0727 143.72 98.0727H133.713L133.398 104.795C133.368 105.479 133.892 106.086 134.516 106.086H146.682L146.932 100.744ZM143.595 100.744C143.898 100.744 144.148 100.875 144.356 101.142C144.564 101.404 144.66 101.72 144.642 102.082L144.582 103.421H135.688L135.813 100.75H143.595V100.744Z" fill="#1D2121"/>
<path d="M304.231 99.3994C304.225 98.6974 303.684 98.0727 303.083 98.0727H294.713L294.683 95.4016H302.102C302.667 95.4016 303.155 95.1458 303.559 94.6282C303.964 94.1107 304.166 93.4801 304.16 92.7305H293.464C292.952 92.7305 292.577 93.1766 292.583 93.7716L292.643 99.3399C292.649 100.084 293.22 100.316 293.856 100.316H302.161L302.191 103.415H294.772C294.195 103.415 293.707 103.677 293.297 104.206C292.898 104.724 292.708 105.348 292.714 106.086H304.303L304.231 99.3994Z" fill="#1D2121"/>
<path d="M220.468 99.3994C220.462 98.6974 219.921 98.0727 219.32 98.0727H210.95L210.92 95.4016H218.339C218.904 95.4016 219.392 95.1458 219.796 94.6282C220.201 94.1107 220.403 93.4801 220.397 92.7305H209.701C209.189 92.7305 208.814 93.1766 208.82 93.7716L208.88 99.3399C208.886 100.084 209.457 100.316 210.093 100.316H218.398L218.428 103.415H211.009C210.432 103.415 209.945 103.677 209.534 104.206C209.135 104.724 208.945 105.348 208.951 106.086H220.54L220.468 99.3994Z" fill="#1D2121"/>
<path d="M162.126 92.7296H153.351C151.483 92.7117 151.037 95.2817 151.037 95.2817L148.312 106.073H150.977L153.583 96.0611C153.702 95.6089 154.053 95.2877 154.493 95.2817C154.499 95.2817 154.499 95.2817 154.505 95.2817H159.812L159.83 98.2027H156.171C155.636 98.2027 155.243 98.4585 154.993 98.9761C154.743 99.5056 154.708 100.136 154.868 100.874H159.842L159.871 106.073H162.185L162.126 92.7296Z" fill="#1D2121"/>
<path d="M245.02 92.7296H236.888C235.157 92.7117 234.633 95.3353 234.633 95.3353L231.635 106.347H234.104L236.959 96.1325C237.09 95.6744 237.429 95.3412 237.84 95.3353H237.846H242.849L242.825 98.3158H239.256C238.762 98.3158 238.387 98.5775 238.131 99.101C237.882 99.6424 237.816 100.285 237.935 101.04H242.825L242.843 106.341H245.014V92.7296H245.02Z" fill="#1D2121"/>
<path d="M193.073 103.789H188.355V92.7236H185.738V104.301C185.738 104.836 185.904 105.264 186.243 105.586C186.577 105.913 187.023 106.073 187.582 106.073H195.572L195.47 105.586C195.244 104.55 194.245 103.789 193.073 103.789Z" fill="#1D2121"/>
<path d="M206.815 103.789H199.302V100.392H206.244V98.1016H199.302V95.014H206.815V92.7236H196.684V104.283C196.684 104.818 196.857 105.252 197.196 105.58C197.535 105.913 197.981 106.073 198.522 106.073H206.815V103.789Z" fill="#1D2121"/>
<path d="M228.702 95.014H232.402C232.712 95.014 232.985 94.8415 233.092 94.5797L233.854 92.7236H221.866V95.014H226.078V106.079H228.696V95.014H228.702Z" fill="#1D2121"/>
<path d="M179.093 95.014H182.793C183.102 95.014 183.376 94.8415 183.483 94.5797L184.245 92.7236H172.257V95.014H176.469V106.079H179.087V95.014H179.093Z" fill="#1D2121"/>
<path d="M170.806 95.014H174.506C174.815 95.014 175.089 94.8415 175.196 94.5797L175.958 92.7236H163.97V95.014H168.182V106.079H170.8V95.014H170.806Z" fill="#1D2121"/>
<path d="M253.355 95.014H257.055C257.365 95.014 257.638 94.8415 257.745 94.5797L258.507 92.7236H246.52V95.014H250.731V106.079H253.349V95.014H253.355Z" fill="#1D2121"/>
<path d="M262.826 92.7305H260.208V106.08H262.826V92.7305Z" fill="#1D2121"/>
<path d="M274.712 105.747C275.48 105.319 276.074 104.724 276.497 103.956C276.919 103.189 277.133 102.296 277.133 101.279V97.8465C277.133 96.8292 276.919 95.9368 276.497 95.1694C276.074 94.402 275.48 93.8011 274.712 93.3787C273.945 92.9504 273.064 92.7422 272.065 92.7422H270.054C269.055 92.7422 268.174 92.9564 267.407 93.3787C266.639 93.8071 266.044 94.402 265.622 95.1694C265.2 95.9368 264.985 96.8351 264.985 97.8465V101.279C264.985 102.296 265.2 103.189 265.622 103.956C266.044 104.724 266.639 105.324 267.407 105.747C268.174 106.175 269.055 106.383 270.054 106.383H272.065C273.064 106.383 273.951 106.169 274.712 105.747ZM267.609 97.9536C267.609 97.091 267.835 96.389 268.281 95.8536C268.727 95.3181 269.322 95.0504 270.054 95.0504H272.065C272.796 95.0504 273.391 95.3181 273.838 95.8536C274.284 96.389 274.51 97.085 274.51 97.9536V101.16C274.51 102.023 274.284 102.725 273.838 103.26C273.391 103.796 272.796 104.063 272.065 104.063H270.054C269.322 104.063 268.727 103.796 268.281 103.26C267.835 102.725 267.609 102.029 267.609 101.16V97.9536Z" fill="#1D2121"/>
<path d="M290.382 92.7305H287.818V101.809L281.44 92.7305H279.108V106.08H281.666V97.0019L288.044 106.08H290.382V92.7305Z" fill="#1D2121"/>
<path d="M157.182 85.7523V63.7229H142.803C139.739 63.6872 138.811 67.9408 138.811 67.9408L133.511 85.7583H137.871L142.922 69.2258C143.148 68.4821 143.749 67.9467 144.481 67.9408C144.487 67.9408 144.493 67.9408 144.499 67.9408H153.351L153.309 72.7655H146.997C146.123 72.7655 145.456 73.1879 145.004 74.0386C144.558 74.9131 144.439 75.9542 144.659 77.1737H153.309L153.339 85.7583H157.182V85.7523Z" fill="#1D2121"/>
<path d="M220.332 85.7523V63.7229H205.953C202.889 63.6872 201.961 67.9408 201.961 67.9408L196.66 85.7583H201.021L206.072 69.2258C206.298 68.4821 206.899 67.9467 207.63 67.9408C207.636 67.9408 207.642 67.9408 207.648 67.9408H216.501L216.459 72.7655H210.147C209.272 72.7655 208.606 73.1879 208.154 74.0386C207.708 74.9131 207.589 75.9542 207.809 77.1737H216.459L216.489 85.7583H220.332V85.7523Z" fill="#1D2121"/>
<path d="M160.323 82.7888C160.323 83.6693 160.609 84.3832 161.18 84.9305C161.751 85.4778 162.489 85.7515 163.393 85.7515H171.014C173.756 85.7515 175.832 85.0554 177.242 83.6574C178.652 82.2594 179.36 80.2069 179.36 77.5001V71.325C179.36 69.8139 179.009 68.4813 178.301 67.3212C177.593 66.1671 176.606 65.2747 175.327 64.6441C174.054 64.0135 172.572 63.6982 170.883 63.6982H160.323V82.7888ZM175 71.5094V77.3038C175 78.8148 174.655 79.963 173.959 80.7364C173.262 81.5157 172.239 81.9024 170.889 81.9024H164.69V67.5413H170.764C172.031 67.5413 173.048 67.9042 173.834 68.63C174.607 69.3558 175 70.3136 175 71.5094Z" fill="#1D2121"/>
<path d="M187.362 83.7347C187.891 85.0792 188.766 85.7515 189.986 85.7515H192.044L200.551 63.6982H196.03L190.182 80.2367H190.116L184.292 63.6982H179.741L187.362 83.7347Z" fill="#1D2121"/>
<path d="M223.205 85.7515H227.477V70.7538L238.102 85.7515H241.992V63.6982H237.721V78.6959L227.096 63.6982H223.205V85.7515Z" fill="#1D2121"/>
<path d="M248.423 64.591C247.168 65.2751 246.198 66.2508 245.514 67.506C244.83 68.7613 244.485 70.2129 244.485 71.8548V77.5957C244.485 79.2376 244.824 80.6892 245.496 81.9444C246.168 83.1997 247.126 84.1753 248.358 84.8595C249.589 85.5436 251.017 85.8887 252.641 85.8887H256.056C257.656 85.8887 259.072 85.5436 260.292 84.8416C261.517 84.1456 262.463 83.158 263.135 81.879C263.807 80.5999 264.147 79.1186 264.147 77.435H259.845C259.845 78.8271 259.494 79.9515 258.786 80.8022C258.079 81.6529 257.168 82.0813 256.05 82.0813H252.635C251.499 82.0813 250.577 81.6529 249.887 80.7844C249.191 79.9217 248.846 78.7914 248.846 77.3993V72.0333C248.846 70.6412 249.202 69.5109 249.922 68.6483C250.636 67.7856 251.588 67.3514 252.766 67.3514H256.115C257.21 67.3514 258.096 67.7321 258.775 68.4876C259.447 69.2491 259.786 70.2486 259.786 71.4979H264.087C264.087 69.9154 263.754 68.5293 263.094 67.3335C262.427 66.1377 261.499 65.2097 260.298 64.5434C259.096 63.8771 257.704 63.5439 256.121 63.5439H252.772C251.13 63.5618 249.678 63.9068 248.423 64.591Z" fill="#1D2121"/>
<path d="M266.086 82.789C266.086 83.6695 266.371 84.3834 266.943 84.9307C267.514 85.478 268.251 85.7516 269.156 85.7516H282.975V81.968H270.453V76.3581H282.029V72.5744H270.453V67.4701H282.975V63.6865H266.086V82.789Z" fill="#1D2121"/>
<path d="M285.153 82.7888C285.153 83.6693 285.438 84.3832 286.01 84.9305C286.581 85.4778 287.318 85.7515 288.223 85.7515H295.843C298.586 85.7515 300.662 85.0554 302.072 83.6574C303.482 82.2594 304.19 80.2069 304.19 77.5001V71.325C304.19 69.8139 303.839 68.4813 303.131 67.3212C302.423 66.1671 301.435 65.2747 300.156 64.6441C298.883 64.0135 297.402 63.6982 295.712 63.6982H285.153V82.7888ZM299.823 71.5094V77.3038C299.823 78.8148 299.478 79.963 298.782 80.7364C298.086 81.5157 297.063 81.9024 295.712 81.9024H289.513V67.5413H295.588C296.855 67.5413 297.872 67.9042 298.657 68.63C299.437 69.3558 299.823 70.3136 299.823 71.5094Z" fill="#1D2121"/>
<path d="M306.133 61.1641C306.176 61.1641 306.198 61.1859 306.198 61.2295V61.5044C306.198 61.548 306.176 61.5698 306.133 61.5698H305.066C305.048 61.5698 305.04 61.5785 305.04 61.596V64.3706C305.04 64.4143 305.018 64.436 304.975 64.436H304.641C304.597 64.436 304.575 64.4143 304.575 64.3706V61.596C304.575 61.5785 304.566 61.5698 304.549 61.5698H303.522C303.478 61.5698 303.456 61.548 303.456 61.5044V61.2295C303.456 61.1859 303.478 61.1641 303.522 61.1641H306.133Z" fill="#1D2121"/>
<path d="M309.477 61.2099C309.499 61.1793 309.525 61.1641 309.556 61.1641H309.896C309.94 61.1641 309.962 61.1859 309.962 61.2295V64.3706C309.962 64.4143 309.94 64.436 309.896 64.436H309.563C309.518 64.436 309.497 64.4143 309.497 64.3706V62.1195C309.497 62.1064 309.492 62.0977 309.484 62.0933C309.475 62.0889 309.469 62.0933 309.464 62.1064L308.594 63.618C308.572 63.6486 308.546 63.6639 308.515 63.6639H308.443C308.413 63.6639 308.386 63.6486 308.365 63.618L307.488 62.1129C307.483 62.0999 307.477 62.0955 307.468 62.0999C307.459 62.1042 307.455 62.1129 307.455 62.126V64.3706C307.455 64.4143 307.433 64.436 307.39 64.436H307.056C307.012 64.436 306.991 64.4143 306.991 64.3706V61.2295C306.991 61.1859 307.012 61.1641 307.056 61.1641H307.396C307.427 61.1641 307.453 61.1793 307.475 61.2099L308.463 62.8917C308.467 62.8961 308.474 62.8982 308.483 62.8982C308.491 62.8982 308.498 62.8961 308.502 62.8917L309.477 61.2099Z" fill="#1D2121"/>
</g>
<rect x="352" y="160" width="315" height="207" fill="#1C1C4E"/>
<g clip-path="url(#clip0_4009_5899)">
<mask id="mask1_4009_5899" style="mask-type:luminance" maskUnits="userSpaceOnUse" x="465" y="39" width="95" height="85">
<path d="M559.672 39.1104H465.328V123.451H559.672V39.1104Z" fill="white"/>
</mask>
<g mask="url(#mask1_4009_5899)">
<path d="M497.658 120.988L497.662 109.031H517.043C517.629 109.031 518.137 108.806 518.561 108.362C518.986 107.891 519.191 107.323 519.182 106.654L519.152 104.278H497.614L497.575 101.334C497.562 100.299 498.161 99.5293 499.194 99.5293H521.2C522.464 99.5293 523.598 100.647 523.615 101.91L523.554 109.031C523.563 109.699 523.353 110.267 522.933 110.738C522.508 111.183 522 111.407 521.414 111.407C522 111.407 522.512 111.645 522.95 112.111C523.383 112.582 523.606 113.136 523.615 113.779L523.563 123.28H499.986C498.765 123.28 497.671 122.207 497.658 120.988ZM519.336 118.532L519.305 116.155C519.296 115.513 519.073 114.954 518.64 114.488C518.202 114.017 517.69 113.783 517.104 113.783H501.907L501.968 118.532H519.336Z" fill="#111411"/>
<path d="M527.978 123.28C527.798 121.968 528.065 120.86 528.779 119.944C529.509 119.007 530.472 118.536 531.671 118.536H549.45L548.373 113.792H530.476C529.151 113.792 527.82 112.621 527.641 111.301L527.645 101.412C527.645 100.334 528.271 99.5596 529.251 99.5596H549.485C549.665 100.893 549.822 102.02 549.087 102.935C548.352 103.85 546.969 104.308 545.792 104.308H531.662L531.675 109.052H550.137C551.388 109.052 552.649 110.157 552.815 111.407L555.292 123.284H527.978V123.28Z" fill="#111411"/>
<path d="M476.584 99.5607C472.939 99.5255 471.836 104.098 471.836 104.098L465.526 123.263H470.716L476.728 105.48C477 104.679 477.713 104.102 478.579 104.098C478.584 104.098 478.592 104.098 478.597 104.098H489.129L489.081 109.286H481.572C480.531 109.286 479.739 109.744 479.205 110.66C478.675 111.597 478.535 112.724 478.789 114.035H489.081L489.116 123.268H493.689V99.5652H476.584V99.5607Z" fill="#111411"/>
<path d="M532.229 76.3059C532.229 78.029 531.709 78.9294 530.642 78.9517C529.648 78.9739 529.084 77.9846 528.852 77.5843C525.724 72.1872 522.828 67.1069 519.705 61.7042L510.857 46.4631C510.674 45.9796 510.47 45.9796 510.249 46.4353C504.263 56.8184 498.289 67.2069 492.275 77.5732C491.972 78.0957 491.574 78.9851 490.468 78.9517C489.451 78.9239 488.882 78.0346 488.915 76.3671V52.1604C488.91 51.4267 489.031 50.7709 489.733 50.3429L504.014 41.5496C504.136 41.4773 504.28 41.6163 504.202 41.7385C502.627 44.2398 501.848 46.9245 498.615 48.9422C495.735 50.7375 496.199 50.4652 493.292 52.2438C492.651 52.6385 492.193 53.0164 492.193 53.9725C492.193 59.2251 492.176 65.0058 492.193 70.264C492.198 71.02 492.53 70.4252 492.53 70.4252C497.946 60.9871 504.445 49.3868 509.823 39.921C510.519 38.6981 510.763 38.976 511.337 39.9765L528.448 70.175C528.785 70.7642 528.984 70.6809 529.006 70.5697V54.1504C529.018 53.2109 528.642 52.694 527.901 52.2494C524.939 50.4652 525.547 50.7153 522.579 48.9422C520.943 47.9639 517.864 43.2949 516.986 41.7663C516.903 41.6274 517.063 41.4662 517.201 41.5551L531.123 50.0594C532.013 50.5597 532.24 51.3211 532.234 52.3994L532.229 76.3059Z" fill="#FD6120"/>
<path d="M511.188 57.5466C510.801 56.7073 510.398 56.6795 509.922 57.5744L497.255 79.6632C497.255 79.6632 496.813 80.3636 497.354 80.7249L509.701 88.3176C510.392 88.7957 510.751 88.7456 511.442 88.2787C515.598 85.4829 519.357 83.3707 523.634 80.7583C524.303 80.3525 524.054 79.9801 523.761 79.4799L511.188 57.5466ZM510.072 65.5451C510.215 65.295 510.232 65.0448 510.613 65.0448C510.95 65.0448 511.05 65.3783 511.194 65.6284C512.548 67.974 513.896 70.3197 515.245 72.6653H505.982C507.347 70.2974 508.707 67.924 510.072 65.5451ZM518.063 79.6132C515.819 80.9806 513.581 82.3591 511.354 83.7542C510.801 84.0989 510.37 84.0766 509.806 83.7208C507.64 82.3313 505.44 80.9973 503.246 79.6632C502.61 79.2798 502.334 78.9462 502.815 78.1292C503.169 77.5233 503.517 76.9119 503.871 76.306H517.35C517.721 76.9397 518.085 77.5789 518.456 78.2125C518.892 78.9518 518.638 79.2631 518.063 79.6132Z" fill="#FD6120"/>
<path d="M555.413 99.7305C555.461 99.7305 555.485 99.7546 555.485 99.8029V100.107C555.485 100.156 555.461 100.18 555.413 100.18H554.238C554.219 100.18 554.21 100.189 554.21 100.209V103.282C554.21 103.33 554.185 103.354 554.138 103.354H553.77C553.722 103.354 553.698 103.33 553.698 103.282V100.209C553.698 100.189 553.688 100.18 553.669 100.18H552.538C552.49 100.18 552.466 100.156 552.466 100.107V99.8029C552.466 99.7546 552.49 99.7305 552.538 99.7305H555.413Z" fill="black"/>
<path d="M559.097 99.7812C559.121 99.7473 559.15 99.7305 559.183 99.7305H559.558C559.606 99.7305 559.63 99.7546 559.63 99.8029V103.282C559.63 103.33 559.606 103.354 559.558 103.354H559.19C559.142 103.354 559.118 103.33 559.118 103.282V100.789C559.118 100.774 559.114 100.765 559.104 100.76C559.094 100.755 559.087 100.76 559.082 100.774L558.124 102.448C558.099 102.482 558.071 102.499 558.037 102.499H557.958C557.924 102.499 557.896 102.482 557.871 102.448L556.906 100.781C556.901 100.767 556.894 100.762 556.884 100.767C556.874 100.772 556.87 100.781 556.87 100.796V103.282C556.87 103.33 556.845 103.354 556.798 103.354H556.43C556.382 103.354 556.358 103.33 556.358 103.282V99.8029C556.358 99.7546 556.382 99.7305 556.43 99.7305H556.805C556.838 99.7305 556.867 99.7473 556.891 99.7812L557.979 101.644C557.984 101.649 557.991 101.651 558.001 101.651C558.011 101.651 558.018 101.649 558.023 101.644L559.097 99.7812Z" fill="black"/>
</g>
</g>
<rect y="160" width="365" height="207" fill="#242332"/>
<g clip-path="url(#clip1_4009_5899)">
<path d="M147.043 277.236C147.043 279.082 146.491 280.047 145.357 280.071C144.3 280.095 143.701 279.034 143.454 278.606C140.13 272.822 137.053 267.377 133.735 261.587L124.333 245.254C124.139 244.736 123.922 244.736 123.687 245.224C117.327 256.351 110.978 267.484 104.589 278.594C104.266 279.154 103.843 280.107 102.669 280.071C101.588 280.041 100.983 279.088 101.018 277.301V251.359C101.012 250.573 101.142 249.87 101.887 249.412L117.062 239.988C117.192 239.911 117.344 240.06 117.262 240.191C115.588 242.871 114.76 245.748 111.325 247.911C108.265 249.835 108.759 249.543 105.669 251.449C104.988 251.872 104.501 252.277 104.501 253.301C104.501 258.93 104.483 265.126 104.501 270.761C104.507 271.571 104.859 270.933 104.859 270.933C110.614 260.819 117.521 248.387 123.235 238.243C123.975 236.932 124.233 237.23 124.844 238.302L143.026 270.665C143.384 271.297 143.595 271.207 143.619 271.088V253.492C143.631 252.485 143.231 251.931 142.444 251.455C139.297 249.543 139.943 249.811 136.789 247.911C135.051 246.862 131.779 241.858 130.846 240.22C130.758 240.071 130.928 239.899 131.075 239.994L145.868 249.108C146.814 249.644 147.054 250.46 147.048 251.616L147.043 277.236Z" fill="#FD6120"/>
<path d="M124.685 257.131C124.274 256.232 123.845 256.202 123.34 257.161L109.88 280.833C109.88 280.833 109.41 281.584 109.986 281.971L123.105 290.108C123.84 290.62 124.221 290.566 124.955 290.066C129.372 287.07 133.365 284.806 137.911 282.007C138.621 281.572 138.357 281.173 138.046 280.637L124.685 257.131ZM123.499 265.703C123.652 265.435 123.669 265.167 124.074 265.167C124.433 265.167 124.538 265.524 124.691 265.792C126.13 268.306 127.563 270.82 128.996 273.334H119.153C120.604 270.796 122.048 268.253 123.499 265.703ZM131.991 280.779C129.607 282.245 127.228 283.722 124.861 285.217C124.274 285.587 123.816 285.563 123.217 285.182C120.915 283.692 118.578 282.263 116.246 280.833C115.571 280.422 115.277 280.065 115.788 279.189C116.164 278.54 116.534 277.885 116.91 277.235H131.233C131.627 277.914 132.014 278.599 132.408 279.278C132.872 280.071 132.602 280.404 131.991 280.779Z" fill="#FD6120"/>
<path d="M195.661 273.875L195.666 261.061H216.259C216.883 261.061 217.422 260.821 217.873 260.344C218.324 259.84 218.542 259.231 218.533 258.515L218.501 255.968H195.61L195.568 252.813C195.554 251.704 196.191 250.879 197.288 250.879H220.672C222.016 250.879 223.22 252.077 223.238 253.43L223.173 261.061C223.183 261.778 222.96 262.386 222.513 262.891C222.062 263.367 221.523 263.608 220.9 263.608C221.523 263.608 222.067 263.863 222.532 264.363C222.992 264.867 223.229 265.461 223.238 266.15L223.183 276.332H198.125C196.838 276.332 195.675 275.182 195.661 273.875ZM218.696 271.244L218.664 268.697C218.654 268.008 218.417 267.409 217.957 266.909C217.492 266.405 216.948 266.155 216.325 266.155H200.176L200.241 271.244H218.696Z" fill="white"/>
<path d="M227.879 276.333C227.689 274.927 227.972 273.739 228.73 272.758C229.506 271.753 230.53 271.249 231.804 271.249H250.695L249.551 266.164H230.534C229.125 266.164 227.712 264.91 227.521 263.495L227.526 252.898C227.526 251.742 228.191 250.912 229.232 250.912H250.732C250.923 252.341 251.091 253.549 250.309 254.529C249.528 255.51 248.059 256.001 246.808 256.001H231.794L231.808 261.085H251.425C252.755 261.085 254.094 262.269 254.271 263.608L256.902 276.337H227.879V276.333Z" fill="white"/>
<path d="M173.268 250.912C169.395 250.875 168.224 255.775 168.224 255.775L161.519 276.314H167.033L173.422 257.256C173.71 256.397 174.468 255.779 175.388 255.775C175.393 255.775 175.403 255.775 175.407 255.775H186.599L186.548 261.335H178.569C177.462 261.335 176.621 261.826 176.053 262.807C175.491 263.811 175.342 265.019 175.612 266.424H186.548L186.585 276.319H191.444V250.912H173.268Z" fill="white"/>
</g>
<path d="M549.413 284.18C549.413 287.055 548.542 288.557 546.757 288.594C545.092 288.631 544.149 286.981 543.76 286.313C538.523 277.309 533.676 268.834 528.449 259.821L513.637 234.394C513.332 233.588 512.989 233.588 512.619 234.348C502.6 251.67 492.599 269.001 482.533 286.295C482.025 287.166 481.359 288.65 479.508 288.594C477.806 288.548 476.853 287.064 476.909 284.282V243.899C476.899 242.675 477.103 241.581 478.278 240.867L502.184 226.197C502.387 226.077 502.628 226.308 502.498 226.512C499.861 230.685 498.557 235.164 493.145 238.53C488.325 241.525 489.102 241.071 484.236 244.038C483.163 244.697 482.395 245.327 482.395 246.922C482.395 255.685 482.367 265.329 482.395 274.101C482.404 275.362 482.959 274.37 482.959 274.37C492.025 258.624 502.905 239.272 511.907 223.48C513.073 221.44 513.48 221.904 514.442 223.573L543.085 273.952C543.649 274.935 543.982 274.796 544.019 274.611V247.219C544.037 245.652 543.408 244.789 542.168 244.047C537.21 241.071 538.227 241.488 533.259 238.53C530.521 236.898 525.368 229.109 523.897 226.559C523.758 226.327 524.026 226.058 524.258 226.206L547.562 240.394C549.051 241.229 549.431 242.499 549.422 244.298L549.413 284.18Z" fill="#FD6120"/>
<path d="M514.192 252.884C513.544 251.484 512.869 251.437 512.074 252.93L490.869 289.781C490.869 289.781 490.129 290.949 491.036 291.552L511.703 304.219C512.86 305.016 513.461 304.933 514.618 304.154C521.575 299.49 527.866 295.965 535.026 291.607C536.146 290.931 535.73 290.309 535.239 289.475L514.192 252.884ZM512.323 266.228C512.564 265.81 512.592 265.393 513.23 265.393C513.794 265.393 513.961 265.949 514.201 266.367C516.468 270.28 518.725 274.193 520.983 278.106H505.477C507.762 274.156 510.038 270.196 512.323 266.228ZM525.701 289.697C521.945 291.978 518.198 294.278 514.47 296.605C513.544 297.181 512.823 297.143 511.879 296.55C508.253 294.232 504.571 292.006 500.898 289.781C499.834 289.141 499.371 288.585 500.176 287.221C500.768 286.211 501.351 285.191 501.943 284.18H524.508C525.127 285.237 525.738 286.303 526.358 287.361C527.089 288.594 526.663 289.113 525.701 289.697Z" fill="#FD6120"/>
<defs>
<clipPath id="clip0_4009_5899">
<rect width="95" height="85" fill="white" transform="translate(465 39)"/>
</clipPath>
<clipPath id="clip1_4009_5899">
<rect width="156" height="54" fill="white" transform="translate(101 237)"/>
</clipPath>
</defs>
</svg>
