<svg width="51" height="51" viewBox="0 0 51 51" fill="none" xmlns="http://www.w3.org/2000/svg">
<g filter="url(#filter0_i)">
<rect x="9.21252" y="10.9492" width="31.6387" height="30.3975" rx="1.50144" fill="white"/>
</g>
<path d="M23.3553 26.3364C23.2256 26.3364 23.1608 26.2715 23.1608 26.1418V25.1496C23.1608 25.0134 23.2256 24.9453 23.3553 24.9453H24.1919C24.3346 24.9453 24.4059 25.0134 24.4059 25.1496V26.1418C24.4059 26.2196 24.3832 26.2715 24.3378 26.2975C24.2989 26.3234 24.2503 26.3364 24.1919 26.3364H23.3553Z" fill="#242332"/>
<path d="M25.6352 26.3364C25.5055 26.3364 25.4407 26.2715 25.4407 26.1418V25.1496C25.4407 25.0134 25.5055 24.9453 25.6352 24.9453H26.4718C26.6145 24.9453 26.6858 25.0134 26.6858 25.1496V26.1418C26.6858 26.2196 26.6631 26.2715 26.6177 26.2975C26.5788 26.3234 26.5302 26.3364 26.4718 26.3364H25.6352Z" fill="#242332"/>
<path d="M23.3553 28.7518C23.2256 28.7518 23.1608 28.687 23.1608 28.5573V27.5651C23.1608 27.4289 23.2256 27.3608 23.3553 27.3608H24.1919C24.3346 27.3608 24.4059 27.4289 24.4059 27.5651V28.5573C24.4059 28.6351 24.3832 28.687 24.3378 28.7129C24.2989 28.7389 24.2503 28.7518 24.1919 28.7518H23.3553Z" fill="#242332"/>
<path d="M25.6352 28.7518C25.5055 28.7518 25.4407 28.687 25.4407 28.5573V27.5651C25.4407 27.4289 25.5055 27.3608 25.6352 27.3608H26.4718C26.6145 27.3608 26.6858 27.4289 26.6858 27.5651V28.5573C26.6858 28.6351 26.6631 28.687 26.6177 28.7129C26.5788 28.7389 26.5302 28.7518 26.4718 28.7518H25.6352Z" fill="#242332"/>
<path fill-rule="evenodd" clip-rule="evenodd" d="M6.0331 8.03653V44.4109H44.0309V8.03653H6.0331ZM5.72803 6.3457C4.9627 6.3457 4.34229 6.96612 4.34229 7.73145V44.716C4.34229 45.4813 4.96271 46.1017 5.72803 46.1017H44.336C45.1013 46.1017 45.7217 45.4813 45.7217 44.716V7.73145C45.7217 6.96612 45.1013 6.3457 44.336 6.3457H5.72803Z" fill="#242332"/>
<path fill-rule="evenodd" clip-rule="evenodd" d="M10.9032 12.64V39.6559H39.1603V12.64H10.9032ZM10.8017 10.9492C9.92396 10.9492 9.2124 11.6608 9.2124 12.5385V39.7574C9.2124 40.6351 9.92396 41.3467 10.8017 41.3467H39.2618C40.1396 41.3467 40.8511 40.6351 40.8511 39.7574V12.5385C40.8511 11.6608 40.1396 10.9492 39.2618 10.9492H10.8017Z" fill="white"/>
<path fill-rule="evenodd" clip-rule="evenodd" d="M14.7429 0.845703C15.2098 0.845703 15.5883 1.22421 15.5883 1.69112V6.3454C15.5883 6.81231 15.2098 7.19082 14.7429 7.19082C14.276 7.19082 13.8975 6.81231 13.8975 6.3454V1.69112C13.8975 1.22421 14.276 0.845703 14.7429 0.845703Z" fill="#242332"/>
<path fill-rule="evenodd" clip-rule="evenodd" d="M50.2003 15.5447C50.2003 16.0116 49.8218 16.3901 49.3549 16.3901H45.3131C44.8462 16.3901 44.4677 16.0116 44.4677 15.5447C44.4677 15.0778 44.8462 14.6993 45.3131 14.6993H49.3549C49.8218 14.6993 50.2003 15.0778 50.2003 15.5447Z" fill="#242332"/>
<path fill-rule="evenodd" clip-rule="evenodd" d="M5.93292 15.545C5.93292 16.0119 5.55442 16.3904 5.08751 16.3904H1.04573C0.57882 16.3904 0.200317 16.0119 0.200317 15.545C0.200317 15.0781 0.57882 14.6996 1.04573 14.6996H5.08751C5.55442 14.6996 5.93292 15.0781 5.93292 15.545Z" fill="#242332"/>
<path fill-rule="evenodd" clip-rule="evenodd" d="M14.7429 45.1793C15.2098 45.1793 15.5883 45.5578 15.5883 46.0247V50.0003C15.5883 50.4672 15.2098 50.8457 14.7429 50.8457C14.2759 50.8457 13.8974 50.4672 13.8974 50.0003V46.0247C13.8974 45.5578 14.2759 45.1793 14.7429 45.1793Z" fill="#242332"/>
<path fill-rule="evenodd" clip-rule="evenodd" d="M21.6397 0.845703C22.1066 0.845703 22.4851 1.22421 22.4851 1.69112V6.3454C22.4851 6.81231 22.1066 7.19082 21.6397 7.19082C21.1728 7.19082 20.7943 6.81231 20.7943 6.3454V1.69112C20.7943 1.22421 21.1728 0.845703 21.6397 0.845703Z" fill="#242332"/>
<path fill-rule="evenodd" clip-rule="evenodd" d="M50.2003 22.1717C50.2003 22.6386 49.8218 23.0171 49.3549 23.0171H45.3131C44.8462 23.0171 44.4677 22.6386 44.4677 22.1717C44.4677 21.7048 44.8462 21.3263 45.3131 21.3263H49.3549C49.8218 21.3263 50.2003 21.7048 50.2003 22.1717Z" fill="#242332"/>
<path fill-rule="evenodd" clip-rule="evenodd" d="M5.93292 22.1716C5.93292 22.6385 5.55442 23.017 5.08751 23.017H1.04573C0.57882 23.017 0.200317 22.6385 0.200317 22.1716C0.200317 21.7047 0.57882 21.3262 1.04573 21.3262H5.08751C5.55442 21.3262 5.93292 21.7047 5.93292 22.1716Z" fill="#242332"/>
<path fill-rule="evenodd" clip-rule="evenodd" d="M21.6394 45.1793C22.1063 45.1793 22.4848 45.5578 22.4848 46.0247V50.0003C22.4848 50.4672 22.1063 50.8457 21.6394 50.8457C21.1725 50.8457 20.794 50.4672 20.794 50.0003V46.0247C20.794 45.5578 21.1725 45.1793 21.6394 45.1793Z" fill="#242332"/>
<path fill-rule="evenodd" clip-rule="evenodd" d="M28.5362 0.845703C29.0031 0.845703 29.3816 1.22421 29.3816 1.69112V6.3454C29.3816 6.81231 29.0031 7.19082 28.5362 7.19082C28.0693 7.19082 27.6908 6.81231 27.6908 6.3454V1.69112C27.6908 1.22421 28.0693 0.845703 28.5362 0.845703Z" fill="#242332"/>
<path fill-rule="evenodd" clip-rule="evenodd" d="M50.2003 28.7976C50.2003 29.2645 49.8218 29.643 49.3549 29.643H45.3131C44.8462 29.643 44.4677 29.2645 44.4677 28.7976C44.4677 28.3307 44.8462 27.9522 45.3131 27.9522H49.3549C49.8218 27.9522 50.2003 28.3307 50.2003 28.7976Z" fill="#242332"/>
<path fill-rule="evenodd" clip-rule="evenodd" d="M5.93292 28.7972C5.93292 29.2641 5.55442 29.6427 5.08751 29.6427H1.04573C0.57882 29.6427 0.200317 29.2641 0.200317 28.7972C0.200317 28.3303 0.57882 27.9518 1.04573 27.9518H5.08751C5.55442 27.9518 5.93292 28.3303 5.93292 28.7972Z" fill="#242332"/>
<path fill-rule="evenodd" clip-rule="evenodd" d="M28.5362 45.1793C29.0031 45.1793 29.3816 45.5578 29.3816 46.0247V50.0003C29.3816 50.4672 29.0031 50.8457 28.5362 50.8457C28.0693 50.8457 27.6908 50.4672 27.6908 50.0003V46.0247C27.6908 45.5578 28.0693 45.1793 28.5362 45.1793Z" fill="#242332"/>
<path fill-rule="evenodd" clip-rule="evenodd" d="M35.4324 0.845703C35.8993 0.845703 36.2778 1.22421 36.2778 1.69112V6.3454C36.2778 6.81231 35.8993 7.19082 35.4324 7.19082C34.9655 7.19082 34.587 6.81231 34.587 6.3454V1.69112C34.587 1.22421 34.9655 0.845703 35.4324 0.845703Z" fill="#242332"/>
<path fill-rule="evenodd" clip-rule="evenodd" d="M50.2003 35.4225C50.2003 35.8894 49.8218 36.2679 49.3549 36.2679H45.3131C44.8462 36.2679 44.4677 35.8894 44.4677 35.4225C44.4677 34.9555 44.8462 34.577 45.3131 34.577H49.3549C49.8218 34.577 50.2003 34.9555 50.2003 35.4225Z" fill="#242332"/>
<path fill-rule="evenodd" clip-rule="evenodd" d="M5.93292 35.423C5.93292 35.8899 5.55442 36.2684 5.08751 36.2684H1.04573C0.57882 36.2684 0.200317 35.8899 0.200317 35.423C0.200317 34.9561 0.57882 34.5776 1.04573 34.5776H5.08751C5.55442 34.5776 5.93292 34.9561 5.93292 35.423Z" fill="#242332"/>
<path fill-rule="evenodd" clip-rule="evenodd" d="M35.4324 45.1793C35.8993 45.1793 36.2778 45.5578 36.2778 46.0247V50.0003C36.2778 50.4672 35.8993 50.8457 35.4324 50.8457C34.9655 50.8457 34.587 50.4672 34.587 50.0003V46.0247C34.587 45.5578 34.9655 45.1793 35.4324 45.1793Z" fill="#242332"/>
<defs>
<filter id="filter0_i" x="9.21252" y="10.9492" width="32.7867" height="34.2022" filterUnits="userSpaceOnUse" color-interpolation-filters="sRGB">
<feFlood flood-opacity="0" result="BackgroundImageFix"/>
<feBlend mode="normal" in="SourceGraphic" in2="BackgroundImageFix" result="shape"/>
<feColorMatrix in="SourceAlpha" type="matrix" values="0 0 0 0 0 0 0 0 0 0 0 0 0 0 0 0 0 0 127 0" result="hardAlpha"/>
<feOffset dx="1.14791" dy="3.80469"/>
<feGaussianBlur stdDeviation="3.80469"/>
<feComposite in2="hardAlpha" operator="arithmetic" k2="-1" k3="1"/>
<feColorMatrix type="matrix" values="0 0 0 0 0.141176 0 0 0 0 0.137255 0 0 0 0 0.196078 0 0 0 0.7 0"/>
<feBlend mode="normal" in2="shape" result="effect1_innerShadow"/>
</filter>
</defs>
</svg>
