<svg width="667" height="315" viewBox="0 0 667 315" fill="none" xmlns="http://www.w3.org/2000/svg">
<rect width="667" height="315" fill="white"/>
<mask id="mask0_4009_5696" style="mask-type:luminance" maskUnits="userSpaceOnUse" x="129" y="74" width="51" height="51">
<path d="M179.569 74.8457H129.569V124.846H179.569V74.8457Z" fill="white"/>
</mask>
<g mask="url(#mask0_4009_5696)">
<g filter="url(#filter0_i_4009_5696)">
<path d="M162.667 112.834C169.011 112.834 174.154 107.691 174.154 101.347C174.154 95.0025 169.011 89.8594 162.667 89.8594C156.323 89.8594 151.179 95.0025 151.179 101.347C151.179 107.691 156.323 112.834 162.667 112.834Z" fill="white"/>
</g>
<g filter="url(#filter1_d_4009_5696)">
<path fill-rule="evenodd" clip-rule="evenodd" d="M129.048 81.059C129.048 80.6537 129.393 80.3252 129.819 80.3252H135.177C135.602 80.3252 135.948 80.6537 135.948 81.059V85.7305H178.277C178.703 85.7305 179.048 86.0591 179.048 86.4643V116.734C179.048 117.139 178.703 117.468 178.277 117.468H135.177C134.751 117.468 134.406 117.139 134.406 116.734V81.7928H129.819C129.393 81.7928 129.048 81.4643 129.048 81.059ZM135.948 87.1981V116H177.506V87.1981H135.948Z" fill="#242332"/>
<path fill-rule="evenodd" clip-rule="evenodd" d="M143.757 116.05C144.183 116.05 144.528 116.378 144.528 116.784V119.535C144.528 119.941 144.183 120.269 143.757 120.269C143.331 120.269 142.986 119.941 142.986 119.535V116.784C142.986 116.378 143.331 116.05 143.757 116.05Z" fill="#242332"/>
<path fill-rule="evenodd" clip-rule="evenodd" d="M153.738 116.05C154.164 116.05 154.509 116.378 154.509 116.784V119.535C154.509 119.941 154.164 120.269 153.738 120.269C153.312 120.269 152.967 119.941 152.967 119.535V116.784C152.967 116.378 153.312 116.05 153.738 116.05Z" fill="#242332"/>
<path fill-rule="evenodd" clip-rule="evenodd" d="M148.747 116.05C149.173 116.05 149.518 116.378 149.518 116.784V119.535C149.518 119.941 149.173 120.269 148.747 120.269C148.322 120.269 147.977 119.941 147.977 119.535V116.784C147.977 116.378 148.322 116.05 148.747 116.05Z" fill="#242332"/>
<path fill-rule="evenodd" clip-rule="evenodd" d="M158.728 116.05C159.154 116.05 159.499 116.378 159.499 116.784V119.535C159.499 119.941 159.154 120.269 158.728 120.269C158.303 120.269 157.958 119.941 157.958 119.535V116.784C157.958 116.378 158.303 116.05 158.728 116.05Z" fill="#242332"/>
<path fill-rule="evenodd" clip-rule="evenodd" d="M135.18 113.547C135.605 113.547 135.951 113.875 135.951 114.281V121.258C135.951 121.664 135.605 121.992 135.18 121.992C134.754 121.992 134.409 121.664 134.409 121.258V114.281C134.409 113.875 134.754 113.547 135.18 113.547Z" fill="#242332"/>
<path d="M139.111 89.4619H142.209V92.4103H139.111V89.4619Z" fill="#242332"/>
<path d="M145.306 89.4619H148.404V92.4103H145.306V89.4619Z" fill="#242332"/>
<path d="M173.532 100.947C172.054 99.5402 170.006 98.7329 167.916 98.7329H167.567C167.291 98.7329 167.014 98.7493 166.739 98.7763C166.362 98.2906 165.896 97.8743 165.358 97.5518C165.379 97.5305 165.394 97.5054 165.415 97.4842C166.516 96.4364 168.04 95.8357 169.596 95.8357H173.201C172.779 95.1423 172.283 94.4972 171.725 93.9042H169.596C167.505 93.9042 165.459 94.7116 163.981 96.1186C163.737 96.3504 163.516 96.6025 163.306 96.8632C163.095 96.8372 162.887 96.8014 162.669 96.8014C162.322 96.8014 161.982 96.8352 161.654 96.899V96.6353C161.654 95.1539 162.285 93.7034 163.386 92.6555L165.729 90.4257C164.926 90.2277 164.092 90.106 163.234 90.0693L161.951 91.291C160.473 92.6971 159.625 94.6459 159.625 96.6353V96.9675C159.625 97.2302 159.642 97.4938 159.671 97.7556C159.161 98.1148 158.723 98.5581 158.384 99.0709C158.362 99.0506 158.336 99.0361 158.313 99.0158C157.213 97.968 156.581 96.5175 156.581 95.0361V91.6048C155.853 92.0066 155.175 92.4788 154.552 93.01V95.0361C154.552 97.0264 155.401 98.9743 156.879 100.381C157.122 100.613 157.387 100.824 157.661 101.024C157.634 101.225 157.596 101.422 157.596 101.63C157.596 101.96 157.632 102.284 157.699 102.596H157.422C155.865 102.596 154.341 101.995 153.241 100.947L150.898 98.7174C150.69 99.4813 150.562 100.275 150.523 101.092L151.807 102.314C153.284 103.72 155.332 104.527 157.422 104.527H157.771C158.047 104.527 158.323 104.511 158.598 104.483C158.977 104.971 159.444 105.387 159.984 105.71C159.963 105.732 159.945 105.756 159.922 105.776C158.822 106.824 157.298 107.424 155.741 107.424H152.137C152.559 108.118 153.055 108.763 153.613 109.356H155.741C157.832 109.356 159.879 108.549 161.357 107.142C161.601 106.91 161.822 106.659 162.033 106.398C162.244 106.423 162.451 106.459 162.669 106.459C163.016 106.459 163.356 106.425 163.683 106.361V106.625C163.683 108.106 163.052 109.557 161.952 110.605L159.609 112.835C160.411 113.032 161.245 113.154 162.104 113.191L163.387 111.969C164.864 110.563 165.713 108.614 165.713 106.625V106.293C165.713 106.03 165.695 105.766 165.666 105.505C166.178 105.144 166.616 104.699 166.955 104.185C166.978 104.206 167.002 104.223 167.024 104.244C168.125 105.292 168.756 106.743 168.756 108.224V111.655C169.485 111.254 170.163 110.781 170.785 110.25V108.224C170.785 106.234 169.937 104.286 168.459 102.879C168.216 102.647 167.951 102.436 167.678 102.236C167.704 102.035 167.742 101.838 167.742 101.63C167.742 101.3 167.706 100.976 167.639 100.664H167.916C169.473 100.664 170.996 101.265 172.097 102.313L174.44 104.543C174.648 103.779 174.776 102.985 174.814 102.168L173.532 100.947ZM162.669 104.527C160.991 104.527 159.625 103.227 159.625 101.63C159.625 100.033 160.991 98.7329 162.669 98.7329C164.347 98.7329 165.713 100.033 165.713 101.63C165.713 103.227 164.347 104.527 162.669 104.527Z" fill="#242332"/>
</g>
</g>
<g clip-path="url(#clip0_4009_5696)">
<g filter="url(#filter2_i_4009_5696)">
<path d="M292.35 86.9492H263.714C262.885 86.9492 262.212 87.6214 262.212 88.4507V115.845C262.212 116.675 262.885 117.347 263.714 117.347H292.35C293.179 117.347 293.851 116.675 293.851 115.845V88.4507C293.851 87.6214 293.179 86.9492 292.35 86.9492Z" fill="white"/>
</g>
<path d="M276.355 102.336C276.226 102.336 276.161 102.272 276.161 102.142V101.15C276.161 101.013 276.226 100.945 276.355 100.945H277.192C277.335 100.945 277.406 101.013 277.406 101.15V102.142C277.406 102.22 277.383 102.272 277.338 102.298C277.299 102.323 277.25 102.336 277.192 102.336H276.355Z" fill="#242332"/>
<path d="M278.635 102.336C278.505 102.336 278.441 102.272 278.441 102.142V101.15C278.441 101.013 278.505 100.945 278.635 100.945H279.472C279.614 100.945 279.686 101.013 279.686 101.15V102.142C279.686 102.22 279.663 102.272 279.618 102.298C279.579 102.323 279.53 102.336 279.472 102.336H278.635Z" fill="#242332"/>
<path d="M276.355 104.751C276.225 104.751 276.161 104.687 276.161 104.557V103.565C276.161 103.428 276.225 103.36 276.355 103.36H277.192C277.334 103.36 277.406 103.428 277.406 103.565V104.557C277.406 104.635 277.383 104.687 277.338 104.712C277.299 104.738 277.25 104.751 277.192 104.751H276.355Z" fill="#242332"/>
<path d="M278.635 104.751C278.505 104.751 278.441 104.687 278.441 104.557V103.565C278.441 103.428 278.505 103.36 278.635 103.36H279.472C279.614 103.36 279.686 103.428 279.686 103.565V104.557C279.686 104.635 279.663 104.687 279.618 104.712C279.579 104.738 279.53 104.751 279.472 104.751H278.635Z" fill="#242332"/>
<path fill-rule="evenodd" clip-rule="evenodd" d="M259.033 84.0365V120.411H297.031V84.0365H259.033ZM258.728 82.3457C257.963 82.3457 257.342 82.9661 257.342 83.7315V120.716C257.342 121.481 257.963 122.102 258.728 122.102H297.336C298.101 122.102 298.722 121.481 298.722 120.716V83.7315C298.722 82.9661 298.101 82.3457 297.336 82.3457H258.728Z" fill="#242332"/>
<path fill-rule="evenodd" clip-rule="evenodd" d="M263.903 88.64V115.656H292.16V88.64H263.903ZM263.802 86.9492C262.924 86.9492 262.212 87.6608 262.212 88.5385V115.757C262.212 116.635 262.924 117.347 263.802 117.347H292.262C293.14 117.347 293.851 116.635 293.851 115.757V88.5385C293.851 87.6608 293.14 86.9492 292.262 86.9492H263.802Z" fill="white"/>
<path fill-rule="evenodd" clip-rule="evenodd" d="M267.743 76.8457C268.21 76.8457 268.588 77.2242 268.588 77.6911V82.3454C268.588 82.8123 268.21 83.1908 267.743 83.1908C267.276 83.1908 266.897 82.8123 266.897 82.3454V77.6911C266.897 77.2242 267.276 76.8457 267.743 76.8457Z" fill="#242332"/>
<path fill-rule="evenodd" clip-rule="evenodd" d="M303.2 91.5446C303.2 92.0115 302.822 92.39 302.355 92.39H298.313C297.846 92.39 297.468 92.0115 297.468 91.5446C297.468 91.0777 297.846 90.6992 298.313 90.6992H302.355C302.822 90.6992 303.2 91.0777 303.2 91.5446Z" fill="#242332"/>
<path fill-rule="evenodd" clip-rule="evenodd" d="M258.933 91.5446C258.933 92.0115 258.554 92.39 258.087 92.39H254.046C253.579 92.39 253.2 92.0115 253.2 91.5446C253.2 91.0777 253.579 90.6992 254.046 90.6992H258.087C258.554 90.6992 258.933 91.0777 258.933 91.5446Z" fill="#242332"/>
<path fill-rule="evenodd" clip-rule="evenodd" d="M267.743 121.18C268.21 121.18 268.588 121.558 268.588 122.025V126.001C268.588 126.468 268.21 126.846 267.743 126.846C267.276 126.846 266.897 126.468 266.897 126.001V122.025C266.897 121.558 267.276 121.18 267.743 121.18Z" fill="#242332"/>
<path fill-rule="evenodd" clip-rule="evenodd" d="M274.64 76.8457C275.106 76.8457 275.485 77.2242 275.485 77.6911V82.3454C275.485 82.8123 275.106 83.1908 274.64 83.1908C274.173 83.1908 273.794 82.8123 273.794 82.3454V77.6911C273.794 77.2242 274.173 76.8457 274.64 76.8457Z" fill="#242332"/>
<path fill-rule="evenodd" clip-rule="evenodd" d="M303.2 98.1716C303.2 98.6385 302.822 99.017 302.355 99.017H298.313C297.846 99.017 297.468 98.6385 297.468 98.1716C297.468 97.7047 297.846 97.3262 298.313 97.3262H302.355C302.822 97.3262 303.2 97.7047 303.2 98.1716Z" fill="#242332"/>
<path fill-rule="evenodd" clip-rule="evenodd" d="M258.933 98.1716C258.933 98.6385 258.554 99.017 258.087 99.017H254.046C253.579 99.017 253.2 98.6385 253.2 98.1716C253.2 97.7047 253.579 97.3262 254.046 97.3262H258.087C258.554 97.3262 258.933 97.7047 258.933 98.1716Z" fill="#242332"/>
<path fill-rule="evenodd" clip-rule="evenodd" d="M274.639 121.18C275.106 121.18 275.485 121.558 275.485 122.025V126.001C275.485 126.468 275.106 126.846 274.639 126.846C274.172 126.846 273.794 126.468 273.794 126.001V122.025C273.794 121.558 274.172 121.18 274.639 121.18Z" fill="#242332"/>
<path fill-rule="evenodd" clip-rule="evenodd" d="M281.536 76.8457C282.003 76.8457 282.382 77.2242 282.382 77.6911V82.3454C282.382 82.8123 282.003 83.1908 281.536 83.1908C281.069 83.1908 280.691 82.8123 280.691 82.3454V77.6911C280.691 77.2242 281.069 76.8457 281.536 76.8457Z" fill="#242332"/>
<path fill-rule="evenodd" clip-rule="evenodd" d="M303.2 104.798C303.2 105.264 302.822 105.643 302.355 105.643H298.313C297.846 105.643 297.468 105.264 297.468 104.798C297.468 104.331 297.846 103.952 298.313 103.952H302.355C302.822 103.952 303.2 104.331 303.2 104.798Z" fill="#242332"/>
<path fill-rule="evenodd" clip-rule="evenodd" d="M258.933 104.798C258.933 105.264 258.554 105.643 258.087 105.643H254.046C253.579 105.643 253.2 105.264 253.2 104.798C253.2 104.331 253.579 103.952 254.046 103.952H258.087C258.554 103.952 258.933 104.331 258.933 104.798Z" fill="#242332"/>
<path fill-rule="evenodd" clip-rule="evenodd" d="M281.536 121.18C282.003 121.18 282.382 121.558 282.382 122.025V126.001C282.382 126.468 282.003 126.846 281.536 126.846C281.069 126.846 280.691 126.468 280.691 126.001V122.025C280.691 121.558 281.069 121.18 281.536 121.18Z" fill="#242332"/>
<path fill-rule="evenodd" clip-rule="evenodd" d="M288.432 76.8457C288.899 76.8457 289.278 77.2242 289.278 77.6911V82.3454C289.278 82.8123 288.899 83.1908 288.432 83.1908C287.965 83.1908 287.587 82.8123 287.587 82.3454V77.6911C287.587 77.2242 287.965 76.8457 288.432 76.8457Z" fill="#242332"/>
<path fill-rule="evenodd" clip-rule="evenodd" d="M303.2 111.423C303.2 111.89 302.822 112.268 302.355 112.268H298.313C297.846 112.268 297.468 111.89 297.468 111.423C297.468 110.956 297.846 110.577 298.313 110.577H302.355C302.822 110.577 303.2 110.956 303.2 111.423Z" fill="#242332"/>
<path fill-rule="evenodd" clip-rule="evenodd" d="M258.933 111.423C258.933 111.889 258.554 112.268 258.087 112.268H254.046C253.579 112.268 253.2 111.889 253.2 111.423C253.2 110.956 253.579 110.577 254.046 110.577H258.087C258.554 110.577 258.933 110.956 258.933 111.423Z" fill="#242332"/>
<path fill-rule="evenodd" clip-rule="evenodd" d="M288.432 121.18C288.899 121.18 289.278 121.558 289.278 122.025V126.001C289.278 126.468 288.899 126.846 288.432 126.846C287.965 126.846 287.587 126.468 287.587 126.001V122.025C287.587 121.558 287.965 121.18 288.432 121.18Z" fill="#242332"/>
</g>
<g filter="url(#filter3_i_4009_5696)">
<path d="M397.9 112.906C397.9 117.002 394.579 120.322 390.483 120.322C386.387 120.322 383.066 117.002 383.066 112.906C383.066 108.81 386.387 105.489 390.483 105.489C394.579 105.489 397.9 108.81 397.9 112.906Z" fill="white"/>
</g>
<path d="M399.5 112.849C399.5 117.852 395.43 121.922 390.427 121.922C385.424 121.922 381.354 117.852 381.354 112.849C381.354 109.607 383.057 106.661 385.835 105.031V84.4617C385.835 81.9293 387.895 79.8691 390.427 79.8691C392.959 79.8691 395.02 81.9293 395.02 84.4617V105.031C397.797 106.659 399.5 109.606 399.5 112.849ZM397.708 112.849C397.708 110.098 396.179 107.612 393.718 106.361L393.227 106.112V84.4626C393.227 82.9177 391.971 81.6622 390.427 81.6622C388.883 81.6622 387.627 82.9177 387.627 84.4626V106.112L387.137 106.361C384.675 107.612 383.146 110.099 383.146 112.849C383.146 116.864 386.413 120.13 390.427 120.13C394.442 120.13 397.708 116.864 397.708 112.849Z" fill="black"/>
<path fill-rule="evenodd" clip-rule="evenodd" d="M406.733 96.6943C407.151 96.6943 407.49 97.033 407.49 97.4509V104.316L410.791 101.015C411.086 100.72 411.565 100.72 411.861 101.015C412.156 101.311 412.156 101.79 411.861 102.085L407.268 106.678C406.973 106.973 406.494 106.973 406.198 106.678L401.335 101.814C401.039 101.518 401.039 101.039 401.335 100.744C401.63 100.448 402.109 100.448 402.405 100.744L405.977 104.316V97.4509C405.977 97.033 406.316 96.6943 406.733 96.6943Z" fill="black"/>
<path fill-rule="evenodd" clip-rule="evenodd" d="M390.483 90.0508C390.901 90.0508 391.24 90.3896 391.24 90.8074V104.318C391.24 104.736 390.901 105.075 390.483 105.075C390.065 105.075 389.726 104.736 389.726 104.318V90.8074C389.726 90.3896 390.065 90.0508 390.483 90.0508Z" fill="black"/>
<path fill-rule="evenodd" clip-rule="evenodd" d="M406.733 89.4316C407.151 89.4316 407.489 89.7704 407.489 90.1882V93.0954C407.489 93.5133 407.151 93.852 406.733 93.852C406.315 93.852 405.976 93.5133 405.976 93.0954V90.1882C405.976 89.7704 406.315 89.4316 406.733 89.4316Z" fill="black"/>
<path fill-rule="evenodd" clip-rule="evenodd" d="M406.733 82.1699C407.151 82.1699 407.49 82.5087 407.49 82.9265V85.8337C407.49 86.2516 407.151 86.5903 406.733 86.5903C406.315 86.5903 405.976 86.2516 405.976 85.8337V82.9265C405.976 82.5087 406.315 82.1699 406.733 82.1699Z" fill="black"/>
<mask id="mask1_4009_5696" style="mask-type:luminance" maskUnits="userSpaceOnUse" x="479" y="78" width="51" height="51">
<path d="M529.306 78.8457H479.306V128.846H529.306V78.8457Z" fill="white"/>
</mask>
<g mask="url(#mask1_4009_5696)">
<path fill-rule="evenodd" clip-rule="evenodd" d="M529.306 122.54H479.306V85.04H529.306V122.54ZM527.784 86.4649H480.827V121.115H527.784V86.4649Z" fill="#242332"/>
<path fill-rule="evenodd" clip-rule="evenodd" d="M483.191 117.793C483.191 118.187 482.851 118.506 482.431 118.506H480.257C479.837 118.506 479.496 118.187 479.496 117.793C479.496 117.4 479.837 117.081 480.257 117.081H482.431C482.851 117.081 483.191 117.4 483.191 117.793Z" fill="#242332"/>
<path fill-rule="evenodd" clip-rule="evenodd" d="M483.191 113.792C483.191 114.186 482.851 114.505 482.431 114.505H480.257C479.837 114.505 479.496 114.186 479.496 113.792C479.496 113.399 479.837 113.08 480.257 113.08H482.431C482.851 113.08 483.191 113.399 483.191 113.792Z" fill="#242332"/>
<path fill-rule="evenodd" clip-rule="evenodd" d="M483.191 109.792C483.191 110.186 482.851 110.505 482.431 110.505H480.257C479.837 110.505 479.496 110.186 479.496 109.792C479.496 109.399 479.837 109.08 480.257 109.08H482.431C482.851 109.08 483.191 109.399 483.191 109.792Z" fill="#242332"/>
<path fill-rule="evenodd" clip-rule="evenodd" d="M483.191 93.7184C483.191 94.1118 482.851 94.4308 482.431 94.4308H480.257C479.837 94.4308 479.496 94.1118 479.496 93.7184C479.496 93.3249 479.837 93.0059 480.257 93.0059H482.431C482.851 93.0059 483.191 93.3249 483.191 93.7184Z" fill="#242332"/>
<path fill-rule="evenodd" clip-rule="evenodd" d="M483.191 105.792C483.191 106.185 482.851 106.504 482.431 106.504H480.257C479.837 106.504 479.496 106.185 479.496 105.792C479.496 105.398 479.837 105.079 480.257 105.079H482.431C482.851 105.079 483.191 105.398 483.191 105.792Z" fill="#242332"/>
<path fill-rule="evenodd" clip-rule="evenodd" d="M483.191 89.7184C483.191 90.1118 482.851 90.4308 482.431 90.4308H480.257C479.837 90.4308 479.496 90.1118 479.496 89.7184C479.496 89.3249 479.837 89.0059 480.257 89.0059H482.431C482.851 89.0059 483.191 89.3249 483.191 89.7184Z" fill="#242332"/>
<path fill-rule="evenodd" clip-rule="evenodd" d="M493.402 90.7471C493.822 90.7471 494.163 91.066 494.163 91.4595V99.6016C494.163 99.9951 493.822 100.314 493.402 100.314C492.982 100.314 492.641 99.9951 492.641 99.6016V91.4595C492.641 91.066 492.982 90.7471 493.402 90.7471Z" fill="#242332"/>
<path fill-rule="evenodd" clip-rule="evenodd" d="M488.667 90.7471C489.087 90.7471 489.428 91.066 489.428 91.4595V99.6016C489.428 99.9951 489.087 100.314 488.667 100.314C488.247 100.314 487.906 99.9951 487.906 99.6016V91.4595C487.906 91.066 488.247 90.7471 488.667 90.7471Z" fill="#242332"/>
<path fill-rule="evenodd" clip-rule="evenodd" d="M498.137 90.7471C498.557 90.7471 498.898 91.066 498.898 91.4595V103.673C498.898 104.066 498.557 104.385 498.137 104.385C497.717 104.385 497.376 104.066 497.376 103.673V91.4595C497.376 91.066 497.717 90.7471 498.137 90.7471Z" fill="#242332"/>
<path fill-rule="evenodd" clip-rule="evenodd" d="M522.677 112.104C522.677 112.498 522.336 112.817 521.916 112.817H508.873C508.452 112.817 508.112 112.498 508.112 112.104C508.112 111.711 508.452 111.392 508.873 111.392H521.916C522.336 111.392 522.677 111.711 522.677 112.104Z" fill="#242332"/>
<path fill-rule="evenodd" clip-rule="evenodd" d="M522.677 116.464C522.677 116.858 522.336 117.177 521.916 117.177H508.873C508.452 117.177 508.112 116.858 508.112 116.464C508.112 116.071 508.452 115.752 508.873 115.752H521.916C522.336 115.752 522.677 116.071 522.677 116.464Z" fill="#242332"/>
<path d="M489.632 108.234H496.058V111.349H489.632V108.234Z" fill="#242332"/>
<path d="M489.632 113.628H496.058V116.743H489.632V113.628Z" fill="#242332"/>
<g filter="url(#filter4_i_4009_5696)">
<path d="M521.015 91.7998H509.839C509.46 91.7998 509.152 92.1075 509.152 92.4871V103.663C509.152 104.042 509.46 104.35 509.839 104.35H521.015C521.394 104.35 521.702 104.042 521.702 103.663V92.4871C521.702 92.1075 521.394 91.7998 521.015 91.7998Z" fill="white"/>
</g>
<path fill-rule="evenodd" clip-rule="evenodd" d="M510.61 93.2581V102.892H520.244V93.2581H510.61ZM509.779 91.7998C509.433 91.7998 509.152 92.0807 509.152 92.4273V103.722C509.152 104.069 509.433 104.35 509.779 104.35H521.075C521.421 104.35 521.702 104.069 521.702 103.722V92.4273C521.702 92.0807 521.421 91.7998 521.075 91.7998H509.779Z" fill="#242332"/>
<path fill-rule="evenodd" clip-rule="evenodd" d="M524.264 96.7096C524.264 97.1123 523.938 97.4388 523.535 97.4388H521.455C521.053 97.4388 520.726 97.1123 520.726 96.7096C520.726 96.3069 521.053 95.9805 521.455 95.9805H523.535C523.938 95.9805 524.264 96.3069 524.264 96.7096Z" fill="#242332"/>
<path fill-rule="evenodd" clip-rule="evenodd" d="M510.584 96.7096C510.584 97.1123 510.257 97.4388 509.855 97.4388H507.775C507.372 97.4388 507.046 97.1123 507.046 96.7096C507.046 96.3069 507.372 95.9805 507.775 95.9805H509.855C510.257 95.9805 510.584 96.3069 510.584 96.7096Z" fill="#242332"/>
<path fill-rule="evenodd" clip-rule="evenodd" d="M524.265 99.4401C524.265 99.8428 523.938 100.169 523.535 100.169H521.456C521.053 100.169 520.727 99.8428 520.727 99.4401C520.727 99.0374 521.053 98.7109 521.456 98.7109H523.535C523.938 98.7109 524.265 99.0374 524.265 99.4401Z" fill="#242332"/>
<path fill-rule="evenodd" clip-rule="evenodd" d="M510.584 99.4401C510.584 99.8428 510.257 100.169 509.855 100.169H507.775C507.372 100.169 507.046 99.8428 507.046 99.4401C507.046 99.0374 507.372 98.7109 507.775 98.7109H509.855C510.257 98.7109 510.584 99.0374 510.584 99.4401Z" fill="#242332"/>
<path fill-rule="evenodd" clip-rule="evenodd" d="M513.68 89.6045C514.083 89.6045 514.409 89.931 514.409 90.3337V92.417C514.409 92.8197 514.083 93.1462 513.68 93.1462C513.277 93.1462 512.951 92.8197 512.951 92.417V90.3337C512.951 89.931 513.277 89.6045 513.68 89.6045Z" fill="#242332"/>
<path fill-rule="evenodd" clip-rule="evenodd" d="M513.68 103.117C514.083 103.117 514.409 103.444 514.409 103.846V105.93C514.409 106.332 514.083 106.659 513.68 106.659C513.277 106.659 512.951 106.332 512.951 105.93V103.846C512.951 103.444 513.277 103.117 513.68 103.117Z" fill="#242332"/>
<path fill-rule="evenodd" clip-rule="evenodd" d="M517.489 89.6045C517.892 89.6045 518.218 89.9309 518.218 90.3336V92.417C518.218 92.8197 517.892 93.1461 517.489 93.1461C517.087 93.1461 516.76 92.8197 516.76 92.417V90.3336C516.76 89.9309 517.087 89.6045 517.489 89.6045Z" fill="#242332"/>
<path fill-rule="evenodd" clip-rule="evenodd" d="M517.489 103.117C517.892 103.117 518.218 103.444 518.218 103.846V105.93C518.218 106.332 517.892 106.659 517.489 106.659C517.087 106.659 516.76 106.332 516.76 105.93V103.846C516.76 103.444 517.087 103.117 517.489 103.117Z" fill="#242332"/>
</g>
<g filter="url(#filter5_i_4009_5696)">
<path d="M165.595 191.146H142.425C142.046 191.146 141.738 191.453 141.738 191.833V210.055C141.738 210.434 142.046 210.742 142.425 210.742H165.595C165.974 210.742 166.282 210.434 166.282 210.055V191.833C166.282 191.453 165.974 191.146 165.595 191.146Z" fill="white"/>
</g>
<path d="M144.625 182.548H163.46C163.831 182.548 164.132 182.254 164.132 181.892C164.132 181.529 163.831 181.235 163.46 181.235H144.625C144.254 181.235 143.954 181.529 143.954 181.892C143.954 182.254 144.254 182.548 144.625 182.548Z" fill="black"/>
<path d="M169.744 178.45C168.826 178.45 138.81 178.45 138.341 178.45C136.975 178.45 135.864 179.536 135.864 180.871V220.821C135.864 222.156 136.975 223.242 138.341 223.242H169.744C171.11 223.242 172.221 222.156 172.221 220.821V180.871C172.221 179.536 171.11 178.45 169.744 178.45ZM142.401 179.763H165.684V183.996C165.684 184.014 165.669 184.029 165.65 184.029H142.435C142.416 184.029 142.401 184.014 142.401 183.996V179.763ZM165.684 221.929H163.46V219.924C163.46 219.561 163.159 219.267 162.789 219.267C162.418 219.267 162.117 219.561 162.117 219.924V221.929H159.087V219.924C159.087 219.561 158.786 219.267 158.416 219.267C158.045 219.267 157.744 219.561 157.744 219.924V221.929H154.714V219.924C154.714 219.561 154.413 219.267 154.043 219.267C153.672 219.267 153.371 219.561 153.371 219.924V221.929H150.341V219.924C150.341 219.561 150.04 219.267 149.67 219.267C149.299 219.267 148.998 219.561 148.998 219.924V221.929H145.968V219.924C145.968 219.561 145.667 219.267 145.296 219.267C144.926 219.267 144.625 219.561 144.625 219.924V221.929H142.401V217.687C142.401 217.669 142.416 217.654 142.435 217.654H165.65C165.669 217.654 165.684 217.669 165.684 217.687L165.684 221.929ZM170.878 220.821C170.878 221.432 170.369 221.929 169.744 221.929H167.027V217.687C167.027 216.945 166.409 216.341 165.65 216.341H142.435C141.676 216.341 141.058 216.945 141.058 217.687V221.929H138.341C137.716 221.929 137.207 221.432 137.207 220.821V180.871C137.207 180.26 137.716 179.763 138.341 179.763H141.058V183.996C141.058 184.738 141.676 185.342 142.435 185.342H165.65C166.409 185.342 167.027 184.738 167.027 183.996V179.763H169.744C170.369 179.763 170.878 180.26 170.878 180.871V220.821Z" fill="black"/>
<path d="M166.356 208.137C165.985 208.137 165.684 208.431 165.684 208.793V209.964C165.684 210.249 165.448 210.48 165.157 210.48H142.929C142.638 210.48 142.401 210.248 142.401 209.964V196.41C142.401 196.048 142.101 195.754 141.73 195.754C141.359 195.754 141.058 196.048 141.058 196.41V209.964C141.058 210.972 141.897 211.792 142.929 211.792H165.157C166.188 211.792 167.027 210.972 167.027 209.964V208.793C167.027 208.431 166.727 208.137 166.356 208.137Z" fill="black"/>
<path d="M165.156 189.899H142.929C141.897 189.899 141.058 190.72 141.058 191.728V193.342C141.058 193.704 141.359 193.998 141.73 193.998C142.101 193.998 142.401 193.704 142.401 193.342V191.728C142.401 191.443 142.638 191.212 142.929 191.212H165.156C165.448 191.212 165.684 191.443 165.684 191.728V205.725C165.684 206.087 165.985 206.381 166.356 206.381C166.727 206.381 167.027 206.087 167.027 205.725V191.728C167.027 190.72 166.188 189.899 165.156 189.899Z" fill="black"/>
<g clip-path="url(#clip1_4009_5696)">
<g filter="url(#filter6_d_4009_5696)">
<path d="M523.161 197.846C523.161 187.49 514.766 179.096 504.411 179.096C494.056 179.096 485.661 187.49 485.661 197.846C485.661 208.201 494.056 216.596 504.411 216.596C514.766 216.596 523.161 208.201 523.161 197.846Z" fill="white"/>
</g>
<path d="M511.036 192.262C512.347 193.573 513.239 195.243 513.601 197.062C513.962 198.88 513.776 200.765 513.067 202.478C512.357 204.191 511.155 205.655 509.614 206.685C508.072 207.715 506.26 208.265 504.406 208.265C502.552 208.265 500.739 207.715 499.198 206.685C497.656 205.655 496.454 204.191 495.745 202.478C495.035 200.765 494.849 198.88 495.211 197.062C495.572 195.243 496.465 193.573 497.775 192.262" stroke="black" stroke-width="1.71143" stroke-linecap="round" stroke-linejoin="round"/>
<path d="M504.411 187.429V197.845" stroke="black" stroke-width="2.2819" stroke-linecap="round" stroke-linejoin="round"/>
</g>
<path d="M387.811 183.481H388.296C388.296 183.319 388.215 183.167 388.08 183.077C387.945 182.987 387.775 182.971 387.625 183.033L387.811 183.481ZM387.811 224.21L387.519 224.597C387.666 224.708 387.863 224.726 388.027 224.644C388.192 224.562 388.296 224.394 388.296 224.21H387.811ZM412.602 190.163C412.87 190.163 413.087 189.946 413.087 189.679C413.087 189.411 412.87 189.194 412.602 189.194V190.163ZM394.894 189.194C394.626 189.194 394.409 189.411 394.409 189.679C394.409 189.946 394.626 190.163 394.894 190.163V189.194ZM405.519 194.591C405.787 194.591 406.004 194.373 406.004 194.106C406.004 193.838 405.787 193.621 405.519 193.621V194.591ZM387.811 193.621C387.543 193.621 387.326 193.838 387.326 194.106C387.326 194.373 387.543 194.591 387.811 194.591V193.621ZM412.602 199.018C412.87 199.018 413.087 198.801 413.087 198.533C413.087 198.265 412.87 198.048 412.602 198.048V199.018ZM394.894 198.048C394.626 198.048 394.409 198.265 394.409 198.533C394.409 198.801 394.626 199.018 394.894 199.018V198.048ZM401.577 213.585C401.577 213.317 401.36 213.1 401.092 213.1C400.824 213.1 400.607 213.317 400.607 213.585H401.577ZM400.607 215.356C400.607 215.623 400.824 215.841 401.092 215.841C401.36 215.841 401.577 215.623 401.577 215.356H400.607ZM388.696 183.08H411.717V182.11H388.696V183.08ZM413.003 184.366V223.324H413.973V184.366H413.003ZM411.717 224.61H388.696V225.58H411.717V224.61ZM387.41 223.324V184.366H386.44V223.324H387.41ZM388.696 224.61C387.986 224.61 387.41 224.035 387.41 223.324H386.44C386.44 224.57 387.45 225.58 388.696 225.58V224.61ZM413.003 223.324C413.003 224.035 412.427 224.61 411.717 224.61V225.58C412.963 225.58 413.973 224.57 413.973 223.324H413.003ZM411.717 183.08C412.427 183.08 413.003 183.656 413.003 184.366H413.973C413.973 183.12 412.963 182.11 411.717 182.11V183.08ZM388.696 182.11C387.45 182.11 386.44 183.12 386.44 184.366H387.41C387.41 183.656 387.986 183.08 388.696 183.08V182.11ZM387.625 183.033L378.978 186.616L379.35 187.512L387.996 183.929L387.625 183.033ZM377.586 188.7V215.988H378.556V188.7H377.586ZM378.484 217.79L387.519 224.597L388.102 223.823L379.068 217.015L378.484 217.79ZM388.296 224.21V183.481H387.326V224.21H388.296ZM377.586 215.988C377.586 216.697 377.919 217.364 378.484 217.79L379.068 217.015C378.746 216.772 378.556 216.392 378.556 215.988H377.586ZM378.978 186.616C378.136 186.965 377.586 187.788 377.586 188.7H378.556C378.556 188.18 378.869 187.711 379.35 187.512L378.978 186.616ZM412.602 189.194H394.894V190.163H412.602V189.194ZM405.519 193.621H387.811V194.591H405.519V193.621ZM412.602 198.048H394.894V199.018H412.602V198.048ZM400.607 213.585V215.356H401.577V213.585H400.607Z" fill="black"/>
<path d="M279.376 189.81L257.585 211.601L264.96 218.976L286.751 197.017L279.376 189.81Z" fill="white" stroke="black" stroke-width="1.14095"/>
<path d="M288.805 189.301C289.155 189.254 289.471 189.173 289.739 188.951C290.089 188.647 290.404 188.729 290.708 189.032C292.202 190.539 293.708 192.034 295.202 193.541C295.634 193.985 295.611 194.207 295.109 194.709C292.155 197.676 289.19 200.631 286.237 203.587C280.529 209.298 274.821 215.01 269.113 220.722C267.514 222.322 265.926 223.911 264.327 225.511C263.79 226.048 263.627 226.072 263.078 225.534C262.81 225.277 262.646 225.312 262.413 225.558C261.969 226.025 261.502 226.469 261.059 226.924C260.697 227.286 260.358 227.286 259.996 226.924C257.755 224.682 255.514 222.439 253.273 220.196C252.911 219.834 252.934 219.507 253.273 219.133C253.495 218.888 254.032 218.654 253.623 218.257C253.203 217.837 252.934 218.351 252.689 218.608C252.351 218.946 252.047 218.935 251.732 218.619C251.055 217.954 250.378 217.276 249.713 216.599C249.409 216.295 249.444 215.979 249.736 215.676C250.203 215.209 250.658 214.73 251.137 214.274C251.382 214.041 251.44 213.854 251.16 213.608C250.693 213.211 250.763 212.814 251.16 212.417C252.187 211.389 253.226 210.361 254.265 209.333C263.3 200.304 272.335 191.263 281.381 182.223C281.638 181.966 281.906 181.709 282.163 181.44C282.455 181.136 282.759 181.09 283.074 181.405C284.626 182.959 286.191 184.512 287.731 186.066C288.093 186.428 287.906 186.755 287.661 187.105C287.334 187.561 287.334 188.063 287.58 188.542C287.836 189.044 288.28 189.266 288.805 189.301ZM288.875 190.411C287.101 190.411 285.922 188.752 286.447 187.094C286.587 186.65 286.517 186.381 286.202 186.066C285.152 185.049 284.113 184.022 283.109 182.97C282.724 182.561 282.502 182.573 282.105 182.97C277.237 187.876 272.346 192.759 267.467 197.641C262.459 202.652 257.463 207.675 252.467 212.686C252.257 212.896 252.106 213.024 252.409 213.328C256.016 216.926 259.623 220.535 263.206 224.156C263.603 224.565 263.813 224.483 264.164 224.133C268.354 219.928 272.545 215.734 276.747 211.529C282.373 205.899 288 200.269 293.626 194.639C294.198 194.067 294.198 194.067 293.603 193.483C292.657 192.537 291.688 191.602 290.766 190.633C290.381 190.236 290.031 189.967 289.471 190.282C289.272 190.399 289.015 190.387 288.875 190.411ZM253.378 217.019C254.055 217.031 254.662 217.51 254.837 218.164C254.965 218.654 254.849 219.087 254.557 219.484C254.417 219.671 254.44 219.846 254.615 219.998C254.814 220.161 254.93 220.021 255.059 219.904C255.257 219.717 255.444 219.507 255.654 219.355C255.888 219.18 256.133 219.215 256.343 219.425C256.53 219.624 256.541 219.857 256.389 220.068C256.238 220.266 256.074 220.465 255.888 220.628C255.619 220.862 255.631 221.049 255.876 221.306C256.144 221.575 256.331 221.516 256.541 221.271C256.681 221.107 256.845 220.967 257.008 220.839C257.253 220.652 257.533 220.652 257.755 220.874C257.989 221.107 257.942 221.376 257.744 221.61C257.615 221.761 257.475 221.89 257.335 222.03C257.113 222.229 256.938 222.392 257.242 222.684C257.51 222.953 257.732 223.046 258 222.708C258.14 222.544 258.292 222.392 258.467 222.264C258.712 222.077 258.969 222.042 259.191 222.287C259.401 222.521 259.389 222.789 259.191 223.023C259.051 223.186 258.911 223.35 258.747 223.49C258.444 223.747 258.514 223.957 258.771 224.214C259.039 224.495 259.214 224.401 259.436 224.168C259.588 223.992 259.763 223.829 259.95 223.689C260.183 223.514 260.428 223.525 260.638 223.735C260.849 223.946 260.849 224.191 260.673 224.425C260.533 224.611 260.37 224.787 260.195 224.938C259.926 225.16 259.915 225.336 260.16 225.604C260.428 225.885 260.627 225.861 260.872 225.593C261.082 225.359 261.292 225.125 261.549 224.95C261.981 224.646 261.899 224.413 261.561 224.086C259.763 222.31 257.977 220.512 256.191 218.724C254.989 217.533 253.798 216.33 252.596 215.139C252.432 214.975 252.269 214.695 251.977 214.987C251.65 215.314 251.323 215.652 250.985 215.979C250.88 216.085 250.798 216.19 250.927 216.33C251.078 216.482 251.207 216.388 251.323 216.283C251.51 216.108 251.685 215.921 251.872 215.758C252.094 215.559 252.339 215.454 252.596 215.699C252.853 215.933 252.853 216.225 252.642 216.482C252.491 216.68 252.281 216.832 252.094 217.007C251.954 217.136 251.814 217.241 251.977 217.44C252.129 217.615 252.257 217.486 252.386 217.405C252.701 217.159 253.016 217.007 253.378 217.019Z" fill="black"/>
<path d="M290.591 194.067C290.603 193.541 291.011 193.132 291.537 193.144C292.05 193.155 292.47 193.588 292.459 194.09C292.447 194.604 292.004 195.024 291.502 195.024C290.988 195.013 290.579 194.581 290.591 194.067Z" fill="black"/>
<path d="M282.431 184.783C282.91 184.772 283.307 185.169 283.318 185.636C283.33 186.103 282.933 186.5 282.443 186.5C281.953 186.5 281.567 186.127 281.567 185.648C281.567 185.169 281.941 184.795 282.431 184.783Z" fill="black"/>
<defs>
<filter id="filter0_i_4009_5696" x="151.179" y="89.8594" width="22.9751" height="27.1688" filterUnits="userSpaceOnUse" color-interpolation-filters="sRGB">
<feFlood flood-opacity="0" result="BackgroundImageFix"/>
<feBlend mode="normal" in="SourceGraphic" in2="BackgroundImageFix" result="shape"/>
<feColorMatrix in="SourceAlpha" type="matrix" values="0 0 0 0 0 0 0 0 0 0 0 0 0 0 0 0 0 0 127 0" result="hardAlpha"/>
<feOffset dy="4.19415"/>
<feGaussianBlur stdDeviation="2.09708"/>
<feComposite in2="hardAlpha" operator="arithmetic" k2="-1" k3="1"/>
<feColorMatrix type="matrix" values="0 0 0 0 0.141176 0 0 0 0 0.137255 0 0 0 0 0.196078 0 0 0 0.6 0"/>
<feBlend mode="normal" in2="shape" result="effect1_innerShadow_4009_5696"/>
</filter>
<filter id="filter1_d_4009_5696" x="129.048" y="80.3252" width="50" height="42.7155" filterUnits="userSpaceOnUse" color-interpolation-filters="sRGB">
<feFlood flood-opacity="0" result="BackgroundImageFix"/>
<feColorMatrix in="SourceAlpha" type="matrix" values="0 0 0 0 0 0 0 0 0 0 0 0 0 0 0 0 0 0 127 0" result="hardAlpha"/>
<feOffset dy="1.04854"/>
<feComposite in2="hardAlpha" operator="out"/>
<feColorMatrix type="matrix" values="0 0 0 0 0 0 0 0 0 0 0 0 0 0 0 0 0 0 0.25 0"/>
<feBlend mode="normal" in2="BackgroundImageFix" result="effect1_dropShadow_4009_5696"/>
<feBlend mode="normal" in="SourceGraphic" in2="effect1_dropShadow_4009_5696" result="shape"/>
</filter>
<filter id="filter2_i_4009_5696" x="262.212" y="86.9492" width="32.7866" height="34.2022" filterUnits="userSpaceOnUse" color-interpolation-filters="sRGB">
<feFlood flood-opacity="0" result="BackgroundImageFix"/>
<feBlend mode="normal" in="SourceGraphic" in2="BackgroundImageFix" result="shape"/>
<feColorMatrix in="SourceAlpha" type="matrix" values="0 0 0 0 0 0 0 0 0 0 0 0 0 0 0 0 0 0 127 0" result="hardAlpha"/>
<feOffset dx="1.14791" dy="3.80469"/>
<feGaussianBlur stdDeviation="3.80469"/>
<feComposite in2="hardAlpha" operator="arithmetic" k2="-1" k3="1"/>
<feColorMatrix type="matrix" values="0 0 0 0 0.141176 0 0 0 0 0.137255 0 0 0 0 0.196078 0 0 0 0.7 0"/>
<feBlend mode="normal" in2="shape" result="effect1_innerShadow_4009_5696"/>
</filter>
<filter id="filter3_i_4009_5696" x="383.066" y="103.122" width="14.8333" height="17.2007" filterUnits="userSpaceOnUse" color-interpolation-filters="sRGB">
<feFlood flood-opacity="0" result="BackgroundImageFix"/>
<feBlend mode="normal" in="SourceGraphic" in2="BackgroundImageFix" result="shape"/>
<feColorMatrix in="SourceAlpha" type="matrix" values="0 0 0 0 0 0 0 0 0 0 0 0 0 0 0 0 0 0 127 0" result="hardAlpha"/>
<feOffset dy="-2.36773"/>
<feGaussianBlur stdDeviation="2.36773"/>
<feComposite in2="hardAlpha" operator="arithmetic" k2="-1" k3="1"/>
<feColorMatrix type="matrix" values="0 0 0 0 0 0 0 0 0 0 0 0 0 0 0 0 0 0 0.35 0"/>
<feBlend mode="normal" in2="shape" result="effect1_innerShadow_4009_5696"/>
</filter>
<filter id="filter4_i_4009_5696" x="509.152" y="91.7998" width="14.8319" height="15.9727" filterUnits="userSpaceOnUse" color-interpolation-filters="sRGB">
<feFlood flood-opacity="0" result="BackgroundImageFix"/>
<feBlend mode="normal" in="SourceGraphic" in2="BackgroundImageFix" result="shape"/>
<feColorMatrix in="SourceAlpha" type="matrix" values="0 0 0 0 0 0 0 0 0 0 0 0 0 0 0 0 0 0 127 0" result="hardAlpha"/>
<feOffset dx="2.2819" dy="3.42285"/>
<feGaussianBlur stdDeviation="1.71143"/>
<feComposite in2="hardAlpha" operator="arithmetic" k2="-1" k3="1"/>
<feColorMatrix type="matrix" values="0 0 0 0 0.141176 0 0 0 0 0.137255 0 0 0 0 0.196078 0 0 0 0.5 0"/>
<feBlend mode="normal" in2="shape" result="effect1_innerShadow_4009_5696"/>
</filter>
<filter id="filter5_i_4009_5696" x="141.738" y="191.146" width="26.8263" height="23.0195" filterUnits="userSpaceOnUse" color-interpolation-filters="sRGB">
<feFlood flood-opacity="0" result="BackgroundImageFix"/>
<feBlend mode="normal" in="SourceGraphic" in2="BackgroundImageFix" result="shape"/>
<feColorMatrix in="SourceAlpha" type="matrix" values="0 0 0 0 0 0 0 0 0 0 0 0 0 0 0 0 0 0 127 0" result="hardAlpha"/>
<feOffset dx="2.2819" dy="3.42285"/>
<feGaussianBlur stdDeviation="1.71143"/>
<feComposite in2="hardAlpha" operator="arithmetic" k2="-1" k3="1"/>
<feColorMatrix type="matrix" values="0 0 0 0 0.141176 0 0 0 0 0.137255 0 0 0 0 0.196078 0 0 0 0.5 0"/>
<feBlend mode="normal" in2="shape" result="effect1_innerShadow_4009_5696"/>
</filter>
<filter id="filter6_d_4009_5696" x="478.815" y="175.673" width="55.7552" height="55.7552" filterUnits="userSpaceOnUse" color-interpolation-filters="sRGB">
<feFlood flood-opacity="0" result="BackgroundImageFix"/>
<feColorMatrix in="SourceAlpha" type="matrix" values="0 0 0 0 0 0 0 0 0 0 0 0 0 0 0 0 0 0 127 0" result="hardAlpha"/>
<feOffset dx="2.2819" dy="5.70475"/>
<feGaussianBlur stdDeviation="4.5638"/>
<feComposite in2="hardAlpha" operator="out"/>
<feColorMatrix type="matrix" values="0 0 0 0 0.141176 0 0 0 0 0.137255 0 0 0 0 0.196078 0 0 0 0.3 0"/>
<feBlend mode="normal" in2="BackgroundImageFix" result="effect1_dropShadow_4009_5696"/>
<feBlend mode="normal" in="SourceGraphic" in2="effect1_dropShadow_4009_5696" result="shape"/>
</filter>
<clipPath id="clip0_4009_5696">
<rect width="51" height="51" fill="white" transform="translate(253 76)"/>
</clipPath>
<clipPath id="clip1_4009_5696">
<rect width="51" height="51" fill="white" transform="translate(479 172)"/>
</clipPath>
</defs>
</svg>
