<svg width="145" height="129" viewBox="0 0 145 129" fill="none" xmlns="http://www.w3.org/2000/svg">
<g clip-path="url(#clip0)">
<path d="M49.8462 124.429L49.8529 106.282H79.4337C80.3286 106.282 81.1034 105.941 81.7512 105.267C82.3991 104.552 82.713 103.691 82.6996 102.675L82.6529 99.0688H49.7794L49.7193 94.6006C49.6993 93.0311 50.6143 91.8623 52.1905 91.8623H85.7786C87.7088 91.8623 89.4386 93.5587 89.4653 95.4756L89.3718 106.282C89.3852 107.297 89.0646 108.159 88.4234 108.873C87.7756 109.548 87.0008 109.889 86.1059 109.889C87.0008 109.889 87.7822 110.249 88.4501 110.957C89.1113 111.672 89.452 112.513 89.4653 113.489L89.3852 127.908H53.3994C51.536 127.908 49.8663 126.279 49.8462 124.429ZM82.9334 120.702L82.8866 117.095C82.8733 116.12 82.5326 115.272 81.8714 114.564C81.2036 113.849 80.4221 113.495 79.5272 113.495H56.3314L56.4249 120.702H82.9334Z" fill="#111411"/>
<path d="M96.1241 127.908C95.8503 125.918 96.2577 124.235 97.3464 122.846C98.4617 121.423 99.9311 120.709 101.761 120.709H128.897L127.254 113.509H99.9378C97.9141 113.509 95.8837 111.732 95.6099 109.728L95.6165 94.721C95.6165 93.0847 96.5716 91.9092 98.0677 91.9092H128.951C129.225 93.9329 129.465 95.6427 128.343 97.0319C127.221 98.4211 125.11 99.1157 123.314 99.1157H101.748L101.768 106.316H129.946C131.856 106.316 133.78 107.992 134.033 109.889L137.814 127.915H96.1241V127.908Z" fill="#111411"/>
<path d="M17.6806 91.91C12.1171 91.8565 10.434 98.7959 10.434 98.7959L0.803101 127.882H8.72425L17.901 100.893C18.3151 99.6775 19.4038 98.8026 20.7262 98.7959C20.7329 98.7959 20.7462 98.7959 20.7529 98.7959H36.829L36.7555 106.67H25.2945C23.705 106.67 22.4961 107.365 21.6813 108.754C20.8731 110.177 20.6594 111.887 21.0468 113.877H36.7555L36.8089 127.889H43.7884V91.9167H17.6806V91.91Z" fill="#111411"/>
<path d="M102.612 56.6177C102.612 59.2328 101.819 60.5993 100.191 60.6331C98.6726 60.6668 97.8121 59.1653 97.4579 58.5579C92.6833 50.3669 88.263 42.6568 83.4969 34.4574L69.9915 11.3269C69.7131 10.593 69.401 10.593 69.0636 11.2847C59.9278 27.0425 50.8089 42.8086 41.6309 58.541C41.167 59.334 40.5596 60.6837 38.8725 60.6331C37.3203 60.5909 36.4515 59.2412 36.5021 56.7105V19.9734C36.4937 18.8599 36.6792 17.8645 37.7506 17.215L59.5482 3.86982C59.7338 3.76016 59.9531 3.97105 59.835 4.15664C57.4309 7.95266 56.2414 12.0271 51.3066 15.0892C46.9116 17.8139 47.6202 17.4006 43.1831 20.0999C42.2046 20.6989 41.5044 21.2725 41.5044 22.7234C41.5044 30.6951 41.4791 39.4681 41.5044 47.4482C41.5128 48.5955 42.019 47.6929 42.019 47.6929C50.2859 33.3692 60.2062 15.764 68.414 1.39819C69.4769 -0.457646 69.8481 -0.0358649 70.7254 1.48255L96.842 47.3132C97.3566 48.2074 97.6603 48.0809 97.694 47.9122V22.9934C97.7109 21.5677 97.1373 20.7832 96.0069 20.1084C91.4854 17.4006 92.4134 17.7802 87.8834 15.0892C85.3865 13.6045 80.6878 6.51861 79.3466 4.19881C79.2201 3.98792 79.4647 3.74329 79.6756 3.87826L100.925 16.7848C102.283 17.544 102.629 18.6996 102.62 20.3361L102.612 56.6177Z" fill="#FD6120"/>
<path d="M70.4977 28.1475C69.9072 26.8737 69.2914 26.8316 68.5659 28.1897L49.2315 61.7128C49.2315 61.7128 48.5566 62.7757 49.3833 63.324L68.2285 74.8471C69.2829 75.5726 69.8312 75.4966 70.8857 74.788C77.2293 70.5449 82.9655 67.3394 89.4947 63.3747C90.5154 62.7589 90.1358 62.1937 89.6887 61.4345L70.4977 28.1475ZM68.7937 40.2864C69.013 39.9068 69.0383 39.5272 69.6203 39.5272C70.1349 39.5272 70.2868 40.0333 70.5061 40.4129C72.5728 43.9727 74.6311 47.5326 76.6894 51.0924H62.5513C64.6349 47.4988 66.7101 43.8968 68.7937 40.2864ZM80.9916 61.6369C77.5667 63.7121 74.1503 65.8041 70.7507 67.9214C69.9072 68.4445 69.2492 68.4107 68.3887 67.8708C65.082 65.7619 61.7246 63.7374 58.3757 61.7128C57.4056 61.1308 56.9838 60.6246 57.7177 59.3846C58.2576 58.4651 58.789 57.5372 59.3289 56.6177H79.9034C80.4686 57.5794 81.0253 58.5495 81.5905 59.5111C82.2569 60.6331 81.8689 61.1055 80.9916 61.6369Z" fill="#FD6120"/>
<path d="M137.999 92.168C138.072 92.168 138.109 92.2046 138.109 92.278V92.74C138.109 92.8133 138.072 92.85 137.999 92.85H136.206C136.177 92.85 136.162 92.8646 136.162 92.894V97.558C136.162 97.6313 136.125 97.668 136.052 97.668H135.491C135.418 97.668 135.381 97.6313 135.381 97.558V92.894C135.381 92.8646 135.366 92.85 135.337 92.85H133.61C133.537 92.85 133.5 92.8133 133.5 92.74V92.278C133.5 92.2046 133.537 92.168 133.61 92.168H137.999Z" fill="black"/>
<path d="M143.621 92.245C143.658 92.1936 143.702 92.168 143.753 92.168H144.325C144.398 92.168 144.435 92.2046 144.435 92.278V97.558C144.435 97.6313 144.398 97.668 144.325 97.668H143.764C143.691 97.668 143.654 97.6313 143.654 97.558V93.774C143.654 93.752 143.647 93.7373 143.632 93.73C143.617 93.7226 143.606 93.73 143.599 93.752L142.136 96.293C142.099 96.3443 142.055 96.37 142.004 96.37H141.883C141.832 96.37 141.788 96.3443 141.751 96.293L140.277 93.763C140.27 93.741 140.259 93.7336 140.244 93.741C140.229 93.7483 140.222 93.763 140.222 93.785V97.558C140.222 97.6313 140.185 97.668 140.112 97.668H139.551C139.478 97.668 139.441 97.6313 139.441 97.558V92.278C139.441 92.2046 139.478 92.168 139.551 92.168H140.123C140.174 92.168 140.218 92.1936 140.255 92.245L141.916 95.072C141.923 95.0793 141.934 95.083 141.949 95.083C141.964 95.083 141.975 95.0793 141.982 95.072L143.621 92.245Z" fill="black"/>
</g>
<defs>
<clipPath id="clip0">
<rect width="144" height="128" fill="white" transform="translate(0.5 0.167969)"/>
</clipPath>
</defs>
</svg>
