<svg width="51" height="51" viewBox="0 0 51 51" fill="none" xmlns="http://www.w3.org/2000/svg">
<g filter="url(#filter0_i)">
<rect x="12.7378" y="16.1455" width="24.5443" height="19.5964" rx="0.687316" fill="white"/>
</g>
<path d="M15.6253 7.54766H34.4601C34.831 7.54766 35.1317 7.2538 35.1317 6.89135C35.1317 6.52891 34.831 6.23505 34.4601 6.23505H15.6253C15.2544 6.23505 14.9537 6.52891 14.9537 6.89135C14.9537 7.2538 15.2544 7.54766 15.6253 7.54766Z" fill="black"/>
<path d="M40.744 3.4502C39.8257 3.4502 9.80968 3.4502 9.34123 3.4502C7.97545 3.4502 6.86426 4.53613 6.86426 5.87087V45.8212C6.86426 47.1559 7.97545 48.2419 9.34123 48.2419H40.744C42.1097 48.2419 43.2209 47.1559 43.2209 45.8212V5.87087C43.2209 4.53613 42.1098 3.4502 40.744 3.4502ZM13.4011 4.76271H36.6842V8.99588C36.6842 9.01425 36.669 9.02912 36.6502 9.02912H13.4352C13.4164 9.02912 13.4011 9.01425 13.4011 8.99588V4.76271ZM36.6841 46.9293H34.4601V44.9237C34.4601 44.5612 34.1594 44.2674 33.7886 44.2674C33.4177 44.2674 33.1171 44.5612 33.1171 44.9237V46.9293H30.0872V44.9237C30.0872 44.5612 29.7865 44.2674 29.4157 44.2674C29.0448 44.2674 28.7441 44.5612 28.7441 44.9237V46.9293H25.7142V44.9237C25.7142 44.5612 25.4135 44.2674 25.0426 44.2674C24.6718 44.2674 24.3711 44.5612 24.3711 44.9237V46.9293H21.3411V44.9237C21.3411 44.5612 21.0405 44.2674 20.6696 44.2674C20.2987 44.2674 19.998 44.5612 19.998 44.9237V46.9293H16.9681V44.9237C16.9681 44.5612 16.6674 44.2674 16.2965 44.2674C15.9257 44.2674 15.625 44.5612 15.625 44.9237V46.9293H13.401V42.6871C13.401 42.6687 13.4162 42.6538 13.435 42.6538H36.65C36.6688 42.6538 36.684 42.6687 36.684 42.6871L36.6841 46.9293ZM41.8779 45.8212C41.8779 46.4322 41.3692 46.9293 40.744 46.9293H38.0272V42.6871C38.0272 41.945 37.4094 41.3413 36.6501 41.3413H13.4352C12.6759 41.3413 12.0581 41.945 12.0581 42.6871V46.9293H9.34123C8.71603 46.9293 8.2073 46.4323 8.2073 45.8212V5.87087C8.2073 5.25988 8.71594 4.76271 9.34123 4.76271H12.058V8.99588C12.058 9.73791 12.6758 10.3416 13.4351 10.3416H36.6501C37.4094 10.3416 38.0272 9.73791 38.0272 8.99588V4.76271H40.744C41.3692 4.76271 41.8779 5.2598 41.8779 5.87087V45.8212Z" fill="black"/>
<path d="M37.3557 33.1369C36.9849 33.1369 36.6842 33.4308 36.6842 33.7932V34.9642C36.6842 35.2487 36.4475 35.4801 36.1564 35.4801H13.929C13.6379 35.4801 13.4011 35.2486 13.4011 34.9642V21.4104C13.4011 21.048 13.1004 20.7541 12.7295 20.7541C12.3587 20.7541 12.058 21.048 12.058 21.4104V34.9641C12.058 35.9722 12.8972 36.7925 13.9289 36.7925H36.1564C37.188 36.7925 38.0273 35.9722 38.0273 34.9641V33.7931C38.0272 33.4308 37.7266 33.1369 37.3557 33.1369Z" fill="black"/>
<path d="M36.1564 14.8995H13.929C12.8974 14.8995 12.0581 15.7197 12.0581 16.7279V18.3421C12.0581 18.7045 12.3588 18.9984 12.7297 18.9984C13.1005 18.9984 13.4012 18.7045 13.4012 18.3421V16.7279C13.4012 16.4434 13.638 16.212 13.9291 16.212H36.1564C36.4475 16.212 36.6843 16.4434 36.6843 16.7279V30.7248C36.6843 31.0872 36.985 31.3811 37.3558 31.3811C37.7266 31.3811 38.0273 31.0872 38.0273 30.7248V16.7278C38.0272 15.7197 37.188 14.8995 36.1564 14.8995Z" fill="black"/>
<defs>
<filter id="filter0_i" x="12.7378" y="16.1455" width="26.8262" height="23.0192" filterUnits="userSpaceOnUse" color-interpolation-filters="sRGB">
<feFlood flood-opacity="0" result="BackgroundImageFix"/>
<feBlend mode="normal" in="SourceGraphic" in2="BackgroundImageFix" result="shape"/>
<feColorMatrix in="SourceAlpha" type="matrix" values="0 0 0 0 0 0 0 0 0 0 0 0 0 0 0 0 0 0 127 0" result="hardAlpha"/>
<feOffset dx="2.2819" dy="3.42285"/>
<feGaussianBlur stdDeviation="1.71143"/>
<feComposite in2="hardAlpha" operator="arithmetic" k2="-1" k3="1"/>
<feColorMatrix type="matrix" values="0 0 0 0 0.141176 0 0 0 0 0.137255 0 0 0 0 0.196078 0 0 0 0.5 0"/>
<feBlend mode="normal" in2="shape" result="effect1_innerShadow"/>
</filter>
</defs>
</svg>
