<svg width="51" height="51" viewBox="0 0 51 51" fill="none" xmlns="http://www.w3.org/2000/svg">
<g filter="url(#filter0_i)">
<path d="M27.8995 37.9058C27.8995 42.0019 24.5789 45.3224 20.4829 45.3224C16.3868 45.3224 13.0663 42.0019 13.0663 37.9058C13.0663 33.8098 16.3868 30.4893 20.4829 30.4893C24.5789 30.4893 27.8995 33.8098 27.8995 37.9058Z" fill="white"/>
</g>
<path d="M29.4999 37.8492C29.4999 42.8521 25.4298 46.9222 20.4269 46.9222C15.424 46.9222 11.3539 42.8521 11.3539 37.8492C11.3539 34.6071 13.0565 31.6607 15.8344 30.0307V9.46165C15.8344 6.92927 17.8945 4.86914 20.4269 4.86914C22.9593 4.86914 25.0194 6.92927 25.0194 9.46165V30.0307C27.7973 31.6589 29.4999 34.6062 29.4999 37.8492ZM27.7077 37.8492C27.7077 35.0982 26.179 32.6115 23.7174 31.3614L23.2272 31.1123V9.46255C23.2272 7.91767 21.9709 6.66224 20.4269 6.66224C18.8829 6.66224 17.6266 7.91767 17.6266 9.46255V31.1123L17.1364 31.3614C14.6748 32.6124 13.1461 35.0991 13.1461 37.8492C13.1461 41.8637 16.4124 45.13 20.4269 45.13C24.4414 45.13 27.7077 41.8637 27.7077 37.8492Z" fill="black"/>
<path fill-rule="evenodd" clip-rule="evenodd" d="M36.7335 21.6939C37.1514 21.6939 37.4901 22.0326 37.4901 22.4505V29.3157L40.791 26.0148C41.0865 25.7193 41.5655 25.7193 41.861 26.0148C42.1565 26.3102 42.1565 26.7893 41.861 27.0848L37.2685 31.6773C36.973 31.9727 36.494 31.9727 36.1985 31.6773L31.3347 26.8134C31.0392 26.518 31.0392 26.0389 31.3347 25.7434C31.6302 25.448 32.1092 25.448 32.4047 25.7434L35.9769 29.3157V22.4505C35.9769 22.0326 36.3156 21.6939 36.7335 21.6939Z" fill="black"/>
<path fill-rule="evenodd" clip-rule="evenodd" d="M20.4829 15.0511C20.9008 15.0511 21.2395 15.3899 21.2395 15.8077L21.2395 29.3183C21.2395 29.7362 20.9008 30.0749 20.4829 30.0749C20.0651 30.0749 19.7263 29.7362 19.7263 29.3183L19.7263 15.8077C19.7263 15.3899 20.0651 15.0511 20.4829 15.0511Z" fill="black"/>
<path fill-rule="evenodd" clip-rule="evenodd" d="M36.7328 14.4319C37.1507 14.4319 37.4894 14.7707 37.4894 15.1885L37.4894 18.0957C37.4894 18.5136 37.1507 18.8523 36.7328 18.8523C36.315 18.8523 35.9762 18.5136 35.9762 18.0957V15.1885C35.9762 14.7707 36.315 14.4319 36.7328 14.4319Z" fill="black"/>
<path fill-rule="evenodd" clip-rule="evenodd" d="M36.7328 7.16998C37.1507 7.16998 37.4894 7.50872 37.4894 7.92658L37.4894 10.8338C37.4894 11.2517 37.1507 11.5904 36.7328 11.5904C36.315 11.5904 35.9762 11.2517 35.9762 10.8338V7.92658C35.9762 7.50872 36.315 7.16998 36.7328 7.16998Z" fill="black"/>
<defs>
<filter id="filter0_i" x="13.0663" y="28.1215" width="14.8332" height="17.2009" filterUnits="userSpaceOnUse" color-interpolation-filters="sRGB">
<feFlood flood-opacity="0" result="BackgroundImageFix"/>
<feBlend mode="normal" in="SourceGraphic" in2="BackgroundImageFix" result="shape"/>
<feColorMatrix in="SourceAlpha" type="matrix" values="0 0 0 0 0 0 0 0 0 0 0 0 0 0 0 0 0 0 127 0" result="hardAlpha"/>
<feOffset dy="-2.36773"/>
<feGaussianBlur stdDeviation="2.36773"/>
<feComposite in2="hardAlpha" operator="arithmetic" k2="-1" k3="1"/>
<feColorMatrix type="matrix" values="0 0 0 0 0 0 0 0 0 0 0 0 0 0 0 0 0 0 0.35 0"/>
<feBlend mode="normal" in2="shape" result="effect1_innerShadow"/>
</filter>
</defs>
</svg>
