<svg width="98" height="51" viewBox="0 0 98 51" fill="none" xmlns="http://www.w3.org/2000/svg">
<g clip-path="url(#clip0_3515_7201)">
<path fill-rule="evenodd" clip-rule="evenodd" d="M39.2107 39.2732C39.074 39.0699 38.9535 38.8562 38.8505 38.6339C38.7891 38.5019 38.7327 38.3676 38.6815 38.2312C38.6128 38.0468 38.5523 37.8593 38.5003 37.6695C38.4333 37.428 38.3557 37.1122 38.2864 36.7389C38.1344 35.9129 38.0543 35.0753 38.047 34.2355C38.0448 33.8383 38.0603 33.4816 38.0897 33.1525C38.1389 32.5744 38.2401 32.0019 38.3923 31.4419C38.4626 31.1899 38.5424 30.9539 38.6178 30.7528C38.7388 30.4289 38.8867 30.1158 39.0599 29.8166C39.1909 29.5902 39.3412 29.3755 39.5093 29.1751C39.7219 28.9186 39.9694 28.6932 40.2446 28.5054C40.7156 28.194 41.1755 28.091 41.6072 28.2306C41.8261 28.3021 42.051 28.435 42.2788 28.6688C42.4455 28.8411 42.5747 29.03 42.6727 29.2128C42.7559 29.3662 42.8247 29.527 42.8783 29.6931C42.9077 29.7828 42.9359 29.8814 42.9631 30.0044C42.9902 30.1268 43.0168 30.2736 43.0379 30.4415C43.0584 30.6082 43.0728 30.7943 43.0783 31.0115C43.0922 31.4508 43.054 32.0629 42.9636 32.6368C42.9214 32.9124 42.8661 33.1858 42.798 33.4561C42.6724 33.9561 42.4985 34.4428 42.2788 34.9091C42.1624 35.159 42.025 35.4243 41.8382 35.7379C41.6369 36.0737 41.4221 36.4014 41.1944 36.72C40.9727 37.0297 40.7644 37.2867 40.5416 37.5327C40.6336 37.7836 40.7389 38.0301 40.8514 38.2567C40.9639 38.4827 41.0836 38.6893 41.1661 38.8245C41.2523 38.9674 41.3486 39.1041 41.4542 39.2333C41.4925 39.2799 41.5307 39.322 41.5667 39.3591C41.7956 39.5906 41.9934 39.6748 42.1945 39.7075C42.4794 39.7496 42.7492 39.6698 43.0179 39.528C43.2267 39.4131 43.4217 39.2748 43.5992 39.1159C43.6956 39.0306 43.817 38.9159 43.9416 38.7785C44.1371 38.5614 44.3174 38.3312 44.4813 38.0894C44.6198 37.8841 44.7511 37.6741 44.8748 37.4596C44.9894 37.2642 45.1008 37.067 45.2089 36.8679L45.4455 36.4364L45.5873 36.181L45.6948 35.9916C45.7809 35.8415 45.8699 35.6932 45.9619 35.5467C46.0624 35.3868 46.1685 35.2305 46.28 35.0781C46.3454 34.9895 46.4046 34.9169 46.4451 34.867C46.5293 34.7651 46.5504 34.7435 46.6069 34.6842C46.6352 34.6549 46.6684 34.6216 46.6983 34.5945C46.8463 34.4582 46.9516 34.3901 47.0807 34.3541C47.2502 34.3142 47.3893 34.3585 47.5622 34.4732C47.6431 34.5252 47.8309 34.6809 47.9368 34.8161C48.0426 34.9468 48.1119 35.0659 48.17 35.1939C48.2083 35.2803 48.2415 35.3689 48.2642 35.4393C48.2942 35.5323 48.3152 35.6104 48.3335 35.6808C48.3612 35.7888 48.3895 35.9135 48.4155 36.0326C48.4349 36.1223 48.4548 36.2198 48.4765 36.3234L48.5147 36.5051L48.569 36.7616C48.6507 37.142 48.7413 37.5204 48.8405 37.8966C48.8741 38.0216 48.9108 38.1458 48.9508 38.2689C48.9846 38.3697 49.0184 38.465 49.0538 38.547C49.1142 38.6832 49.1702 38.8251 49.3087 38.9464C49.47 39.0688 49.6107 38.9613 49.7448 38.8101C49.7753 38.7758 49.8024 38.7397 49.8279 38.7032C49.8928 38.6146 49.9892 38.4489 50.0551 38.3126C50.0712 38.2789 50.0889 38.2445 50.1199 38.1742C50.2151 37.9623 50.298 37.7452 50.3682 37.5238C50.4009 37.4285 50.4158 37.3742 50.4319 37.3205C50.448 37.2651 50.4646 37.2114 50.4851 37.1355C50.5067 37.0596 50.5327 36.9615 50.5577 36.864C50.6042 36.6823 50.6452 36.509 50.6835 36.3522L50.7721 35.9777C50.8131 35.811 50.863 35.6066 50.9245 35.3944C50.9424 35.3309 50.9616 35.2677 50.9821 35.2049C51.0026 35.1446 51.0242 35.0836 51.0425 35.036C51.0835 34.9313 51.1018 34.8886 51.1412 34.8133C51.1617 34.7723 51.1888 34.7236 51.2149 34.6815C51.2786 34.5817 51.3284 34.5169 51.416 34.4349C51.6365 34.2383 51.8543 34.1945 52.087 34.2156C52.2344 34.2339 52.3641 34.2937 52.5165 34.4017C52.573 34.4416 52.6517 34.5058 52.7392 34.5867C53.1278 34.9548 53.4176 35.4147 53.582 35.924C53.6197 36.0364 53.6535 36.1445 53.6817 36.2464C53.7111 36.3505 53.7455 36.4802 53.7815 36.622C53.8635 36.9532 53.9416 37.2884 54.0369 37.6291C54.0799 37.7846 54.1268 37.939 54.1777 38.0922C54.2176 38.208 54.2569 38.3171 54.2968 38.4135C54.3295 38.4905 54.3616 38.563 54.3954 38.6256C54.4497 38.7298 54.5146 38.8378 54.5999 38.9198C54.734 39.0494 54.8609 39.0333 54.9712 38.9752C55.0382 38.9414 55.128 38.8638 55.195 38.7846C55.2323 38.7408 55.2676 38.6953 55.3008 38.6483C55.3225 38.6168 55.3441 38.5857 55.3723 38.5381C55.4017 38.4916 55.4383 38.429 55.4771 38.3553C55.6105 38.0957 55.7189 37.8239 55.8007 37.5438C55.83 37.4485 55.8538 37.3654 55.8755 37.2817C55.9165 37.125 55.9514 36.9765 55.9802 36.8424C56.0245 36.6402 56.0722 36.3915 56.1198 36.1317L56.163 35.8979C56.178 35.8232 56.1924 35.7478 56.204 35.6946C56.2223 35.5994 56.2345 35.5539 56.2495 35.488C56.2821 35.3465 56.3241 35.2074 56.3753 35.0714C56.4424 34.8987 56.5419 34.7404 56.6684 34.605C56.9316 34.3369 57.1848 34.2555 57.4608 34.2632C57.6514 34.2732 57.8436 34.3701 58.0071 34.574C58.0298 34.6011 58.0503 34.6283 58.0753 34.6615C58.1468 34.7653 58.2107 34.8741 58.2664 34.9872C58.3538 35.167 58.4289 35.3525 58.4914 35.5423C58.5749 35.7928 58.6441 36.0478 58.6986 36.3062C58.7341 36.4685 58.7701 36.6558 58.795 36.792C58.82 36.9272 58.8327 37.0114 58.8471 37.0962L58.9186 37.5421C58.938 37.6634 58.9574 37.7792 58.9762 37.8839C59.015 38.0994 59.0727 38.3902 59.1491 38.6555C59.1868 38.7863 59.2422 38.9475 59.3137 39.1087C59.3492 39.1907 59.3885 39.2655 59.4251 39.3336C59.4906 39.4512 59.5674 39.5622 59.6545 39.6649C59.8589 39.8942 60.0085 39.9679 60.1792 40.0044C60.4845 40.0543 60.7549 39.9114 61.0658 39.6549C61.1012 39.6255 61.1362 39.5956 61.211 39.5253C61.3169 39.4252 61.4184 39.3206 61.5152 39.2117C61.6332 39.0788 61.7584 38.922 61.8764 38.7597C62.0299 37.8628 62.3907 37.0374 63.1188 36.1373C63.5322 35.6287 64.0195 35.1848 64.5644 34.8205C65.2281 34.372 65.9854 34.0808 66.7786 33.9691C66.9194 33.9508 67.0762 33.9347 67.2535 33.9236C67.4308 33.9126 67.6303 33.9076 67.8359 33.9098C68.0414 33.912 68.2526 33.9214 68.4354 33.9369C68.6172 33.9519 68.7701 33.9713 68.8648 33.9846C68.9602 33.9984 68.9989 34.0062 69.0372 34.0139L69.1391 34.0366C69.1857 34.0483 69.2095 34.0571 69.2439 34.071C69.2621 34.0743 69.2948 34.1142 69.2555 34.1242C69.2045 34.1491 69.1092 34.1641 69.025 34.1774C68.974 34.1862 68.8931 34.1956 68.8056 34.2067C68.7546 34.2134 68.7047 34.2194 68.6332 34.2272L68.3811 34.2566L68.1301 34.287C67.9982 34.3042 67.9245 34.3153 67.8248 34.3302C67.7782 34.3369 67.7328 34.3441 67.6874 34.3518C67.6419 34.3596 67.5965 34.3668 67.4934 34.3884C67.3915 34.41 67.2335 34.4466 67.0917 34.4881C66.9498 34.5297 66.8235 34.5756 66.7182 34.6189C66.529 34.6954 66.3472 34.7892 66.1752 34.8992C65.8648 35.0962 65.5783 35.3286 65.3213 35.5916C64.9503 35.9808 64.6427 36.4259 64.4098 36.9106C64.3494 37.0374 64.2951 37.166 64.2475 37.2884C64.2049 37.4009 64.1662 37.5149 64.1317 37.6302C64.0815 37.7955 64.0457 37.9649 64.0247 38.1365C64.0164 38.2084 64.0118 38.2807 64.0109 38.3531C64.0098 38.4201 64.0142 38.4816 64.0186 38.5315C64.0314 38.6517 64.053 38.7481 64.0934 38.8539C64.14 38.9752 64.2137 39.1059 64.3411 39.2112C64.509 39.3408 64.6581 39.3657 64.8226 39.3779C64.9642 39.3825 65.1058 39.3712 65.2449 39.3441C65.5934 39.2771 65.9303 39.1598 66.245 38.9957C66.4967 38.8631 66.7252 38.6906 66.9216 38.4849C67.033 38.3657 67.1345 38.2377 67.2252 38.1021C67.3194 37.9648 67.3466 37.9182 67.407 37.8185C67.4774 37.7038 67.5605 37.5565 67.6342 37.4224C67.673 37.3521 67.7123 37.2817 67.75 37.2103L67.8885 36.9571C67.95 36.848 68.0337 36.6984 68.1179 36.5505C68.3734 36.1057 68.6404 35.6581 68.9081 35.2088C68.943 35.4551 68.9842 35.7004 69.0316 35.9445C69.0632 36.1101 69.1064 36.3273 69.1485 36.5267C69.1896 36.7256 69.2289 36.9056 69.2555 37.023C69.2826 37.1421 69.2954 37.1981 69.3098 37.2557C69.3392 37.3781 69.378 37.5271 69.4223 37.6883C69.4472 37.7759 69.4721 37.8634 69.5176 38.0008C69.563 38.1382 69.629 38.3265 69.6938 38.4877C69.7586 38.6478 69.8246 38.7807 69.8711 38.8727C69.9686 39.061 69.9986 39.1065 70.0734 39.22C70.1441 39.3285 70.2248 39.4301 70.3144 39.5236C70.3975 39.6078 70.4607 39.6566 70.5349 39.7042C70.8208 39.8781 71.0763 39.836 71.3456 39.7158C71.4248 39.6793 71.5157 39.6272 71.6077 39.5624C71.6665 39.5225 71.7229 39.4792 71.7767 39.4328C71.9684 39.2705 72.1421 39.0882 72.2948 38.8888C72.3823 38.7763 72.4649 38.6572 72.5436 38.5309C72.7213 38.2438 72.871 37.9403 72.9907 37.6246C73.0622 37.4379 73.1315 37.2241 73.1897 37.0186C73.2478 36.8131 73.2955 36.6142 73.3359 36.4248C73.3747 36.2353 73.4063 36.0547 73.4279 35.9074C73.4511 35.7537 73.4667 35.5989 73.4745 35.4437C73.4785 35.3612 73.4781 35.2785 73.4734 35.1961C73.4687 35.1197 73.4581 35.0437 73.4418 34.969C73.4213 34.8759 73.3963 34.8 73.3769 34.7274C73.3426 34.5779 73.2772 34.3009 73.4096 34.0771C73.521 33.9524 73.6324 33.9884 73.7482 34.0416C73.8047 34.0699 73.8662 34.1208 73.9017 34.1541C73.9732 34.2178 74.0663 34.3186 74.1322 34.3801C74.2425 34.4892 74.3549 34.5479 74.4558 34.5662C74.5228 34.5801 74.5888 34.5856 74.6519 34.59C74.7268 34.5945 74.8293 34.5956 74.9246 34.5945L75.2083 34.5889L75.5707 34.579C75.6909 34.5768 75.835 34.5734 75.9907 34.5734C76.0749 34.5734 76.1597 34.5745 76.2212 34.5756C76.3359 34.5779 76.3941 34.5812 76.4766 34.5856C76.6706 34.5995 76.875 34.6139 77.0684 34.7014C77.1615 34.7391 77.2751 34.851 77.3139 34.9479C77.3477 35.0205 77.366 35.0897 77.3809 35.1612C77.4014 35.2509 77.4219 35.4132 77.4308 35.5484C77.4419 35.698 77.448 35.9085 77.4524 36.0957C77.4546 36.1467 77.4557 36.1965 77.4579 36.2708C77.4635 36.4192 77.4729 36.6375 77.484 36.8247L77.5001 37.1017C77.5067 37.1925 77.5117 37.2834 77.5172 37.3515L77.5283 37.5083C77.5429 37.7305 77.5656 37.952 77.5965 38.1725C77.6225 38.3392 77.6768 38.5968 77.75 38.8046C77.8175 39.0059 77.903 39.2007 78.0054 39.3868C78.0849 39.532 78.1777 39.6696 78.2825 39.7978C78.4792 40.0316 78.6753 40.1778 78.892 40.2709C79.2078 40.4027 79.4982 40.3501 79.773 40.1562C79.8617 40.0947 79.9719 39.9994 80.0672 39.9053C80.131 39.8427 80.2091 39.759 80.29 39.666C80.3853 39.5568 80.4817 39.4377 80.5781 39.3131C80.7702 39.0626 80.9557 38.8071 81.1344 38.547C81.2913 38.3199 81.4763 38.0418 81.6398 37.7842L81.6498 37.4313C81.652 37.3144 81.6553 37.1964 81.6636 36.9261C81.6719 36.6558 81.6875 36.2336 81.7046 35.8104C81.7318 35.1221 81.7688 34.4342 81.8154 33.7469C81.852 33.2223 81.8963 32.7016 81.954 32.1892C81.9822 31.9349 82.0122 31.6807 82.057 31.3754C82.1003 31.0702 82.1579 30.7123 82.2183 30.3933C82.2703 30.1105 82.3298 29.8292 82.3967 29.5496C82.4549 29.3081 82.5092 29.107 82.5624 28.9242C82.6167 28.7414 82.6682 28.5768 82.7225 28.4212C82.8827 27.9647 83.0373 27.6141 83.2744 27.2302C83.3564 27.0994 83.4484 26.9643 83.5299 26.8524C83.6113 26.7405 83.6822 26.6535 83.7432 26.5842C83.8036 26.5139 83.8546 26.4618 83.9022 26.4164C84.3721 25.9793 84.7733 25.9372 85.2149 26.1555C85.3318 26.2181 85.467 26.335 85.5579 26.469C85.6078 26.5405 85.6454 26.6097 85.6837 26.6917C85.7053 26.7382 85.7258 26.7892 85.7474 26.8496C85.8279 27.0748 85.8817 27.3087 85.9075 27.5465C85.9181 27.6395 85.9269 27.7426 85.9314 27.8268C85.9369 27.9099 85.9391 27.9752 85.9402 28.04C85.9413 28.1049 85.9424 28.1686 85.9413 28.2555C85.9402 28.3408 85.9369 28.4483 85.9336 28.5541C85.9303 28.661 85.9269 28.7685 85.8992 29.0649C85.8715 29.3612 85.8183 29.8482 85.7479 30.2941C85.6835 30.6937 85.6008 31.0902 85.5003 31.4823C85.4271 31.7712 85.3393 32.0561 85.2371 32.336C85.1451 32.5814 85.0487 32.8046 84.9473 33.0102C84.8442 33.2146 84.7373 33.4029 84.6226 33.5791C84.402 33.9194 84.1444 34.2343 83.8546 34.518C83.7117 34.6565 83.5615 34.7872 83.4046 34.9097V36.0459C83.6601 35.7982 83.9382 35.5722 84.2336 35.3728C84.5054 35.1924 84.7888 35.0301 85.0819 34.887C85.3235 34.769 85.4897 34.7064 85.6532 34.6499C85.8167 34.5934 85.9757 34.5452 86.1281 34.5047C86.2793 34.466 86.4245 34.4366 86.5608 34.4139C86.6971 34.3923 86.8268 34.3784 86.9437 34.3696C87.0595 34.3618 87.1631 34.3596 87.2562 34.3618C87.3493 34.3651 87.4313 34.3707 87.5106 34.3801C87.5887 34.389 87.6641 34.4017 87.7311 34.4156C87.93 34.461 88.0913 34.5202 88.2603 34.6344C88.4248 34.7424 88.5678 34.9113 88.642 35.0543C88.826 35.4005 88.8293 35.7661 88.7058 36.1123C88.6875 36.1605 88.667 36.2078 88.6443 36.2541C88.619 36.3075 88.5908 36.3594 88.56 36.4098C88.4626 36.5676 88.3499 36.7154 88.2237 36.8513C88.0385 37.0505 87.8376 37.2347 87.6231 37.4019C87.4607 37.5294 87.2429 37.6906 87.0385 37.8274C86.8351 37.9648 86.6445 38.0772 86.4744 38.1681C86.1717 38.3326 85.8524 38.4647 85.5219 38.5619C84.9927 38.7198 84.4297 38.799 83.8712 38.799C84.1073 39.4286 84.4817 39.9972 84.9667 40.4631C85.198 40.6853 85.4479 40.8873 85.7136 41.0669C85.8599 41.1655 86.0211 41.2636 86.1857 41.3555C86.5329 41.5471 86.8965 41.7071 87.2723 41.8336C87.6873 41.9767 88.1147 42.0809 88.549 42.1449C89.0188 42.2175 89.5264 42.2491 90.0373 42.2391C90.5676 42.228 91.1067 42.1721 91.6531 42.0713C91.9301 42.0192 92.2072 41.9566 92.4776 41.8829C92.748 41.8092 93.0123 41.725 93.2711 41.632C93.5287 41.5389 93.782 41.4359 94.0535 41.3085C94.4834 41.1044 94.9023 40.8779 95.3085 40.6299C95.4426 40.549 95.5767 40.4653 95.6842 40.3983C95.9009 40.2609 96.0261 40.1778 96.1962 40.0659L96.4616 39.8898L96.7093 39.7275C96.8364 39.6429 96.9655 39.5614 97.0966 39.4832C97.1343 39.4616 97.1736 39.4411 97.1997 39.4267C97.2385 39.4049 97.2791 39.3863 97.321 39.3713C97.3554 39.3563 97.4507 39.3397 97.4479 39.4078C97.4476 39.4439 97.4399 39.4795 97.4252 39.5125C97.4091 39.5536 97.3906 39.5938 97.3698 39.6327C97.3002 39.757 97.2236 39.8772 97.1404 39.9928C97.1016 40.0482 97.0623 40.1019 97.0085 40.1734C96.9542 40.2437 96.8861 40.3302 96.8179 40.4166C96.7486 40.503 96.6805 40.5894 96.5065 40.7866C96.3325 40.9838 96.0521 41.2918 95.7773 41.5666C95.5205 41.8229 95.2515 42.0665 94.9711 42.2967C94.7112 42.5111 94.4624 42.6983 94.2208 42.8623C93.2899 43.4971 92.4471 43.86 91.5511 44.086C91.3371 44.1395 91.1208 44.1831 90.9028 44.2167C90.4627 44.2873 90.0168 44.315 89.5713 44.2993C89.3641 44.2911 89.1575 44.2719 88.9524 44.2417C88.3453 44.1515 87.7579 43.9592 87.2152 43.6727C86.7589 43.4341 86.3297 43.1467 85.9352 42.8158C85.4716 42.4308 85.0481 41.9998 84.6713 41.5295C84.1388 40.8542 83.823 40.2465 83.588 39.6056L83.1054 39.9884C83.1226 40.2299 83.1392 40.4653 83.1497 40.708C83.1606 40.9248 83.1646 41.1418 83.1619 41.3589C83.1597 41.5029 83.1542 41.6608 83.1503 41.786C83.1448 41.9106 83.1392 42.0026 83.1342 42.0945C83.1292 42.1865 83.1231 42.2773 83.1182 42.3543C83.1093 42.5045 83.101 42.6141 83.0921 42.7415L81.616 42.7277C81.5943 42.1919 81.5849 41.6557 81.5877 41.1196C81.5888 40.9085 81.5899 40.6974 81.5933 40.4371C81.5955 40.1751 81.5999 39.8637 81.6049 39.5519C81.6093 39.2405 81.616 38.9287 81.6221 38.6168C81.3904 38.9935 81.1372 39.3624 80.8485 39.7269C80.7067 39.9064 80.5576 40.0842 80.4263 40.2277C80.3172 40.3492 80.2027 40.4658 80.0833 40.5772C79.8949 40.7534 79.7508 40.8669 79.604 40.9689C79.4212 41.0963 79.22 41.2049 79.041 41.2697C78.5141 41.4602 78.0248 41.4331 77.4934 41.2686C77.1277 41.145 76.7282 40.955 76.3486 40.5567C76.0661 40.259 75.8668 39.8922 75.7707 39.4931C75.7513 39.4128 75.7341 39.3242 75.7208 39.2583C75.6981 39.1308 75.6915 39.0644 75.6809 38.9702C75.6754 38.9259 75.6698 38.8816 75.666 38.8372C75.6621 38.7929 75.6571 38.7486 75.651 38.6727C75.6432 38.5979 75.6349 38.491 75.625 38.3847L75.5967 38.0373C75.5856 37.9044 75.574 37.7454 75.5623 37.5853L75.5308 37.146C75.5219 37.0269 75.518 36.9499 75.5136 36.8724C75.4994 36.6562 75.4918 36.4397 75.4909 36.2231C75.4909 36.1162 75.492 36.1096 75.4931 36.0508C75.4942 35.9738 75.4986 35.8464 75.4997 35.7489C75.4997 35.6354 75.4964 35.5285 75.4814 35.4382C75.4704 35.3529 75.4188 35.2188 75.3124 35.17C75.2566 35.1419 75.1968 35.1223 75.1351 35.1119C75.0799 35.1018 75.0242 35.0939 74.9683 35.0881C74.9251 35.0825 74.8697 35.0764 74.8093 35.0698C74.6026 35.046 74.3084 35.0105 74.0485 34.9906C74.0496 35.0199 74.0485 35.0487 74.0485 35.0781C74.0475 35.1129 74.0452 35.1476 74.0419 35.1822C74.0375 35.2442 74.0303 35.3059 74.0203 35.3673C74.0074 35.4487 73.9927 35.5297 73.9759 35.6104C73.9432 35.7606 73.9316 35.801 73.9078 35.899C73.895 35.95 73.8784 36.0115 73.8623 36.0719C73.8463 36.1323 73.8308 36.1943 73.7715 36.3932C73.7122 36.5921 73.6102 36.9289 73.5083 37.2297C73.4196 37.4956 73.3225 37.7587 73.2174 38.0185C73.1287 38.2412 73.0484 38.4201 72.973 38.5802C72.8971 38.7392 72.8256 38.8788 72.7502 39.0151C72.6749 39.1513 72.5934 39.2843 72.512 39.4067C72.3587 39.6362 72.1867 39.8526 71.9978 40.0537C71.8266 40.2348 71.641 40.4016 71.4426 40.5523C71.3613 40.6141 71.2776 40.6725 71.1915 40.7274C71.0173 40.8404 70.8292 40.9306 70.6319 40.9955C70.4635 41.0509 70.2886 41.0844 70.1116 41.0952C69.8034 41.1098 69.4949 41.0736 69.1984 40.9883C69.0381 40.9442 68.8815 40.8873 68.7302 40.8182C68.6672 40.789 68.6055 40.7572 68.5451 40.7229C68.2971 40.5854 68.083 40.3943 67.9184 40.1634C67.8785 40.1094 67.8413 40.0534 67.8071 39.9956C67.7704 39.9342 67.7354 39.8717 67.7023 39.8083C67.6625 39.7291 67.6246 39.649 67.5887 39.5679C67.5623 39.5095 67.5366 39.4508 67.5117 39.3918C67.4693 39.2964 67.4329 39.1985 67.4026 39.0987C67.3873 39.0495 67.3744 38.9996 67.3638 38.9491C67.2923 39.0433 67.2186 39.1353 67.1421 39.225C66.9562 39.438 66.7547 39.6369 66.5393 39.82C66.4063 39.9324 66.26 40.0482 66.1065 40.1595C65.9588 40.2669 65.8068 40.3684 65.651 40.4637C65.5092 40.5512 65.385 40.6204 65.2731 40.6769C65.1617 40.7323 65.0653 40.7767 64.9778 40.8121C64.7488 40.9062 64.5082 40.9688 64.2624 40.9982C64.0668 41.0214 63.8695 41.0272 63.6729 41.0154C63.4797 41.0057 63.2876 40.9811 63.0982 40.9417C63.0276 40.9273 62.9579 40.9088 62.8893 40.8863C62.6896 40.8269 62.5038 40.728 62.343 40.5955C61.9629 40.2604 61.872 39.9225 61.8332 39.5796C61.7739 39.6377 61.7152 39.6975 61.657 39.7557C61.5467 39.8671 61.4437 39.9734 61.3517 40.0693C61.2714 40.1523 61.196 40.2327 61.1256 40.303C61.0153 40.4191 60.8989 40.5293 60.7771 40.6332C60.6071 40.781 60.4156 40.902 60.2091 40.9921C59.5769 41.242 58.9225 41.2315 58.2559 40.7911C58.1209 40.6981 57.9991 40.5874 57.8935 40.462C57.8544 40.4166 57.8176 40.3693 57.7832 40.3202C57.7415 40.2624 57.7029 40.2025 57.6674 40.1407C57.6272 40.0715 57.5889 40.0011 57.5527 39.9297C57.4857 39.7945 57.4596 39.7297 57.4175 39.6277C57.3508 39.4603 57.2876 39.2915 57.228 39.1214L57.1405 38.8694C57.0884 38.7198 57.018 38.5187 56.9416 38.3337C56.9255 38.2945 56.9088 38.2555 56.8917 38.2168C56.8703 38.1691 56.8465 38.1225 56.8202 38.0772C56.7443 37.926 56.5736 37.7243 56.4329 37.7038C56.3115 37.6734 56.1896 37.7105 56.091 37.8512C56.0544 37.9011 56.0079 37.9919 55.9829 38.0534C55.9647 38.0977 55.958 38.1149 55.9442 38.1542C55.9322 38.1826 55.9213 38.2114 55.9115 38.2406C55.8998 38.2722 55.8888 38.3043 55.8378 38.4417C55.7857 38.5791 55.6937 38.8217 55.6028 39.03C55.5131 39.2389 55.4244 39.4117 55.3452 39.5568C55.2659 39.702 55.1967 39.8166 55.1341 39.9169C55.0767 40.0086 55.0153 40.0977 54.9501 40.1839C54.8918 40.2634 54.8301 40.3403 54.765 40.4144C54.5672 40.6348 54.4154 40.7506 54.253 40.8398C53.7771 41.078 53.2983 41.0498 52.819 40.6515C52.7448 40.5853 52.6766 40.5129 52.6151 40.4349C52.5729 40.3823 52.5331 40.3277 52.496 40.2714C52.4426 40.1901 52.3931 40.1064 52.3475 40.0205C52.2954 39.9208 52.2427 39.8072 52.194 39.6926C52.1452 39.5779 52.102 39.4621 52.0554 39.3258C51.9431 38.9847 51.8484 38.638 51.7717 38.2872L51.7141 38.034C51.6798 37.8844 51.6349 37.6911 51.5789 37.5116C51.5574 37.4445 51.5336 37.3782 51.5074 37.3128C51.4828 37.2516 51.455 37.1917 51.4243 37.1333C51.3689 37.0336 51.3257 36.9687 51.2531 36.9117C51.1567 36.8325 51.0431 36.8879 50.9794 37.0036C50.9363 37.08 50.9001 37.1601 50.8713 37.243C50.8438 37.3207 50.8177 37.399 50.7932 37.4778C50.7616 37.582 50.7328 37.6822 50.7045 37.7786C50.6752 37.8806 50.6397 38.0091 50.5987 38.1498C50.5533 38.3054 50.5045 38.4655 50.4513 38.6278C50.3959 38.7979 50.3299 38.9852 50.2535 39.1796C50.1581 39.4232 50.0474 39.6606 49.9221 39.8903C49.8268 40.0649 49.7183 40.232 49.5974 40.39C49.5256 40.4833 49.4459 40.5702 49.3592 40.6498C49.3196 40.6874 49.2775 40.7224 49.2334 40.7545C49.0139 40.9113 48.8638 40.9495 48.6804 40.9711C48.3169 40.9927 47.9562 40.8891 47.5805 40.4703C47.5132 40.3901 47.453 40.3043 47.4004 40.2138C47.3705 40.1643 47.3427 40.1135 47.3173 40.0615C47.2863 39.9986 47.2574 39.9347 47.2308 39.8698C47.163 39.6997 47.1044 39.5261 47.0552 39.3497C46.9848 39.0998 46.9172 38.7868 46.8568 38.5165C46.8168 38.3328 46.7715 38.1503 46.721 37.9692C46.665 37.7597 46.5961 37.5538 46.5149 37.3526C46.4973 37.3103 46.4789 37.2684 46.4595 37.2269C46.4338 37.1702 46.4051 37.1149 46.3736 37.0613C46.3342 36.9888 46.2831 36.9233 46.2223 36.8674C46.1137 36.7721 45.999 36.7893 45.9104 36.848C45.845 36.8868 45.763 36.9704 45.7054 37.0397C45.6252 37.1383 45.5507 37.2413 45.4821 37.3482C45.3967 37.4789 45.2876 37.6629 45.1956 37.8274C45.1402 37.9249 45.0803 38.0351 45.0172 38.1509L44.8415 38.4766C44.7285 38.6832 44.5739 38.9624 44.4038 39.2178C44.2853 39.3974 44.1548 39.5688 44.0131 39.7308C43.4945 40.3119 42.9936 40.6094 42.4494 40.7805C41.9208 40.9451 41.3833 40.9329 40.9096 40.7201C40.7429 40.6463 40.5833 40.5577 40.4325 40.4554C40.3128 40.3748 40.1964 40.2896 40.0834 40.2C39.9637 40.1036 39.8484 40.0011 39.7454 39.9014C39.6423 39.8017 39.552 39.7036 39.4667 39.6017C39.1181 39.8626 38.7269 40.1003 38.3474 40.2897C38.1606 40.3828 37.9822 40.462 37.8132 40.5279C37.5175 40.6454 37.2112 40.7339 36.8984 40.7922C36.7507 40.8186 36.6018 40.8384 36.4523 40.8514C36.1309 40.8797 35.773 40.8764 35.4172 40.8415C35.238 40.8246 35.0596 40.8001 34.8825 40.7678C34.7295 40.7396 34.5779 40.7043 34.4282 40.662C34.1705 40.5902 33.9204 40.4937 33.6812 40.3739C33.5685 40.3179 33.4583 40.2569 33.351 40.1911C33.0014 39.9767 32.6899 39.7059 32.4289 39.3895C32.2904 39.5109 32.1475 39.6277 32.0017 39.7413C31.856 39.8538 31.7069 39.9629 31.5352 40.0776C31.3634 40.1911 31.1683 40.3113 30.9872 40.411C30.8243 40.5014 30.657 40.5833 30.4857 40.6564C30.351 40.7141 30.2136 40.7653 30.074 40.8099C29.4138 41.0233 28.706 41.041 28.036 40.8609C27.6989 40.7754 27.375 40.6448 27.0729 40.4725C26.8175 40.3248 26.5846 40.1413 26.3814 39.9274C26.3052 39.8471 26.2328 39.7634 26.1642 39.6765C26.0012 39.4674 25.8562 39.2448 25.7309 39.0112C25.6839 38.9254 25.6414 38.8372 25.6034 38.747C25.5527 38.6287 25.5121 38.5064 25.4821 38.3813C25.3619 38.5121 25.2388 38.64 25.1136 38.7663C24.9889 38.8937 24.8626 39.0184 24.6942 39.1752C24.5257 39.3319 24.3151 39.5203 24.129 39.677C23.9428 39.8338 23.781 39.9596 23.6463 40.0582C23.3704 40.2593 23.2152 40.3556 23.0152 40.4692C22.8116 40.5836 22.5984 40.68 22.378 40.7573C21.7866 40.9631 21.1463 40.9828 20.5433 40.8138C20.3533 40.7545 20.1688 40.688 19.9887 40.5096C19.8805 40.3961 19.8009 40.2584 19.7565 40.108C19.7416 40.0637 19.7292 40.0186 19.7194 39.9729C19.7052 39.9099 19.6937 39.8463 19.685 39.7823C19.6741 39.7005 19.667 39.6182 19.664 39.5358C19.6599 39.4302 19.6603 39.3245 19.6651 39.2189C19.6959 38.6617 19.8244 38.1142 20.0446 37.6014C20.2595 37.1062 20.5395 36.6419 20.8775 36.2209C21.2404 35.7687 21.6625 35.3674 22.1325 35.0277C22.9143 34.4613 23.8147 34.0801 24.7656 33.9131C24.9646 33.8793 25.1796 33.8527 25.4189 33.835C25.8683 33.8009 26.3196 33.802 26.7687 33.8383C26.8978 33.8483 26.93 33.8522 26.9621 33.8566C27.0236 33.8655 27.0829 33.8727 27.1394 33.8849C27.2054 33.8998 27.2713 33.9065 27.3179 33.9441C27.3306 33.9851 27.2702 33.9907 27.248 34.0017C27.1789 34.0225 27.1086 34.0391 27.0375 34.0516L26.9327 34.071L26.6407 34.1197C26.5122 34.1402 26.3604 34.1652 26.1969 34.1945C26.1093 34.2095 26.0218 34.2261 25.9536 34.2388C25.8855 34.2516 25.8367 34.2627 25.788 34.2732C25.723 34.2865 25.6583 34.3013 25.594 34.3175C25.4982 34.3435 25.3552 34.3823 25.2255 34.4244C24.9734 34.5086 24.7667 34.6017 24.5501 34.7208C24.3071 34.859 24.0765 35.0178 23.8608 35.1955C23.6279 35.3828 23.4135 35.5919 23.2202 35.8198C22.929 36.1632 22.6854 36.5442 22.496 36.9527C22.4328 37.0886 22.3755 37.2272 22.3242 37.3681C22.2816 37.4858 22.2441 37.6052 22.2118 37.726C22.1684 37.8894 22.1391 38.0562 22.1242 38.2246C22.1127 38.3595 22.1184 38.4954 22.1414 38.629C22.1757 38.8029 22.2284 38.9863 22.4068 39.1669C22.7254 39.446 23.0241 39.4028 23.3322 39.3336C23.3781 39.3209 23.4291 39.3053 23.4851 39.2848C23.7102 39.1986 23.9239 39.0849 24.1212 38.9464C24.4001 38.7548 24.6574 38.5336 24.8886 38.2866C24.9635 38.2063 25.0344 38.1254 25.1081 38.0312C25.2094 37.901 25.3055 37.7668 25.3962 37.6291C25.44 37.5631 25.4882 37.4884 25.5386 37.4075L25.7342 37.095L25.8666 36.884C25.9226 36.7965 25.9963 36.6829 26.0866 36.5455C26.3895 36.0935 26.6989 35.6458 27.0148 35.2027C27.0486 35.4697 27.0896 35.719 27.1405 35.9838C27.1583 36.0747 27.176 36.1655 27.2037 36.2951C27.2632 36.5723 27.3275 36.8484 27.3965 37.1233C27.4242 37.228 27.4481 37.315 27.473 37.4003C27.4979 37.4856 27.5234 37.5715 27.5633 37.6883C27.6032 37.8052 27.6575 37.9526 27.7118 38.0833C27.9014 38.541 28.1729 38.9602 28.5131 39.3203C28.665 39.4845 28.8297 39.6364 29.0057 39.7745C29.0777 39.8299 29.1403 39.8731 29.1946 39.9075C29.3376 39.9983 29.4595 40.056 29.5864 40.0958C29.7593 40.1512 29.9233 40.164 30.0823 40.1562C30.1338 40.154 30.1909 40.1496 30.2546 40.1413C30.3178 40.1324 30.3882 40.1208 30.4746 40.1014C30.5761 40.0776 30.6764 40.0495 30.7755 40.0172C31.1758 39.8816 31.5547 39.6893 31.9003 39.446C32.0256 39.3596 32.1458 39.2666 32.261 39.168C32.1188 38.9628 31.9947 38.7455 31.8904 38.5187C31.8234 38.3742 31.7628 38.2269 31.7086 38.0772C31.6465 37.9083 31.5828 37.7138 31.513 37.4518C31.4432 37.1898 31.3684 36.8613 31.3024 36.4879C31.1648 35.6985 31.0951 34.8988 31.0941 34.0976C31.0941 33.4616 31.1503 32.8269 31.262 32.2008C31.3135 31.9205 31.3767 31.6546 31.446 31.4087C31.5152 31.1633 31.5917 30.9389 31.667 30.74C31.7928 30.4087 31.9461 30.0885 32.1253 29.7828C32.1989 29.6586 32.278 29.5377 32.3624 29.4205C32.4363 29.3194 32.5141 29.2213 32.5957 29.1264C32.7476 28.9513 32.9016 28.8028 33.054 28.6782C33.3161 28.4671 33.546 28.3353 33.7959 28.2489C34.1755 28.1182 34.5706 28.1442 34.9158 28.3453C35.1224 28.4677 35.3053 28.6265 35.4555 28.8139C35.6117 29.0089 35.7126 29.184 35.8051 29.3862C35.8389 29.4598 35.8694 29.5357 35.8988 29.6188C35.965 29.8128 36.0156 30.0117 36.05 30.2138C36.0711 30.3351 36.0894 30.4758 36.1032 30.6315C36.1171 30.7871 36.1265 30.9572 36.1265 31.1843C36.1265 31.4114 36.116 31.694 36.0888 31.9959C36.0609 32.3023 36.0189 32.6073 35.963 32.9099C35.8669 33.4423 35.7171 33.9637 35.5159 34.466C35.4167 34.7147 35.3003 34.9701 35.1529 35.2515C34.998 35.5442 34.8313 35.8304 34.6531 36.1096C34.4808 36.3788 34.3151 36.6125 34.1705 36.7987C34.0259 36.987 33.9029 37.1277 33.7715 37.2618C33.8832 37.6111 34.0281 37.9489 34.2043 38.2705C34.2896 38.4251 34.3783 38.5702 34.4597 38.6916C34.5412 38.8129 34.6155 38.9109 34.6858 38.9957C34.9098 39.2714 35.1879 39.4982 35.5031 39.6621C35.5857 39.7053 35.6755 39.7463 35.773 39.7867C36.2373 39.9773 36.8186 40.0853 37.314 40.0343C37.5124 40.0155 37.7085 39.9775 37.8997 39.9208C38.1585 39.8417 38.4093 39.7384 38.6488 39.6122C38.7862 39.5397 38.9242 39.4577 39.0062 39.4067C39.0882 39.3569 39.1131 39.3397 39.1386 39.3225L39.2107 39.2732ZM33.5554 36.8236C33.8605 36.478 34.138 36.109 34.3855 35.7201C34.5035 35.5329 34.6121 35.3456 34.7052 35.1706C34.8953 34.8105 35.0183 34.5136 35.1269 34.1912C35.2421 33.8549 35.3408 33.4284 35.4128 33.0063C35.4494 32.7908 35.4788 32.5853 35.5037 32.3875C35.5286 32.1886 35.5508 31.997 35.5652 31.8474C35.5945 31.549 35.6065 31.2492 35.6012 30.9494C35.5995 30.8695 35.5953 30.7897 35.5885 30.7101C35.5714 30.477 35.5328 30.2459 35.4732 30.0199C35.4202 29.8234 35.3488 29.6324 35.2599 29.4493C35.2222 29.3723 35.1873 29.3108 35.1546 29.2554C35.0979 29.1589 35.0328 29.0675 34.9601 28.9823C34.5528 28.5159 34.1727 28.5552 33.8148 28.887C33.7332 28.9652 33.6598 29.0515 33.5959 29.1446C33.5504 29.2094 33.5077 29.2762 33.4679 29.3446C33.4206 29.4272 33.3766 29.5117 33.336 29.5978C33.29 29.6953 33.2418 29.8055 33.1842 29.9612C33.1266 30.1168 33.0606 30.3174 32.9997 30.5423C32.9387 30.7683 32.8828 31.0192 32.8368 31.2912C32.7399 31.8623 32.6967 32.4411 32.7077 33.0201C32.7121 33.3132 32.7282 33.6057 32.7802 33.9984C32.8323 34.3912 32.921 34.8848 33.0501 35.3733C33.1803 35.8653 33.351 36.3522 33.5554 36.8236ZM83.403 34.5247C83.6061 34.399 83.785 34.2378 83.931 34.0488C84.0219 33.9342 84.1277 33.7608 84.2114 33.5996C84.2524 33.5192 84.2851 33.4494 84.3206 33.3658C84.3976 33.1907 84.4785 32.9719 84.5478 32.7598C84.6237 32.5293 84.6907 32.2861 84.7589 32.0357C84.7932 31.9061 84.8292 31.777 84.909 31.4059C84.9888 31.0347 85.1146 30.4215 85.1961 29.8936C85.2781 29.3668 85.3174 28.9242 85.3368 28.6666C85.3562 28.409 85.3584 28.3375 85.3595 28.2661C85.364 28.1176 85.3684 27.9619 85.3628 27.7996C85.3585 27.634 85.3452 27.4686 85.323 27.3044C85.3069 27.1892 85.2811 27.0756 85.2459 26.9648C85.2185 26.8715 85.178 26.7826 85.1257 26.7006C85.0725 26.6086 84.9506 26.5056 84.8614 26.5006C84.7566 26.4895 84.6863 26.5167 84.5694 26.6142C84.4685 26.7061 84.3981 26.8025 84.3278 26.9061C84.2451 27.0366 84.1674 27.1702 84.095 27.3066C84.0413 27.4096 83.9931 27.5099 83.9499 27.6096C83.9067 27.7093 83.8679 27.8085 83.8191 27.957C83.6889 28.3448 83.5905 28.7425 83.5249 29.1463C83.4905 29.3441 83.4667 29.5175 83.444 29.7152C83.4224 29.913 83.4019 30.1362 83.3875 30.3212C83.3736 30.5074 83.3669 30.6564 83.3592 30.806C83.3514 30.9544 83.3453 31.1034 83.3387 31.4325C83.332 31.7604 83.3271 32.269 83.3354 32.8141C83.3448 33.3603 83.3686 33.9425 83.403 34.5247ZM85.0708 37.8756C85.1966 37.8052 85.3446 37.7166 85.4775 37.6302C85.6105 37.5438 85.7286 37.4579 85.841 37.3715C85.9535 37.2839 86.0599 37.1942 86.1524 37.1095C86.2466 37.0252 86.3275 36.9449 86.4012 36.869C86.4738 36.792 86.5364 36.7189 86.5896 36.6513C86.752 36.4414 86.8351 36.2846 86.8938 36.104C86.9686 35.8348 86.988 35.5672 86.7736 35.2819C86.5625 35.057 86.368 35.057 86.1524 35.0698C86.0997 35.0747 86.0473 35.083 85.9956 35.0947C85.9492 35.1046 85.903 35.1155 85.8571 35.1274C85.8072 35.1412 85.7563 35.1567 85.6936 35.1784C85.5147 35.2425 85.3401 35.3184 85.1711 35.4055C85.0498 35.4692 84.8996 35.5539 84.7567 35.6437C84.623 35.7293 84.4934 35.821 84.3682 35.9184C84.2557 36.0071 84.1626 36.0885 84.0784 36.1705C83.9223 36.3187 83.7819 36.4826 83.6595 36.6596C83.6094 36.7331 83.5628 36.8089 83.5199 36.8868C83.4568 37.0004 83.4025 37.1188 83.3575 37.2407C83.2495 37.5698 83.1874 37.854 83.4201 38.1614C83.6163 38.3658 83.813 38.3453 83.9914 38.3215C84.1091 38.2996 84.2246 38.2673 84.3366 38.2251C84.3704 38.2135 84.3981 38.2013 84.4253 38.1908C84.4536 38.1797 84.4818 38.1692 84.5333 38.1465C84.5854 38.1226 84.6619 38.0888 84.7522 38.0445C84.8425 38.0002 84.945 37.947 85.0708 37.8756ZM40.356 37.0513C40.5666 36.807 40.7672 36.5538 40.9489 36.3012C41.1307 36.0486 41.2952 35.7982 41.4371 35.5578C41.5795 35.3185 41.7003 35.0925 41.8017 34.8825C41.9879 34.497 42.1365 34.0945 42.2455 33.6804C42.3031 33.4661 42.3547 33.2323 42.4057 32.9254C42.4566 32.6168 42.5059 32.2352 42.5353 31.9288C42.5647 31.6214 42.5735 31.392 42.5735 31.1865C42.5735 30.981 42.5636 30.8004 42.5469 30.6381C42.5303 30.4758 42.5048 30.3318 42.4794 30.2138C42.438 30.0215 42.38 29.8332 42.3059 29.651C42.2738 29.5724 42.2385 29.4951 42.2001 29.4194C42.14 29.301 42.0705 29.1876 41.9923 29.0804C41.9609 29.0382 41.9278 28.9974 41.8931 28.958C41.4936 28.5176 41.119 28.563 40.7716 28.8865C40.6906 28.9654 40.6174 29.0521 40.5533 29.1452C40.4505 29.2921 40.362 29.4485 40.289 29.6122C40.2312 29.7373 40.1793 29.8651 40.1333 29.995C40.0767 30.1528 40.0152 30.3478 39.9571 30.5683C39.8989 30.7888 39.844 31.0347 39.7953 31.3289C39.6821 32.016 39.6371 32.7125 39.6612 33.4085C39.7097 34.6506 39.944 35.8785 40.356 37.0513ZM11.3429 39.0073C11.3315 39.006 11.3201 39.0053 11.3086 39.0051V47.2679H10.7356V38.9652C10.023 38.9165 9.31047 38.871 8.59733 38.83C7.88475 38.789 7.17106 38.7519 6.72722 38.7292C6.28338 38.7065 6.10939 38.6988 5.93484 38.6916C5.59529 38.6759 5.25581 38.6589 4.91639 38.6406C4.75127 38.6306 4.58614 38.6212 4.45316 38.6112C4.23618 38.5976 4.01949 38.5799 3.80319 38.5581C3.57461 38.5378 3.34675 38.5101 3.11998 38.475C2.9904 38.4548 2.86142 38.431 2.73321 38.4035C2.51323 38.3536 2.29713 38.2966 2.05886 38.1753C1.87511 38.0807 1.70934 37.9547 1.56903 37.803C1.53331 37.7644 1.49839 37.7251 1.4643 37.685C1.41 37.6235 1.3967 37.6058 1.36456 37.5681C1.31478 37.5074 1.26304 37.4483 1.20941 37.3909C1.1595 37.3376 1.1062 37.2877 1.04983 37.2413C0.934402 37.1509 0.809781 37.0729 0.678024 37.0086C0.545038 36.9416 0.448623 36.8995 0.342234 36.8496C0.25136 36.8053 0.195949 36.7826 0.116158 36.7283C0.0629637 36.6918 0.04357 36.6474 0.0928856 36.6181C0.123022 36.6009 0.155501 36.5882 0.1893 36.5804C0.22033 36.5704 0.297351 36.5555 0.378251 36.5428C0.48464 36.5256 0.609314 36.5123 0.7423 36.4984C1.00792 36.4743 1.27393 36.4545 1.54021 36.4392C1.73415 36.4264 1.92864 36.4164 2.10263 36.4065L2.58305 36.3815C2.73653 36.3738 2.89002 36.3677 3.07343 36.3588C3.44856 36.3417 3.90792 36.3201 4.33015 36.2996C5.16574 36.2597 6.00078 36.212 6.83527 36.1555C7.66975 36.099 8.50368 36.0342 9.03729 35.991C9.5709 35.9478 9.80362 35.9262 10.0369 35.9057L10.7362 35.8442V27.6395H11.3091V35.7921C11.3202 35.7899 11.3307 35.7899 11.3418 35.7888L11.538 35.7705C11.712 35.7556 12.05 35.724 12.3874 35.6946C12.7254 35.6642 13.0634 35.6354 13.3361 35.6115L14.0265 35.555C14.2348 35.5384 14.4437 35.5235 14.5922 35.5129C14.7407 35.5024 14.8299 35.4958 14.9186 35.4902C15.0078 35.4836 15.0965 35.4786 15.1857 35.4731C15.2199 33.9761 15.267 32.4794 15.327 30.9832C15.4029 29.0723 15.4875 27.1616 15.5807 25.2514H16.3626C16.2867 27.1609 16.2165 29.0706 16.152 30.9805C16.103 32.4646 16.0635 33.9491 16.0335 35.4337C16.2767 35.426 16.4862 35.4226 16.7266 35.4249C16.8995 35.426 17.0824 35.4315 17.2708 35.4443C17.3683 35.4509 17.4664 35.4592 17.5384 35.4681C17.6792 35.483 17.7506 35.4952 17.852 35.5124C18 35.5406 18.1396 35.5739 18.2898 35.6315C18.4732 35.7041 18.6411 35.7905 18.8095 35.965C18.9059 36.068 18.9608 36.1544 19.0157 36.2602C19.0356 36.299 19.0533 36.3406 19.0722 36.3876C19.1121 36.4885 19.1503 36.6236 19.1764 36.7577C19.1902 36.828 19.2002 36.8984 19.2074 36.9577C19.224 37.1089 19.2218 37.2358 19.2002 37.3698C19.1581 37.6152 19.05 37.8534 18.7901 38.0894C18.6915 38.1764 18.5848 38.254 18.4715 38.321C18.2998 38.4228 18.1205 38.5111 17.9352 38.5852C17.8393 38.624 17.7423 38.6611 17.6121 38.7043C17.4824 38.7475 17.3201 38.7985 17.1383 38.845C16.9566 38.8926 16.7555 38.9359 16.6075 38.9663C16.459 38.9968 16.3648 39.0117 16.2695 39.0267C16.1748 39.0405 16.08 39.055 15.9847 39.0677C15.9729 40.5824 15.9707 42.0971 15.978 43.6118C15.9875 45.7112 16.0019 47.8105 16.0213 49.9098H15.1968C15.1687 47.8125 15.1469 45.7152 15.1314 43.6179C15.1202 42.1259 15.1198 40.6339 15.1303 39.1419C14.9022 39.154 14.6738 39.1598 14.4454 39.1591C14.0758 39.1609 13.7062 39.1522 13.3372 39.1331C13.1698 39.1253 13.033 39.1192 12.8955 39.1103C12.7494 39.102 12.6033 39.0933 12.4572 39.0843L11.3429 39.0073ZM62.5558 5.20589C62.521 5.09202 62.4498 4.99274 62.353 4.92337C62.2539 4.85379 62.1355 4.81716 62.0144 4.81868C61.8899 4.81907 61.7684 4.85711 61.6659 4.9278C61.5927 4.97939 61.5332 5.04811 61.4926 5.12796C61.452 5.20782 61.4316 5.29638 61.4332 5.38593C61.4332 5.4945 61.4603 5.61582 61.5379 5.72661C61.5722 5.77591 61.616 5.81912 61.6648 5.85513C61.8183 5.96426 62.0089 5.99473 62.1962 5.93878C62.31 5.90306 62.409 5.83083 62.4776 5.73326C62.5294 5.65685 62.5633 5.56977 62.5769 5.47848C62.5904 5.38719 62.5832 5.29402 62.5558 5.20589ZM36.9915 4.9278C36.9156 4.87445 36.8284 4.83926 36.7368 4.82495C36.6451 4.81064 36.5514 4.81759 36.4628 4.84527C36.3489 4.8796 36.2495 4.9507 36.1803 5.04746C36.0711 5.20423 36.05 5.38316 36.1021 5.5715C36.1199 5.63078 36.1465 5.68562 36.1803 5.73437C36.214 5.78284 36.2555 5.82534 36.3033 5.86011C36.4579 5.97035 36.6413 5.99307 36.8275 5.93822C36.9447 5.90096 37.0469 5.82696 37.1189 5.72717C37.2464 5.53051 37.2785 5.29619 37.1189 5.05521C37.0839 5.00585 37.0408 4.96277 36.9915 4.9278ZM49.015 0.950938C49.0489 0.999279 49.0905 1.04176 49.1381 1.07669C49.2927 1.18637 49.4755 1.20964 49.6617 1.15479C49.7792 1.11796 49.8815 1.04387 49.9532 0.943736C50.0817 0.747635 50.1133 0.513312 49.9543 0.271786C49.9185 0.223228 49.8755 0.180444 49.8268 0.14493C49.7507 0.0917996 49.6635 0.0567447 49.5718 0.0424403C49.4801 0.0281359 49.3863 0.0349586 49.2976 0.0623888C49.24 0.0801154 49.1874 0.106707 49.1386 0.141052C49.0913 0.17561 49.0496 0.217281 49.015 0.264584C48.9064 0.421355 48.8854 0.600837 48.9369 0.788628C48.9547 0.847348 48.9812 0.902189 49.015 0.950938ZM56.214 5.5006C56.3664 5.60973 56.5581 5.6402 56.7443 5.58425C56.8011 5.56693 56.8546 5.53994 56.9022 5.50447C56.9502 5.46986 56.992 5.42734 57.0258 5.37873C57.13 5.22916 57.1588 5.03583 57.1039 4.85025C57.0699 4.73633 56.9989 4.63694 56.9022 4.56773C56.8031 4.49832 56.6847 4.4617 56.5637 4.46303C56.4389 4.46184 56.3169 4.50003 56.2151 4.57216C56.1418 4.6237 56.0821 4.69238 56.0413 4.77222C56.0006 4.85207 55.98 4.94066 55.9813 5.03029C55.9824 5.13886 56.0084 5.26018 56.0871 5.37097C56.122 5.42083 56.1641 5.46459 56.214 5.5006ZM41.6321 5.37928C41.6658 5.42774 41.7074 5.47024 41.7551 5.50503C41.9097 5.61471 42.0931 5.63798 42.2793 5.58314C42.3966 5.54587 42.4988 5.47187 42.5708 5.37208C42.6988 5.17542 42.7309 4.9411 42.5708 4.70013C42.5353 4.65131 42.4923 4.60849 42.4433 4.57327C42.3674 4.51987 42.2801 4.48466 42.1884 4.47035C42.0966 4.45603 42.0028 4.46301 41.9142 4.49073C41.8006 4.5258 41.7014 4.59675 41.6316 4.69293C41.5224 4.8497 41.5013 5.02862 41.5534 5.21697C41.5717 5.27624 41.5983 5.33053 41.6321 5.37928Z" fill="white"/>
<path fill-rule="evenodd" clip-rule="evenodd" d="M58.7529 10.6823C57.9572 11.4047 57.356 11.6767 56.9144 11.6401C56.4727 11.603 56.1924 11.2562 56.0583 10.7538C55.9253 10.2508 55.938 9.59214 55.9524 8.95066C55.9663 8.30862 55.9807 7.68376 56.0162 7.05945C55.7219 8.08704 55.1828 9.06034 54.55 9.74171C53.9166 10.4231 53.1885 10.8131 52.6217 10.8746C52.0548 10.936 51.6487 10.6707 51.2547 10.0331C50.8607 9.39604 50.4801 8.38728 50.1387 7.04338C49.7991 5.69948 49.4993 4.02098 49.3292 2.33252C49.1918 4.02043 48.9158 5.70059 48.5861 7.04393C48.2559 8.38839 47.8724 9.3966 47.4774 10.0331C47.0823 10.6701 46.6761 10.936 46.1087 10.874C45.5413 10.812 44.8138 10.4225 44.1804 9.74116C43.5471 9.05979 43.0085 8.08648 42.7137 7.05889C42.7492 7.68265 42.7636 8.30751 42.7774 8.95011C42.7913 9.59214 42.8051 10.2508 42.6716 10.7532C42.5375 11.2557 42.2566 11.6025 41.816 11.6396C41.3744 11.6767 40.7727 11.4041 39.977 10.6818C39.1813 9.95942 38.1922 8.78724 37.376 7.52699L41.2093 16.4125C42.4189 16.0102 43.6632 15.7209 44.9262 15.5483C46.2622 15.3611 47.725 15.2719 49.2477 15.2708C50.7693 15.2697 52.3518 15.3566 53.7465 15.5428C55.1412 15.7289 56.3503 16.0147 57.5222 16.413L61.3544 7.52754C60.5377 8.7878 59.548 9.95997 58.7529 10.6823ZM56.639 18.0228C56.6162 17.9999 56.5927 17.9778 56.5686 17.9564C56.4831 17.8844 56.3915 17.8201 56.2949 17.7641C56.2414 17.7325 56.1869 17.7027 56.1314 17.6749C56.0652 17.6422 55.9981 17.6112 55.9303 17.5819C55.6735 17.4745 55.4103 17.3829 55.1423 17.3077C55.0592 17.2839 54.9744 17.2606 54.8315 17.2251C54.3283 17.1007 53.8189 17.0029 53.3055 16.9321C52.7178 16.8475 52.1273 16.7843 51.5351 16.7426C50.8554 16.6995 50.1747 16.6729 49.4938 16.6629C48.9856 16.6546 48.7878 16.6606 48.5895 16.664C48.3911 16.6678 48.1933 16.6701 47.8043 16.6872C47.4153 16.7044 46.8374 16.7376 46.3187 16.7831C45.8001 16.8285 45.3413 16.8883 44.9772 16.9426C44.6132 16.9969 44.3439 17.0456 44.1084 17.0933C43.8723 17.1409 43.6701 17.1886 43.5271 17.224C43.3842 17.2595 43.2999 17.2827 43.2157 17.3071C43.055 17.3525 42.8627 17.4124 42.6744 17.4822C42.523 17.5381 42.3745 17.6015 42.2294 17.6722C42.1285 17.7221 42.0309 17.7785 41.9374 17.8411C41.8521 17.8974 41.7734 17.9632 41.703 18.0372C41.4686 18.2932 41.483 18.5397 41.6808 18.7779C41.6975 18.7967 41.7152 18.8172 41.7412 18.8427C41.7922 18.8942 41.8881 18.9701 41.9734 19.0266C42.1269 19.1263 42.2438 19.1839 42.3879 19.2493C42.4466 19.2759 42.512 19.3036 42.6056 19.3401C42.6987 19.3762 42.8206 19.421 42.968 19.4681C43.1154 19.5157 43.2883 19.5662 43.4761 19.6144C43.6634 19.662 43.8646 19.7074 44.099 19.7573C44.3333 19.8071 44.6004 19.8614 45.2066 19.9417C45.8128 20.0215 46.7581 20.1273 47.8325 20.1683C48.907 20.2093 50.1099 20.186 50.9588 20.1473C51.552 20.1241 52.1438 20.0745 52.7325 19.9988C53.1653 19.944 53.5398 19.888 53.8374 19.837C54.2503 19.7669 54.6596 19.6765 55.0636 19.5662C55.2182 19.5224 55.3634 19.4775 55.4892 19.4354C55.6139 19.3933 55.7186 19.354 55.805 19.3191C55.9674 19.2526 56.0705 19.2044 56.1901 19.1407C56.2467 19.1103 56.3048 19.0765 56.3558 19.0438C56.4079 19.0111 56.4522 18.9801 56.4899 18.9502C56.5298 18.9202 56.5636 18.8914 56.593 18.8643C56.8235 18.6422 56.8612 18.4582 56.7986 18.2649C56.7626 18.1741 56.7083 18.0917 56.639 18.0228ZM55.6903 18.6743C55.6345 18.7232 55.5749 18.7675 55.5119 18.8067C55.4322 18.8572 55.3495 18.9027 55.2642 18.943C55.1171 19.0141 54.9657 19.0761 54.811 19.1285C54.7029 19.1668 54.576 19.2077 54.4397 19.2471C54.0186 19.3663 53.5908 19.4607 53.1586 19.5296C52.6976 19.6055 51.9712 19.7119 51.0851 19.7684C50.1986 19.8254 49.1513 19.8332 48.3656 19.8165C47.7732 19.8066 47.1814 19.7718 46.5919 19.7124C46.1932 19.6726 45.7956 19.6227 45.3995 19.5628C44.9683 19.4972 44.5407 19.4099 44.1184 19.3014C44.0273 19.2779 43.9368 19.2524 43.8468 19.2249C43.6213 19.1584 43.3509 19.0609 43.1686 18.9773C43.1118 18.9514 43.0556 18.924 43.0002 18.8953C42.9576 18.8732 42.9158 18.8495 42.8749 18.8244C42.7991 18.7796 42.7278 18.7275 42.6622 18.6687C42.5253 18.5352 42.4544 18.4422 42.5519 18.2948C42.6034 18.2178 42.6843 18.1497 42.7658 18.0921C42.8412 18.0399 42.9199 17.9926 43.0013 17.9503C43.1232 17.8872 43.2489 17.8315 43.3775 17.7835C43.4556 17.7536 43.5421 17.722 43.654 17.6855C43.9997 17.5756 44.3511 17.485 44.7068 17.414C44.9772 17.3592 45.3213 17.2977 45.7314 17.2412C46.1892 17.1795 46.6487 17.1316 47.1094 17.0977C47.6194 17.0601 48.1303 17.037 48.6415 17.0285C49.696 17.008 50.8236 17.0506 51.7501 17.1398C52.2144 17.1841 52.6245 17.2379 52.9492 17.2883C53.2739 17.3387 53.5133 17.3841 53.7227 17.4284C53.9316 17.4728 54.1111 17.5154 54.2768 17.5597C54.4436 17.604 54.596 17.6495 54.7251 17.6921C54.8547 17.7353 54.96 17.7752 55.0409 17.8073C55.1218 17.84 55.1772 17.8644 55.2271 17.8877C55.3147 17.9281 55.3928 17.968 55.4704 18.0145C55.5972 18.0899 55.7463 18.1929 55.82 18.3175C55.8915 18.4167 55.8255 18.558 55.6903 18.6743Z" fill="white"/>
</g>
<defs>
<clipPath id="clip0_3515_7201">
<rect width="97.4483" height="50.0967" fill="white"/>
</clipPath>
</defs>
</svg>
