<svg width="200" height="46" viewBox="0 0 200 46" fill="none" xmlns="http://www.w3.org/2000/svg">
<path d="M0.000222206 34.9092V8.7738e-05H11.7957C14.5343 8.7738e-05 16.7729 0.494406 18.5116 1.48304C20.2616 2.46032 21.557 3.78418 22.3979 5.45463C23.2389 7.12509 23.6593 8.98872 23.6593 11.0455C23.6593 13.1024 23.2389 14.9717 22.3979 16.6535C21.5684 18.3353 20.2843 19.6762 18.5457 20.6762C16.807 21.6649 14.5798 22.1592 11.8639 22.1592H3.40931V18.4092H11.7275C13.6025 18.4092 15.1082 18.0853 16.2445 17.4376C17.3809 16.7899 18.2048 15.9149 18.7161 14.8126C19.2389 13.699 19.5002 12.4433 19.5002 11.0455C19.5002 9.64782 19.2389 8.39782 18.7161 7.29554C18.2048 6.19327 17.3752 5.32963 16.2275 4.70463C15.0798 4.06827 13.557 3.75009 11.6593 3.75009H4.2275V34.9092H0.000222206ZM37.6281 35.5228C35.969 35.5228 34.4633 35.2103 33.111 34.5853C31.7587 33.949 30.6849 33.0342 29.8894 31.841C29.094 30.6365 28.6962 29.1819 28.6962 27.4774C28.6962 25.9774 28.9917 24.7615 29.5826 23.8296C30.1735 22.8865 30.9633 22.1478 31.9519 21.6137C32.9406 21.0796 34.0315 20.6819 35.2247 20.4205C36.4292 20.1478 37.6394 19.9319 38.8553 19.7728C40.4462 19.5683 41.736 19.4149 42.7247 19.3126C43.7247 19.199 44.4519 19.0115 44.9065 18.7501C45.3724 18.4887 45.6053 18.0342 45.6053 17.3865V17.2501C45.6053 15.5683 45.1451 14.2615 44.2247 13.3296C43.3156 12.3978 41.9349 11.9319 40.0826 11.9319C38.1622 11.9319 36.6565 12.3524 35.5656 13.1933C34.4747 14.0342 33.7076 14.9319 33.2644 15.8865L29.4462 14.5228C30.1281 12.9319 31.0372 11.6933 32.1735 10.8069C33.3212 9.90918 34.5712 9.28418 35.9235 8.93191C37.2872 8.56827 38.6281 8.38645 39.9462 8.38645C40.7872 8.38645 41.7531 8.48872 42.844 8.69327C43.9462 8.88645 45.0087 9.28986 46.0315 9.9035C47.0656 10.5171 47.9235 11.4433 48.6053 12.6819C49.2872 13.9205 49.6281 15.5796 49.6281 17.6592V34.9092H45.6053V31.3637H45.4008C45.1281 31.9319 44.6735 32.5399 44.0372 33.1876C43.4008 33.8353 42.5542 34.3865 41.4974 34.841C40.4406 35.2955 39.1508 35.5228 37.6281 35.5228ZM38.2417 31.9092C39.8326 31.9092 41.1735 31.5967 42.2644 30.9717C43.3667 30.3467 44.1962 29.5399 44.7531 28.5512C45.3212 27.5626 45.6053 26.5228 45.6053 25.4319V21.7501C45.4349 21.9546 45.0599 22.1421 44.4803 22.3126C43.9122 22.4717 43.2531 22.6137 42.5031 22.7387C41.7644 22.8524 41.0428 22.9546 40.3383 23.0455C39.6451 23.1251 39.0826 23.1933 38.6508 23.2501C37.6053 23.3865 36.6281 23.608 35.719 23.9149C34.8212 24.2103 34.094 24.6592 33.5372 25.2615C32.9917 25.8524 32.719 26.6592 32.719 27.6819C32.719 29.0796 33.236 30.1365 34.2701 30.8524C35.3156 31.5569 36.6394 31.9092 38.2417 31.9092ZM56.9704 34.9092V8.72736H60.8568V12.6819H61.1295C61.6068 11.3865 62.4704 10.3353 63.7204 9.5285C64.9704 8.72168 66.3795 8.31827 67.9477 8.31827C68.2431 8.31827 68.6124 8.32395 69.0556 8.33531C69.4988 8.34668 69.834 8.36372 70.0613 8.38645V12.4774C69.9249 12.4433 69.6124 12.3921 69.1238 12.324C68.6465 12.2444 68.1408 12.2046 67.6068 12.2046C66.334 12.2046 65.1977 12.4717 64.1977 13.0058C63.209 13.5285 62.4249 14.2558 61.8454 15.1876C61.2772 16.108 60.9931 17.1592 60.9931 18.341V34.9092H56.9704ZM82.5343 35.5228C80.8752 35.5228 79.3695 35.2103 78.0173 34.5853C76.665 33.949 75.5911 33.0342 74.7957 31.841C74.0002 30.6365 73.6025 29.1819 73.6025 27.4774C73.6025 25.9774 73.8979 24.7615 74.4889 23.8296C75.0798 22.8865 75.8695 22.1478 76.8582 21.6137C77.8468 21.0796 78.9377 20.6819 80.1309 20.4205C81.3354 20.1478 82.5457 19.9319 83.7616 19.7728C85.3525 19.5683 86.6423 19.4149 87.6309 19.3126C88.6309 19.199 89.3582 19.0115 89.8127 18.7501C90.2786 18.4887 90.5116 18.0342 90.5116 17.3865V17.2501C90.5116 15.5683 90.0514 14.2615 89.1309 13.3296C88.2218 12.3978 86.8411 11.9319 84.9889 11.9319C83.0684 11.9319 81.5627 12.3524 80.4718 13.1933C79.3809 14.0342 78.6139 14.9319 78.1707 15.8865L74.3525 14.5228C75.0343 12.9319 75.9434 11.6933 77.0798 10.8069C78.2275 9.90918 79.4775 9.28418 80.8298 8.93191C82.1934 8.56827 83.5343 8.38645 84.8525 8.38645C85.6934 8.38645 86.6593 8.48872 87.7502 8.69327C88.8525 8.88645 89.915 9.28986 90.9377 9.9035C91.9718 10.5171 92.8298 11.4433 93.5116 12.6819C94.1934 13.9205 94.5343 15.5796 94.5343 17.6592V34.9092H90.5116V31.3637H90.307C90.0343 31.9319 89.5798 32.5399 88.9434 33.1876C88.307 33.8353 87.4604 34.3865 86.4036 34.841C85.3468 35.2955 84.057 35.5228 82.5343 35.5228ZM83.1479 31.9092C84.7389 31.9092 86.0798 31.5967 87.1707 30.9717C88.2729 30.3467 89.1025 29.5399 89.6593 28.5512C90.2275 27.5626 90.5116 26.5228 90.5116 25.4319V21.7501C90.3411 21.9546 89.9661 22.1421 89.3866 22.3126C88.8184 22.4717 88.1593 22.6137 87.4093 22.7387C86.6707 22.8524 85.9491 22.9546 85.2445 23.0455C84.5514 23.1251 83.9889 23.1933 83.557 23.2501C82.5116 23.3865 81.5343 23.608 80.6252 23.9149C79.7275 24.2103 79.0002 24.6592 78.4434 25.2615C77.8979 25.8524 77.6252 26.6592 77.6252 27.6819C77.6252 29.0796 78.1423 30.1365 79.1764 30.8524C80.2218 31.5569 81.5457 31.9092 83.1479 31.9092ZM112.445 45.2728C110.502 45.2728 108.831 45.0228 107.433 44.5228C106.036 44.0342 104.871 43.3865 103.939 42.5796C103.019 41.7842 102.286 40.9319 101.74 40.0228L104.945 37.7728C105.308 38.2501 105.769 38.7955 106.326 39.4092C106.882 40.0342 107.644 40.574 108.61 41.0285C109.587 41.4944 110.865 41.7274 112.445 41.7274C114.558 41.7274 116.303 41.216 117.678 40.1933C119.053 39.1705 119.74 37.5683 119.74 35.3865V30.0683H119.399C119.104 30.5455 118.683 31.1365 118.138 31.841C117.604 32.5342 116.831 33.1535 115.82 33.699C114.82 34.233 113.468 34.5001 111.763 34.5001C109.649 34.5001 107.752 34.0001 106.07 33.0001C104.399 32.0001 103.076 30.5455 102.098 28.6365C101.132 26.7274 100.649 24.4092 100.649 21.6819C100.649 19.0001 101.121 16.6649 102.064 14.6762C103.007 12.6762 104.32 11.1308 106.002 10.0399C107.683 8.93759 109.627 8.38645 111.831 8.38645C113.536 8.38645 114.888 8.67054 115.888 9.23873C116.899 9.79554 117.672 10.4319 118.206 11.1478C118.752 11.8524 119.172 12.4319 119.468 12.8865H119.877V8.72736H123.763V35.6592C123.763 37.9092 123.252 39.7387 122.229 41.1478C121.218 42.5683 119.854 43.608 118.138 44.2671C116.433 44.9376 114.536 45.2728 112.445 45.2728ZM112.308 30.8865C113.922 30.8865 115.286 30.5171 116.399 29.7785C117.513 29.0399 118.36 27.9774 118.939 26.591C119.519 25.2046 119.808 23.5455 119.808 21.6137C119.808 19.7274 119.524 18.0626 118.956 16.6194C118.388 15.1762 117.547 14.0455 116.433 13.2274C115.32 12.4092 113.945 12.0001 112.308 12.0001C110.604 12.0001 109.183 12.4319 108.047 13.2955C106.922 14.1592 106.076 15.3183 105.507 16.7728C104.951 18.2274 104.672 19.841 104.672 21.6137C104.672 23.4319 104.956 25.0399 105.524 26.4376C106.104 27.824 106.956 28.9149 108.081 29.7103C109.218 30.4944 110.627 30.8865 112.308 30.8865ZM131.127 34.9092V8.72736H135.013V12.6819H135.286C135.763 11.3865 136.627 10.3353 137.877 9.5285C139.127 8.72168 140.536 8.31827 142.104 8.31827C142.399 8.31827 142.769 8.32395 143.212 8.33531C143.655 8.34668 143.99 8.36372 144.218 8.38645V12.4774C144.081 12.4433 143.769 12.3921 143.28 12.324C142.803 12.2444 142.297 12.2046 141.763 12.2046C140.49 12.2046 139.354 12.4717 138.354 13.0058C137.365 13.5285 136.581 14.2558 136.002 15.1876C135.433 16.108 135.149 17.1592 135.149 18.341V34.9092H131.127ZM148.986 44.7274V8.72736H152.872V12.8865H153.35C153.645 12.4319 154.054 11.8524 154.577 11.1478C155.111 10.4319 155.872 9.79554 156.861 9.23873C157.861 8.67054 159.213 8.38645 160.918 8.38645C163.122 8.38645 165.066 8.93759 166.747 10.0399C168.429 11.1421 169.742 12.7046 170.685 14.7274C171.628 16.7501 172.1 19.1365 172.1 21.8865C172.1 24.6592 171.628 27.0626 170.685 29.0967C169.742 31.1194 168.435 32.6876 166.764 33.8012C165.094 34.9035 163.168 35.4546 160.986 35.4546C159.304 35.4546 157.958 35.1762 156.946 34.6194C155.935 34.0512 155.156 33.4092 154.611 32.6933C154.066 31.966 153.645 31.3637 153.35 30.8865H153.009V44.7274H148.986ZM152.941 21.8183C152.941 23.7955 153.23 25.5399 153.81 27.0512C154.389 28.5512 155.236 29.7274 156.35 30.5796C157.463 31.4205 158.827 31.841 160.441 31.841C162.122 31.841 163.526 31.3978 164.651 30.5115C165.787 29.6137 166.639 28.4092 167.208 26.8978C167.787 25.3751 168.077 23.6819 168.077 21.8183C168.077 19.9774 167.793 18.3183 167.225 16.841C166.668 15.3524 165.821 14.1762 164.685 13.3126C163.56 12.4376 162.145 12.0001 160.441 12.0001C158.804 12.0001 157.429 12.4149 156.316 13.2444C155.202 14.0626 154.361 15.2103 153.793 16.6876C153.225 18.1535 152.941 19.8637 152.941 21.8183ZM182.259 19.1592V34.9092H178.236V8.7738e-05H182.259V12.8183H182.6C183.213 11.466 184.134 10.3921 185.361 9.59668C186.6 8.78986 188.247 8.38645 190.304 8.38645C192.088 8.38645 193.651 8.74441 194.992 9.46031C196.333 10.1649 197.372 11.2501 198.111 12.716C198.861 14.1705 199.236 16.0228 199.236 18.2728V34.9092H195.213V18.5455C195.213 16.466 194.674 14.858 193.594 13.7217C192.526 12.574 191.043 12.0001 189.145 12.0001C187.827 12.0001 186.645 12.2785 185.6 12.8353C184.566 13.3921 183.747 14.2046 183.145 15.2728C182.554 16.341 182.259 17.6365 182.259 19.1592Z" fill="white"/>
</svg>
