<svg width="171" height="88" viewBox="0 0 171 88" fill="none" xmlns="http://www.w3.org/2000/svg">
<g clip-path="url(#clip0_3557_1429)">
<path fill-rule="evenodd" clip-rule="evenodd" d="M68.8047 68.9875C68.5648 68.6304 68.3535 68.2549 68.1727 67.8646C68.0649 67.6326 67.9659 67.3966 67.8761 67.1571C67.7555 66.8331 67.6494 66.5039 67.5582 66.1704C67.4405 65.7461 67.3044 65.1915 67.1828 64.5356C66.9161 63.0847 66.7756 61.6134 66.7628 60.1383C66.7589 59.4406 66.7861 58.8139 66.8376 58.2359C66.9239 57.2203 67.1016 56.2146 67.3685 55.231C67.492 54.7882 67.632 54.3737 67.7643 54.0205C67.9766 53.4516 68.2361 52.9015 68.5402 52.376C68.77 51.9782 69.0338 51.6012 69.3288 51.2491C69.7018 50.7985 70.1361 50.4025 70.6191 50.0727C71.4455 49.5258 72.2526 49.3448 73.01 49.59C73.3941 49.7155 73.7889 49.9491 74.1885 50.3597C74.4812 50.6624 74.7077 50.9942 74.8798 51.3153C75.0257 51.5848 75.1464 51.8673 75.2406 52.159C75.2921 52.3166 75.3417 52.4898 75.3893 52.7058C75.437 52.9209 75.4836 53.1788 75.5206 53.4736C75.5566 53.7665 75.5819 54.0934 75.5916 54.4749C75.6159 55.2466 75.5488 56.3218 75.3903 57.3299C75.3161 57.814 75.2191 58.2943 75.0996 58.7691C74.8793 59.6475 74.5742 60.5023 74.1885 61.3215C73.9843 61.7604 73.7432 62.2265 73.4155 62.7773C73.0621 63.3673 72.6852 63.9428 72.2856 64.5025C71.8967 65.0465 71.5311 65.498 71.1402 65.9301C71.3016 66.3709 71.4864 66.8039 71.6838 67.2019C71.8811 67.5989 72.0912 67.9619 72.2361 68.1993C72.3873 68.4504 72.5563 68.6904 72.7417 68.9174C72.8088 68.9992 72.8758 69.0731 72.939 69.1383C73.3406 69.5451 73.6878 69.693 74.0407 69.7504C74.5405 69.8243 75.014 69.6842 75.4856 69.4351C75.8519 69.2332 76.194 68.9903 76.5056 68.7111C76.6748 68.5613 76.8877 68.3599 77.1065 68.1185C77.4494 67.7371 77.7658 67.3327 78.0535 66.908C78.2966 66.5474 78.5268 66.1784 78.7439 65.8016C78.9451 65.4585 79.1406 65.112 79.3302 64.7624L79.7454 64.0043L79.9943 63.5557L80.1829 63.2229C80.3339 62.9594 80.4902 62.6989 80.6516 62.4416C80.8279 62.1607 81.0141 61.8861 81.2097 61.6183C81.3245 61.4626 81.4285 61.3351 81.4995 61.2476C81.6473 61.0685 81.6842 61.0306 81.7834 60.9265C81.833 60.8749 81.8913 60.8165 81.9438 60.7688C82.2035 60.5294 82.3882 60.4097 82.6148 60.3465C82.9123 60.2764 83.1563 60.3543 83.4597 60.5557C83.6017 60.6472 83.9313 60.9206 84.117 61.1581C84.3027 61.3877 84.4243 61.5969 84.5264 61.8217C84.5935 61.9735 84.6518 62.1292 84.6917 62.2528C84.7442 62.4163 84.7811 62.5535 84.8132 62.677C84.8618 62.8668 84.9114 63.0857 84.9571 63.2949C84.9911 63.4526 85.0261 63.6239 85.0641 63.8058L85.1312 64.125L85.2264 64.5755C85.3699 65.2437 85.5288 65.9085 85.7029 66.5694C85.7618 66.789 85.8263 67.007 85.8964 67.2233C85.9557 67.4004 86.015 67.5678 86.0772 67.7118C86.1832 67.9512 86.2814 68.2003 86.5245 68.4134C86.8075 68.6284 87.0544 68.4396 87.2897 68.174C87.3432 68.1137 87.3909 68.0504 87.4356 67.9862C87.5494 67.8305 87.7185 67.5395 87.8343 67.3002C87.8624 67.2408 87.8936 67.1805 87.948 67.0569C88.1151 66.6848 88.2605 66.3034 88.3836 65.9145C88.441 65.7471 88.4672 65.6518 88.4954 65.5574C88.5236 65.4601 88.5528 65.3657 88.5888 65.2324C88.6267 65.099 88.6724 64.9268 88.7162 64.7555C88.7978 64.4364 88.8698 64.1318 88.9369 63.8564L89.0925 63.1986C89.1644 62.9057 89.2519 62.5466 89.3598 62.174C89.3913 62.0623 89.425 61.9514 89.461 61.8412C89.4969 61.7351 89.5349 61.628 89.5669 61.5444C89.6389 61.3604 89.671 61.2855 89.74 61.1532C89.776 61.0812 89.8237 60.9955 89.8694 60.9216C89.9812 60.7464 90.0687 60.6326 90.2223 60.4886C90.6093 60.1431 90.9914 60.0663 91.3998 60.1032C91.6584 60.1353 91.886 60.2404 92.1534 60.4302C92.2525 60.5002 92.3906 60.6131 92.5442 60.7552C93.2261 61.4018 93.7346 62.2096 94.0232 63.1042C94.0893 63.3018 94.1486 63.4915 94.1982 63.6706C94.2497 63.8535 94.31 64.0812 94.3732 64.3303C94.5171 64.9122 94.6542 65.5009 94.8214 66.0994C94.8969 66.3726 94.9792 66.6439 95.0684 66.9129C95.1384 67.1163 95.2075 67.3079 95.2775 67.4773C95.3348 67.6125 95.3912 67.74 95.4506 67.85C95.5458 68.0329 95.6596 68.2226 95.8093 68.3667C96.0447 68.5944 96.2673 68.5661 96.4608 68.464C96.5785 68.4046 96.736 68.2684 96.8536 68.1292C96.9191 68.0523 96.9811 67.9724 97.0394 67.8899C97.0773 67.8344 97.1152 67.7799 97.1648 67.6962C97.2163 67.6145 97.2805 67.5045 97.3486 67.3751C97.5827 66.9191 97.7729 66.4417 97.9164 65.9495C97.9679 65.7821 98.0097 65.6362 98.0477 65.4893C98.1196 65.2139 98.1809 64.9531 98.2314 64.7176C98.3092 64.3624 98.3928 63.9255 98.4765 63.4691L98.5523 63.0585C98.5786 62.9271 98.6038 62.7948 98.6243 62.7014C98.6563 62.534 98.6777 62.4542 98.704 62.3384C98.7612 62.0898 98.835 61.8454 98.9247 61.6066C99.0425 61.3033 99.2171 61.0252 99.4391 60.7873C99.9009 60.3163 100.345 60.1733 100.83 60.1869C101.164 60.2044 101.501 60.3747 101.788 60.7328C101.828 60.7805 101.864 60.8282 101.908 60.8866C102.033 61.0689 102.146 61.2601 102.243 61.4587C102.397 61.7745 102.528 62.1003 102.638 62.4338C102.785 62.8738 102.906 63.3218 103.002 63.7756C103.064 64.0608 103.127 64.3897 103.171 64.629C103.215 64.8665 103.237 65.0144 103.262 65.1633L103.388 65.9466C103.422 66.1597 103.456 66.3631 103.489 66.547C103.557 66.9255 103.658 67.4364 103.792 67.9025C103.858 68.1322 103.956 68.4153 104.081 68.6985C104.143 68.8425 104.212 68.9739 104.276 69.0936C104.391 69.3002 104.526 69.4951 104.679 69.6755C105.038 70.0783 105.3 70.2077 105.6 70.272C106.136 70.3595 106.61 70.1085 107.156 69.658C107.218 69.6064 107.279 69.5538 107.41 69.4302C107.596 69.2545 107.774 69.0708 107.944 68.8795C108.151 68.6459 108.371 68.3706 108.578 68.0854C108.847 66.51 109.48 65.0601 110.758 63.4789C111.484 62.5855 112.339 61.8058 113.295 61.1658C114.459 60.378 115.788 59.8664 117.18 59.6702C117.427 59.6381 117.702 59.6099 118.014 59.5904C118.325 59.5709 118.675 59.5622 119.036 59.5661C119.396 59.57 119.767 59.5865 120.088 59.6138C120.407 59.64 120.675 59.6741 120.841 59.6975C121.008 59.7218 121.076 59.7354 121.144 59.749L121.322 59.7889C121.404 59.8094 121.446 59.8249 121.506 59.8493C121.538 59.8551 121.596 59.9252 121.527 59.9427C121.437 59.9865 121.27 60.0127 121.122 60.0361C121.033 60.0517 120.891 60.0682 120.737 60.0877C120.648 60.0993 120.56 60.11 120.435 60.1237L119.992 60.1752L119.552 60.2288C119.32 60.2589 119.191 60.2784 119.016 60.3047C118.934 60.3163 118.855 60.329 118.775 60.3426C118.695 60.3562 118.615 60.3689 118.435 60.4068C118.256 60.4448 117.979 60.509 117.73 60.582C117.481 60.655 117.259 60.7357 117.074 60.8116C116.742 60.946 116.423 61.1108 116.121 61.304C115.577 61.6502 115.074 62.0584 114.623 62.5204C113.972 63.2041 113.432 63.9859 113.024 64.8373C112.918 65.0601 112.822 65.2859 112.739 65.5009C112.664 65.6986 112.596 65.8989 112.535 66.1013C112.447 66.3918 112.385 66.6894 112.348 66.9907C112.333 67.117 112.325 67.244 112.323 67.3712C112.322 67.4889 112.329 67.597 112.337 67.6845C112.359 67.8957 112.397 68.065 112.468 68.2509C112.55 68.464 112.679 68.6936 112.903 68.8785C113.198 69.1062 113.459 69.15 113.748 69.1714C113.996 69.1795 114.245 69.1596 114.489 69.112C115.1 68.9944 115.692 68.7882 116.244 68.5C116.686 68.2671 117.086 67.9641 117.431 67.6028C117.627 67.3934 117.805 67.1685 117.964 66.9304C118.129 66.6891 118.177 66.6073 118.283 66.4322C118.406 66.2307 118.552 65.9719 118.682 65.7364C118.75 65.6128 118.819 65.4893 118.885 65.3637L119.128 64.919C119.236 64.7273 119.383 64.4646 119.53 64.2048C119.979 63.4234 120.447 62.6371 120.917 61.848C120.978 62.2805 121.051 62.7114 121.134 63.1402C121.189 63.4312 121.265 63.8126 121.339 64.1629C121.411 64.5123 121.48 64.8285 121.527 65.0348C121.574 65.244 121.597 65.3423 121.622 65.4435C121.673 65.6586 121.742 65.9203 121.819 66.2035C121.863 66.3572 121.907 66.511 121.987 66.7523C122.066 66.9936 122.182 67.3245 122.296 67.6077C122.41 67.8889 122.525 68.1224 122.607 68.284C122.778 68.6148 122.831 68.6946 122.962 68.8941C123.086 69.0845 123.228 69.2631 123.385 69.4273C123.531 69.5752 123.641 69.6609 123.772 69.7446C124.273 70.0501 124.722 69.9762 125.194 69.765C125.333 69.7008 125.493 69.6093 125.654 69.4954C125.757 69.4254 125.856 69.3494 125.951 69.2677C126.287 68.9828 126.592 68.6624 126.86 68.3122C127.014 68.1146 127.158 67.9054 127.296 67.6836C127.608 67.1792 127.871 66.6461 128.081 66.0916C128.207 65.7637 128.328 65.3881 128.43 65.027C128.532 64.666 128.616 64.3167 128.687 63.9839C128.755 63.6511 128.81 63.3339 128.848 63.075C128.889 62.8051 128.916 62.5332 128.93 62.2606C128.937 62.1156 128.936 61.9704 128.928 61.8256C128.92 61.6914 128.901 61.558 128.873 61.4266C128.837 61.2631 128.793 61.1298 128.759 61.0024C128.699 60.7396 128.584 60.2531 128.816 59.86C129.012 59.641 129.207 59.7043 129.41 59.7977C129.51 59.8473 129.617 59.9368 129.68 59.9952C129.805 60.1071 129.968 60.2842 130.084 60.3922C130.278 60.5839 130.475 60.6871 130.652 60.7192C130.77 60.7435 130.885 60.7532 130.996 60.761C131.127 60.7688 131.307 60.7708 131.475 60.7688L131.972 60.7591L132.608 60.7416C132.819 60.7377 133.072 60.7318 133.345 60.7318C133.493 60.7318 133.642 60.7338 133.75 60.7357C133.951 60.7396 134.053 60.7455 134.198 60.7532C134.538 60.7776 134.897 60.8029 135.237 60.9566C135.4 61.0228 135.599 61.2194 135.667 61.3896C135.727 61.5171 135.759 61.6388 135.785 61.7643C135.821 61.9219 135.857 62.207 135.872 62.4445C135.892 62.7072 135.903 63.077 135.91 63.4059C135.914 63.4954 135.916 63.583 135.92 63.7134C135.93 63.9742 135.946 64.3576 135.966 64.6865L135.994 65.173C136.006 65.3326 136.014 65.4922 136.024 65.6119L136.044 65.8872C136.069 66.2775 136.109 66.6667 136.163 67.054C136.209 67.3469 136.304 67.7994 136.433 68.1643C136.551 68.5179 136.701 68.8602 136.881 69.187C137.02 69.4421 137.183 69.6838 137.367 69.909C137.712 70.3196 138.056 70.5765 138.437 70.74C138.991 70.9716 139.5 70.8792 139.983 70.5386C140.138 70.4306 140.332 70.2632 140.499 70.0978C140.611 69.9878 140.748 69.8409 140.89 69.6774C141.057 69.4857 141.226 69.2765 141.395 69.0576C141.732 68.6175 142.058 68.1688 142.372 67.7118C142.647 67.3128 142.971 66.8243 143.258 66.3718L143.276 65.752C143.28 65.5467 143.286 65.3394 143.3 64.8645C143.315 64.3897 143.342 63.6482 143.372 62.9047C143.42 61.6956 143.485 60.4873 143.567 59.28C143.631 58.3585 143.709 57.4438 143.81 56.5437C143.859 56.097 143.912 55.6504 143.99 55.1142C144.066 54.5781 144.167 53.9494 144.273 53.3889C144.365 52.8923 144.469 52.3981 144.587 51.9069C144.689 51.4827 144.784 51.1294 144.877 50.8083C144.973 50.4872 145.063 50.1982 145.158 49.9248C145.439 49.1229 145.711 48.507 146.127 47.8326C146.271 47.603 146.432 47.3655 146.575 47.169C146.718 46.9724 146.842 46.8196 146.949 46.698C147.055 46.5744 147.145 46.483 147.228 46.4032C148.053 45.6354 148.757 45.5614 149.532 45.9448C149.737 46.0548 149.974 46.2601 150.134 46.4956C150.221 46.6211 150.287 46.7428 150.354 46.8868C150.392 46.9685 150.428 47.058 150.466 47.1641C150.608 47.5597 150.702 47.9706 150.747 48.3883C150.766 48.5517 150.781 48.7327 150.789 48.8806C150.799 49.0266 150.803 49.1414 150.805 49.2553C150.807 49.3691 150.809 49.481 150.807 49.6338C150.805 49.7837 150.799 49.9724 150.793 50.1583C150.787 50.3461 150.781 50.5349 150.733 51.0555C150.684 51.5761 150.591 52.4314 150.467 53.2148C150.354 53.9168 150.209 54.6132 150.033 55.302C149.904 55.8094 149.75 56.3099 149.571 56.8015C149.409 57.2326 149.24 57.6248 149.062 57.9858C148.881 58.3449 148.694 58.6757 148.492 58.9852C148.105 59.583 147.653 60.1362 147.145 60.6345C146.894 60.8777 146.63 61.1074 146.355 61.3225V63.3183C146.803 62.8833 147.292 62.4863 147.81 62.136C148.287 61.8192 148.784 61.5341 149.298 61.2826C149.722 61.0753 150.014 60.9654 150.301 60.8661C150.588 60.7669 150.867 60.6822 151.134 60.6112C151.4 60.5431 151.654 60.4915 151.894 60.4516C152.133 60.4136 152.36 60.3893 152.566 60.3737C152.769 60.3601 152.951 60.3562 153.114 60.3601C153.277 60.366 153.421 60.3757 153.56 60.3922C153.697 60.4078 153.83 60.4302 153.947 60.4545C154.296 60.5343 154.579 60.6384 154.876 60.8389C155.165 61.0286 155.415 61.3254 155.546 61.5765C155.869 62.1847 155.874 62.8269 155.658 63.4351C155.625 63.5197 155.589 63.6029 155.55 63.6842C155.505 63.7779 155.456 63.8691 155.402 63.9576C155.231 64.2347 155.033 64.4945 154.812 64.7332C154.487 65.0831 154.134 65.4066 153.758 65.7004C153.473 65.9242 153.091 66.2074 152.732 66.4477C152.375 66.6891 152.04 66.8866 151.742 67.0462C151.211 67.3353 150.651 67.5672 150.07 67.7381C149.142 68.0154 148.154 68.1545 147.174 68.1545C147.588 69.2605 148.245 70.2593 149.096 71.0777C149.502 71.468 149.941 71.8228 150.407 72.1383C150.664 72.3116 150.947 72.4838 151.235 72.6453C151.845 72.9817 152.483 73.2628 153.142 73.4851C153.87 73.7365 154.62 73.9196 155.382 74.032C156.207 74.1594 157.098 74.2149 157.994 74.1974C158.925 74.1779 159.871 74.0796 160.829 73.9025C161.316 73.8111 161.802 73.7011 162.276 73.5717C162.751 73.4423 163.215 73.2944 163.669 73.1309C164.121 72.9674 164.565 72.7864 165.042 72.5626C165.796 72.2041 166.531 71.8062 167.244 71.3706C167.479 71.2285 167.715 71.0816 167.903 70.9638C168.283 70.7225 168.503 70.5765 168.802 70.38L169.267 70.0705L169.702 69.7854C169.925 69.6369 170.152 69.4938 170.382 69.3563C170.448 69.3183 170.517 69.2823 170.562 69.257C170.631 69.2188 170.702 69.1862 170.775 69.1597C170.836 69.1335 171.003 69.1043 170.998 69.224C170.998 69.2873 170.984 69.3499 170.958 69.4079C170.93 69.4801 170.897 69.5506 170.861 69.619C170.739 69.8373 170.604 70.0484 170.458 70.2515C170.39 70.3488 170.321 70.4432 170.227 70.5688C170.132 70.6923 170.012 70.8441 169.893 70.9959C169.771 71.1477 169.651 71.2995 169.346 71.646C169.041 71.9924 168.549 72.5334 168.066 73.0161C167.616 73.4662 167.144 73.8942 166.652 74.2986C166.196 74.6752 165.759 75.0041 165.335 75.2921C163.702 76.4073 162.223 77.0446 160.65 77.4417C160.275 77.5356 159.895 77.6122 159.513 77.6713C158.741 77.7953 157.958 77.8439 157.176 77.8163C156.813 77.802 156.45 77.7682 156.09 77.7151C155.025 77.5568 153.994 77.2188 153.042 76.7157C152.241 76.2965 151.488 75.7917 150.796 75.2104C149.982 74.5341 149.239 73.7771 148.578 72.9509C147.644 71.7647 147.089 70.6972 146.677 69.5713L145.83 70.2437C145.86 70.668 145.889 71.0816 145.908 71.5078C145.927 71.8886 145.934 72.2699 145.929 72.6512C145.925 72.9042 145.916 73.1815 145.909 73.4014C145.899 73.6204 145.889 73.7819 145.881 73.9434C145.872 74.1049 145.861 74.2645 145.853 74.3998C145.837 74.6635 145.822 74.8562 145.807 75.08L143.217 75.0557C143.179 74.1145 143.162 73.1727 143.167 72.2308C143.169 71.86 143.171 71.4893 143.177 71.0319C143.181 70.5717 143.188 70.0248 143.197 69.477C143.205 68.9301 143.217 68.3822 143.227 67.8344C142.821 68.4961 142.376 69.1442 141.87 69.7844C141.621 70.0997 141.359 70.4121 141.129 70.6641C140.937 70.8776 140.737 71.0824 140.527 71.2781C140.196 71.5876 139.944 71.7871 139.686 71.9661C139.365 72.1899 139.012 72.3806 138.698 72.4945C137.773 72.8292 136.915 72.7815 135.982 72.4925C135.341 72.2755 134.64 71.9418 133.973 71.2421C133.478 70.7191 133.128 70.0748 132.959 69.3738C132.925 69.2327 132.895 69.077 132.872 68.9612C132.832 68.7374 132.82 68.6206 132.802 68.4552C132.792 68.3774 132.782 68.2995 132.776 68.2217C132.769 68.1438 132.76 68.066 132.749 67.9327C132.736 67.8013 132.721 67.6135 132.704 67.4267L132.654 66.8165C132.635 66.583 132.614 66.3037 132.594 66.0225L132.538 65.2508C132.523 65.0416 132.516 64.9064 132.508 64.7701C132.483 64.3905 132.47 64.0102 132.468 63.6297C132.468 63.4419 132.47 63.4302 132.472 63.3271C132.474 63.1918 132.482 62.968 132.484 62.7967C132.484 62.5972 132.478 62.4094 132.452 62.2508C132.432 62.101 132.342 61.8655 132.155 61.7799C132.057 61.7304 131.952 61.696 131.844 61.6777C131.747 61.6601 131.649 61.6461 131.551 61.6358C131.476 61.6261 131.378 61.6154 131.272 61.6037C130.91 61.5619 130.393 61.4996 129.937 61.4646C129.939 61.5161 129.937 61.5667 129.937 61.6183C129.935 61.6794 129.932 61.7404 129.926 61.8013C129.918 61.9101 129.905 62.0186 129.888 62.1263C129.865 62.2693 129.839 62.4117 129.81 62.5535C129.753 62.8172 129.732 62.8882 129.69 63.0604C129.668 63.15 129.639 63.258 129.611 63.364C129.582 63.4701 129.555 63.5791 129.451 63.9284C129.347 64.2778 129.168 64.8694 128.989 65.3978C128.834 65.8649 128.663 66.327 128.479 66.7835C128.323 67.1746 128.182 67.4889 128.05 67.7702C127.917 68.0494 127.791 68.2947 127.659 68.534C127.527 68.7734 127.384 69.007 127.241 69.222C126.972 69.6251 126.67 70.0052 126.339 70.3586C126.038 70.6767 125.713 70.9696 125.364 71.2343C125.222 71.3429 125.075 71.4455 124.924 71.5418C124.618 71.7405 124.288 71.8988 123.942 72.0128C123.646 72.1102 123.339 72.1691 123.029 72.188C122.488 72.2136 121.947 72.1501 121.426 72.0002C121.145 71.9227 120.87 71.8228 120.605 71.7014C120.494 71.6502 120.386 71.5944 120.28 71.5341C119.845 71.2926 119.469 70.9568 119.18 70.5512C119.11 70.4563 119.045 70.3579 118.985 70.2564C118.921 70.1485 118.859 70.0389 118.801 69.9275C118.731 69.7884 118.665 69.6476 118.602 69.5052C118.555 69.4026 118.51 69.2995 118.467 69.1957C118.392 69.0282 118.328 68.8563 118.275 68.681C118.248 68.5945 118.226 68.5068 118.207 68.4182C118.082 68.5837 117.952 68.7452 117.818 68.9028C117.492 69.277 117.138 69.6263 116.76 69.9479C116.527 70.1455 116.27 70.3488 116.001 70.5444C115.742 70.7331 115.475 70.9113 115.202 71.0787C114.953 71.2324 114.735 71.354 114.538 71.4533C114.343 71.5506 114.174 71.6284 114.02 71.6907C113.618 71.8559 113.196 71.9659 112.765 72.0177C112.422 72.0584 112.075 72.0685 111.73 72.0478C111.391 72.0308 111.054 71.9875 110.722 71.9184C110.598 71.893 110.476 71.8605 110.355 71.8211C110.005 71.7167 109.679 71.543 109.397 71.3102C108.73 70.7215 108.57 70.1279 108.502 69.5256C108.398 69.6278 108.295 69.7329 108.193 69.8351C108 70.0306 107.819 70.2175 107.657 70.3858C107.516 70.5318 107.384 70.6729 107.261 70.7965C107.067 71.0003 106.863 71.1939 106.649 71.3764C106.351 71.6361 106.015 71.8487 105.652 72.007C104.543 72.4458 103.395 72.4273 102.225 71.6537C101.988 71.4904 101.774 71.296 101.589 71.0757C101.52 70.9961 101.456 70.9129 101.395 70.8266C101.322 70.7252 101.254 70.6199 101.192 70.5113C101.122 70.3897 101.054 70.2661 100.991 70.1406C100.873 69.9032 100.828 69.7893 100.754 69.6103C100.637 69.3162 100.526 69.0197 100.421 68.7209L100.268 68.2781C100.176 68.0154 100.053 67.6622 99.9184 67.3371C99.8902 67.2683 99.861 67.1999 99.8309 67.1318C99.7934 67.0479 99.7516 66.9661 99.7055 66.8866C99.5723 66.621 99.2728 66.2667 99.0258 66.2307C98.8129 66.1772 98.599 66.2424 98.4259 66.4896C98.3617 66.5772 98.28 66.7367 98.2363 66.8448C98.2042 66.9226 98.1925 66.9528 98.1682 67.0219C98.1472 67.0717 98.1281 67.1224 98.1109 67.1737C98.0904 67.2291 98.071 67.2856 97.9815 67.5269C97.8901 67.7682 97.7287 68.1944 97.5693 68.5603C97.4118 68.9272 97.2562 69.2308 97.1171 69.4857C96.9781 69.7407 96.8565 69.9421 96.7467 70.1182C96.646 70.2792 96.5383 70.4357 96.4239 70.5872C96.3216 70.7269 96.2132 70.8619 96.0991 70.992C95.752 71.3793 95.4856 71.5827 95.2007 71.7394C94.3654 72.1578 93.5253 72.1082 92.6843 71.4085C92.5541 71.2924 92.4344 71.1651 92.3264 71.0281C92.2524 70.9357 92.1826 70.8399 92.1174 70.741C92.0239 70.5981 91.9369 70.451 91.8568 70.3002C91.7654 70.125 91.673 69.9256 91.5875 69.7241C91.5019 69.5227 91.4261 69.3193 91.3444 69.0799C91.1473 68.4807 90.9812 67.8717 90.8465 67.2554L90.7454 66.8107C90.6851 66.548 90.6064 66.2084 90.5082 65.8931C90.4705 65.7752 90.4286 65.6587 90.3827 65.5437C90.3395 65.4363 90.2908 65.331 90.2369 65.2285C90.1397 65.0533 90.0638 64.9395 89.9364 64.8392C89.7673 64.7001 89.5679 64.7974 89.4561 65.0008C89.3805 65.1349 89.317 65.2756 89.2665 65.4211C89.2182 65.5578 89.1725 65.6953 89.1294 65.8337C89.074 66.0167 89.0234 66.1928 88.9738 66.3621C88.9223 66.5412 88.8601 66.7669 88.7881 67.0141C88.7084 67.2875 88.6228 67.5687 88.5295 67.8538C88.4322 68.1526 88.3165 68.4815 88.1823 68.823C88.0149 69.251 87.8207 69.668 87.6009 70.0715C87.4337 70.3783 87.2432 70.6717 87.0311 70.9492C86.9051 71.1131 86.7652 71.2657 86.613 71.4056C86.5435 71.4717 86.4698 71.5331 86.3923 71.5895C86.0072 71.8649 85.7437 71.9321 85.4219 71.97C84.784 72.008 84.151 71.826 83.4918 71.0903C83.3739 70.9494 83.2681 70.7987 83.1758 70.6398C83.1233 70.5528 83.0746 70.4635 83.0299 70.3722C82.9756 70.2617 82.925 70.1494 82.8783 70.0355C82.7593 69.7366 82.6564 69.4316 82.57 69.1218C82.4465 68.6829 82.3279 68.1331 82.2219 67.6583C82.1517 67.3356 82.0723 67.015 81.9837 66.6969C81.8853 66.3288 81.7645 65.9671 81.622 65.6138C81.5911 65.5395 81.5587 65.4659 81.5248 65.3929C81.4797 65.2933 81.4294 65.1962 81.3741 65.102C81.3048 64.9746 81.2152 64.8596 81.1086 64.7614C80.918 64.594 80.7168 64.6242 80.5612 64.7273C80.4464 64.7954 80.3025 64.9424 80.2014 65.064C80.0608 65.2372 79.93 65.4182 79.8096 65.606C79.6598 65.8357 79.4683 66.1587 79.3069 66.4477C79.2096 66.619 79.1046 66.8126 78.9938 67.016L78.6856 67.5882C78.4872 67.9512 78.2159 68.4416 77.9174 68.8902C77.7095 69.2057 77.4805 69.5068 77.2319 69.7913C76.3218 70.812 75.4428 71.3346 74.488 71.6353C73.5604 71.9243 72.6172 71.9029 71.7859 71.5292C71.4935 71.3995 71.2133 71.2439 70.9487 71.0641C70.7388 70.9225 70.5344 70.7729 70.3361 70.6155C70.1261 70.4461 69.9238 70.2661 69.743 70.091C69.5621 69.9158 69.4036 69.7436 69.2539 69.5645C68.6423 70.0229 67.9558 70.4403 67.2898 70.7731C66.9621 70.9366 66.649 71.0757 66.3524 71.1915C65.8336 71.3979 65.296 71.5533 64.7471 71.6557C64.4879 71.7022 64.2267 71.7369 63.9644 71.7598C63.4004 71.8094 62.7723 71.8036 62.1481 71.7423C61.8336 71.7127 61.5205 71.6696 61.2098 71.6129C60.9413 71.5634 60.6752 71.5014 60.4125 71.427C59.9603 71.3009 59.5214 71.1314 59.1017 70.921C58.9039 70.8227 58.7105 70.7155 58.5222 70.5999C57.9088 70.2233 57.3621 69.7475 56.9043 69.1918C56.6612 69.4049 56.4103 69.6103 56.1546 69.8098C55.8989 70.0073 55.6373 70.199 55.3359 70.4004C55.0345 70.5999 54.6922 70.8111 54.3742 70.9862C54.0886 71.145 53.7948 71.2889 53.4943 71.4173C53.2579 71.5185 53.0168 71.6085 52.7718 71.6868C51.6134 72.0618 50.3713 72.0929 49.1956 71.7764C48.6041 71.6263 48.0357 71.3968 47.5057 71.0942C47.0575 70.8348 46.6488 70.5123 46.2922 70.1367C46.1585 69.9956 46.0313 69.8485 45.911 69.6959C45.625 69.3286 45.3706 68.9376 45.1507 68.5272C45.0682 68.3765 44.9936 68.2215 44.927 68.0631C44.838 67.8554 44.7668 67.6406 44.7141 67.4208C44.5031 67.6505 44.2872 67.8753 44.0675 68.0971C43.8487 68.3209 43.627 68.5399 43.3314 68.8153C43.0359 69.0906 42.6664 69.4215 42.3397 69.6969C42.013 69.9723 41.729 70.1931 41.4928 70.3664C41.0085 70.7196 40.7363 70.8889 40.3853 71.0884C40.028 71.2893 39.6538 71.4586 39.2671 71.5944C38.2293 71.9559 37.1057 71.9906 36.0477 71.6936C35.7142 71.5895 35.3904 71.4728 35.0744 71.1594C34.8846 70.9599 34.7449 70.7181 34.667 70.4539C34.6409 70.3761 34.6191 70.2968 34.6018 70.2165C34.5769 70.1059 34.5567 69.9942 34.5415 69.8818C34.5223 69.7381 34.5099 69.5936 34.5046 69.4487C34.4975 69.2633 34.4982 69.0776 34.5065 68.8921C34.5606 67.9133 34.7861 66.9515 35.1726 66.0507C35.5495 65.1808 36.041 64.3653 36.634 63.6258C37.2709 62.8315 38.0117 62.1265 38.8363 61.5298C40.2082 60.5348 41.7882 59.8653 43.4569 59.5719C43.8059 59.5126 44.1832 59.4659 44.6033 59.4347C45.3917 59.3748 46.1837 59.3767 46.9719 59.4406C47.1984 59.4581 47.2548 59.4649 47.3112 59.4727C47.4191 59.4882 47.5232 59.5009 47.6224 59.5223C47.7381 59.5486 47.8538 59.5602 47.9354 59.6264C47.9578 59.6984 47.8518 59.7082 47.8129 59.7276C47.6916 59.764 47.5682 59.7933 47.4434 59.8152L47.2597 59.8493L46.7473 59.9349C46.5217 59.9709 46.2553 60.0147 45.9684 60.0662C45.8148 60.0925 45.6612 60.1217 45.5416 60.1441C45.422 60.1665 45.3364 60.1859 45.2508 60.2044C45.1368 60.2278 45.0234 60.2538 44.9105 60.2823C44.7423 60.328 44.4914 60.3961 44.2639 60.4701C43.8215 60.618 43.4588 60.7815 43.0786 60.9907C42.6523 61.2334 42.2476 61.5124 41.8691 61.8246C41.4605 62.1537 41.0841 62.5209 40.745 62.9213C40.234 63.5244 39.8065 64.1938 39.4742 64.9112C39.3632 65.15 39.2626 65.3935 39.1728 65.641C39.098 65.8477 39.0322 66.0574 38.9754 66.2697C38.8993 66.5567 38.8479 66.8497 38.8218 67.1454C38.8015 67.3825 38.8116 67.6213 38.8519 67.8558C38.9122 68.1613 39.0046 68.4834 39.3176 68.8007C39.8767 69.2911 40.4008 69.2152 40.9414 69.0936C41.0221 69.0712 41.1116 69.0439 41.2098 69.0079C41.6049 68.8564 41.9798 68.6567 42.326 68.4134C42.8154 68.0768 43.267 67.6883 43.6727 67.2544C43.804 67.1133 43.9285 66.9713 44.0578 66.8058C44.2355 66.5771 44.4042 66.3414 44.5634 66.0994C44.6402 65.9836 44.7248 65.8522 44.8133 65.7101L45.1565 65.1613L45.3889 64.7906C45.4871 64.6368 45.6164 64.4374 45.7749 64.196C46.3064 63.4019 46.8493 62.6156 47.4036 61.8373C47.4629 62.3063 47.5348 62.7442 47.6243 63.2093C47.6554 63.3689 47.6865 63.5285 47.7351 63.7562C47.8396 64.243 47.9524 64.728 48.0735 65.211C48.1221 65.3949 48.1639 65.5476 48.2077 65.6975C48.2515 65.8473 48.2962 65.9982 48.3662 66.2035C48.4362 66.4088 48.5315 66.6677 48.6268 66.8973C48.9594 67.7012 49.4358 68.4376 50.0328 69.0702C50.2994 69.3586 50.5885 69.6254 50.8972 69.8681C51.0236 69.9654 51.1335 70.0413 51.2287 70.1017C51.4796 70.2613 51.6935 70.3625 51.9162 70.4325C52.2196 70.5298 52.5074 70.5522 52.7864 70.5386C52.8769 70.5347 52.977 70.5269 53.0888 70.5123C53.1997 70.4967 53.3232 70.4763 53.4748 70.4423C53.6529 70.4005 53.829 70.3512 54.0028 70.2943C54.7054 70.0562 55.3701 69.7183 55.9767 69.2911C56.1964 69.1393 56.4074 68.9758 56.6097 68.8026C56.36 68.4422 56.1423 68.0606 55.9592 67.6622C55.8418 67.4083 55.7353 67.1496 55.6402 66.8866C55.5313 66.5898 55.4195 66.2483 55.297 65.788C55.1745 65.3277 55.0432 64.7507 54.9275 64.0948C54.686 62.7082 54.5637 61.3035 54.5619 59.896C54.562 58.7788 54.6606 57.6639 54.8565 56.5641C54.947 56.0717 55.0578 55.6047 55.1793 55.1726C55.3009 54.7415 55.4351 54.3474 55.5673 53.9981C55.788 53.4161 56.057 52.8537 56.3714 52.3166C56.5006 52.0984 56.6395 51.886 56.7876 51.6802C56.9172 51.5026 57.0537 51.3303 57.1969 51.1635C57.4634 50.856 57.7337 50.5952 58.0011 50.3763C58.461 50.0055 58.8645 49.7739 59.303 49.6221C59.9691 49.3925 60.6623 49.4382 61.2681 49.7914C61.6308 50.0065 61.9516 50.2854 62.2152 50.6147C62.4894 50.9572 62.6663 51.2647 62.8287 51.6199C62.888 51.7493 62.9415 51.8826 62.993 52.0286C63.1093 52.3693 63.198 52.7188 63.2585 53.0737C63.2954 53.2868 63.3275 53.5339 63.3518 53.8074C63.3761 54.0808 63.3927 54.3795 63.3927 54.7785C63.3927 55.1775 63.3742 55.6737 63.3265 56.2041C63.2776 56.7424 63.2039 57.2781 63.1058 57.8097C62.9371 58.745 62.6742 59.6608 62.3211 60.5431C62.1471 60.98 61.9429 61.4286 61.6843 61.9229C61.4125 62.437 61.1199 62.9399 60.8072 63.4302C60.5048 63.9031 60.2141 64.3138 59.9603 64.6407C59.7065 64.9716 59.4907 65.2187 59.2602 65.4542C59.4561 66.0679 59.7104 66.6612 60.0196 67.2262C60.1694 67.4977 60.3249 67.7526 60.4679 67.9658C60.6108 68.1789 60.7411 68.3511 60.8646 68.5C61.2576 68.9843 61.7457 69.3827 62.2988 69.6706C62.4437 69.7465 62.6012 69.8185 62.7723 69.8895C63.5871 70.2243 64.6071 70.414 65.4764 70.3245C65.8246 70.2914 66.1688 70.2246 66.5041 70.125C66.9584 69.9861 67.3985 69.8046 67.8187 69.583C68.0599 69.4555 68.302 69.3115 68.4459 69.222C68.5898 69.1344 68.6336 69.1043 68.6783 69.0741L68.8047 68.9875ZM58.881 64.6845C59.4163 64.0774 59.9033 63.4293 60.3376 62.7461C60.5447 62.4172 60.7353 62.0883 60.8986 61.7808C61.2321 61.1483 61.448 60.6267 61.6386 60.0604C61.8408 59.4698 62.0139 58.7205 62.1403 57.979C62.2045 57.6005 62.256 57.2394 62.2998 56.892C62.3435 56.5427 62.3824 56.206 62.4077 55.9433C62.4591 55.4192 62.4802 54.8925 62.4709 54.3659C62.468 54.2256 62.4605 54.0854 62.4485 53.9455C62.4185 53.536 62.3508 53.1301 62.2463 52.7331C62.1533 52.3879 62.028 52.0524 61.8719 51.7308C61.8058 51.5955 61.7446 51.4875 61.6872 51.3902C61.5876 51.2207 61.4734 51.0601 61.3459 50.9105C60.6312 50.0911 59.9642 50.1602 59.3361 50.7431C59.1929 50.8804 59.0642 51.032 58.952 51.1956C58.8721 51.3094 58.7972 51.4266 58.7274 51.5469C58.6444 51.692 58.5672 51.8403 58.496 51.9916C58.4153 52.1628 58.3307 52.3565 58.2296 52.6299C58.1284 52.9034 58.0127 53.2556 57.9058 53.6507C57.7988 54.0477 57.7006 54.4885 57.6199 54.9663C57.45 55.9694 57.3741 56.9861 57.3934 58.0033C57.4011 58.5181 57.4293 59.0319 57.5207 59.7218C57.6121 60.4117 57.7677 61.2787 57.9943 62.137C58.2228 63.0011 58.5222 63.8564 58.881 64.6845ZM146.352 60.6462C146.709 60.4254 147.023 60.1423 147.279 59.8103C147.438 59.6089 147.624 59.3043 147.771 59.0212C147.843 58.8801 147.9 58.7574 147.962 58.6105C148.098 58.303 148.24 57.9186 148.361 57.546C148.494 57.1412 148.612 56.714 148.732 56.2741C148.792 56.0464 148.855 55.8197 148.995 55.1677C149.135 54.5158 149.356 53.4386 149.499 52.5112C149.643 51.5858 149.712 50.8083 149.746 50.3558C149.78 49.9033 149.784 49.7778 149.786 49.6523C149.793 49.3915 149.801 49.1181 149.791 48.833C149.784 48.5419 149.76 48.2515 149.721 47.963C149.693 47.7607 149.648 47.5612 149.586 47.3665C149.538 47.2026 149.467 47.0464 149.375 46.9024C149.282 46.7408 149.068 46.5598 148.911 46.5511C148.728 46.5316 148.604 46.5793 148.399 46.7506C148.222 46.9121 148.099 47.0814 147.975 47.2634C147.83 47.4925 147.694 47.7272 147.567 47.9669C147.472 48.1479 147.388 48.324 147.312 48.4992C147.236 48.6743 147.168 48.8485 147.083 49.1093C146.854 49.7905 146.681 50.4893 146.566 51.1985C146.506 51.5459 146.464 51.8505 146.424 52.1979C146.386 52.5453 146.35 52.9374 146.325 53.2624C146.301 53.5894 146.289 53.8512 146.275 54.1139C146.262 54.3747 146.251 54.6364 146.239 55.2144C146.228 55.7905 146.219 56.6838 146.234 57.6413C146.25 58.6008 146.292 59.6235 146.352 60.6462ZM149.279 66.5324C149.5 66.4088 149.759 66.2531 149.993 66.1013C150.226 65.9495 150.433 65.7987 150.631 65.6469C150.828 65.4931 151.015 65.3355 151.177 65.1866C151.342 65.0387 151.484 64.8976 151.614 64.7643C151.741 64.629 151.851 64.5006 151.944 64.3819C152.229 64.0131 152.375 63.7377 152.478 63.4205C152.609 62.9476 152.643 62.4776 152.267 61.9764C151.897 61.5813 151.555 61.5813 151.177 61.6037C151.084 61.6124 150.993 61.627 150.902 61.6475C150.82 61.6649 150.739 61.684 150.659 61.7049C150.571 61.7292 150.482 61.7565 150.372 61.7944C150.058 61.9072 149.752 62.0405 149.455 62.1934C149.242 62.3053 148.979 62.4542 148.728 62.6118C148.493 62.7622 148.266 62.9233 148.046 63.0945C147.849 63.2502 147.685 63.3932 147.538 63.5372C147.264 63.7975 147.017 64.0854 146.802 64.3965C146.715 64.5255 146.633 64.6587 146.557 64.7954C146.447 64.9951 146.351 65.203 146.273 65.4172C146.083 65.9953 145.974 66.4945 146.382 67.0345C146.727 67.3936 147.072 67.3576 147.385 67.3157C147.591 67.2772 147.794 67.2205 147.991 67.1464C148.05 67.126 148.099 67.1046 148.146 67.0861C148.196 67.0666 148.245 67.0481 148.336 67.0082C148.427 66.9664 148.561 66.907 148.72 66.8292C148.878 66.7513 149.058 66.6579 149.279 66.5324ZM70.8145 65.0844C71.184 64.6553 71.536 64.2106 71.8549 63.7669C72.1738 63.3232 72.4626 62.8833 72.7115 62.461C72.9614 62.0406 73.1734 61.6436 73.3513 61.2748C73.6781 60.5976 73.9389 59.8905 74.1302 59.1632C74.2313 58.7866 74.3217 58.376 74.4112 57.8369C74.5006 57.2949 74.5872 56.6244 74.6387 56.0863C74.6902 55.5463 74.7058 55.1434 74.7058 54.7824C74.7058 54.4214 74.6883 54.1042 74.6591 53.819C74.6299 53.5339 74.5852 53.2809 74.5405 53.0737C74.4679 52.7359 74.3661 52.4051 74.2361 52.085C74.1797 51.947 74.1178 51.8113 74.0504 51.6783C73.945 51.4703 73.8231 51.2711 73.6858 51.0827C73.6308 51.0087 73.5727 50.9369 73.5118 50.8677C72.8107 50.0941 72.1534 50.1739 71.5438 50.7421C71.4016 50.8808 71.2733 51.033 71.1606 51.1966C70.9803 51.4546 70.825 51.7293 70.6968 52.0169C70.5955 52.2367 70.5044 52.4611 70.4236 52.6893C70.3244 52.9666 70.2165 53.3091 70.1144 53.6964C70.0123 54.0837 69.9161 54.5158 69.8305 55.0325C69.6319 56.2394 69.5531 57.463 69.5952 58.6854C69.6804 60.8674 70.0914 63.0242 70.8145 65.0844ZM19.903 68.5204C19.883 68.5182 19.8629 68.5169 19.8427 68.5165V83.0311H18.8373V68.4465C17.5869 68.3608 16.3365 68.281 15.0851 68.209C13.8347 68.137 12.5823 68.0718 11.8035 68.0319C11.0246 67.992 10.7193 67.9784 10.413 67.9658C9.81721 67.9383 9.22148 67.9085 8.62589 67.8762C8.33613 67.8587 8.04637 67.8422 7.81301 67.8247C7.43227 67.8008 7.05202 67.7696 6.67246 67.7312C6.27136 67.6956 5.87152 67.6469 5.47358 67.5853C5.24619 67.5499 5.01987 67.5081 4.79489 67.4597C4.40887 67.3722 4.02966 67.2719 3.61155 67.0588C3.28912 66.8927 2.99822 66.6714 2.75201 66.4049C2.68933 66.3371 2.62806 66.268 2.56824 66.1977C2.47295 66.0896 2.44961 66.0585 2.39322 65.9923C2.30586 65.8856 2.21507 65.7818 2.12096 65.6809C2.03338 65.5874 1.93984 65.4997 1.84093 65.4182C1.63838 65.2595 1.4197 65.1225 1.1885 65.0095C0.955135 64.8918 0.785948 64.8178 0.59926 64.7302C0.439797 64.6524 0.342563 64.6125 0.202547 64.5171C0.109203 64.4529 0.0751712 64.3751 0.161709 64.3235C0.214591 64.2933 0.271586 64.271 0.330895 64.2573C0.385346 64.2398 0.520501 64.2135 0.662462 64.1912C0.84915 64.161 1.06793 64.1376 1.30129 64.1133C1.7674 64.0708 2.23418 64.0361 2.70145 64.0092C3.04177 63.9868 3.38306 63.9693 3.68837 63.9518L4.53138 63.908C4.80072 63.8944 5.07006 63.8837 5.3919 63.8681C6.05017 63.8379 6.85624 63.8 7.59715 63.764C9.06344 63.6939 10.5287 63.6102 11.9931 63.511C13.4574 63.4117 14.9208 63.2979 15.8571 63.222C16.7935 63.1461 17.2019 63.1081 17.6112 63.0721L18.8383 62.9641V48.5517H19.8437V62.8726C19.8632 62.8687 19.8816 62.8687 19.9011 62.8668L20.2453 62.8347C20.5506 62.8084 21.1437 62.7529 21.7359 62.7014C22.329 62.6478 22.9221 62.5972 23.4005 62.5554L24.612 62.4561C24.9776 62.427 25.3442 62.4007 25.6048 62.3822C25.8654 62.3637 26.0219 62.352 26.1775 62.3423C26.3341 62.3306 26.4896 62.3219 26.6462 62.3121C26.7062 59.6825 26.7888 57.0535 26.8941 54.4253C27.0274 51.0684 27.1758 47.7122 27.3394 44.3568H28.7114C28.5782 47.7109 28.455 51.0655 28.3419 54.4204C28.2559 57.0275 28.1865 59.6351 28.1338 62.243C28.5607 62.2294 28.9282 62.2236 29.3502 62.2275C29.6536 62.2294 29.9745 62.2391 30.3051 62.2615C30.4762 62.2732 30.6483 62.2878 30.7747 62.3034C31.0217 62.3296 31.1471 62.3511 31.325 62.3812C31.5847 62.4308 31.8297 62.4892 32.0932 62.5904C32.415 62.7179 32.7097 62.8697 33.0052 63.1762C33.1744 63.3572 33.2707 63.509 33.367 63.6949C33.402 63.763 33.4331 63.836 33.4661 63.9187C33.5361 64.0958 33.6032 64.3332 33.6489 64.5687C33.6732 64.6923 33.6907 64.8159 33.7034 64.92C33.7325 65.1856 33.7287 65.4085 33.6907 65.644C33.6168 66.0751 33.4272 66.4935 32.9712 66.908C32.7981 67.0609 32.6109 67.1971 32.4121 67.3148C32.1108 67.4936 31.7961 67.6488 31.4709 67.7789C31.3027 67.847 31.1325 67.9122 30.904 67.9881C30.6765 68.064 30.3916 68.1536 30.0727 68.2353C29.7538 68.319 29.4008 68.3949 29.1412 68.4484C28.8806 68.5019 28.7153 68.5282 28.5481 68.5545C28.3818 68.5788 28.2155 68.6041 28.0483 68.6265C28.0276 71.2872 28.0237 73.948 28.0366 76.6087C28.0532 80.2964 28.0784 83.9841 28.1125 87.6717H26.6656C26.6163 83.9877 26.5781 80.3036 26.5509 76.6194C26.5312 73.9986 26.5306 71.3777 26.5489 68.7569C26.1487 68.7782 25.7479 68.7882 25.3471 68.787C24.6986 68.7902 24.0501 68.775 23.4025 68.7413C23.1088 68.7277 22.8686 68.717 22.6275 68.7014C22.3711 68.6867 22.1147 68.6715 21.8584 68.6557L19.903 68.5204ZM109.77 9.1447C109.709 8.94467 109.584 8.77028 109.414 8.64843C109.24 8.52619 109.033 8.46185 108.82 8.46452C108.602 8.46521 108.388 8.53204 108.209 8.65621C108.08 8.74684 107.976 8.86755 107.904 9.00782C107.833 9.14808 107.797 9.30365 107.8 9.46095C107.8 9.65168 107.848 9.86479 107.984 10.0594C108.044 10.146 108.121 10.2219 108.207 10.2852C108.476 10.4769 108.81 10.5304 109.139 10.4321C109.339 10.3693 109.512 10.2425 109.633 10.0711C109.724 9.93686 109.783 9.7839 109.807 9.62353C109.831 9.46317 109.818 9.29951 109.77 9.1447ZM64.9105 8.65621C64.7773 8.5625 64.6244 8.50068 64.4636 8.47554C64.3027 8.4504 64.1382 8.46261 63.9829 8.51122C63.7829 8.57153 63.6085 8.69642 63.487 8.8664C63.2954 9.14178 63.2585 9.45609 63.3499 9.78694C63.381 9.89106 63.4277 9.98739 63.487 10.073C63.5461 10.1582 63.6191 10.2328 63.7028 10.2939C63.9741 10.4876 64.296 10.5275 64.6227 10.4311C64.8285 10.3657 65.0078 10.2357 65.1341 10.0604C65.3578 9.71493 65.4141 9.30331 65.1341 8.88002C65.0727 8.7933 64.9971 8.71763 64.9105 8.65621ZM86.0092 1.67043C86.0686 1.75535 86.1415 1.82997 86.225 1.89132C86.4963 2.084 86.8172 2.12486 87.1439 2.02853C87.3501 1.96383 87.5296 1.83368 87.6553 1.65778C87.8809 1.31331 87.9363 0.901698 87.6573 0.477433C87.5946 0.392135 87.5192 0.316981 87.4336 0.254596C87.3001 0.161267 87.147 0.09969 86.9861 0.0745628C86.8252 0.0494356 86.6607 0.0614203 86.5051 0.109604C86.4039 0.140743 86.3116 0.187453 86.226 0.247784C86.143 0.30849 86.0698 0.381688 86.0092 0.464782C85.8186 0.740165 85.7817 1.05544 85.8721 1.38532C85.9032 1.48847 85.9499 1.5848 86.0092 1.67043ZM98.6418 9.66238C98.9091 9.85408 99.2456 9.9076 99.5723 9.80932C99.672 9.7789 99.7658 9.73149 99.8494 9.66919C99.9337 9.60839 100.007 9.53369 100.066 9.4483C100.249 9.18557 100.3 8.84596 100.203 8.51998C100.144 8.31986 100.019 8.14529 99.8494 8.02371C99.6754 7.90177 99.4677 7.83745 99.2553 7.83979C99.0364 7.8377 98.8223 7.90478 98.6437 8.03149C98.515 8.12202 98.4103 8.24266 98.3388 8.38291C98.2673 8.52317 98.2311 8.67879 98.2334 8.83623C98.2353 9.02696 98.281 9.24006 98.4191 9.43468C98.4803 9.52226 98.5542 9.59913 98.6418 9.66238ZM73.0538 9.44928C73.113 9.53441 73.1859 9.60907 73.2696 9.67017C73.5409 9.86284 73.8628 9.90371 74.1895 9.80737C74.3953 9.74191 74.5746 9.61193 74.7009 9.43663C74.9255 9.09118 74.9819 8.67957 74.7009 8.25628C74.6387 8.17053 74.5632 8.0953 74.4773 8.03344C74.344 7.93964 74.1909 7.87778 74.0299 7.85264C73.8689 7.8275 73.7042 7.83975 73.5487 7.88845C73.3494 7.95006 73.1754 8.07468 73.0528 8.24362C72.8613 8.51901 72.8243 8.83331 72.9157 9.16416C72.9478 9.26828 72.9945 9.36364 73.0538 9.44928Z" fill="white"/>
<path fill-rule="evenodd" clip-rule="evenodd" d="M103.098 18.7647C101.702 20.0336 100.647 20.5114 99.8719 20.4472C99.097 20.382 98.605 19.7728 98.3697 18.8903C98.1363 18.0067 98.1587 16.8497 98.184 15.7229C98.2083 14.5951 98.2335 13.4974 98.2958 12.4007C97.7795 14.2058 96.8334 15.9155 95.723 17.1124C94.6116 18.3093 93.334 18.9944 92.3393 19.1024C91.3446 19.2104 90.6318 18.7443 89.9405 17.6243C89.2492 16.5052 88.5812 14.7332 87.9822 12.3725C87.3862 10.0118 86.8601 7.06338 86.5616 4.09741C86.3205 7.0624 85.8363 10.0138 85.2577 12.3735C84.6782 14.7352 84.0054 16.5062 83.3121 17.6243C82.6188 18.7433 81.9061 19.2104 80.9104 19.1014C79.9147 18.9924 78.6381 18.3084 77.5267 17.1115C76.4153 15.9146 75.4702 14.2048 74.9529 12.3998C75.0152 13.4955 75.0404 14.5931 75.0647 15.7219C75.089 16.8497 75.1134 18.0067 74.879 18.8893C74.6437 19.7719 74.1507 20.381 73.3777 20.4462C72.6028 20.5114 71.5468 20.0327 70.1506 18.7638C68.7543 17.4949 67.0187 15.4358 65.5864 13.222L72.313 28.8303C74.4356 28.1236 76.6191 27.6155 78.8355 27.3123C81.1798 26.9834 83.7467 26.8267 86.4187 26.8248C89.0887 26.8228 91.8657 26.9756 94.3131 27.3026C96.7605 27.6295 98.8821 28.1316 100.939 28.8313L107.663 13.223C106.23 15.4368 104.493 17.4958 103.098 18.7647ZM99.3887 31.6591C99.3488 31.6189 99.3076 31.5799 99.2652 31.5423C99.1152 31.416 98.9545 31.303 98.7849 31.2046C98.6911 31.1491 98.5954 31.0968 98.498 31.048C98.3818 30.9905 98.2641 30.936 98.1451 30.8845C97.6944 30.6959 97.2327 30.535 96.7624 30.4028C96.6165 30.361 96.4678 30.3201 96.2169 30.2578C95.334 30.0392 94.4401 29.8674 93.5391 29.7431C92.5079 29.5945 91.4717 29.4835 90.4325 29.4103C89.2398 29.3345 88.0454 29.2878 86.8504 29.2702C85.9588 29.2556 85.6117 29.2663 85.2636 29.2721C84.9155 29.2789 84.5684 29.2828 83.8858 29.313C83.2032 29.3431 82.189 29.4015 81.2789 29.4813C80.3688 29.5611 79.5637 29.6662 78.9249 29.7616C78.2861 29.8569 77.8135 29.9426 77.4003 30.0262C76.9861 30.1099 76.6312 30.1936 76.3803 30.2559C76.1295 30.3182 75.9817 30.359 75.8339 30.4019C75.5519 30.4816 75.2145 30.5867 74.8839 30.7093C74.6183 30.8076 74.3577 30.919 74.1031 31.0431C73.926 31.1308 73.7548 31.2299 73.5907 31.3399C73.441 31.4387 73.303 31.5543 73.1794 31.6844C72.7681 32.1339 72.7934 32.567 73.1405 32.9854C73.1697 33.0185 73.2008 33.0545 73.2465 33.0992C73.3359 33.1897 73.5041 33.3231 73.6539 33.4223C73.9232 33.5975 74.1284 33.6987 74.3812 33.8135C74.4843 33.8602 74.599 33.9088 74.7633 33.9731C74.9267 34.0363 75.1406 34.1151 75.3992 34.1979C75.6579 34.2815 75.9612 34.3701 76.2909 34.4548C76.6195 34.5384 76.9725 34.6182 77.3838 34.7058C77.7951 34.7934 78.2637 34.8887 79.3275 35.0298C80.3912 35.17 82.05 35.3558 83.9354 35.4278C85.8207 35.4998 87.9317 35.459 89.4213 35.3909C90.4621 35.3501 91.5006 35.2631 92.5337 35.1301C93.2931 35.0337 93.9504 34.9355 94.4726 34.8459C95.1972 34.7227 95.9153 34.5639 96.6243 34.3701C96.8956 34.2932 97.1504 34.2144 97.3711 34.1404C97.5899 34.0665 97.7736 33.9974 97.9253 33.9361C98.2102 33.8193 98.3911 33.7347 98.6011 33.6228C98.7003 33.5692 98.8024 33.5099 98.8918 33.4525C98.9832 33.3951 99.061 33.3406 99.1271 33.288C99.1971 33.2355 99.2564 33.1849 99.308 33.1372C99.7125 32.747 99.7786 32.4239 99.6687 32.0843C99.6056 31.9248 99.5103 31.78 99.3887 31.6591ZM97.724 32.8034C97.6261 32.8893 97.5214 32.9671 97.4109 33.036C97.2711 33.1247 97.126 33.2046 96.9763 33.2754C96.7182 33.4003 96.4525 33.5092 96.1809 33.6014C95.9913 33.6685 95.7687 33.7405 95.5295 33.8096C94.7905 34.0191 94.0399 34.1848 93.2814 34.3059C92.4725 34.4392 91.1977 34.626 89.643 34.7253C88.0872 34.8255 86.2495 34.8391 84.8707 34.8099C83.8312 34.7924 82.7928 34.7314 81.7583 34.627C81.0587 34.557 80.361 34.4694 79.6658 34.3643C78.9093 34.2489 78.159 34.0956 77.4178 33.905C77.258 33.8638 77.0991 33.819 76.9413 33.7707C76.5456 33.6539 76.0711 33.4826 75.7512 33.3357C75.6515 33.2901 75.553 33.2421 75.4556 33.1917C75.3809 33.1528 75.3076 33.1113 75.2359 33.0671C75.1028 32.9884 74.9777 32.8968 74.8625 32.7937C74.6223 32.5592 74.4979 32.3957 74.669 32.1369C74.7594 32.0016 74.9014 31.8819 75.0443 31.7807C75.1767 31.6891 75.3147 31.6059 75.4576 31.5316C75.6716 31.4208 75.8921 31.323 76.1178 31.2387C76.2549 31.1862 76.4066 31.1307 76.603 31.0665C77.2095 30.8735 77.8263 30.7143 78.4504 30.5897C78.9249 30.4933 79.5287 30.3853 80.2483 30.2861C81.0516 30.1776 81.858 30.0936 82.6665 30.034C83.5613 29.9679 84.4578 29.9273 85.355 29.9124C87.2053 29.8764 89.184 29.9513 90.8098 30.108C91.6246 30.1858 92.3441 30.2802 92.9139 30.3688C93.4837 30.4573 93.9037 30.5371 94.2713 30.615C94.6379 30.6928 94.9529 30.7677 95.2436 30.8456C95.5363 30.9234 95.8037 31.0032 96.0302 31.0781C96.2578 31.154 96.4425 31.2241 96.5845 31.2805C96.7264 31.338 96.8237 31.3808 96.9112 31.4216C97.0648 31.4927 97.2019 31.5627 97.338 31.6445C97.5607 31.7768 97.8222 31.9578 97.9516 32.1768C98.077 32.3509 97.9613 32.5991 97.724 32.8034Z" fill="white"/>
</g>
<defs>
<clipPath id="clip0_3557_1429">
<rect width="171" height="88" fill="white"/>
</clipPath>
</defs>
</svg>
