<svg width="45" height="33" viewBox="0 0 45 33" fill="none" xmlns="http://www.w3.org/2000/svg">
<g clip-path="url(#clip0_3515_7185)">
<path d="M42.5982 0H29.6392L8.74414 32.9403H21.5692L42.5982 0Z" fill="white"/>
<path d="M21.5365 0H8.64453L29.6233 32.9403H42.4986L21.5365 0Z" fill="white"/>
<path d="M-12 0V32.9403H-0.631596V22.2195H10.5359V13.2573H-0.631596V9.28347H21.2681V0H-12Z" fill="white"/>
<path d="M42.7657 31.3339C42.8327 31.1986 42.9164 31.0802 43.0169 30.9788C43.1173 30.8773 43.2513 30.7927 43.3852 30.742C43.5191 30.6913 43.6698 30.6575 43.8373 30.6575C43.9879 30.6575 44.1386 30.6913 44.2726 30.742C44.4065 30.7927 44.5405 30.8773 44.6409 30.9788C44.7414 31.0802 44.8251 31.1986 44.8921 31.3339C44.959 31.4691 44.9758 31.6213 44.9758 31.7904C44.9758 31.9595 44.9423 32.1117 44.8921 32.247C44.8251 32.3823 44.7414 32.5175 44.6409 32.619C44.5405 32.7205 44.4233 32.805 44.2726 32.8557C44.1386 32.9065 43.9879 32.9403 43.8373 32.9403C43.6866 32.9403 43.5359 32.9065 43.3852 32.8557C43.2513 32.805 43.1173 32.7205 43.0169 32.619C42.9164 32.5175 42.8327 32.3992 42.7657 32.247C42.6987 32.1117 42.682 31.9595 42.682 31.7904C42.6653 31.6213 42.6987 31.4691 42.7657 31.3339ZM42.9499 32.1794C43.0001 32.2977 43.0671 32.3992 43.1508 32.4837C43.2345 32.5683 43.335 32.6359 43.4522 32.6866C43.5694 32.7374 43.6866 32.7543 43.8205 32.7543C43.9545 32.7543 44.0717 32.7374 44.1889 32.6866C44.3061 32.6359 44.4065 32.5683 44.4902 32.4837C44.5739 32.3992 44.6409 32.2977 44.6911 32.1794C44.7414 32.061 44.7581 31.9257 44.7581 31.7904C44.7581 31.6551 44.7414 31.5199 44.6911 31.4015C44.6409 31.2831 44.5739 31.1817 44.4902 31.0971C44.4065 31.0126 44.3061 30.9449 44.1889 30.8942C44.0717 30.8435 43.9545 30.8266 43.8205 30.8266C43.6866 30.8266 43.5694 30.8435 43.4522 30.8942C43.335 30.9449 43.2345 31.0126 43.1508 31.0971C43.0671 31.1817 43.0001 31.2831 42.9499 31.4015C42.8997 31.5199 42.8829 31.6551 42.8829 31.7904C42.8829 31.9257 42.8997 32.061 42.9499 32.1794ZM43.8875 31.114C44.0549 31.114 44.1554 31.1479 44.2391 31.2155C44.3228 31.2831 44.3563 31.3677 44.3563 31.503C44.3563 31.6213 44.3228 31.7059 44.2558 31.7735C44.1889 31.8242 44.1051 31.8581 44.0047 31.875L44.3898 32.4668H44.1721L43.8038 31.8919H43.5861V32.4668H43.3852V31.114H43.8875V31.114ZM43.8038 31.7228C43.854 31.7228 43.8875 31.7228 43.9377 31.7228C43.9879 31.7228 44.0214 31.7059 44.0549 31.689C44.0884 31.6721 44.1051 31.6551 44.1386 31.6213C44.1554 31.5875 44.1721 31.5537 44.1721 31.503C44.1721 31.4522 44.1554 31.4184 44.1386 31.4015C44.1219 31.3677 44.1051 31.3508 44.0717 31.3339C44.0382 31.317 44.0047 31.317 43.9712 31.3C43.9377 31.3 43.9042 31.2831 43.8707 31.2831H43.5861V31.7059H43.8038V31.7228Z" fill="white"/>
</g>
<defs>
<clipPath id="clip0_3515_7185">
<rect width="56.9592" height="32.9403" fill="white" transform="translate(-12)"/>
</clipPath>
</defs>
</svg>
