<svg width="63" height="38" viewBox="0 0 63 38" fill="none" xmlns="http://www.w3.org/2000/svg">
<mask id="mask0_3573_1112" style="mask-type:luminance" maskUnits="userSpaceOnUse" x="3" y="2" width="57" height="33">
<path d="M59.9592 2H3V34.9403H59.9592V2Z" fill="white"/>
</mask>
<g mask="url(#mask0_3573_1112)">
<path d="M57.5982 2H44.6392L23.7441 34.9403H36.5692L57.5982 2Z" fill="white"/>
<path d="M36.5361 2H23.644L44.6229 34.9403H57.4981L36.5361 2Z" fill="white"/>
<path d="M3 2V34.9403H14.3684V24.2195H25.5359V15.2573H14.3684V11.2835H36.2681V2H3Z" fill="white"/>
<path d="M57.7657 33.3339C57.8327 33.1986 57.9164 33.0802 58.0169 32.9788C58.1173 32.8773 58.2513 32.7927 58.3852 32.742C58.5191 32.6913 58.6698 32.6575 58.8373 32.6575C58.9879 32.6575 59.1386 32.6913 59.2726 32.742C59.4065 32.7927 59.5405 32.8773 59.6409 32.9788C59.7414 33.0802 59.8251 33.1986 59.8921 33.3339C59.959 33.4691 59.9758 33.6213 59.9758 33.7904C59.9758 33.9595 59.9423 34.1117 59.8921 34.247C59.8251 34.3823 59.7414 34.5175 59.6409 34.619C59.5405 34.7205 59.4233 34.805 59.2726 34.8557C59.1386 34.9065 58.9879 34.9403 58.8373 34.9403C58.6866 34.9403 58.5359 34.9065 58.3852 34.8557C58.2513 34.805 58.1173 34.7205 58.0169 34.619C57.9164 34.5175 57.8327 34.3992 57.7657 34.247C57.6987 34.1117 57.682 33.9595 57.682 33.7904C57.6653 33.6213 57.6987 33.4691 57.7657 33.3339ZM57.9499 34.1794C58.0001 34.2977 58.0671 34.3992 58.1508 34.4837C58.2345 34.5683 58.335 34.6359 58.4522 34.6866C58.5694 34.7374 58.6866 34.7543 58.8205 34.7543C58.9545 34.7543 59.0717 34.7374 59.1889 34.6866C59.3061 34.6359 59.4065 34.5683 59.4902 34.4837C59.5739 34.3992 59.6409 34.2977 59.6911 34.1794C59.7414 34.061 59.7581 33.9257 59.7581 33.7904C59.7581 33.6551 59.7414 33.5199 59.6911 33.4015C59.6409 33.2831 59.5739 33.1817 59.4902 33.0971C59.4065 33.0126 59.3061 32.9449 59.1889 32.8942C59.0717 32.8435 58.9545 32.8266 58.8205 32.8266C58.6866 32.8266 58.5694 32.8435 58.4522 32.8942C58.335 32.9449 58.2345 33.0126 58.1508 33.0971C58.0671 33.1817 58.0001 33.2831 57.9499 33.4015C57.8997 33.5199 57.8829 33.6551 57.8829 33.7904C57.8829 33.9257 57.8997 34.061 57.9499 34.1794ZM58.8875 33.114C59.0549 33.114 59.1554 33.1479 59.2391 33.2155C59.3228 33.2831 59.3563 33.3677 59.3563 33.503C59.3563 33.6213 59.3228 33.7059 59.2558 33.7735C59.1889 33.8242 59.1051 33.8581 59.0047 33.875L59.3898 34.4668H59.1721L58.8038 33.8919H58.5861V34.4668H58.3852V33.114H58.8875ZM58.8038 33.7228C58.854 33.7228 58.8875 33.7228 58.9377 33.7228C58.9879 33.7228 59.0214 33.7059 59.0549 33.689C59.0884 33.6721 59.1051 33.6551 59.1386 33.6213C59.1554 33.5875 59.1721 33.5537 59.1721 33.503C59.1721 33.4522 59.1554 33.4184 59.1386 33.4015C59.1219 33.3677 59.1051 33.3508 59.0717 33.3339C59.0382 33.317 59.0047 33.317 58.9712 33.3C58.9377 33.3 58.9042 33.2831 58.8707 33.2831H58.5861V33.7059H58.8038V33.7228Z" fill="white"/>
</g>
</svg>
