<svg width="115" height="51" viewBox="0 0 115 51" fill="none" xmlns="http://www.w3.org/2000/svg">
<mask id="mask0_3573_1121" style="mask-type:luminance" maskUnits="userSpaceOnUse" x="3" y="3" width="110" height="46">
<path d="M112.115 3H3V48.2929H112.115V3Z" fill="white"/>
</mask>
<g mask="url(#mask0_3573_1121)">
<path d="M56.0971 43.3523C60.5855 45.3817 65.8963 45.4035 70.1758 43.1347C73.452 41.3984 76.0118 39.0775 78.723 36.5129C77.4976 39.3415 75.3615 41.4811 73.1195 43.4017C69.9772 46.0925 66.1714 47.7447 62.0537 48.2785C60.6973 48.2567 59.4248 48.3481 58.0978 48.2321C54.9334 47.9579 52.0559 46.7162 49.5256 44.8711C43.2954 48.1944 36.1957 48.6629 30.0523 44.9465C26.4627 46.7931 22.6113 47.8085 18.6275 47.4981C12.999 47.0586 8.00889 44.1023 5.21374 39.2849C1.14166 32.2641 3.10121 23.8058 7.72349 17.4987C11.4072 12.4724 16.2869 8.40499 21.9155 5.64164C27.5734 2.86378 34.8246 1.56261 39.6881 6.4351C43.3513 4.44346 47.7955 2.86087 51.9971 3.21046C54.6598 3.46287 57.1034 4.47682 58.9776 6.41479C65.4844 2.83622 75.0761 0.505138 79.9941 7.64489C81.4579 9.77143 83.2085 13.102 82.4038 15.7681C81.6403 12.4695 80.3501 9.27534 78.0272 6.70636C76.0397 4.50728 73.2299 3.53104 70.2758 3.74138C63.3409 4.23312 56.306 10.5576 52.2884 15.8871L47.8411 15.8726C50.7363 12.1257 54.2611 9.20861 58.2685 6.82531C53.5447 2.26904 46.9246 3.95896 41.9625 6.98487C37.149 9.91939 33.2446 14.0173 30.3906 18.8332C28.3943 22.2014 27.2395 25.8743 27.0718 29.7517C26.8349 35.1957 29.4565 40.1132 34.2479 42.82C38.6113 45.2845 43.8573 45.8169 48.7091 44.1922C46.317 42.086 44.5635 39.5141 43.5793 36.3301L48.893 36.2967C50.4406 39.3632 52.7709 41.851 56.0986 43.3552L56.0971 43.3523ZM28.9151 44.1864C24.3884 40.7514 22.0508 35.5294 22.3789 29.8924C22.9541 20.0067 30.751 11.7587 38.9393 6.84272C34.0464 2.08482 27.0144 4.09242 21.9537 7.39103C17.1784 10.5025 13.2814 14.7107 10.5672 19.6905C7.55431 25.2186 6.14497 33.0431 9.9699 38.5147C14.0994 44.359 22.0596 45.93 28.9151 44.1879V44.1864Z" fill="white"/>
<path d="M44.8933 18.8989L44.4683 20.2147C44.9178 19.6916 45.4 19.2993 45.9149 19.0296C46.4216 18.7681 46.9692 18.6292 47.5576 18.6292C48.2931 18.621 48.8407 18.8008 49.2167 19.1441C49.5926 19.5037 49.7724 19.945 49.7724 20.468C49.7724 20.9911 49.6008 21.8901 49.2902 23.1487L46.7322 33.1685L42.4496 33.193L44.975 23.2876C45.2284 22.3069 45.351 21.7021 45.3428 21.4815C45.3346 21.2771 45.1875 21.1627 44.9015 21.1709C44.6072 21.1709 44.3948 21.3017 44.2477 21.5468C44.1087 21.792 43.8962 22.4622 43.6265 23.5328L41.1584 33.2011L36.8677 33.242L40.5127 18.9397L44.8933 18.8989Z" fill="white"/>
<path d="M55.9841 23.8927L56.2538 22.8384C56.4417 22.0947 56.5235 21.6207 56.4989 21.4C56.4744 21.1875 56.3518 21.0813 56.123 21.0813C55.8206 21.0894 55.6081 21.1793 55.5019 21.3591C55.3874 21.5389 55.224 22.0456 55.0197 22.8547L54.7581 23.909L55.9841 23.8927ZM59.6781 26.1729L54.1534 26.2137L53.3688 29.3112C53.2053 29.9568 53.1399 30.3737 53.1808 30.5616C53.2217 30.7496 53.377 30.8395 53.6303 30.8313C53.949 30.8313 54.1942 30.7087 54.3659 30.4554C54.5375 30.2102 54.7173 29.728 54.8971 29.017L55.3793 27.1291L59.4493 27.0964L59.1796 28.1507C58.9508 29.0333 58.7219 29.7117 58.4931 30.1857C58.2642 30.6679 57.872 31.1746 57.3407 31.7058C56.8095 32.2534 56.1965 32.662 55.51 32.9399C54.8235 33.2096 54.0144 33.3567 53.0827 33.3649C52.1837 33.3649 51.4237 33.2505 50.7944 32.9889C50.1651 32.7274 49.7237 32.3678 49.4622 31.902C49.2007 31.4443 49.0618 30.9376 49.0454 30.3737C49.0454 29.8261 49.1762 29.0088 49.4459 27.9545L50.5165 23.7783C50.8271 22.536 51.2439 21.5471 51.7588 20.8197C52.2818 20.0924 52.9683 19.5366 53.8183 19.1443C54.6764 18.752 55.5918 18.5559 56.5725 18.5477C57.7657 18.5314 58.6974 18.752 59.3594 19.2261C60.0214 19.6837 60.4055 20.2803 60.5281 21.0404C60.6507 21.8086 60.5281 22.8793 60.1767 24.2686L59.6781 26.1729Z" fill="white"/>
<path d="M76.7665 18.6292L71.3971 32.9478H66.8612C66.8694 32.8906 66.8122 32.8659 66.8203 32.7924C67.0083 31.0761 67.3025 28.8287 67.6785 26.0582C67.2044 27.3331 66.6977 28.5998 66.1665 29.8829L64.9406 32.9967L60.3394 33.0457L62.17 18.7599L65.8314 18.7191C65.7742 19.0868 65.3901 21.8329 64.6791 26.9326C64.8834 26.3851 65.9132 23.6472 67.752 18.7027L71.2499 18.6782L70.0404 26.8999C70.7923 24.4726 71.822 21.7348 73.1052 18.6618L76.7665 18.6292Z" fill="white"/>
<path d="M82.1361 23.6309L82.3977 22.5766C82.5856 21.8329 82.6755 21.3507 82.651 21.1382C82.6347 20.9175 82.5039 20.8113 82.2669 20.8113C81.9727 20.8113 81.7602 20.9093 81.6458 21.0973C81.5314 21.2853 81.3679 21.7756 81.1636 22.5847L80.8939 23.639L82.1361 23.6309ZM85.822 25.911L80.3055 25.9601L79.5127 29.0494C79.3492 29.695 79.2839 30.1118 79.3247 30.2998C79.3738 30.4878 79.5209 30.5695 79.7742 30.5695C80.1011 30.5695 80.3381 30.4551 80.5098 30.1936C80.6896 29.9484 80.8612 29.4662 81.041 28.7633L81.5232 26.8754L85.5932 26.8346L85.3153 27.8807C85.0865 28.7633 84.8658 29.4498 84.637 29.9239C84.4082 30.3979 84.0159 30.9046 83.4846 31.444C82.9452 31.9916 82.3323 32.4002 81.6458 32.6781C80.9674 32.9478 80.1502 33.0949 79.2185 33.0949C78.3113 33.1112 77.5594 32.9805 76.9219 32.7189C76.3008 32.4574 75.8513 32.0978 75.598 31.632C75.3364 31.1743 75.1893 30.6676 75.1812 30.1118C75.1812 29.5561 75.3119 28.7552 75.5734 27.6845L76.6441 23.5164C76.9546 22.2742 77.3796 21.2853 77.8945 20.5661C78.4094 19.8305 79.0877 19.2911 79.9458 18.8825C80.7958 18.4984 81.7112 18.3022 82.6919 18.2859C83.8851 18.2859 84.8086 18.5066 85.4788 18.9561C86.1326 19.4137 86.5331 20.0185 86.6475 20.7786C86.7619 21.5468 86.6475 22.6174 86.2961 24.0068L85.822 25.911Z" fill="white"/>
<path d="M93.6103 22.2417C93.7738 21.5878 93.8391 21.171 93.8064 20.9912C93.7819 20.8114 93.643 20.7215 93.3896 20.7215C93.1363 20.7215 92.9401 20.836 92.7849 21.0403C92.6214 21.2446 92.4661 21.6532 92.319 22.2498L91.0931 27.0636C90.9296 27.7092 90.8643 28.1179 90.8888 28.314C90.9133 28.502 91.0604 28.6 91.3056 28.6C91.5835 28.5919 91.8041 28.4775 91.9512 28.2486C92.0902 28.0116 92.2781 27.4967 92.4743 26.6795L93.6103 22.2417ZM98.8572 18.4087L96.0458 29.4255C95.6698 30.9211 95.3756 31.8773 95.1958 32.3105C95.016 32.7436 94.6564 33.2095 94.1252 33.6998C93.594 34.182 92.932 34.5661 92.131 34.8277C91.3383 35.0974 90.3821 35.22 89.2869 35.22C87.9221 35.2363 86.8841 35.0156 86.1731 34.5498C85.7154 34.2474 85.5683 33.896 85.5356 33.234V31.7547L89.7609 31.7384C89.5975 32.384 89.7446 32.7028 90.2023 32.6946C90.521 32.6864 90.7662 32.5883 90.9215 32.4004C91.0768 32.196 91.2402 31.7874 91.3955 31.1663L91.6815 30.063C91.2239 30.4062 90.7744 30.6759 90.3167 30.8394C89.8754 31.011 89.4259 31.1091 88.9764 31.1091C88.2 31.1091 87.6115 30.9701 87.1947 30.6514C86.7779 30.3408 86.5327 29.924 86.4837 29.4091C86.4346 28.8943 86.5164 28.1669 86.7616 27.2189L88.0937 22.0292C88.4451 20.6807 88.9273 19.6999 89.5648 19.0952C90.1941 18.4986 91.0114 18.1962 91.9839 18.188C92.5233 18.188 92.981 18.2942 93.3651 18.5149C93.7492 18.7356 94.068 19.0625 94.305 19.512L94.8852 18.425L98.8572 18.4087Z" fill="white"/>
<path d="M104.873 22.1436C105.036 21.4897 105.102 21.0729 105.077 20.8931C105.045 20.7133 104.906 20.6316 104.652 20.6316C104.399 20.6316 104.195 20.7379 104.039 20.9422C103.892 21.1465 103.737 21.5551 103.582 22.1517L102.348 26.9655C102.184 27.6029 102.127 28.0279 102.151 28.2077C102.184 28.4039 102.315 28.4938 102.568 28.4938C102.846 28.4774 103.059 28.3794 103.198 28.1423C103.353 27.9053 103.524 27.3905 103.737 26.5732L104.873 22.1436ZM110.12 18.3106L107.308 29.3356C106.924 30.8312 106.638 31.7792 106.467 32.2205C106.287 32.6455 105.935 33.1114 105.396 33.6017C104.865 34.0921 104.195 34.468 103.402 34.7214C102.609 34.9829 101.653 35.1219 100.55 35.13C99.1847 35.1464 98.1468 34.9257 97.4521 34.4517C96.7411 33.9858 96.5531 33.0623 96.88 31.673L101.032 31.6321C100.877 32.2777 101.015 32.6047 101.473 32.5965C101.792 32.5883 102.037 32.4902 102.201 32.2941C102.348 32.0979 102.511 31.6811 102.675 31.06L102.952 29.9567C102.503 30.3081 102.053 30.5615 101.596 30.7413C101.154 30.9129 100.697 31.011 100.255 31.011C99.479 31.0191 98.8823 30.872 98.4655 30.5533C98.0569 30.2427 97.8117 29.8259 97.7545 29.3192C97.7055 28.8125 97.7954 28.0851 98.0405 27.1371L99.3564 21.9474C99.6996 20.5989 100.198 19.61 100.827 19.0134C101.465 18.4168 102.274 18.1062 103.255 18.0981C103.786 18.0899 104.244 18.2043 104.628 18.425C105.004 18.6293 105.322 18.9725 105.559 19.4139L106.14 18.3269L110.12 18.3106Z" fill="white"/>
</g>
</svg>
