<svg width="101" height="100" viewBox="0 0 101 100" fill="none" xmlns="http://www.w3.org/2000/svg">
<g clip-path="url(#clip0_3557_1427)">
<path d="M51.5432 27.8541C48.7825 39.0791 48.9593 38.4791 46.4553 48.7458C46.4006 49.6916 45.6094 50.4375 44.6457 50.4375C44.5405 50.4375 44.4353 50.4291 44.3343 50.4125H44.3469H41.5063C41.4221 50.4291 41.3211 50.4375 41.2244 50.4375C40.3701 50.4375 39.6673 49.8083 39.5579 48.9958V48.9875C37.1296 41.2958 33.8766 30.6125 31.6883 23.4666C30.8803 20.8291 31.4105 20.8916 33.5231 20.9458C34.2554 20.9666 34.9624 20.9458 35.6904 20.9458C35.7409 20.9416 35.7998 20.9375 35.8629 20.9375C36.6878 20.9375 37.3695 21.5416 37.4831 22.325V22.3333C38.1944 24.8541 38.6657 26.7875 42.7267 42.6666C42.8025 42.9791 42.9035 43.275 43.0045 43.5625H43.2191C43.3159 43.1708 43.4337 42.8041 43.5347 42.4083C45.0722 35.9833 46.604 29.5527 48.1302 23.1166C48.6058 21.1166 49.4516 20.9291 51.4969 20.9291H52.9951C54.3417 20.95 54.771 21.2208 55.1076 22.55C56.2902 27.1208 59.7452 42.425 60.3723 44.1083C61.3823 40.5333 60.0188 45.65 65.9946 22.825C66.407 21.2458 66.8026 20.9333 68.4228 20.9333H70.9099C71.9746 20.9541 72.2903 21.2833 72.0336 22.3208C71.558 24.1791 71.4612 24.2541 63.8904 48.2708C63.276 50.2041 63.0614 50.3791 61.0119 50.3791H58.9204C57.4811 50.3791 57.1066 50.125 56.7531 48.7375C55.903 45.575 52.1576 30.05 51.5432 27.8625V27.8541ZM24.7613 49.5666C25.0475 50.1458 25.6367 50.5375 26.3184 50.5375C26.7982 50.5375 27.2274 50.3458 27.5431 50.0333L28.7845 49.2125C30.1312 48.3333 30.2238 47.9833 29.4957 46.575C28.713 45.1 28.2501 43.3541 28.2501 41.5C28.2501 41.4375 28.2501 41.375 28.2501 41.3125V41.3208C28.2501 40.7125 28.3679 30.4458 28.0733 28.2791C27.8124 24.6541 25.2748 21.6791 21.8828 20.7333L21.8239 20.7208C20.3384 20.3125 18.634 20.0791 16.8707 20.0791C16.3405 20.0791 15.8102 20.1 15.2926 20.1416L15.3599 20.1375C12.2626 20.2583 9.3841 21.0708 6.83806 22.4166L6.94327 22.3666C6.56031 22.5708 6.27414 22.9083 6.13947 23.3125L6.13527 23.325C6.02585 23.8166 5.96273 24.3833 5.96273 24.9625C5.96273 25.2166 5.97535 25.4708 5.99639 25.7208L5.99218 25.6875C6.11002 26.8416 6.5056 27.0541 7.60818 26.6875C8.61818 26.3541 9.58189 25.9291 10.5877 25.6333C12.0396 25.1 13.7145 24.7916 15.4651 24.7916C16.8244 24.7916 18.1374 24.9791 19.3831 25.325L19.2821 25.3C20.6161 25.6958 21.6556 26.6916 22.0933 27.9625L22.1017 27.9916C22.4257 29.0666 22.6151 30.3 22.6151 31.5791C22.6151 31.9708 22.5983 32.3625 22.5646 32.7458L22.5688 32.6958C22.5688 33.7708 22.5478 33.7708 21.4831 33.575C19.6735 33.1291 17.5988 32.8708 15.4609 32.8708C14.674 32.8708 13.8912 32.9041 13.1211 32.975L13.2221 32.9666C10.1668 33.1875 7.49877 34.6583 5.70181 36.8541L5.68497 36.875C4.59081 38.375 3.93431 40.2541 3.93431 42.2833C3.93431 43.1041 4.03952 43.8958 4.24152 44.6541L4.22889 44.5875C4.66656 47.4291 6.70339 49.7041 9.3841 50.5125L9.4346 50.525C10.6129 50.9416 11.9722 51.1833 13.3904 51.1833C16.1974 51.1833 18.7855 50.2375 20.8392 48.65L20.8139 48.6708C21.563 48.125 22.2363 47.4625 23.0023 46.8125C23.6167 47.7875 24.1469 48.7041 24.7571 49.5458L24.7613 49.5666ZM21.7313 37.5375H21.7524C22.2195 37.5375 22.5983 37.9125 22.5983 38.375C22.5983 38.4333 22.5941 38.4875 22.5814 38.5458V38.5416C22.5394 39.2833 22.6025 40.025 22.5225 40.7666C22.3121 42.9458 20.936 44.7625 19.0296 45.6166L18.9917 45.6333C17.7545 46.275 16.2942 46.6541 14.7413 46.6541C14.4257 46.6541 14.1143 46.6375 13.8071 46.6083L13.8449 46.6125C11.6187 46.4833 9.86385 44.6666 9.86385 42.4416C9.86385 42.1 9.90593 41.7666 9.98589 41.4458L9.98168 41.475C10.0911 39.1916 11.9175 37.3625 14.2068 37.2208H14.2195C15.1032 37.0791 16.1216 37 17.1569 37C18.7897 37 20.3805 37.2 21.8955 37.575L21.7608 37.5458L21.7313 37.5375ZM90.5208 50.25C93.9926 49.0958 96.4461 45.9041 96.4461 42.1458C96.4461 41.5583 96.3872 40.9833 96.2736 40.4291L96.282 40.4833C95.8317 37.7625 93.9085 35.5791 91.3624 34.7375L91.3119 34.7208C87.4739 33.5291 84.3303 32.325 81.2835 30.95L81.8264 31.1708C80.9468 30.7333 80.3492 29.8583 80.3282 28.8416C80.3029 28.6875 80.2903 28.5083 80.2903 28.3291C80.2903 26.5833 81.6286 25.15 83.3456 24.975H83.3582C84.2461 24.7666 85.2646 24.65 86.3124 24.65C87.2256 24.65 88.122 24.7416 88.9847 24.9125L88.9006 24.9C90.3398 25.175 91.7201 25.7208 93.1215 26.1291C93.6728 26.3041 94.2872 26.5375 94.6618 25.8166C94.8553 25.4125 94.969 24.9375 94.969 24.4416C94.969 23.2 94.2704 22.1208 93.2394 21.5708L93.2225 21.5625C91.1436 20.5791 88.7028 20.0083 86.1273 20.0083C83.8295 20.0083 81.6412 20.4666 79.6464 21.2916L79.7558 21.25C76.7048 22.45 74.588 25.35 74.588 28.7375C74.588 31.9833 76.5323 34.7833 79.3308 36.05L79.3813 36.0708C80.9005 36.7958 82.5544 37.225 84.1536 37.8083C85.7527 38.3916 87.3477 38.9416 88.909 39.5833C89.9863 40.175 90.7059 41.2958 90.7059 42.5833C90.7059 43.775 90.0915 44.8208 89.1573 45.4333L89.1446 45.4416C83.6822 48.4416 76.3513 44.9708 75.497 44.7C74.8489 44.4875 74.4534 44.7416 74.2556 45.425C74.0956 45.7958 74.0031 46.2291 74.0031 46.6833C74.0031 48.2208 75.0762 49.5125 76.5238 49.8541L76.5449 49.8583C78.7795 50.7458 81.3676 51.2583 84.0778 51.2583C86.3756 51.2583 88.5891 50.8875 90.6554 50.2041L90.5081 50.2458L90.5208 50.25ZM58.3944 82.0208C68.9068 80.9041 78.4513 77.6375 86.8553 72.6708L86.5355 72.8458C88.1136 71.9291 89.5907 70.8458 91.0889 69.7791C92.5281 68.7791 91.7201 66.1875 88.8585 67.3958C78.9941 71.6833 67.5391 74.425 55.5074 74.9833L55.2928 74.9916C54.0303 75.0541 52.5532 75.0875 51.0676 75.0875C46.2196 75.0875 41.4558 74.7208 36.8056 74.0125L37.3232 74.0791C24.2059 72.2083 12.3931 68.0041 1.85118 61.8833L2.30989 62.1291C1.93956 61.8833 1.51452 61.6833 1.06002 61.55L1.02635 61.5416C0.058433 61.3291 -0.492859 62.4583 0.550808 63.4333C13.4662 75.2583 30.8045 82.5083 49.8556 82.5083H49.9146H49.9104C52.751 82.35 55.5916 82.3333 58.3901 82.0208H58.3944ZM92.848 64.0208C95.7686 64.1791 96.6733 65.175 95.9453 67.9625C95.1962 70.8541 94.1105 73.6666 93.2057 76.5166C93.0289 77.0833 92.3766 77.7458 93.0458 78.2375C93.778 78.7458 94.3293 78.0416 94.8217 77.5958C96.7365 75.7916 98.2431 73.5875 99.2152 71.1166L99.2573 70.9958C100.343 68.6458 100.974 65.8958 100.974 63C100.974 62.9333 100.974 62.8708 100.974 62.8041V62.8125C100.932 61.6041 100.621 61.0916 99.434 60.7625C98.4914 60.475 97.3846 60.2541 96.2483 60.1458L96.181 60.1416C95.4108 60.0458 94.5229 59.9916 93.6181 59.9916C90.0999 59.9916 86.7754 60.8125 83.8253 62.2666L83.9516 62.2083C83.2993 62.5583 82.7354 62.9416 82.2177 63.375L82.2346 63.3625C82.0199 63.5375 81.6033 64.3958 82.7101 64.5541C82.8111 64.5625 82.9331 64.5666 83.051 64.5666C83.3414 64.5666 83.6275 64.5416 83.9011 64.4916L83.8716 64.4958C86.0852 64.1833 88.6438 64.0041 91.2404 64.0041C91.8043 64.0041 92.364 64.0125 92.9237 64.0291H92.8438L92.848 64.0208Z" fill="white"/>
</g>
<defs>
<clipPath id="clip0_3557_1427">
<rect width="101" height="100" fill="white"/>
</clipPath>
</defs>
</svg>
