<svg width="126" height="31" viewBox="0 0 126 31" fill="none" xmlns="http://www.w3.org/2000/svg">
<g clip-path="url(#clip0_3515_7165)">
<path d="M19.8987 0.119493C19.8987 0.119493 21.9174 -0.0712961 23.4994 0.964857C24.0722 0.937519 24.5357 1.18337 24.8358 1.72859C25.1361 2.27401 25.6813 3.58239 25.2451 4.37308C25.1089 4.53691 24.8085 3.88234 24.8085 3.88234C24.8085 3.88234 24.5903 4.67322 24.181 4.97317C24.2357 6.60922 23.5812 7.75415 23.3902 8.13592C23.3083 8.35443 23.3626 8.54503 23.4445 8.76335C23.5263 8.98148 24.6176 12.8258 24.5633 14.1074C24.5088 15.389 23.8541 16.9163 23.3357 17.4336C23.4445 18.4969 22.9537 19.3971 22.708 19.8336C22.4628 20.2696 21.9174 21.9057 21.7808 22.669C21.6444 23.4328 21.5899 24.2508 21.7535 24.4961C21.9174 24.7411 22.6539 25.5051 22.5992 25.8866C22.5445 26.2682 21.7535 26.7047 21.3717 26.7047C20.9898 26.7047 20.1986 26.4596 20.0077 25.9409C19.8169 25.423 19.7893 24.5236 19.9259 24.0053C20.0622 23.487 20.9898 19.6974 20.4442 17.4613C19.1075 18.061 16.8707 18.0341 16.8707 18.0341C16.8707 18.0341 16.489 20.0243 16.0252 21.1695C15.8613 21.4421 15.8888 23.2963 15.8888 24.4687C15.8888 25.6416 16.2981 27.468 16.2981 27.468C16.2981 27.468 16.8709 27.8771 16.789 28.395C16.7072 28.9129 16.0525 29.213 15.4797 29.213C14.9068 29.213 14.1433 28.7766 14.1433 28.0677C14.1433 27.359 14.2519 25.7505 14.1976 24.5779C14.1433 23.4052 14.1708 22.6419 13.9796 21.9057C13.7885 21.1695 13.2431 19.2335 13.1886 17.7339C12.9977 17.7339 12.8068 17.5974 12.8068 17.5974C12.8068 17.5974 11.9068 18.6338 11.2793 19.2335C11.3612 19.6424 11.5794 20.3786 11.5794 20.5422C11.5794 20.7059 11.7435 20.8424 12.016 20.9513C12.2888 21.0605 13.1339 21.5239 13.1067 21.9875C13.0796 22.4511 12.0155 22.5329 11.0881 22.124C10.8701 22.015 10.0795 19.3702 9.96987 19.0155C9.86047 18.6605 9.77861 18.4701 9.91517 18.1698C10.0515 17.87 10.4336 16.8885 10.3789 16.3158C10.3242 15.7432 9.26072 14.8436 8.55118 14.8436C8.00574 14.8436 7.17179 15.6764 6.56009 16.1523C5.82359 16.7251 4.97808 17.5972 4.75987 17.7337C4.54146 17.8702 2.8229 20.9785 2.49567 21.8781C2.35951 22.2326 2.08679 24.0051 0.641138 23.9504C-0.013506 23.8958 -0.613837 23.1871 1.24089 21.9055C1.7118 20.8214 2.36663 19.6963 2.40746 19.4714C2.44829 19.2464 2.93942 16.4448 3.75778 13.7866C4.57613 11.1279 5.78315 9.85995 6.0081 9.6759C6.19223 9.53305 6.2945 9.45104 6.11037 9.349C5.92625 9.24677 3.98273 7.59012 4.35098 4.07293C4.41242 3.66402 4.59635 3.76625 4.71923 4.70691C4.84192 5.64757 5.59864 7.85599 7.27617 8.55157C7.44008 8.6128 8.6469 7.69273 14.8049 7.24281C14.8457 6.15891 15.0094 5.01379 15.0094 5.01379C15.0094 5.01379 14.5797 4.68669 14.5185 4.03212C14.3139 4.35941 14.1911 4.44123 13.9251 4.40022C13.6591 4.35921 13.6795 3.09126 13.741 2.19142C13.8024 1.29157 14.8457 0.90325 15.2344 0.862436C15.7457 0.59637 16.2981 0.63757 16.2981 0.63757C16.2981 0.63757 17.2391 -0.316569 19.8987 0.119493Z" fill="white"/>
<path d="M31.5176 5.70923H48.7296L39.8099 20.2425H48.9206V24.2508H31.5176L40.7918 9.74468H31.5176V5.70923Z" fill="white"/>
<path d="M49.5215 5.70927H54.7315L58.9592 16.752L63.4327 5.68213H68.261L58.3864 30.4125H53.2038L56.3678 23.3778L49.5215 5.70927Z" fill="white"/>
<path d="M69.0681 5.73631H73.9074V7.31769C73.9074 7.31769 75.7896 5.32739 79.1176 5.32739C82.4451 5.32739 84.6272 8.05408 84.6272 11.0534V24.3049H79.7716V11.5986C79.7716 8.76295 76.5258 9.03575 73.8798 12.8255V24.3049H69.0518L69.0681 5.73631Z" fill="white"/>
<path d="M103.83 18.988V5.70917H98.9748V6.49967C98.9748 6.49967 97.0611 5.47449 95.2648 5.35474C92.4006 5.16376 86.8636 7.37218 86.8361 14.7614C86.8066 22.8047 92.5096 23.8956 94.2282 23.8956C95.2919 23.8956 97.147 23.7595 98.9748 22.2322C98.9748 26.0224 96.8743 26.7043 95.0196 26.7043H89.9461L89.9184 30.876C89.9184 30.876 92.6462 30.8485 95.5646 30.7393C104.157 30.2215 103.83 23.3507 103.83 18.988ZM98.9748 17.2426C98.9748 17.2426 97.4746 19.4242 94.8014 19.4242C92.1279 19.4242 91.8554 16.8335 91.8554 14.8977C91.8554 12.9619 92.4282 9.39 95.4556 9.39C97.6104 9.39 98.9746 10.9716 98.9746 10.9716L98.9748 17.2426Z" fill="white"/>
<path d="M122.352 20.5696C120.251 21.1148 120.279 20.1878 120.279 18.8789V10.9991C120.279 6.99121 117.333 5.30029 113.923 5.30029C110.513 5.30029 107.267 6.90881 107.267 6.90881V11.4352C107.267 11.4352 110.267 9.39023 113.213 9.39023C116.159 9.39023 115.477 11.6533 115.477 12.5801C109.149 12.6891 105.767 15.0887 105.767 19.2058C105.767 23.3234 109.695 24.6865 111.413 24.6865C113.131 24.6865 114.986 23.8685 116.405 22.8052C116.95 23.7597 118.041 24.6865 119.569 24.6865C121.097 24.6865 122.788 23.7865 122.788 23.7865C122.788 23.7865 122.488 21.5239 122.352 20.5696ZM115.45 19.1792C115.45 19.1792 114.086 20.4062 112.45 20.4062C110.813 20.4062 110.595 19.1792 110.595 18.7701C110.595 18.3612 110.814 15.9891 115.45 16.1526V19.1792Z" fill="white"/>
<path d="M123.017 8.01381V6.15674H123.84C124.005 6.15674 124.132 6.17387 124.217 6.20699C124.304 6.24029 124.373 6.2992 124.424 6.38353C124.476 6.46785 124.501 6.56123 124.501 6.66365C124.501 6.79533 124.458 6.90642 124.373 6.99652C124.288 7.0872 124.157 7.14457 123.978 7.16902C124.043 7.20059 124.093 7.2312 124.127 7.26162C124.198 7.32727 124.266 7.40986 124.33 7.50844L124.654 8.01381H124.344L124.099 7.62722C124.043 7.53958 123.984 7.45422 123.921 7.37136C123.875 7.31245 123.833 7.27125 123.796 7.24718C123.762 7.22453 123.724 7.2078 123.685 7.19771C123.64 7.19063 123.594 7.18766 123.548 7.18885H123.263V8.01361L123.017 8.01381ZM123.263 6.9763H123.79C123.903 6.9763 123.991 6.96437 124.054 6.94088C124.113 6.92097 124.164 6.88186 124.198 6.8298C124.231 6.77858 124.248 6.72295 124.248 6.66326C124.248 6.57528 124.216 6.50328 124.152 6.44668C124.089 6.39008 123.988 6.36216 123.85 6.36216H123.263V6.9763Z" fill="white"/>
<path d="M122.086 7.08515C122.087 6.11927 122.869 5.33667 123.836 5.33667C124.801 5.33667 125.584 6.11927 125.585 7.08515C125.584 8.05123 124.801 8.83364 123.836 8.83364C122.869 8.83364 122.087 8.05104 122.086 7.08515ZM122.365 7.08515C122.365 7.47496 122.52 7.84865 122.796 8.12424C123.072 8.39984 123.446 8.55485 123.836 8.55525C124.226 8.55479 124.599 8.39976 124.875 8.12415C125.151 7.84855 125.306 7.47489 125.306 7.08515C125.306 6.6954 125.151 6.32171 124.875 6.0461C124.599 5.77049 124.226 5.61546 123.836 5.61506C123.446 5.61536 123.072 5.77033 122.796 6.04595C122.52 6.32157 122.365 6.69532 122.365 7.08515Z" fill="white"/>
</g>
<defs>
<clipPath id="clip0_3515_7165">
<rect width="125.585" height="30.8815" fill="white"/>
</clipPath>
</defs>
</svg>
