<svg width="110" height="46" viewBox="0 0 110 46" fill="none" xmlns="http://www.w3.org/2000/svg">
<g clip-path="url(#clip0_3557_1151)">
<path d="M53.0971 40.3523C57.5855 42.3817 62.8963 42.4035 67.1758 40.1347C70.452 38.3984 73.0118 36.0775 75.723 33.5129C74.4976 36.3415 72.3615 38.4811 70.1195 40.4017C66.9772 43.0925 63.1714 44.7447 59.0537 45.2785C57.6973 45.2567 56.4248 45.3481 55.0978 45.2321C51.9334 44.9579 49.0559 43.7162 46.5256 41.8711C40.2954 45.1944 33.1957 45.6629 27.0523 41.9465C23.4627 43.7931 19.6113 44.8085 15.6275 44.4981C9.99895 44.0586 5.00889 41.1023 2.21374 36.2849C-1.85834 29.2641 0.101206 20.8058 4.72349 14.4987C8.40719 9.47241 13.2869 5.40499 18.9155 2.64164C24.5734 -0.136223 31.8246 -1.43739 36.6881 3.4351C40.3513 1.44346 44.7955 -0.139124 48.9971 0.210466C51.6598 0.462867 54.1034 1.47682 55.9776 3.41479C62.4844 -0.163783 72.0761 -2.49486 76.9941 4.64489C78.4579 6.77143 80.2085 10.102 79.4038 12.7681C78.6403 9.46951 77.3501 6.27534 75.0272 3.70636C73.0397 1.50728 70.2299 0.531044 67.2758 0.741378C60.3409 1.23312 53.306 7.55765 49.2884 12.8871L44.8411 12.8726C47.7363 9.12572 51.2611 6.20861 55.2685 3.82531C50.5447 -0.73096 43.9246 0.958964 38.9625 3.98487C34.149 6.91939 30.2446 11.0173 27.3906 15.8332C25.3943 19.2014 24.2395 22.8743 24.0718 26.7517C23.8349 32.1957 26.4565 37.1132 31.2479 39.82C35.6113 42.2845 40.8573 42.8169 45.7091 41.1922C43.317 39.086 41.5635 36.5141 40.5793 33.3301L45.893 33.2967C47.4406 36.3632 49.7709 38.851 53.0986 40.3552L53.0971 40.3523ZM25.9151 41.1864C21.3884 37.7514 19.0508 32.5294 19.3789 26.8924C19.9541 17.0067 27.751 8.75873 35.9393 3.84272C31.0464 -0.915183 24.0144 1.09242 18.9537 4.39103C14.1784 7.50253 10.2814 11.7107 7.56718 16.6905C4.55431 22.2186 3.14497 30.0431 6.9699 35.5147C11.0994 41.359 19.0596 42.93 25.9151 41.1879V41.1864Z" fill="white"/>
<path d="M41.8933 15.8989L41.4683 17.2147C41.9178 16.6916 42.4 16.2993 42.9149 16.0296C43.4216 15.7681 43.9692 15.6292 44.5576 15.6292C45.2931 15.621 45.8407 15.8008 46.2167 16.1441C46.5926 16.5037 46.7724 16.945 46.7724 17.468C46.7724 17.9911 46.6008 18.8901 46.2902 20.1487L43.7322 30.1685L39.4496 30.193L41.975 20.2876C42.2284 19.3069 42.351 18.7021 42.3428 18.4815C42.3346 18.2771 42.1875 18.1627 41.9015 18.1709C41.6072 18.1709 41.3948 18.3017 41.2477 18.5468C41.1087 18.792 40.8962 19.4622 40.6265 20.5328L38.1584 30.2011L33.8677 30.242L37.5127 15.9397L41.8933 15.8989Z" fill="white"/>
<path d="M52.9841 20.8927L53.2538 19.8384C53.4417 19.0947 53.5235 18.6207 53.4989 18.4C53.4744 18.1875 53.3518 18.0813 53.123 18.0813C52.8206 18.0894 52.6081 18.1793 52.5019 18.3591C52.3874 18.5389 52.224 19.0456 52.0197 19.8547L51.7581 20.909L52.9841 20.8927ZM56.6781 23.1729L51.1534 23.2137L50.3688 26.3112C50.2053 26.9568 50.1399 27.3737 50.1808 27.5616C50.2217 27.7496 50.377 27.8395 50.6303 27.8313C50.949 27.8313 51.1942 27.7087 51.3659 27.4554C51.5375 27.2102 51.7173 26.728 51.8971 26.017L52.3793 24.1291L56.4493 24.0964L56.1796 25.1507C55.9508 26.0333 55.7219 26.7117 55.4931 27.1857C55.2642 27.6679 54.872 28.1746 54.3407 28.7058C53.8095 29.2534 53.1965 29.662 52.51 29.9399C51.8235 30.2096 51.0144 30.3567 50.0827 30.3649C49.1837 30.3649 48.4237 30.2505 47.7944 29.9889C47.1651 29.7274 46.7237 29.3678 46.4622 28.902C46.2007 28.4443 46.0618 27.9376 46.0454 27.3737C46.0454 26.8261 46.1762 26.0088 46.4459 24.9545L47.5165 20.7783C47.8271 19.536 48.2439 18.5471 48.7588 17.8197C49.2818 17.0924 49.9683 16.5366 50.8183 16.1443C51.6764 15.752 52.5918 15.5559 53.5725 15.5477C54.7657 15.5314 55.6974 15.752 56.3594 16.2261C57.0214 16.6837 57.4055 17.2803 57.5281 18.0404C57.6507 18.8086 57.5281 19.8793 57.1767 21.2686L56.6781 23.1729Z" fill="white"/>
<path d="M73.7665 15.6292L68.3971 29.9478H63.8612C63.8694 29.8906 63.8122 29.866 63.8203 29.7925C64.0083 28.0762 64.3025 25.8287 64.6785 23.0582C64.2044 24.3331 63.6977 25.5999 63.1665 26.883L61.9406 29.9968L57.3394 30.0458L59.17 15.7599L62.8314 15.7191C62.7742 16.0868 62.3901 18.8329 61.6791 23.9326C61.8834 23.3851 62.9132 20.6472 64.752 15.7027L68.2499 15.6782L67.0404 23.8999C67.7923 21.4726 68.822 18.7348 70.1052 15.6618L73.7665 15.6292Z" fill="white"/>
<path d="M79.1361 20.6309L79.3977 19.5766C79.5856 18.8329 79.6755 18.3507 79.651 18.1382C79.6347 17.9175 79.5039 17.8113 79.2669 17.8113C78.9727 17.8113 78.7602 17.9093 78.6458 18.0973C78.5314 18.2853 78.3679 18.7756 78.1636 19.5847L77.8939 20.639L79.1361 20.6309ZM82.822 22.911L77.3055 22.9601L76.5127 26.0494C76.3492 26.695 76.2839 27.1118 76.3247 27.2998C76.3738 27.4878 76.5209 27.5695 76.7742 27.5695C77.1011 27.5695 77.3381 27.4551 77.5098 27.1936C77.6896 26.9484 77.8612 26.4662 78.041 25.7633L78.5232 23.8754L82.5932 23.8346L82.3153 24.8807C82.0865 25.7633 81.8658 26.4498 81.637 26.9239C81.4082 27.3979 81.0159 27.9046 80.4846 28.444C79.9452 28.9916 79.3323 29.4002 78.6458 29.6781C77.9674 29.9478 77.1502 30.0949 76.2185 30.0949C75.3113 30.1112 74.5594 29.9805 73.9219 29.7189C73.3008 29.4574 72.8513 29.0978 72.598 28.632C72.3364 28.1743 72.1893 27.6676 72.1812 27.1118C72.1812 26.5561 72.3119 25.7552 72.5734 24.6845L73.6441 20.5164C73.9546 19.2742 74.3796 18.2853 74.8945 17.5661C75.4094 16.8305 76.0877 16.2911 76.9458 15.8825C77.7958 15.4984 78.7112 15.3022 79.6919 15.2859C80.8851 15.2859 81.8086 15.5066 82.4788 15.9561C83.1326 16.4137 83.5331 17.0185 83.6475 17.7786C83.7619 18.5468 83.6475 19.6174 83.2961 21.0068L82.822 22.911Z" fill="white"/>
<path d="M90.6103 19.2417C90.7738 18.5878 90.8391 18.171 90.8064 17.9912C90.7819 17.8114 90.643 17.7215 90.3896 17.7215C90.1363 17.7215 89.9401 17.836 89.7849 18.0403C89.6214 18.2446 89.4661 18.6532 89.319 19.2498L88.0931 24.0636C87.9296 24.7092 87.8643 25.1179 87.8888 25.314C87.9133 25.502 88.0604 25.6 88.3056 25.6C88.5835 25.5919 88.8041 25.4775 88.9512 25.2486C89.0902 25.0116 89.2781 24.4967 89.4743 23.6795L90.6103 19.2417ZM95.8572 15.4087L93.0458 26.4255C92.6698 27.9211 92.3756 28.8773 92.1958 29.3105C92.016 29.7436 91.6564 30.2095 91.1252 30.6998C90.594 31.182 89.932 31.5661 89.131 31.8277C88.3383 32.0974 87.3821 32.22 86.2869 32.22C84.9221 32.2363 83.8841 32.0156 83.1731 31.5498C82.7154 31.2474 82.5683 30.896 82.5356 30.234V28.7547L86.7609 28.7384C86.5975 29.384 86.7446 29.7028 87.2023 29.6946C87.521 29.6864 87.7662 29.5883 87.9215 29.4004C88.0768 29.196 88.2402 28.7874 88.3955 28.1663L88.6815 27.063C88.2239 27.4062 87.7744 27.6759 87.3167 27.8394C86.8754 28.011 86.4259 28.1091 85.9764 28.1091C85.2 28.1091 84.6115 27.9701 84.1947 27.6514C83.7779 27.3408 83.5327 26.924 83.4837 26.4091C83.4346 25.8943 83.5164 25.1669 83.7616 24.2189L85.0937 19.0292C85.4451 17.6807 85.9273 16.6999 86.5648 16.0952C87.1941 15.4986 88.0114 15.1962 88.9839 15.188C89.5233 15.188 89.981 15.2942 90.3651 15.5149C90.7492 15.7356 91.068 16.0625 91.305 16.512L91.8852 15.425L95.8572 15.4087Z" fill="white"/>
<path d="M101.873 19.1436C102.036 18.4897 102.102 18.0729 102.077 17.8931C102.045 17.7133 101.906 17.6316 101.652 17.6316C101.399 17.6316 101.195 17.7379 101.039 17.9422C100.892 18.1465 100.737 18.5551 100.582 19.1517L99.3476 23.9655C99.1841 24.6029 99.1269 25.0279 99.1514 25.2077C99.1841 25.4039 99.3149 25.4938 99.5682 25.4938C99.8461 25.4774 100.059 25.3794 100.198 25.1423C100.353 24.9053 100.524 24.3905 100.737 23.5732L101.873 19.1436ZM107.12 15.3106L104.308 26.3356C103.924 27.8312 103.638 28.7792 103.467 29.2205C103.287 29.6455 102.935 30.1114 102.396 30.6017C101.865 31.0921 101.195 31.468 100.402 31.7214C99.6091 31.9829 98.6529 32.1219 97.5496 32.13C96.1847 32.1464 95.1468 31.9257 94.4521 31.4517C93.7411 30.9858 93.5531 30.0623 93.88 28.673L98.0318 28.6321C97.8765 29.2777 98.0154 29.6047 98.4731 29.5965C98.7918 29.5883 99.037 29.4902 99.2005 29.2941C99.3476 29.0979 99.511 28.6811 99.6745 28.06L99.9524 26.9567C99.5029 27.3081 99.0534 27.5615 98.5957 27.7413C98.1544 27.9129 97.6967 28.011 97.2554 28.011C96.479 28.0191 95.8823 27.872 95.4655 27.5533C95.0569 27.2427 94.8117 26.8259 94.7545 26.3192C94.7055 25.8125 94.7954 25.0851 95.0405 24.1371L96.3564 18.9474C96.6996 17.5989 97.1981 16.61 97.8274 16.0134C98.4649 15.4168 99.274 15.1062 100.255 15.0981C100.786 15.0899 101.244 15.2043 101.628 15.425C102.004 15.6293 102.322 15.9725 102.559 16.4139L103.14 15.3269L107.12 15.3106Z" fill="white"/>
</g>
<defs>
<clipPath id="clip0_3557_1151">
<rect width="109.115" height="45.2929" fill="white"/>
</clipPath>
</defs>
</svg>
