<svg width="80" height="62" viewBox="0 0 80 62" fill="none" xmlns="http://www.w3.org/2000/svg">
<g clip-path="url(#clip0_3515_7205)">
<path d="M25.4551 32.4474V53.6497L29.0324 50.9546V36.0595L25.4551 32.4474Z" fill="white"/>
<path d="M33.1406 37.3982L37.7989 36.3348L39.6803 34.7933V31.9982L33.1406 37.3982Z" fill="white"/>
<path d="M32.5557 3.68033L25.9746 0.648639L31.9237 7.31201L34.176 5.09007L32.5557 3.68033Z" fill="white"/>
<path d="M0 55.2105H2.06682L2.74031 58.5812H2.75251L3.426 55.2105H5.49282V60.9421H4.119V57.2641H4.10436L3.28691 60.9421H2.20591L1.38602 57.2641H1.37381V60.9421H0V55.2105Z" fill="white"/>
<path d="M10.302 58.7242C10.302 60.3145 9.59437 61.0754 8.15711 61.0754C6.71985 61.0754 6.00488 60.3145 6.00488 58.7242V55.2096H7.45678V58.334C7.45678 58.9194 7.45678 59.6486 8.16199 59.6486C8.85256 59.6486 8.85256 58.9194 8.85256 58.334V55.2096H10.302V58.7242Z" fill="white"/>
<path d="M12.1746 59.0135C12.1746 59.1574 12.1941 59.2867 12.2282 59.3915C12.3332 59.7354 12.6504 59.8086 12.9212 59.8086C13.1579 59.8086 13.5215 59.7135 13.5215 59.2867C13.5215 58.9916 13.319 58.9111 12.504 58.6306C11.7597 58.372 10.9057 58.1233 10.9057 56.9672C10.9057 55.6452 11.8403 55.0745 12.809 55.0745C13.8314 55.0745 14.7367 55.5477 14.7758 56.9452H13.4044C13.4288 56.7282 13.3507 56.5842 13.2311 56.4842C13.1116 56.3843 12.9456 56.3428 12.8017 56.3428C12.604 56.3428 12.2795 56.4062 12.2795 56.7282C12.3063 57.1355 12.9798 57.2233 13.646 57.4501C14.3146 57.6745 14.9734 58.0525 14.9734 59.1013C14.9734 60.5964 13.8461 61.0769 12.7968 61.0769C12.26 61.0769 10.7349 60.8428 10.7227 59.0135H12.1746Z" fill="white"/>
<path d="M15.4404 55.2112H16.8923V60.9429H15.4404V55.2112Z" fill="white"/>
<path d="M20.5614 57.3452C20.5346 57.1355 20.4028 56.5013 19.8001 56.5013C19.1217 56.5013 18.9045 57.3062 18.9045 58.0769C18.9045 58.8452 19.1217 59.6501 19.8001 59.6501C20.2906 59.6501 20.4833 59.2306 20.5687 58.694H21.9938C21.9938 59.8501 21.2227 61.0769 19.8416 61.0769C18.3165 61.0769 17.4502 59.7696 17.4502 58.0769C17.4502 56.2721 18.3897 55.0745 19.8416 55.0745C21.1373 55.0818 21.8474 55.9086 21.9743 57.3452H20.5614Z" fill="white"/>
<path d="M25.7586 56.6783H24.4385V55.21H28.5306V56.6783H27.2105V60.9417H25.7586V56.6783Z" fill="white"/>
<path d="M28.9531 55.2105H32.8525V56.6788H30.405V57.3958H32.628V58.7568H30.405V59.4739H32.9282V60.9421H28.9531V55.2105Z" fill="white"/>
<path d="M33.3721 55.2105H34.8215V59.4739H36.9103V60.9421H33.3721V55.2105Z" fill="white"/>
<path d="M37.2715 55.2105H41.1709V56.6788H38.7234V57.3958H40.9488V58.7568H38.7234V59.4739H41.2441V60.9421H37.2715V55.2105Z" fill="white"/>
<path d="M44.6596 60.9412H43.0369L41.6289 55.2095H43.0954L43.869 58.6851H43.8787L44.6425 55.2095H46.131L44.6596 60.9412Z" fill="white"/>
<path d="M46.6758 55.2112H48.1301V60.9429H46.6758V55.2112Z" fill="white"/>
<path d="M50.1482 59.0135C50.1482 59.1574 50.1677 59.2867 50.2019 59.3915C50.3068 59.7354 50.624 59.8086 50.8949 59.8086C51.1316 59.8086 51.4952 59.7135 51.4952 59.2867C51.4952 58.9916 51.2877 58.9111 50.4776 58.6306C49.7334 58.372 48.8793 58.1233 48.8793 56.9672C48.8793 55.6452 49.8114 55.0745 50.7826 55.0745C51.8051 55.0745 52.7079 55.5477 52.747 56.9452H51.3756C51.4024 56.7282 51.3219 56.5842 51.2023 56.4842C51.0852 56.3843 50.9193 56.3428 50.7753 56.3428C50.5777 56.3428 50.2531 56.4062 50.2531 56.7282C50.28 57.1355 50.9534 57.2233 51.6196 57.4501C52.2882 57.6745 52.9471 58.0525 52.9471 59.1013C52.9471 60.5964 51.8173 61.0769 50.7704 61.0769C50.2336 61.0769 48.7085 60.8428 48.6963 59.0135H50.1482Z" fill="white"/>
<path d="M53.4141 55.2112H54.8659V60.9429H53.4141V55.2112Z" fill="white"/>
<path d="M57.7483 55.074C59.1831 55.074 60.1397 56.3277 60.1397 58.0764C60.1397 59.8252 59.1831 61.0764 57.7483 61.0764C56.3184 61.0764 55.3594 59.8252 55.3594 58.0764C55.3594 56.3277 56.3184 55.074 57.7483 55.074ZM57.7483 59.6496C58.1192 59.6496 58.6878 59.352 58.6878 58.0764C58.6878 56.8008 58.1192 56.5008 57.7483 56.5008C57.3798 56.5008 56.8113 56.8008 56.8113 58.0764C56.8113 59.352 57.3798 59.6496 57.7483 59.6496Z" fill="white"/>
<path d="M60.6787 55.2105H62.1648L63.5361 58.2763H63.5508V55.2105H64.9222V60.9421H63.5117L62.0647 57.8129H62.0525V60.9421H60.6787V55.2105Z" fill="white"/>
<path fill-rule="evenodd" clip-rule="evenodd" d="M67.0795 57.2072H66.7672V55.7486H67.3138C67.6871 55.7486 67.9116 55.8535 67.9116 56.1901C67.9116 56.4584 67.753 56.5535 67.5602 56.5681L67.9311 57.2072H67.5627L67.2259 56.5925H67.0795V57.2072ZM67.3552 56.3462C67.4943 56.3462 67.5797 56.3169 67.5797 56.1559C67.5797 56.0072 67.4162 55.995 67.2967 55.995H67.0795V56.3462H67.3552ZM67.304 57.834C66.5841 57.834 65.9424 57.3364 65.9424 56.4803C65.9424 55.6242 66.5841 55.1242 67.304 55.1242C68.0214 55.1242 68.6632 55.6242 68.6632 56.4803C68.6632 57.3364 68.0214 57.834 67.304 57.834ZM67.304 55.4413C66.7672 55.4413 66.3328 55.8535 66.3328 56.4803C66.3328 57.1047 66.7672 57.5218 67.304 57.5194C67.8286 57.5194 68.2727 57.1047 68.2727 56.4803C68.2727 55.8535 67.8286 55.4413 67.304 55.4413Z" fill="white"/>
<path d="M78.0414 7.10257C77.4412 6.69282 76.365 6.48794 75.3011 6.58062C74.2885 6.66599 73.615 7.16111 73.0611 7.61964C73.0684 7.61477 71.6189 9.0489 71.6189 9.0489L71.2309 9.66841C71.2261 9.67573 69.9376 11.2855 69.9376 11.2855L69.923 11.3025V2.37577L65.9699 0.000177679L65.9724 16.2147L65.9211 16.2928L64.9743 17.4049V0.000177679H40.5385L31.8466 8.64403L24.1259 0.000177679H0.0244141V53.5901H24.5359V29.9829L31.7515 37.4219L40.6117 29.8732V53.5901H64.9792L64.9768 30.9756C65.1671 30.6512 65.3233 30.3927 65.3233 30.3927C65.3257 30.3854 65.5307 30.0902 65.5307 30.0902C65.5429 30.0756 65.7503 29.7439 65.9773 29.3829L65.9797 53.5901L69.923 50.8682V22.3147C70.0963 22.0561 70.3549 21.6708 70.3549 21.6708C70.3915 21.6098 70.9625 20.7561 70.9625 20.7561L71.8703 19.422C71.88 19.4001 72.2168 18.9732 72.2168 18.9732L73.0562 17.7854C73.2221 17.4025 73.6955 17.1489 73.8761 17.0537L73.9615 17.0074L74.0762 16.9245L74.513 16.483C74.5203 16.4732 75.2718 15.8391 75.2718 15.8391L76.5554 15.2415L77.7535 14.583C77.7584 14.5806 78.8516 13.2342 78.8516 13.2342L79.4348 11.4245L79.6056 9.67085C79.569 8.78061 78.8955 7.67818 78.0414 7.10257ZM48.6789 21.6781C48.7057 21.8488 48.7985 23.4342 48.7936 23.6952C48.7887 24.4805 48.8424 25.3464 48.818 25.6951C48.7985 25.961 48.8351 26.8781 48.8351 26.8781C48.901 27.6024 49.0571 28.3951 49.0718 28.5366C49.1035 28.9073 48.9644 30.3146 49.0059 30.6341C49.0108 30.7 49.1255 31.2878 49.1011 31.4268C49.0376 31.7927 49.145 32.2341 49.1328 32.4C49.1133 32.6902 49.1011 33.0219 49.0913 33.3756C49.0718 33.9 49.0547 34.4414 49.0059 34.9146C48.9912 35.0341 49.0083 35.8609 49.0083 35.8609C48.9132 36.6926 48.8107 37.5512 48.9522 38.4121C48.979 38.5853 48.9449 39.1536 48.9595 39.2536C48.9815 39.3829 49.1645 40.0511 49.1913 40.1975C49.2304 40.417 49.3133 41.4341 49.4232 41.6682C49.5305 41.9048 49.9673 42.9414 50.0064 43.0658C50.1357 43.4584 50.3333 44.4048 50.1552 44.8877C49.9868 45.3438 49.7331 46.4292 49.5549 46.6999C49.4012 46.9365 49.1694 47.0755 49.0596 47.2462C48.9546 47.4048 48.7472 47.5511 48.574 47.6194C48.0371 47.8291 47.0855 47.9755 46.2607 47.7243C45.9264 47.6243 45.4213 47.656 44.8527 47.3121C44.3891 47.0316 44.2305 46.2633 44.1646 45.8511C44.1329 45.6584 44.189 45.1438 44.1768 45.0633C44.1622 44.9462 43.9865 44.1853 43.9865 43.9414C43.984 43.8194 44.0279 43.3048 43.9718 42.9658C43.9011 42.5292 43.6888 41.8194 43.6888 41.8194C43.6302 41.5292 43.474 40.8999 43.4667 40.8804C43.2983 40.4097 43.2154 39.9511 43.1666 39.5609C43.0763 38.8438 43.2544 38.2463 43.413 37.717C43.5033 37.4121 43.5887 37.1268 43.6253 36.839C43.6497 36.6317 43.4887 35.6487 43.5204 35.3195C43.5302 35.1853 43.64 34.7585 43.6448 34.7024C43.6863 34.4244 43.6961 33.6829 43.6985 33.5683C43.701 33.4195 43.801 32.7951 43.7888 32.1488C43.7839 31.8951 43.7571 31.6317 43.7888 31.3658C43.8205 31.0829 43.8449 30.361 43.7913 30.0268C43.7058 29.5171 43.74 29.061 43.7376 29.039C43.701 28.5049 43.6692 27.9439 43.701 27.4659C43.7058 27.3903 43.6131 26.5805 43.6107 26.3293C43.6058 26.1707 43.596 25.1781 43.5863 25.061C43.374 22.5903 43.0397 22.1171 42.9055 22.0269C42.7713 21.9391 42.4077 21.9439 42.2003 22.0415C42.0417 22.1147 41.6293 22.4732 41.2803 22.661C40.9387 22.8415 40.3018 23.1439 40.0846 23.3049C39.8333 23.4952 39.4209 23.8147 38.6181 24.2537C38.4156 24.3634 38.2618 24.5512 38.0788 24.7171C37.8128 24.9512 37.315 25.4537 36.5098 25.861C36.1145 26.0586 35.7631 26.2903 35.48 26.5659C35.3629 26.6829 34.931 27.4049 34.6528 27.6756C34.382 27.9342 34.2112 28.2976 34.1624 28.4098C34.0208 28.7122 33.8671 29.0512 33.5694 29.2732C33.1082 29.6171 32.1029 29.6805 31.4952 29.4268C31.1073 29.2659 30.3337 28.7463 29.997 27.8463C29.6578 26.9488 29.9409 25.7976 30.6119 25.0512C31.0536 24.561 31.7417 24.3634 32.4103 24.1756C32.8227 24.0586 33.2156 23.9464 33.5181 23.7781C33.667 23.6952 34.1428 23.3391 34.2429 23.2732C34.3942 23.1732 34.9334 22.9122 35.0384 22.8439C35.136 22.7781 35.7045 22.283 36.0852 22.0683C36.7148 21.7171 37.215 21.4342 37.5103 21.2488C37.5103 21.2488 38.3765 20.761 38.9378 20.2293C39.0647 20.1074 39.6039 19.9074 40.1944 19.5732C40.3433 19.4879 40.9607 19.2805 41.1168 19.2123C41.2242 19.161 41.6537 18.8464 41.7806 18.7806C42.3345 18.4927 42.6127 18.1488 42.4565 17.2928C42.4004 16.9952 42.3101 16.6928 42.3418 16.3342C42.3516 16.2464 42.4784 15.7074 42.6834 15.3367C42.7859 15.1464 42.947 15.1513 43.0372 14.9757C43.1275 14.7952 43.4448 14.644 43.6546 14.5903C43.801 14.4489 44.1036 14.2976 44.4574 14.2367C45.2334 14.1074 46.2314 14.6757 46.3754 14.705C46.6487 14.7659 47.1123 14.7245 47.3563 14.6537C47.4051 14.644 47.7224 14.4367 47.8395 14.3928C47.9957 14.3342 48.4959 14.1976 48.5984 14.1611C48.7521 14.1074 49.4646 13.7342 49.6452 13.6659C49.8307 13.5952 50.2601 13.5172 50.4724 13.4684C50.8116 13.2269 51.4485 13.0196 51.6925 12.8099C51.9683 12.5684 52.3416 11.9903 52.4197 11.8879C52.5637 11.6977 53.2664 11.2245 53.3665 11.1489C53.5958 10.9684 54.1205 10.6001 54.4767 10.4977C54.6476 10.4489 55.1478 10.5513 55.4528 10.5489C55.7944 10.5489 56.2727 10.5684 56.6339 11.1147C56.8144 11.3904 57.117 11.6708 57.1951 12.0513C57.4293 13.2391 56.5411 14.4172 55.8676 14.8367C55.7993 14.8781 55.4723 14.9733 55.2722 15.0391C54.9916 15.1318 54.7061 15.3367 54.5158 15.3879C54.1376 15.4879 53.9521 15.7513 53.7959 15.8342C53.6422 15.9147 53.12 16.2367 52.9516 16.3293C52.8223 16.3976 52.61 16.7001 52.2269 16.8123C51.9683 16.8903 51.429 17.044 50.9995 17.422C50.8214 17.5781 50.0966 17.7269 49.8892 17.7732C49.8111 17.7928 48.8863 18.183 48.7936 18.7245C48.696 19.2927 48.7765 19.444 48.6692 20.2586C48.6033 20.7659 48.6374 21.3635 48.6789 21.6781ZM78.8077 11.2928C78.7369 11.6245 78.5514 12.444 78.2879 12.9245C78.1732 13.1367 77.7169 13.8099 77.3704 14.0684C77.0337 14.3172 76.5456 14.5635 76.3406 14.6367C76.1503 14.705 75.2182 15.1391 74.9668 15.2733C74.5154 15.5172 74.2738 15.7903 74.0371 16.0513C73.9151 16.1879 73.7955 16.3147 73.6516 16.4415C73.5955 16.4903 72.7682 16.8293 72.4681 17.5293C72.2851 17.9537 71.4603 18.8342 71.3212 19.0879C71.1162 19.4537 70.8137 20.0049 70.5111 20.3001C70.4208 20.3879 70.3232 20.522 70.2207 20.6781C70.1255 20.8196 70.0279 20.9781 69.923 21.1513C69.8937 21.1976 69.8693 21.2366 69.84 21.283C69.6448 21.6049 69.4252 21.9708 69.2983 22.1049C68.9835 22.4439 68.8005 22.883 68.6517 23.2415C68.5931 23.3805 68.0758 24.1195 67.8806 24.6342C67.7952 24.8659 67.3462 25.6171 67.2974 25.7317C67.2022 25.9732 66.6239 26.5342 66.5678 26.6439C66.4848 26.8122 66.4092 27.0415 66.3311 27.2805C66.2628 27.4976 66.0846 27.9244 66.0236 28.0902C65.948 28.2146 65.8504 28.3732 65.7479 28.5415C65.743 28.5488 65.7406 28.5537 65.7357 28.5585C65.66 28.6829 65.5844 28.8073 65.5039 28.9366C65.3233 29.2293 65.1403 29.5171 65.0207 29.7024C64.9402 29.8049 64.8597 29.9244 64.7889 30.0317C64.6742 30.2 63.8348 31.6317 63.642 31.9731C63.5566 32.1292 63.4517 32.2853 63.3443 32.4488C63.0881 32.8317 62.8246 33.2244 62.6977 33.7097C62.6171 34.0122 62.3853 34.5122 62.3682 34.5561C62.0388 35.3658 61.9119 36.2365 61.8778 36.4829C61.8265 36.8853 61.8387 37.2926 61.8558 37.6829C61.8729 38.1048 61.8875 38.5048 61.8192 38.8585C61.6923 39.5146 61.4361 40.1609 61.0969 40.678C61.0066 40.8194 60.687 41.256 60.3087 41.6072C60.033 41.8633 59.5816 41.9682 58.7544 41.9755C57.6343 41.9804 57.1536 41.5658 56.5582 40.6902C56.4606 40.5487 56.2703 40.1804 56.0385 39.6853C55.7408 39.0536 55.4967 38.4755 55.2844 37.7146C55.2186 37.4853 55.1258 37.2317 55.0404 36.9853C54.9428 36.717 54.733 35.9609 54.7159 35.8365C54.6964 35.7122 54.4328 34.8317 54.4157 34.7463C54.3133 34.2073 54.1717 33.7073 54.0326 33.2244C53.8911 32.7268 53.7569 32.2561 53.6739 31.7707C53.5934 31.3049 53.3445 30.5512 53.1615 30.0049C53.1615 30.0049 52.8101 28.8902 52.6979 28.4927C52.5441 27.9537 52.0415 26.4659 52.0415 26.4659C51.8536 25.9586 51.4095 24.7683 51.3777 24.5781C51.1142 23.0317 51.1166 21.7854 51.3948 21.2415C51.5193 20.9927 51.9463 20.7561 52.2904 20.5659C52.405 20.5001 52.9712 20.1342 53.0932 20.1025C53.4446 20.0074 54.0326 19.9781 54.528 20.0293C54.5939 20.0366 55.2015 20.0415 55.4211 20.1976C56.2385 20.7659 56.2971 21.5 56.4045 22.8342C56.4045 22.8342 56.546 24.2683 56.6143 24.8073C56.6631 25.2049 56.7168 25.6171 56.7583 26.0244C56.7851 26.3049 56.7998 26.6122 56.812 26.9073C56.8339 27.4415 57.017 28.461 57.017 28.461C57.2 29.0732 57.3757 29.6561 58.0931 29.9585C58.2883 30.039 58.5103 30.0244 58.7202 29.9073C59.2107 29.6463 59.6572 28.8512 59.828 27.9342C59.8378 27.8829 59.911 27.7781 59.9818 27.6756C60.1526 27.439 60.3844 27.1122 60.504 26.5756C60.5406 26.4415 60.87 25.9878 61.0652 25.7171C61.2653 25.4415 61.4507 25.1829 61.5606 24.9878C61.5972 24.922 62.4122 23.6513 62.4122 23.6513C62.4122 23.6513 62.7269 22.9513 62.8612 22.6903C62.9954 22.4244 63.1125 22.1074 63.1247 22.0537C63.1906 21.7805 63.3248 21.2074 63.5932 20.8903C63.9592 20.4586 64.357 19.4879 64.3765 19.4464C64.4643 19.2805 64.7035 18.8684 64.9255 18.5049C64.9377 18.4903 64.9597 18.4586 64.9743 18.4391V18.4366C64.9792 18.4318 64.9865 18.422 64.9914 18.4171C65.089 18.2879 65.2159 18.1171 65.3135 18.0001L66.0163 17.1684C66.1603 17.0123 66.3042 16.8513 66.4336 16.6757C66.5702 16.4952 66.8606 16.0684 67.1168 15.6903C67.273 15.4537 67.7244 14.8659 67.8635 14.7196C68.0002 14.5781 69.025 13.2001 69.1836 12.9903C69.2495 12.905 69.6692 12.4782 69.923 12.2221L69.9254 12.2172C70.2768 11.8635 70.4062 11.7343 70.4525 11.6733C70.6575 11.3977 70.8795 11.1294 71.0943 10.8684C71.309 10.6074 71.5286 10.3416 71.7385 10.0611C71.8312 9.94402 72.0679 9.51963 72.1314 9.43671C72.3534 9.14403 73.4393 8.14159 73.471 8.11477C73.9761 7.69769 74.5349 7.29038 75.3548 7.21965C76.2528 7.1416 77.2093 7.31233 77.6827 7.63428C78.3611 8.09037 78.9345 9.01719 78.9638 9.69768C78.9931 10.3513 78.9443 10.6172 78.8077 11.2928Z" fill="white"/>
</g>
<defs>
<clipPath id="clip0_3515_7205">
<rect width="79.6057" height="61.0767" fill="white"/>
</clipPath>
</defs>
</svg>
