<svg width="119" height="40" viewBox="0 0 119 40" fill="none" xmlns="http://www.w3.org/2000/svg">
<g clip-path="url(#clip0_3515_7190)">
<path d="M56.1158 2.90367C88.6714 -2.7587 116.361 0.113198 117.963 9.31285C118.818 14.2 112.134 19.8904 100.798 25.0003C101.457 24.5225 101.903 23.8138 101.995 22.8119C102.031 22.4055 102.036 22.2369 102.039 22.0091V18.7396H97.7115V20.5179H98.9644V22.2865C98.9657 22.4404 98.9591 22.6097 98.9371 22.7494C98.88 23.0742 98.5714 23.6322 97.6871 23.6322C96.804 23.6322 96.4971 23.0755 96.4439 22.7494C96.4193 22.6097 96.4101 22.4404 96.4126 22.2865V16.7162C96.4126 16.5194 96.4268 16.3015 96.4644 16.141C96.5293 15.8381 96.79 15.2533 97.6792 15.2533C98.6089 15.2533 98.8441 15.8717 98.896 16.141C98.9322 16.3136 98.9386 16.6035 98.9361 16.6048V17.2865H102.013V16.8802C102.013 16.8802 102.026 16.4658 101.986 16.0775C101.761 13.7972 99.8669 13.0687 97.7027 13.0687C95.5359 13.0687 93.6867 13.8011 93.4156 16.0775C93.3922 16.2807 93.3648 16.6641 93.3648 16.8802L93.3628 22.0091C93.3667 22.2369 93.3718 22.4055 93.4068 22.8119C93.613 25.0276 95.5359 25.8187 97.7027 25.8187C98.2822 25.8187 98.844 25.7589 99.3609 25.6332C89.5138 29.8847 76.4659 33.6869 61.9273 36.2142C29.3728 41.874 1.67815 39.0021 0.0728 29.8011C-0.796051 24.8183 6.16929 19.0013 17.9107 13.8168C17.3201 14.2446 16.9132 14.8627 16.774 15.7142C16.6858 16.2616 16.673 16.7499 16.8013 17.3607C17.3346 19.8493 21.6698 20.5705 22.2974 22.1468C22.4165 22.4419 22.3805 22.8212 22.3248 23.0502C22.2223 23.4552 21.9469 23.8675 21.1353 23.8675C20.3702 23.8675 19.9058 23.4302 19.9058 22.7611V21.5824H16.6333L16.6304 22.5257C16.6304 25.2411 18.7727 26.0599 21.0679 26.0599C23.2749 26.0599 25.0932 25.3071 25.3824 23.2777C25.5302 22.2255 25.4193 21.5369 25.3687 21.2767C24.8538 18.7271 20.2224 17.9657 19.8775 16.5394C19.8192 16.2949 19.8363 16.0362 19.8648 15.8978C19.9491 15.5095 20.2163 15.0814 20.98 15.0814C21.6929 15.0816 22.1138 15.5218 22.1138 16.1869V16.9388H25.1578V16.0824C25.1575 13.4298 22.7719 13.0151 21.0435 13.015C20.4401 13.015 19.8676 13.0732 19.3482 13.1957C29.1152 9.06046 41.9045 5.37384 56.1158 2.90367ZM60.7359 13.0834C58.5898 13.0834 56.83 13.7896 56.5123 15.7582C56.4241 16.2978 56.4148 16.7768 56.5406 17.3851C57.0657 19.8479 61.3573 20.5638 61.9791 22.1244C62.0996 22.4168 62.0608 22.7859 62.0064 23.015C61.9065 23.4188 61.6343 23.8255 60.8277 23.8255C60.0733 23.8254 59.613 23.388 59.6128 22.7347L59.6099 21.5658H56.3707L56.3667 22.4964C56.3669 25.1844 58.4904 25.9955 60.7623 25.9955C62.9458 25.9954 64.7468 25.2527 65.0308 23.2416C65.1786 22.1975 65.0732 21.5182 65.0201 21.263C64.5079 18.7366 59.9226 17.9827 59.5816 16.5707C59.5234 16.3275 59.5401 16.0715 59.5699 15.9408C59.6568 15.5499 59.9193 15.1322 60.6753 15.1322C61.3818 15.1323 61.7945 15.5621 61.7945 16.222V16.9662H64.814V16.1195C64.814 13.4947 62.4476 13.0834 60.7359 13.0834ZM67.9419 22.1351C67.9355 22.3591 67.9579 22.8198 67.9683 22.9349C68.1823 25.2088 69.9845 25.9466 72.2291 25.9466C74.4711 25.9466 76.2722 25.2089 76.4888 22.9349C76.4992 22.8198 76.5217 22.3591 76.5152 22.1351V13.3978H73.4292V22.4105C73.4318 22.5683 73.4246 22.7443 73.3999 22.8763C73.3416 23.1753 73.0775 23.7599 72.231 23.7601C71.3778 23.7601 71.1204 23.1753 71.0542 22.8763C71.0309 22.7456 71.0259 22.5683 71.0259 22.4105V13.3978H67.9419V22.1351ZM27.4351 25.5834H30.73L32.4019 14.5316H32.4703L34.0972 25.5834H37.3785L35.1265 13.4027H29.6978L27.4351 25.5834ZM39.813 25.5834H42.8697L42.9468 14.6322H43.0123L45.0533 25.5834H48.1499L50.19 14.6322H50.2535L50.3335 25.5834H53.3833L53.1197 13.4027H48.1421L46.6343 22.7132H46.5699L45.063 13.4027H40.0835L39.813 25.5834ZM79.9185 25.4564H82.9205L82.7535 15.5638H82.8179L85.8335 25.4564H90.1773V13.4027H87.1558L87.3228 22.9662H87.2554L84.4507 13.4027H79.9185V25.4564Z" fill="white"/>
</g>
<defs>
<clipPath id="clip0_3515_7190">
<rect width="118.036" height="39.1166" fill="white"/>
</clipPath>
</defs>
</svg>
