<svg width="90" height="30" viewBox="0 0 90 30" fill="none" xmlns="http://www.w3.org/2000/svg">
<g clip-path="url(#clip0_3515_7280)">
<path d="M81.7949 24.9429C77.0744 24.9735 72.6037 25.011 71.357 24.9007C68.8353 24.6823 67.1503 23.0385 66.9547 20.6198C66.8227 19.0324 66.8227 17.7174 66.9476 16.4658C67.1762 14.1105 69.1535 11.868 71.357 11.7599C72.1465 11.7177 74.2581 11.7224 78.083 11.7388L89.2138 11.7599V7.15974C89.2138 7.15974 80.3478 7.15035 77.6824 7.13861C74.1049 7.12218 72.3044 7.11983 71.1638 7.15974C68.6539 7.25602 66.5517 8.146 64.9185 9.79916C63.3701 11.3607 62.4463 13.8452 62.3096 16.3601C62.2318 17.7174 62.2059 19.4903 62.3096 20.5447C62.5665 23.2499 63.4455 25.3727 64.9185 26.8591C66.4928 28.4559 68.8895 29.468 71.1661 29.4985C73.035 29.522 89.2138 29.4985 89.2138 29.4985V24.9007C89.2138 24.9007 84.3 24.9195 81.7949 24.9429Z" fill="white"/>
<path d="M31.5479 7.40649V12.002H42.5301V29.4189H47.1658V12.002H58.148V7.40649H31.5479Z" fill="white"/>
<path d="M26.7322 16.0972C26.6992 13.6221 25.8225 11.4993 24.1233 9.78276C22.351 7.98635 19.6479 7.23962 17.878 7.14569C16.3391 7.0588 10.2753 7.08698 8.85182 7.14569C6.84627 7.23022 5.3851 7.82667 4.65217 8.37147C4.64512 8.37619 4.638 8.37381 4.638 8.36207V0H0V29.4986H4.63093C4.63093 29.4986 4.53902 17.4239 4.64272 16.1089C4.82654 13.7724 6.60586 11.9361 8.87537 11.7388C10.6947 11.5839 16.1552 11.6261 17.8686 11.7412C20.2206 11.9032 21.9575 13.7348 22.0941 16.2028C22.139 17.1116 22.092 29.4986 22.092 29.4986H26.7324C26.7324 29.4986 26.744 17.1586 26.7322 16.0972Z" fill="white"/>
</g>
<defs>
<clipPath id="clip0_3515_7280">
<rect width="89.2132" height="29.509" fill="white"/>
</clipPath>
</defs>
</svg>
