<svg width="59" height="58" viewBox="0 0 59 58" fill="none" xmlns="http://www.w3.org/2000/svg">
<g clip-path="url(#clip0_3515_7136)">
<path d="M29.7679 16.0567C28.1735 22.5274 28.2755 22.1815 26.8294 28.0998C26.7978 28.645 26.3409 29.075 25.7843 29.075C25.7235 29.075 25.6628 29.0702 25.6044 29.0606H25.6117H23.9712C23.9225 29.0702 23.8642 29.075 23.8083 29.075C23.3149 29.075 22.909 28.7123 22.8458 28.2439V28.2391C21.4434 23.8052 19.5647 17.6468 18.3008 13.5275C17.8342 12.0071 18.1404 12.0431 19.3605 12.0744C19.7834 12.0864 20.1917 12.0744 20.6122 12.0744C20.6414 12.072 20.6754 12.0696 20.7119 12.0696C21.1882 12.0696 21.582 12.4178 21.6476 12.8694V12.8742C22.0584 14.3273 22.3306 15.4418 24.676 24.5954C24.7197 24.7756 24.7781 24.9461 24.8364 25.1118H24.9604C25.0163 24.8861 25.0843 24.6747 25.1426 24.4465C26.0306 20.7428 26.9153 17.0359 27.7967 13.3257C28.0714 12.1728 28.5599 12.0648 29.7411 12.0648H30.6064C31.3841 12.0768 31.6321 12.2329 31.8265 12.9991C32.5095 15.634 34.5049 24.4561 34.867 25.4265C35.4504 23.3657 34.6629 26.3152 38.1142 13.1576C38.3524 12.2473 38.5808 12.0672 39.5166 12.0672H40.953C41.5679 12.0792 41.7502 12.2689 41.6019 12.867C41.3273 13.9382 41.2714 13.9815 36.8989 27.826C36.5441 28.9405 36.4201 29.0413 35.2365 29.0413H34.0285C33.1973 29.0413 32.981 28.8948 32.7768 28.095C32.2859 26.272 30.1227 17.3225 29.7679 16.0615V16.0567ZM14.3002 28.573C14.4655 28.9068 14.8058 29.1326 15.1995 29.1326C15.4766 29.1326 15.7245 29.0221 15.9068 28.842L16.6238 28.3688C17.4015 27.862 17.455 27.6603 17.0345 26.8484C16.5825 25.9981 16.3151 24.9917 16.3151 23.9229C16.3151 23.8869 16.3151 23.8508 16.3151 23.8148V23.8196C16.3151 23.4689 16.3832 17.5507 16.213 16.3017C16.0623 14.212 14.5968 12.4971 12.6378 11.9519L12.6038 11.9447C11.7458 11.7093 10.7614 11.5748 9.74307 11.5748C9.43683 11.5748 9.13059 11.5868 8.83164 11.6108L8.87052 11.6084C7.08168 11.678 5.41923 12.1464 3.94878 12.9222L4.00955 12.8934C3.78837 13.0111 3.6231 13.2057 3.54532 13.4386L3.54289 13.4458C3.4797 13.7293 3.44324 14.0559 3.44324 14.3898C3.44324 14.5363 3.45053 14.6828 3.46269 14.8269L3.46026 14.8077C3.52831 15.473 3.75678 15.5955 4.39356 15.3842C4.97688 15.192 5.53346 14.947 6.11435 14.7765C6.95287 14.4691 7.9202 14.2913 8.93129 14.2913C9.71633 14.2913 10.4746 14.3994 11.1941 14.5988L11.1357 14.5843C11.9062 14.8125 12.5065 15.3866 12.7593 16.1192L12.7642 16.136C12.9513 16.7557 13.0607 17.4666 13.0607 18.204C13.0607 18.4298 13.051 18.6556 13.0315 18.8765L13.034 18.8477C13.034 19.4674 13.0218 19.4674 12.4069 19.3545C11.3618 19.0975 10.1635 18.9486 8.92886 18.9486C8.47435 18.9486 8.02228 18.9678 7.5775 19.0086L7.63584 19.0038C5.8713 19.1311 4.33037 19.979 3.29255 21.2448L3.28283 21.2568C2.6509 22.1215 2.27175 23.2047 2.27175 24.3745C2.27175 24.8476 2.33251 25.304 2.44917 25.7411L2.44188 25.7027C2.69465 27.3408 3.87101 28.6522 5.41923 29.1182L5.4484 29.1254C6.12893 29.3656 6.91398 29.5049 7.73306 29.5049C9.35419 29.5049 10.8489 28.9597 12.035 28.0446L12.0204 28.0566C12.4531 27.7419 12.8419 27.36 13.2843 26.9853C13.6391 27.5474 13.9454 28.0758 14.2978 28.561L14.3002 28.573ZM12.5503 21.6387H12.5624C12.8322 21.6387 13.051 21.8549 13.051 22.1215C13.051 22.1551 13.0485 22.1863 13.0412 22.22V22.2176C13.0169 22.6451 13.0534 23.0726 13.0072 23.5002C12.8857 24.7564 12.0909 25.8036 10.9899 26.296L10.968 26.3056C10.2535 26.6755 9.41009 26.894 8.51324 26.894C8.33096 26.894 8.1511 26.8844 7.97367 26.8676L7.99555 26.87C6.70982 26.7956 5.69631 25.7483 5.69631 24.4657C5.69631 24.2688 5.72061 24.0766 5.76679 23.8917L5.76436 23.9085C5.82755 22.5923 6.88238 21.5378 8.20457 21.4562H8.21186C8.72226 21.3745 9.31044 21.3289 9.90834 21.3289C10.8514 21.3289 11.7701 21.4442 12.6451 21.6603L12.5673 21.6435L12.5503 21.6387ZM52.2791 28.9669C54.2842 28.3016 55.7012 26.4617 55.7012 24.2952C55.7012 23.9565 55.6672 23.6251 55.6015 23.3056L55.6064 23.3368C55.3463 21.7684 54.2356 20.5098 52.7651 20.0246L52.736 20.015C50.5194 19.3281 48.7038 18.6339 46.9441 17.8413L47.2577 17.9686C46.7497 17.7164 46.4046 17.212 46.3924 16.626C46.3778 16.5371 46.3705 16.4338 46.3705 16.3305C46.3705 15.3241 47.1434 14.4979 48.1351 14.397H48.1424C48.6552 14.2769 49.2434 14.2096 49.8486 14.2096C50.376 14.2096 50.8937 14.2625 51.3919 14.361L51.3433 14.3538C52.1745 14.5123 52.9717 14.8269 53.7811 15.0623C54.0995 15.1632 54.4543 15.2977 54.6707 14.8822C54.7825 14.6492 54.8481 14.3754 54.8481 14.0896C54.8481 13.3738 54.4446 12.7517 53.8491 12.4346L53.8394 12.4298C52.6388 11.863 51.2291 11.5339 49.7416 11.5339C48.4146 11.5339 47.1507 11.7981 45.9987 12.2737L46.0619 12.2497C44.2998 12.9414 43.0772 14.6132 43.0772 16.5659C43.0772 18.437 44.2001 20.0511 45.8164 20.7812L45.8456 20.7932C46.723 21.2112 47.6781 21.4586 48.6017 21.7948C49.5253 22.1311 50.4465 22.4481 51.3482 22.818C51.9704 23.1591 52.386 23.8052 52.386 24.5474C52.386 25.2343 52.0311 25.8372 51.4916 26.1903L51.4843 26.1951C48.3295 27.9245 44.0956 25.9237 43.6022 25.7676C43.2279 25.6451 42.9994 25.7916 42.8852 26.1855C42.7929 26.3993 42.7394 26.6491 42.7394 26.9109C42.7394 27.7972 43.3592 28.5417 44.1952 28.7387L44.2074 28.7411C45.498 29.2527 46.9927 29.5481 48.558 29.5481C49.885 29.5481 51.1635 29.3344 52.3568 28.9405L52.2718 28.9645L52.2791 28.9669ZM33.7247 47.2813C39.7961 46.6376 45.3084 44.7545 50.1621 41.8915L49.9774 41.9924C50.8888 41.4639 51.7419 40.8394 52.6072 40.2246C53.4384 39.6481 52.9717 38.1541 51.319 38.8507C45.6219 41.3222 39.0062 42.9027 32.0574 43.2245L31.9334 43.2293C31.2043 43.2654 30.3512 43.2846 29.4932 43.2846C26.6933 43.2846 23.942 43.0732 21.2563 42.6649L21.5552 42.7033C13.9794 41.6249 7.15703 39.2014 1.06866 35.673L1.33358 35.8147C1.1197 35.673 0.874216 35.5577 0.611723 35.4808L0.59228 35.476C0.0332671 35.3535 -0.285127 36.0044 0.317634 36.5665C7.7768 43.3831 17.7904 47.5624 28.7932 47.5624H28.8273H28.8248C30.4654 47.4711 32.106 47.4615 33.7223 47.2813H33.7247ZM53.6231 36.9051C55.3099 36.9964 55.8324 37.5705 55.412 39.1773C54.9793 40.8443 54.3523 42.4655 53.8297 44.1084C53.7276 44.4351 53.3509 44.817 53.7373 45.1004C54.1603 45.3934 54.4786 44.9875 54.763 44.7305C55.8689 43.6905 56.739 42.4199 57.3004 40.9956L57.3247 40.9259C57.9518 39.5712 58.3164 37.986 58.3164 36.3167C58.3164 36.2783 58.3164 36.2422 58.3164 36.2038V36.2086C58.2921 35.512 58.1122 35.2166 57.4268 35.0269C56.8824 34.8611 56.2432 34.7338 55.5869 34.6714L55.5481 34.669C55.1033 34.6137 54.5904 34.5825 54.0679 34.5825C52.036 34.5825 50.1159 35.0557 48.4121 35.8939L48.4851 35.8603C48.1083 36.0621 47.7827 36.2831 47.4837 36.5329L47.4934 36.5256C47.3695 36.6265 47.1288 37.1213 47.7681 37.2126C47.8264 37.2174 47.8969 37.2198 47.9649 37.2198C48.1326 37.2198 48.2979 37.2054 48.4559 37.1766L48.4389 37.179C49.7173 36.9988 51.1951 36.8955 52.6947 36.8955C53.0204 36.8955 53.3436 36.9003 53.6669 36.9099H53.6207L53.6231 36.9051Z" fill="white"/>
</g>
<defs>
<clipPath id="clip0_3515_7136">
<rect width="58.3317" height="57.6455" fill="white"/>
</clipPath>
</defs>
</svg>
