<svg width="33" height="46" viewBox="0 0 33 46" fill="none" xmlns="http://www.w3.org/2000/svg">
<g clip-path="url(#clip0_3515_7174)">
<path d="M53.0976 40.3523C57.586 42.3817 62.8968 42.4035 67.1763 40.1347C70.4525 38.3984 73.0122 36.0775 75.7235 33.5129C74.4981 36.3415 72.362 38.4811 70.12 40.4017C66.9777 43.0925 63.1719 44.7447 59.0542 45.2785C57.6978 45.2567 56.4253 45.3481 55.0983 45.2321C51.9339 44.9579 49.0564 43.7162 46.5261 41.8711C40.2958 45.1944 33.1962 45.6629 27.0528 41.9465C23.4632 43.7931 19.6118 44.8085 15.628 44.4981C9.99944 44.0586 5.00938 41.1023 2.21423 36.2849C-1.85785 29.2641 0.101694 20.8058 4.72398 14.4987C8.40768 9.47241 13.2874 5.40499 18.9159 2.64164C24.5739 -0.136223 31.8251 -1.43739 36.6886 3.4351C40.3517 1.44346 44.796 -0.139124 48.9976 0.210466C51.6603 0.462867 54.1038 1.47682 55.9781 3.41479C62.4849 -0.163783 72.0766 -2.49486 76.9946 4.64489C78.4584 6.77143 80.209 10.102 79.4043 12.7681C78.6408 9.46951 77.3506 6.27534 75.0277 3.70636C73.0402 1.50728 70.2303 0.531044 67.2763 0.741378C60.3414 1.23312 53.3065 7.55765 49.2888 12.8871L44.8416 12.8726C47.7368 9.12572 51.2616 6.20861 55.269 3.82531C50.5452 -0.73096 43.9251 0.958964 38.963 3.98487C34.1495 6.91939 30.2451 11.0173 27.3911 15.8332C25.3948 19.2014 24.24 22.8743 24.0722 26.7517C23.8354 32.1957 26.4569 37.1132 31.2484 39.82C35.6118 42.2845 40.8578 42.8169 45.7096 41.1922C43.3175 39.086 41.564 36.5141 40.5798 33.3301L45.8935 33.2967C47.4411 36.3632 49.7714 38.851 53.0991 40.3552L53.0976 40.3523ZM25.9156 41.1864C21.3889 37.7514 19.0513 32.5294 19.3793 26.8924C19.9546 17.0067 27.7515 8.75873 35.9398 3.84272C31.0469 -0.915183 24.0149 1.09242 18.9542 4.39103C14.1789 7.50253 10.2819 11.7107 7.56767 16.6905C4.5548 22.2186 3.14546 30.0431 6.97039 35.5147C11.0998 41.359 19.0601 42.93 25.9156 41.1879V41.1864Z" fill="white"/>
</g>
<defs>
<clipPath id="clip0_3515_7174">
<rect width="109.115" height="45.2929" fill="white"/>
</clipPath>
</defs>
</svg>
