<svg width="302" height="37" viewBox="0 0 302 37" fill="none" xmlns="http://www.w3.org/2000/svg">
<path d="M4.43204 1.09091L14.7957 30.4773H15.2048L25.5684 1.09091H30.0002L17.182 36H12.8184L0.000222027 1.09091H4.43204ZM34.8923 36V9.81818H38.915V36H34.8923ZM36.9377 5.45455C36.1536 5.45455 35.4775 5.1875 34.9093 4.65341C34.3525 4.11932 34.0741 3.47727 34.0741 2.72727C34.0741 1.97727 34.3525 1.33523 34.9093 0.801135C35.4775 0.267045 36.1536 0 36.9377 0C37.7218 0 38.3923 0.267045 38.9491 0.801135C39.5173 1.33523 39.8014 1.97727 39.8014 2.72727C39.8014 3.47727 39.5173 4.11932 38.9491 4.65341C38.3923 5.1875 37.7218 5.45455 36.9377 5.45455ZM57.2602 36.5455C54.7374 36.5455 52.5613 35.9886 50.7318 34.875C48.9136 33.75 47.5102 32.1818 46.5215 30.1705C45.5443 28.1477 45.0556 25.7955 45.0556 23.1136C45.0556 20.4318 45.5443 18.0682 46.5215 16.0227C47.5102 13.9659 48.8852 12.3636 50.6465 11.2159C52.4193 10.0568 54.4874 9.47727 56.8511 9.47727C58.2147 9.47727 59.5613 9.70455 60.8908 10.1591C62.2204 10.6136 63.4306 11.3523 64.5215 12.375C65.6124 13.3864 66.4818 14.7273 67.1295 16.3977C67.7772 18.0682 68.1011 20.125 68.1011 22.5682V24.2727H47.9193V20.7955H64.0102C64.0102 19.3182 63.7147 18 63.1238 16.8409C62.5443 15.6818 61.7147 14.767 60.6352 14.0966C59.567 13.4261 58.3056 13.0909 56.8511 13.0909C55.2488 13.0909 53.8624 13.4886 52.692 14.2841C51.5329 15.0682 50.6408 16.0909 50.0158 17.3523C49.3908 18.6136 49.0783 19.9659 49.0783 21.4091V23.7273C49.0783 25.7045 49.4193 27.3807 50.1011 28.7557C50.7943 30.1193 51.7545 31.1591 52.9818 31.875C54.209 32.5795 55.6352 32.9318 57.2602 32.9318C58.317 32.9318 59.2715 32.7841 60.1238 32.4886C60.9874 32.1818 61.7318 31.7273 62.3568 31.125C62.9818 30.5114 63.4647 29.75 63.8056 28.8409L67.692 29.9318C67.2829 31.25 66.5954 32.4091 65.6295 33.4091C64.6636 34.3977 63.4704 35.1705 62.0499 35.7273C60.6295 36.2727 59.0329 36.5455 57.2602 36.5455ZM80.1522 36L72.1749 9.81818H76.4022L82.0613 29.8636H82.334L87.9249 9.81818H92.2204L97.7431 29.7955H98.0158L103.675 9.81818H107.902L99.9249 36H95.9704L90.2431 15.8864H89.834L84.1068 36H80.1522ZM127.266 36V1.09091H139.061C141.789 1.09091 144.027 1.55682 145.777 2.48864C147.527 3.40909 148.823 4.67614 149.664 6.28977C150.504 7.90341 150.925 9.73864 150.925 11.7955C150.925 13.8523 150.504 15.6761 149.664 17.267C148.823 18.858 147.533 20.108 145.794 21.017C144.056 21.9148 141.834 22.3636 139.129 22.3636H129.584V18.5455H138.993C140.857 18.5455 142.357 18.2727 143.493 17.7273C144.641 17.1818 145.47 16.4091 145.982 15.4091C146.504 14.3977 146.766 13.1932 146.766 11.7955C146.766 10.3977 146.504 9.17614 145.982 8.13068C145.459 7.08523 144.624 6.27841 143.476 5.71023C142.328 5.13068 140.811 4.84091 138.925 4.84091H131.493V36H127.266ZM143.698 20.3182L152.289 36H147.379L138.925 20.3182H143.698ZM168.12 36.5455C165.597 36.5455 163.421 35.9886 161.591 34.875C159.773 33.75 158.37 32.1818 157.381 30.1705C156.404 28.1477 155.915 25.7955 155.915 23.1136C155.915 20.4318 156.404 18.0682 157.381 16.0227C158.37 13.9659 159.745 12.3636 161.506 11.2159C163.279 10.0568 165.347 9.47727 167.71 9.47727C169.074 9.47727 170.421 9.70455 171.75 10.1591C173.08 10.6136 174.29 11.3523 175.381 12.375C176.472 13.3864 177.341 14.7273 177.989 16.3977C178.637 18.0682 178.96 20.125 178.96 22.5682V24.2727H158.779V20.7955H174.87C174.87 19.3182 174.574 18 173.983 16.8409C173.404 15.6818 172.574 14.767 171.495 14.0966C170.426 13.4261 169.165 13.0909 167.71 13.0909C166.108 13.0909 164.722 13.4886 163.551 14.2841C162.392 15.0682 161.5 16.0909 160.875 17.3523C160.25 18.6136 159.938 19.9659 159.938 21.4091V23.7273C159.938 25.7045 160.279 27.3807 160.96 28.7557C161.654 30.1193 162.614 31.1591 163.841 31.875C165.068 32.5795 166.495 32.9318 168.12 32.9318C169.176 32.9318 170.131 32.7841 170.983 32.4886C171.847 32.1818 172.591 31.7273 173.216 31.125C173.841 30.5114 174.324 29.75 174.665 28.8409L178.551 29.9318C178.142 31.25 177.455 32.4091 176.489 33.4091C175.523 34.3977 174.33 35.1705 172.909 35.7273C171.489 36.2727 169.892 36.5455 168.12 36.5455ZM203.625 15.6818L200.012 16.7045C199.784 16.1023 199.449 15.517 199.006 14.9489C198.574 14.3693 197.983 13.892 197.233 13.517C196.483 13.142 195.523 12.9545 194.352 12.9545C192.75 12.9545 191.415 13.3239 190.347 14.0625C189.29 14.7898 188.762 15.7159 188.762 16.8409C188.762 17.8409 189.125 18.6307 189.852 19.2102C190.58 19.7898 191.716 20.2727 193.262 20.6591L197.148 21.6136C199.489 22.1818 201.233 23.0511 202.381 24.2216C203.529 25.3807 204.102 26.875 204.102 28.7045C204.102 30.2045 203.671 31.5455 202.807 32.7273C201.955 33.9091 200.762 34.8409 199.227 35.5227C197.693 36.2045 195.909 36.5455 193.875 36.5455C191.205 36.5455 188.995 35.9659 187.245 34.8068C185.495 33.6477 184.387 31.9545 183.921 29.7273L187.739 28.7727C188.102 30.1818 188.79 31.2386 189.801 31.9432C190.824 32.6477 192.159 33 193.807 33C195.682 33 197.171 32.6023 198.273 31.8068C199.387 31 199.943 30.0341 199.943 28.9091C199.943 28 199.625 27.2386 198.989 26.625C198.352 26 197.375 25.5341 196.057 25.2273L191.693 24.2045C189.296 23.6364 187.534 22.7557 186.409 21.5625C185.296 20.358 184.739 18.8523 184.739 17.0455C184.739 15.5682 185.154 14.2614 185.983 13.125C186.824 11.9886 187.966 11.0966 189.409 10.4489C190.864 9.80114 192.512 9.47727 194.352 9.47727C196.943 9.47727 198.977 10.0455 200.455 11.1818C201.943 12.3182 203 13.8182 203.625 15.6818ZM226.658 25.2955V9.81818H230.681V36H226.658V31.5682H226.385C225.772 32.8977 224.817 34.0284 223.522 34.9602C222.226 35.8807 220.59 36.3409 218.612 36.3409C216.976 36.3409 215.522 35.983 214.249 35.267C212.976 34.5398 211.976 33.4489 211.249 31.9943C210.522 30.5284 210.158 28.6818 210.158 26.4545V9.81818H214.181V26.1818C214.181 28.0909 214.715 29.6136 215.783 30.75C216.862 31.8864 218.237 32.4545 219.908 32.4545C220.908 32.4545 221.925 32.1989 222.959 31.6875C224.004 31.1761 224.879 30.392 225.584 29.3352C226.3 28.2784 226.658 26.9318 226.658 25.2955ZM238.049 36V9.81818H241.935V13.9091H242.276C242.821 12.5114 243.702 11.4261 244.918 10.6534C246.134 9.86932 247.594 9.47727 249.299 9.47727C251.026 9.47727 252.463 9.86932 253.611 10.6534C254.77 11.4261 255.674 12.5114 256.321 13.9091H256.594C257.264 12.5568 258.27 11.483 259.611 10.6875C260.952 9.88068 262.56 9.47727 264.435 9.47727C266.776 9.47727 268.691 10.2102 270.179 11.6761C271.668 13.1307 272.412 15.3977 272.412 18.4773V36H268.389V18.4773C268.389 16.5455 267.861 15.1648 266.804 14.3352C265.747 13.5057 264.503 13.0909 263.071 13.0909C261.23 13.0909 259.804 13.6477 258.793 14.7614C257.781 15.8636 257.276 17.2614 257.276 18.9545V36H253.185V18.0682C253.185 16.5795 252.702 15.3807 251.736 14.4716C250.77 13.5511 249.526 13.0909 248.003 13.0909C246.958 13.0909 245.98 13.3693 245.071 13.9261C244.174 14.483 243.446 15.2557 242.889 16.2443C242.344 17.2216 242.071 18.3523 242.071 19.6364V36H238.049ZM290.745 36.5455C288.222 36.5455 286.046 35.9886 284.216 34.875C282.398 33.75 280.995 32.1818 280.006 30.1705C279.029 28.1477 278.54 25.7955 278.54 23.1136C278.54 20.4318 279.029 18.0682 280.006 16.0227C280.995 13.9659 282.37 12.3636 284.131 11.2159C285.904 10.0568 287.972 9.47727 290.335 9.47727C291.699 9.47727 293.046 9.70455 294.375 10.1591C295.705 10.6136 296.915 11.3523 298.006 12.375C299.097 13.3864 299.966 14.7273 300.614 16.3977C301.262 18.0682 301.585 20.125 301.585 22.5682V24.2727H281.404V20.7955H297.495C297.495 19.3182 297.199 18 296.608 16.8409C296.029 15.6818 295.199 14.767 294.12 14.0966C293.051 13.4261 291.79 13.0909 290.335 13.0909C288.733 13.0909 287.347 13.4886 286.176 14.2841C285.017 15.0682 284.125 16.0909 283.5 17.3523C282.875 18.6136 282.563 19.9659 282.563 21.4091V23.7273C282.563 25.7045 282.904 27.3807 283.585 28.7557C284.279 30.1193 285.239 31.1591 286.466 31.875C287.693 32.5795 289.12 32.9318 290.745 32.9318C291.801 32.9318 292.756 32.7841 293.608 32.4886C294.472 32.1818 295.216 31.7273 295.841 31.125C296.466 30.5114 296.949 29.75 297.29 28.8409L301.176 29.9318C300.767 31.25 300.08 32.4091 299.114 33.4091C298.148 34.3977 296.955 35.1705 295.534 35.7273C294.114 36.2727 292.517 36.5455 290.745 36.5455Z" fill="white"/>
</svg>
