<svg width="57" height="33" viewBox="0 0 57 33" fill="none" xmlns="http://www.w3.org/2000/svg">
<g clip-path="url(#clip0_3573_1112)">
<mask id="mask0_3573_1112" style="mask-type:luminance" maskUnits="userSpaceOnUse" x="0" y="0" width="57" height="33">
<path d="M56.9592 0H0V32.9403H56.9592V0Z" fill="white"/>
</mask>
<g mask="url(#mask0_3573_1112)">
<path d="M54.5982 0H41.6392L20.7441 32.9403H33.5692L54.5982 0Z" fill="white"/>
<path d="M33.5361 0H20.644L41.6229 32.9403H54.4981L33.5361 0Z" fill="white"/>
<path d="M0 0V32.9403H11.3684V22.2195H22.5359V13.2573H11.3684V9.28347H33.2681V0H0Z" fill="white"/>
<path d="M54.7657 31.3339C54.8327 31.1986 54.9164 31.0802 55.0169 30.9788C55.1173 30.8773 55.2513 30.7927 55.3852 30.742C55.5191 30.6913 55.6698 30.6575 55.8373 30.6575C55.9879 30.6575 56.1386 30.6913 56.2726 30.742C56.4065 30.7927 56.5405 30.8773 56.6409 30.9788C56.7414 31.0802 56.8251 31.1986 56.8921 31.3339C56.959 31.4691 56.9758 31.6213 56.9758 31.7904C56.9758 31.9595 56.9423 32.1117 56.8921 32.247C56.8251 32.3823 56.7414 32.5175 56.6409 32.619C56.5405 32.7205 56.4233 32.805 56.2726 32.8557C56.1386 32.9065 55.9879 32.9403 55.8373 32.9403C55.6866 32.9403 55.5359 32.9065 55.3852 32.8557C55.2513 32.805 55.1173 32.7205 55.0169 32.619C54.9164 32.5175 54.8327 32.3992 54.7657 32.247C54.6987 32.1117 54.682 31.9595 54.682 31.7904C54.6653 31.6213 54.6987 31.4691 54.7657 31.3339ZM54.9499 32.1794C55.0001 32.2977 55.0671 32.3992 55.1508 32.4837C55.2345 32.5683 55.335 32.6359 55.4522 32.6866C55.5694 32.7374 55.6866 32.7543 55.8205 32.7543C55.9545 32.7543 56.0717 32.7374 56.1889 32.6866C56.3061 32.6359 56.4065 32.5683 56.4902 32.4837C56.5739 32.3992 56.6409 32.2977 56.6911 32.1794C56.7414 32.061 56.7581 31.9257 56.7581 31.7904C56.7581 31.6551 56.7414 31.5199 56.6911 31.4015C56.6409 31.2831 56.5739 31.1817 56.4902 31.0971C56.4065 31.0126 56.3061 30.9449 56.1889 30.8942C56.0717 30.8435 55.9545 30.8266 55.8205 30.8266C55.6866 30.8266 55.5694 30.8435 55.4522 30.8942C55.335 30.9449 55.2345 31.0126 55.1508 31.0971C55.0671 31.1817 55.0001 31.2831 54.9499 31.4015C54.8997 31.5199 54.8829 31.6551 54.8829 31.7904C54.8829 31.9257 54.8997 32.061 54.9499 32.1794ZM55.8875 31.114C56.0549 31.114 56.1554 31.1479 56.2391 31.2155C56.3228 31.2831 56.3563 31.3677 56.3563 31.503C56.3563 31.6213 56.3228 31.7059 56.2558 31.7735C56.1889 31.8242 56.1051 31.8581 56.0047 31.875L56.3898 32.4668H56.1721L55.8038 31.8919H55.5861V32.4668H55.3852V31.114H55.8875ZM55.8038 31.7228C55.854 31.7228 55.8875 31.7228 55.9377 31.7228C55.9879 31.7228 56.0214 31.7059 56.0549 31.689C56.0884 31.6721 56.1051 31.6551 56.1386 31.6213C56.1554 31.5875 56.1721 31.5537 56.1721 31.503C56.1721 31.4522 56.1554 31.4184 56.1386 31.4015C56.1219 31.3677 56.1051 31.3508 56.0717 31.3339C56.0382 31.317 56.0047 31.317 55.9712 31.3C55.9377 31.3 55.9042 31.2831 55.8707 31.2831H55.5861V31.7059H55.8038V31.7228Z" fill="white"/>
</g>
</g>
<defs>
<clipPath id="clip0_3573_1112">
<rect width="57" height="33" fill="white"/>
</clipPath>
</defs>
</svg>
