<svg width="159" height="32" viewBox="0 0 159 32" fill="none" xmlns="http://www.w3.org/2000/svg">
<path fill-rule="evenodd" clip-rule="evenodd" d="M4.07293 3.12375L0 25.0304H5.05427L9.4367 2.11084L4.07293 3.12375Z" fill="white"/>
<path fill-rule="evenodd" clip-rule="evenodd" d="M25.8408 14.1446C25.8408 20.43 21.5551 25.03 15.5868 25.03C11.2318 25.03 8.31934 22.1848 8.31934 17.9348C8.31934 11.9671 12.4623 7.08716 18.5713 7.08716C23.1713 7.08716 25.8408 10.2467 25.8408 14.1446M13.5531 17.8306C13.5531 19.8337 14.5351 21.1671 16.2906 21.1671C19.0637 21.1671 20.6098 17.1292 20.6098 14.1776C20.6098 12.5979 19.9407 10.9138 17.9046 10.9138C14.9894 10.9138 13.516 15.1631 13.5531 17.8306" fill="white"/>
<path fill-rule="evenodd" clip-rule="evenodd" d="M41.7559 24.6439L43.9333 13.0551C44.3561 10.8797 44.6354 8.98421 44.8461 7.47376H49.341L48.9883 10.3183H49.059C50.6751 8.06943 52.8162 7.0874 55.0994 7.0874C57.9089 7.0874 59.4887 8.80853 59.4887 11.756C59.4887 12.5301 59.348 13.8299 59.206 14.6719L57.3112 24.6439H52.2549L54.0446 15.1283C54.1517 14.5312 54.2196 13.8299 54.2196 13.1971C54.2196 12.0017 53.799 11.1596 52.5376 11.1596C50.8844 11.1596 48.9547 13.2328 48.2533 17.0237L46.8122 24.6439H41.7559Z" fill="white"/>
<path fill-rule="evenodd" clip-rule="evenodd" d="M103.658 23.6602C101.655 24.6786 99.1628 25.03 97.2687 25.03C92.3517 25.03 89.8242 22.2225 89.8242 17.7619C89.8242 12.5299 93.6172 7.08716 99.8312 7.08716C103.306 7.08716 105.8 9.01897 105.8 12.2135C105.8 16.6007 101.55 18.1832 94.6712 18.0075C94.6712 18.4996 94.8462 19.2709 95.1942 19.7623C95.8605 20.6407 97.0224 21.0984 98.4964 21.0984C100.355 21.0984 101.936 20.6757 103.306 20.0094L103.658 23.6602ZM101.059 12.2137C101.059 11.3717 100.356 10.7739 99.1974 10.7739C96.8436 10.7739 95.5115 12.7058 95.1616 14.3212C99.0931 14.3541 101.059 13.7948 101.059 12.2508V12.2137Z" fill="white"/>
<path fill-rule="evenodd" clip-rule="evenodd" d="M103.506 31.1571L106.752 14.1099C107.14 12.073 107.558 9.08784 107.772 7.33308H112.298L111.983 9.96624H112.052C113.46 8.10581 115.496 7.0874 117.567 7.0874C121.289 7.0874 123.081 10.0719 123.081 13.5835C123.081 19.5525 119.113 25.0296 113.144 25.0296C111.737 25.0296 110.544 24.6782 109.948 24.3275H109.878L108.705 30.0008L103.506 31.1571ZM110.649 20.3596C111.213 20.8866 111.983 21.2037 112.968 21.2037C115.672 21.2037 117.78 17.3387 117.78 13.9692C117.78 12.6001 117.217 11.1597 115.568 11.1597C113.67 11.1597 111.914 13.3028 111.283 16.6717L110.649 20.3596Z" fill="white"/>
<path fill-rule="evenodd" clip-rule="evenodd" d="M141.162 14.1449C141.162 20.4303 136.881 25.0302 130.91 25.0302C126.557 25.0302 123.642 22.185 123.642 17.935C123.642 11.9674 127.783 7.0874 133.894 7.0874C138.494 7.0874 141.162 10.2469 141.162 14.1449M128.872 17.8307C128.872 19.8339 129.856 21.1673 131.612 21.1673C134.385 21.1673 135.93 17.1307 135.93 14.1778C135.93 12.6007 135.264 10.9139 133.23 10.9139C130.311 10.9139 128.837 15.1632 128.872 17.8307" fill="white"/>
<path fill-rule="evenodd" clip-rule="evenodd" d="M150.785 2.80469L149.907 7.47328H153.558L152.821 11.2998H149.171L148.011 17.1303C147.871 17.7973 147.73 18.71 147.73 19.3064C147.73 20.1484 148.081 20.7462 149.171 20.7462C149.626 20.7462 150.118 20.7462 150.575 20.6748L149.976 24.6434C149.346 24.8898 148.081 25.0298 146.994 25.0298C143.975 25.0298 142.534 23.45 142.534 21.3075C142.534 20.3598 142.641 19.4471 142.886 18.1109L144.22 11.2998H142.043L142.745 7.47328H144.957L145.588 4.24377L150.785 2.80469Z" fill="white"/>
<path fill-rule="evenodd" clip-rule="evenodd" d="M40.7748 20.4657C40.4235 22.1175 40.1593 23.6959 40.1318 24.6436H35.3225L35.3726 22.9239H35.2663C33.8498 24.2923 31.9379 25.0307 29.9039 25.0307C26.4245 25.0307 24.8921 22.5011 25.4741 19.7623C26.4225 15.3037 30.8804 13.1626 36.9469 13.1955L37.0004 12.9512C37.194 12.0371 36.9785 10.7387 34.3446 10.7387C32.5885 10.7387 30.6025 11.3351 29.3281 12.0371L29.0762 8.59623C30.411 7.92919 32.9426 7.08716 36.0699 7.08716C41.7919 7.08716 42.9009 10.4587 42.0444 14.4946L40.7748 20.4657ZM36.4149 16.3119C33.3542 16.2749 30.8185 17.003 30.3367 19.2656C30.0211 20.7623 30.8631 21.4925 32.1684 21.4925C33.6253 21.4925 35.0191 20.5331 35.6552 19.3431C35.7973 19.0364 35.9085 18.6898 35.9805 18.346L36.4149 16.3119Z" fill="white"/>
<path fill-rule="evenodd" clip-rule="evenodd" d="M58.6826 23.6229L65.0071 7.11504C65.0071 7.11504 68.12 6.29222 71.4099 5.80566C68.1701 12.5687 66.2143 18.848 66.2143 19.8169C66.2143 20.7859 66.4943 22.5709 70.6646 22.5709C75.6146 22.5709 81.8959 19.5383 81.8959 14.904C81.8959 21.0961 75.2811 25.0133 67.9944 25.0133C62.5613 25.0133 58.6826 23.6229 58.6826 23.6229" fill="white"/>
<path fill-rule="evenodd" clip-rule="evenodd" d="M81.8961 14.9039C81.8961 21.0967 75.2812 25.0139 67.9946 25.0139C62.5608 25.0139 58.7432 23.6228 58.7432 23.6228C58.7432 23.6228 62.0132 26.6986 70.3546 26.6986C78.6947 26.6986 88.4663 21.5174 88.4663 14.0187C88.4663 3.69464 73.6109 5.599 73.6109 5.599L71.3373 10.3891C71.3373 10.3891 73.4716 10.1441 75.2394 10.1441C77.725 10.1441 81.8961 11.24 81.8961 14.9039" fill="white"/>
<path fill-rule="evenodd" clip-rule="evenodd" d="M157.065 0.000244141C157.9 0.000244141 158.548 0.648069 158.548 1.45716C158.548 2.28273 157.9 2.92232 157.056 2.92232C156.221 2.92232 155.555 2.28273 155.555 1.45716C155.555 0.648069 156.221 0.000244141 157.056 0.000244141H157.065ZM157.048 0.293161C156.409 0.293161 155.928 0.81746 155.928 1.45705C155.928 2.10556 156.409 2.62094 157.065 2.62094C157.706 2.62986 158.176 2.10556 158.176 1.45705C158.176 0.81746 157.706 0.293161 157.056 0.293161H157.048ZM156.826 2.21191H156.488V0.763907C156.621 0.737143 156.808 0.710379 157.048 0.710379C157.323 0.710379 157.448 0.755672 157.554 0.826357C157.635 0.88812 157.696 1.0041 157.696 1.13654C157.696 1.30605 157.571 1.43026 157.395 1.48379V1.50163C157.536 1.54555 157.617 1.66084 157.66 1.85711C157.706 2.07877 157.731 2.16799 157.768 2.21191H157.403C157.359 2.15838 157.332 2.03417 157.288 1.86535C157.261 1.70545 157.173 1.63477 156.987 1.63477H156.826V2.21191ZM156.834 1.39465H156.994C157.181 1.39465 157.331 1.33288 157.331 1.18122C157.331 1.04809 157.234 0.95956 157.02 0.95956C156.932 0.95956 156.869 0.968481 156.834 0.977402V1.39465Z" fill="white"/>
</svg>
