<svg width="256" height="131" viewBox="0 0 256 131" fill="none" xmlns="http://www.w3.org/2000/svg">
<g clip-path="url(#clip0_272_1546)">
<path d="M84.9198 64.4708C84.3903 60.8158 84.3591 59.9644 83.9334 56.299C83.5077 52.6648 83.4142 49.0514 83.5077 45.4068C83.5285 44.5865 83.5388 43.7558 83.5077 42.9251C83.5908 37.8372 84.2657 36.3213 83.9542 33.2893C83.8815 32.604 83.8503 31.9291 83.8192 31.2438C83.8815 31.0984 83.9334 30.9426 83.9542 30.7973C84.0372 30.1639 83.8919 29.5616 83.705 28.9698C83.6738 28.5752 83.6427 28.1806 83.6011 27.7757C83.5596 27.4434 83.5181 27.1008 83.4765 26.7685C83.5181 26.6958 83.5596 26.6231 83.5492 26.54C83.4765 24.2972 83.1131 22.0752 82.6874 19.905C82.4901 18.8771 82.9989 17.9737 83.1546 17.1223C83.3935 15.8555 82.9366 14.381 83.84 13.1973C84.0684 12.8962 85.8855 12.5639 86.332 12.5951C86.7681 12.6262 88.2322 13.1246 88.7929 13.2181C89.0628 13.2596 89.3536 13.0831 89.582 13.1662C89.7793 13.2388 90.2673 14.0487 90.2985 14.2149C90.3504 14.4849 89.8312 14.9936 89.7689 15.4713C89.5612 16.9042 89.9973 19.5416 90.205 21.0472C90.34 22.0129 90.1946 22.1063 90.205 22.9058C90.205 23.5808 90.0908 24.8995 90.1427 25.6471C90.3192 28.2222 90.1219 30.5584 90.1427 33.0816C90.1427 33.2893 90.1739 34.1511 90.1946 34.3069C89.5405 38.3357 89.3743 39.5921 89.4574 42.6448C89.4055 42.8628 89.3743 43.0913 89.364 43.3197C89.3224 44.628 89.1251 44.8149 89.0524 45.6041C88.8552 45.6975 88.9382 47.2862 88.8448 47.4939C88.7617 47.7015 88.4398 48.688 88.4191 48.8956C88.2737 49.9755 87.9207 50.8581 87.8687 51.938C87.8272 52.8725 87.2976 53.5163 87.2873 54.4715L87.2353 54.9492V55.5514C87.3288 55.9771 87.3288 56.7974 87.2665 57.2232C87.1938 57.6489 87.2769 57.9085 87.1938 58.1473C87.0173 58.6249 87.1938 59.0922 86.8615 60.1305C86.9446 60.2967 86.7369 61.0235 86.6227 61.5531C86.4566 62.2903 86.4877 61.7192 86.197 63.1002C86.1243 63.4325 86.1762 66.0906 85.3663 66.0906C85.2936 65.613 84.9925 64.9277 84.9302 64.4708H84.9198Z" fill="#E36442"/>
<path d="M52.8652 4.97383C53.5297 5.62799 53.1248 5.71106 53.3428 6.11601C53.3636 6.15755 53.9139 6.4379 54.1216 6.6871C54.4954 7.12321 56.8213 10.1552 56.8836 10.4355C56.977 10.8405 57.1224 13.2287 57.1016 13.644C57.0809 14.0594 56.6863 14.2878 56.6032 14.5993C56.4371 15.2119 56.7174 16.188 56.2086 16.7383C56.001 16.9667 55.6479 16.9563 55.4922 17.1017C55.0042 17.5586 54.6511 18.4204 53.7997 18.41C52.7821 18.3893 51.7438 16.3022 51.5361 15.4196C51.37 14.7135 51.453 13.5817 51.2765 12.9691C51.2246 12.803 50.0305 10.6121 49.8747 10.394C49.4386 9.79176 48.5664 9.78137 48.068 9.30373C47.1335 8.38999 46.5313 7.40356 45.2022 6.69749C45.036 6.60404 42.0145 5.80451 41.8483 5.82528C41.568 5.85643 41.3084 6.21985 40.9034 6.3133C40.0001 6.53135 39.2732 6.3133 38.5568 6.34445C36.6774 6.42752 32.659 8.65996 31.1014 9.77099C29.5439 10.882 28.2148 11.91 26.8961 13.2494C26.1381 14.0282 24.861 15.4923 24.0926 16.1049C23.3242 16.7175 22.3274 17.0186 21.5487 17.7247C20.7699 18.4308 19.2747 20.9021 18.849 21.8989C18.3298 23.1137 17.2188 22.9268 16.4608 23.581C15.9727 24.0067 15.6197 25.1489 15.1317 25.7719C14.5917 26.4676 13.6884 26.831 13.3457 27.2463C13.2627 27.3502 12.2036 29.2192 12.027 29.5411C10.7603 31.8358 10.3241 33.5803 9.38963 35.9477C9.11966 36.633 8.30975 37.5364 8.16439 37.9828C7.7802 39.1666 8.36167 41.4925 7.51023 42.9461C7.35448 43.2265 6.87684 43.5172 6.8353 43.7249C6.80415 43.8703 7.43754 46.0508 7.51023 46.6219C7.5933 47.328 7.45831 48.0548 7.55176 48.7505C7.80096 50.7545 9.81536 54.0772 10.9679 55.832C11.1029 56.0397 14.2906 59.1547 14.5294 59.3312C15.0486 59.7258 17.8522 61.0653 18.5375 61.2937C20.0742 61.7921 23.6357 62.4151 25.1725 61.9686C26.3458 61.6364 28.4433 60.3592 29.4193 60.1515C29.9696 60.0373 30.3227 60.2242 30.6134 60.1827C30.8211 60.1515 31.1014 59.6635 31.5479 59.5701C33.4585 59.1443 34.8187 59.1236 36.6462 57.971C38.9098 56.5381 41.2461 55.209 43.2812 53.3919C44.0496 52.7066 44.5896 51.5021 45.8252 51.2321C46.2717 51.1387 46.0952 52.4781 46.0329 52.7066C45.9706 52.9246 43.9665 56.1539 43.6966 56.5173C43.4266 56.8807 40.9346 59.6012 40.7477 59.7258C40.3427 59.975 39.8132 59.9958 39.3251 60.2969C34.6318 63.2146 30.1669 67.7003 24.5495 69.0398C21.071 69.8704 15.817 68.1572 12.7643 66.392C9.44155 64.471 7.19872 61.5533 4.84168 58.594C2.30812 55.4063 1.26977 51.7409 0.677914 47.6914C0.345643 45.407 0.0964401 43.5484 0.574079 41.264C1.63319 36.2488 3.74103 30.6314 6.37843 26.2495C7.92557 23.6744 9.7219 21.1513 11.4248 18.6385C12.4631 17.1017 13.2834 16.6448 14.3114 15.3781C15.5989 13.7998 15.412 13.3117 17.333 11.8788C18.3506 11.1208 17.8729 11.0897 18.5167 10.3628C19.1605 9.636 20.7388 8.78456 21.5798 8.16155C22.6493 7.37241 23.7811 6.29253 25.0064 5.61761C25.4113 5.38917 26.107 5.34764 26.4289 5.09843C26.6989 4.88038 26.6573 4.43389 26.9273 4.26776C27.1973 4.10162 28.599 3.72782 28.9521 3.58245C29.8035 3.22941 30.6342 2.84522 31.496 2.50257C34.9018 1.14234 35.7844 0.498563 39.782 0.643931C40.7996 0.675082 42.4817 0.695849 43.437 0.965819C43.6862 1.0385 43.8316 1.36039 44.0185 1.39154C44.9011 1.52653 46.064 1.12157 47.445 1.48499C48.2238 1.69266 52.2837 4.36121 52.9067 4.98422L52.8652 4.97383Z" fill="#E36442"/>
<path d="M114.98 68.074C114.627 63.5053 114.159 58.9366 113.9 54.3575C113.651 49.8199 113.723 45.3135 113.983 40.7759C114.045 39.748 114.087 38.72 114.097 37.6817C114.409 31.3478 115.146 29.4787 114.98 25.6992C114.948 24.8477 114.938 23.9963 114.938 23.1448C115 22.9579 115.063 22.7814 115.094 22.5945C115.208 21.8054 115.094 21.0578 114.938 20.3101C114.938 19.8117 114.917 19.3237 114.897 18.8253C114.876 18.3996 114.845 17.9842 114.814 17.5585C114.865 17.4651 114.897 17.3716 114.897 17.2782C114.928 14.485 114.668 11.6919 114.346 8.98179C114.191 7.69424 114.741 6.5936 114.938 5.53448C115.229 3.9562 114.855 2.10794 115.8 0.675025C116.039 0.311604 117.845 -0.0414339 118.292 0.0104834C118.718 0.0624007 120.14 0.737325 120.701 0.87231C120.971 0.934611 121.262 0.726942 121.49 0.84116C121.677 0.934611 122.123 1.96257 122.144 2.18063C122.175 2.5129 121.656 3.12552 121.563 3.71738C121.293 5.49295 121.594 8.79489 121.739 10.6743C121.822 11.8788 121.677 11.993 121.646 12.9898C121.625 13.8309 121.449 15.4715 121.459 16.406C121.521 19.6145 121.21 22.5322 121.106 25.6576C121.106 25.9172 121.085 26.9971 121.106 27.184C120.275 32.1784 120.047 33.7463 119.995 37.5467C119.933 37.8167 119.891 38.097 119.87 38.3774C119.777 39.9972 119.569 40.2256 119.455 41.212C119.258 41.3263 119.258 43.2991 119.164 43.5691C119.071 43.8183 118.718 45.0435 118.676 45.3031C118.479 46.6322 118.261 47.8886 118.157 49.2281C118.064 50.391 117.264 50.931 117.306 52.2081L117.679 52.5819L117.077 53.6514C117.607 53.8279 117.648 55.3024 117.565 55.8216C117.482 56.3511 117.139 56.4653 117.046 56.7768C116.849 57.3583 117.42 58.7601 116.485 59.5388C117.16 59.7154 116.558 60.7329 116.527 61.4079C116.433 63.1627 116.195 64.9279 115.841 66.6411C115.758 67.0461 115.447 68.5725 115.135 69.8392C115.083 69.2474 115.032 68.6659 114.99 68.0844L114.98 68.074Z" fill="#E36442"/>
<path d="M141.103 23.7056C141.051 23.581 140.262 22.3246 140.148 22.1793C139.805 21.7328 138.061 20.0195 137.645 19.7392C135.828 18.4724 132.609 18.7424 130.595 18.8254C130.294 18.8358 129.993 18.6074 129.588 18.7216C129.349 18.7839 129.141 19.1785 129.017 19.1681C128.944 19.1681 128.695 18.8358 128.331 18.8047C127.148 18.6801 125.663 19.5523 124.531 18.5139L122.33 19.5003C122.33 19.3031 122.309 19.1058 122.257 18.9085C120.347 20.3622 118 21.2448 115.529 21.4836C115.227 22.5635 114.511 22.2935 113.379 23.0723C111.375 24.4533 109.382 26.1873 107.419 27.5683C107.284 27.6617 106.173 28.2017 106.049 28.2121C105.145 28.2225 105.488 27.776 105.239 27.4541C105.083 27.2568 104.813 27.1737 104.657 26.9661C103.993 26.0419 103.297 24.8478 102.747 23.8406L102.248 23.9964C101.563 22.4804 100.535 21.1825 99.5485 19.9053C99.3823 18.4516 98.4167 18.1609 97.6795 17.4444C97.5133 17.2783 97.5237 16.8006 97.2433 16.5618C97.181 16.5099 95.9246 15.8661 95.852 15.8454C95.7481 15.8246 94.4087 15.8454 94.3464 15.8973C93.9102 16.2192 94.1802 17.0291 94.1595 17.4237C94.0452 19.4588 94.2218 19.6146 94.5852 21.4317C94.6994 22.0339 94.2944 22.1793 94.6994 23.2176C95.3016 24.7232 96.6826 25.1386 96.8903 25.8135C96.9941 26.1561 96.828 26.4157 96.9215 26.7895C97.2953 28.2224 98.1259 28.4717 98.8424 29.375C100.026 30.8598 100.41 32.5316 102.362 33.3726C102.612 33.4765 102.954 33.3934 103.255 33.5492C103.546 33.6945 104.024 34.4421 104.553 34.5356C104.719 34.5667 106.36 34.5148 106.599 34.4733C107.492 34.3487 108.208 33.4661 108.457 32.6043C108.592 32.137 108.457 31.4621 108.717 31.0571C108.852 30.8598 109.288 30.8287 109.527 30.6106C110.545 29.7281 109.444 29.8734 111.084 29.5723C111.884 29.4269 113.244 27.8279 113.753 27.5475C113.94 27.4437 114.241 27.5683 114.449 27.4852C114.791 27.3502 115.29 26.7688 115.549 27.2153C115.934 27.8694 116.048 30.403 115.664 31.0675C114.168 31.9397 112.019 31.4102 112.102 33.8503C112.144 35.1378 113.566 37.2664 114.719 37.7441C115.176 37.931 115.996 37.8791 116.442 38.3359C116.889 38.2736 117.346 38.2217 117.803 38.1906C119.402 36.7576 121.271 35.7401 123.306 35.3351C123.482 34.6602 123.856 33.9334 124.23 33.6426C124.76 33.2273 126.016 32.407 126.66 32.002C126.878 31.867 127.2 31.9813 127.335 31.8463C127.573 31.6178 127.522 31.2544 127.74 31.1194C128.29 30.7664 129.609 30.9533 130.128 30.4964C130.335 30.3095 130.221 29.9773 130.263 29.9461C130.315 29.8942 130.626 30.1538 130.782 30.0603C131.374 29.7073 131.301 29.7384 132.059 29.4373C132.526 29.2504 133.274 28.7105 133.72 28.6689C134.167 28.6274 134.904 28.9285 135.496 28.7001L135.299 29.4165L136.441 29.0947C136.514 29.8319 137.978 29.1258 138.185 28.617C138.518 28.4717 138.455 29.6138 138.891 28.617L139.66 28.7624C139.722 27.7863 140.304 28.0563 140.532 27.6617C140.958 26.9141 141.425 24.4948 141.103 23.6953V23.7056ZM123.327 27.2153C123.192 27.2983 123.192 27.5994 122.787 27.6098C121.447 27.6617 122.61 25.2112 122.153 24.3806C123.036 24.4117 123.7 23.6226 124.656 23.9548C125.476 25.4085 124.49 26.478 123.327 27.2153Z" fill="#E36442"/>
<path d="M208.357 34.8575C208.471 34.9302 208.782 34.7017 209.052 34.7744C209.385 34.8575 209.665 35.3247 209.997 35.4701C211.42 36.0931 214.036 36.55 214.742 38.3255C214.888 38.6994 214.774 39.1874 214.919 39.4158C215.054 39.6235 215.604 39.5404 215.718 39.8831C215.812 40.153 215.698 40.5684 215.781 40.9006C216.227 42.7074 216.456 43.4238 215.75 45.2928C215.594 45.6874 213.891 48.4079 213.652 48.6259C212.375 49.7993 210.433 50.1212 209.281 51.2218C209.104 51.3983 209.125 51.7721 208.855 51.9798C208.46 52.2913 207.671 52.1563 207.412 52.3432C207.183 52.5094 207.246 53.0285 207.1 53.2985C206.643 54.1084 205.356 55.396 204.598 55.8528C204.079 56.1747 203.383 56.102 202.853 56.2889C200.631 57.0469 198.617 57.5453 196.312 57.753C195.325 57.8464 195.751 58.1683 195.471 58.6356C195.346 58.8433 195.003 58.8744 194.983 59.0302C194.951 59.2171 195.17 59.6843 195.107 60.1204C195.014 60.8369 194.619 61.8648 194.567 62.6748C194.505 63.5885 195.055 64.0765 194.962 64.9903C195.294 65.2187 195.595 65.6963 195.865 65.904C196.872 66.6828 198.679 67.7004 199.936 67.9911C201.877 68.4376 203.819 68.1261 205.709 68.1676C207.183 68.1988 208.014 67.8769 209.488 67.7627C209.914 67.7315 209.727 67.2954 210.579 67.9911C211.067 67.2642 211.389 67.5134 211.918 67.3369C214.535 66.4647 216.155 66.5166 218.532 65.9663C219.332 65.7794 220.484 65.1045 221.325 64.9695C222.104 64.8449 222.935 64.9695 223.724 64.928C223.631 65.3537 223.06 65.2706 222.769 65.4575C221.751 66.1221 221.398 66.1221 220.453 66.6309C218.242 67.8042 216.071 69.9951 213.486 69.829C213.403 69.829 213.434 70.1405 213.289 70.1716C212.977 70.2339 212.614 70.1093 212.271 70.2131C211.949 70.3066 211.523 70.9192 210.932 71.0438C210.496 71.1373 210.07 71.0438 209.634 71.1061L209.405 71.781L208.71 71.8018L209.073 72.3418C208.149 71.9783 207.599 72.6948 207.09 71.8018C207.246 72.9751 205.813 72.4664 205.678 72.5494C205.615 72.591 205.584 72.8713 205.449 72.9648C204.857 73.3593 201.524 73.1205 200.652 73.1517C200.06 73.1724 199.489 73.8162 198.658 73.0582L198.15 73.4009C197.662 73.2244 197.07 72.9544 196.582 72.7882C195.533 72.4248 195.138 72.4248 194.277 71.7291C193.487 71.0957 191.629 69.5486 191.027 68.8425C190.85 68.6349 190.881 68.4064 190.985 68.178C190.684 68.178 190.414 68.2195 190.165 68.0015C190.009 67.8665 188.804 65.634 188.69 65.3122C187.569 62.1348 188.005 58.2618 188.825 55.1052C188.867 54.9495 189.147 54.9702 189.168 54.8456C189.666 52.5924 189.49 51.5748 190.518 49.3528C190.611 49.1451 191.058 47.8056 190.985 47.733C189.178 47.5149 188.514 48.6052 187.278 49.3632C185.17 50.6715 183.011 51.5541 181.017 53.2362C178.348 55.4998 174.704 58.9263 172.887 61.9375C172.388 62.7578 172.243 63.6923 171.765 64.523C171.121 64.5957 170.467 64.6061 169.834 64.4296C168.941 64.1804 168.64 63.3601 167.83 63.007C166.823 60.7434 167.892 58.6356 168.308 56.4551C168.982 52.9662 168.754 51.2426 168.193 47.7953C168.017 46.7154 168.391 46.4558 167.466 45.4901C167.321 45.3448 167.342 45.324 167.093 45.3759C167.165 46.1339 166.304 46.3104 165.847 46.7569C165.421 47.1723 164.912 47.7122 164.559 48.1795C164.071 48.8232 163.812 50.1938 162.752 50.2561C162.711 50.1938 163.22 49.0828 163.323 48.9271C163.604 48.4702 165.016 46.8711 165.099 46.5077C165.379 45.3448 165.618 43.6834 165.774 42.5412C165.888 41.7313 165.234 41.2537 166.387 40.4126C166.75 40.1427 168.567 39.4366 168.972 39.4677C169.263 39.4885 169.574 39.7169 169.917 39.7585C171.142 39.9038 171.796 39.8312 172.824 40.7345C173.136 41.0045 173.78 41.9701 173.998 42.3647C175.275 44.6491 175.898 46.352 176.313 48.9167C176.365 49.2489 176.272 50.9207 176.947 50.8168C177.725 50.6922 179.106 48.6052 179.771 48.1795C180.176 47.9199 180.508 48.1068 180.653 48.0029C180.923 47.816 180.975 47.2034 181.276 46.9854C181.702 46.6842 183.042 46.1962 183.374 45.9885C183.737 45.7705 184.215 44.5556 184.734 44.2857L185.181 44.6491C185.71 43.4757 187.538 42.0636 188.732 41.5963C189.012 41.4925 191.577 41.2122 191.93 41.2641C193.01 41.4198 193.591 42.6658 194.827 42.1259C195.045 42.0324 194.972 41.669 195.128 41.4925C197.713 38.554 199.364 37.2664 202.791 35.3974C204.369 34.5356 204.712 33.6634 206.924 34.0268C208.128 34.2241 207.952 34.6187 208.367 34.8679L208.357 34.8575ZM210.08 39.8208L208.263 39.0732C207.536 39.6235 206.571 39.7896 205.75 40.1842C204.037 41.0045 202.261 42.9254 200.943 43.9845C199.956 44.7841 200.59 46.0197 199.956 47.058C199.686 47.5045 198.876 47.7537 198.71 48.0341C198.295 48.7402 197.246 50.7649 196.924 51.4918C196.706 51.9694 196.737 52.8209 196.281 53.3296C196.322 54.6068 197.589 53.5581 198.285 53.3608C199.229 53.0804 202.687 52.0213 203.196 51.4814C203.362 51.3049 203.372 50.9934 203.622 50.7338C204.992 49.3528 207.682 48.356 208.855 46.7361C209.748 45.5109 210.734 43.5692 210.662 42.0324C210.641 41.6171 210.319 40.0492 210.07 39.8208H210.08Z" fill="#E36442"/>
<path d="M74.5455 32.0953C74.5455 32.0953 74.6078 32.3341 74.722 32.3861C75.5215 32.708 76.6533 32.5522 76.8714 33.7671C77.0894 34.9819 77.6086 36.8302 77.5048 38.1073C77.484 38.4189 77.2037 38.3462 77.131 38.7615C76.7676 40.7759 76.9856 43.3302 76.6118 45.3654C76.5184 45.843 76.2068 46.248 76.1861 46.8087C76.1549 47.4525 76.3107 48.6466 76.238 49.2903C76.1965 49.6953 75.75 50.0276 75.7084 50.4221C75.6773 50.7752 75.9473 51.3878 75.9784 51.855C76.0199 52.5715 75.6773 53.4229 75.6669 54.0148C75.6669 54.3055 76.0407 56.5484 76.1238 56.6418C76.7883 56.2888 78.2212 57.2129 78.7923 57.1714C79.1973 57.1402 79.9657 56.0084 80.9936 56.5484C81.3051 56.7145 81.3259 57.8151 81.1494 58.137C81.0455 58.3239 80.7756 58.3655 80.6717 58.5316C80.5679 58.6977 80.6925 58.9573 80.6717 58.9781C80.5887 59.0404 80.3291 58.9158 80.2149 59.1027C80.0072 59.4453 79.9657 60.3279 79.4049 60.8264C79.2077 61.0029 79.0311 60.7744 78.9065 60.8575C77.8682 61.5636 77.9617 63.3495 76.4145 64.336C76.2691 64.4294 76.103 64.2633 75.9992 64.3048C75.968 64.3152 76.0199 64.6267 75.75 64.6267C75.4073 64.6267 73.3825 63.9933 73.071 63.7752C72.853 63.6195 72.8322 63.2872 72.7388 63.2145C72.5726 63.0899 72.2092 63.2353 72.0846 62.9965C71.9808 62.8096 72.0846 62.4358 71.9912 62.3008C71.9392 62.2177 71.6381 62.2489 71.4824 62.0931C71.3682 61.9789 70.9632 61.2521 70.9113 61.2313C70.7763 61.169 70.6206 61.3351 70.4959 61.2625C70.2987 61.1586 70.1014 60.6498 69.7691 60.6083L69.8937 60.2864C68.7931 60.0164 68.6165 58.4797 68.2324 57.4621C68.0247 56.9222 67.5678 56.2576 67.464 55.6554C67.3082 54.6586 67.4224 52.4573 67.4432 51.3255C67.464 49.9341 67.6405 48.7504 67.6924 47.4421C67.6924 47.1825 67.8274 47.1306 67.5367 46.9021C67.2044 47.089 66.9552 47.847 66.7475 48.0028C66.5918 48.117 66.3114 47.9612 66.1764 48.1585C65.9688 48.4493 65.9065 49.093 65.6469 49.4772C65.0965 50.2975 64.5358 51.1697 63.9751 52.0004C63.6325 52.4988 63.0822 52.7065 62.8433 53.0491C62.6876 53.2672 62.2203 54.3782 61.9919 54.8039C61.1612 56.403 60.7043 58.002 59.9152 59.7049C59.7906 59.9749 59.7906 60.4733 59.6764 60.6083C59.4999 60.816 58.9184 60.9198 58.7626 61.0029C58.6692 61.0548 58.6796 61.3351 58.5446 61.3767C58.1915 61.4701 57.6516 61.1898 57.6101 61.2209C57.5582 61.2521 57.527 61.7609 57.0182 61.8855C56.4471 62.0308 56.3018 61.6466 55.9695 61.6051C55.3049 61.522 55.0557 61.9166 54.1628 61.3663C53.6124 61.0236 53.6436 60.5356 53.5398 60.4525C53.3113 60.2656 52.8856 60.3487 52.6156 60.2241C52.408 60.1307 52.1691 59.3104 51.9719 59.0819C51.5877 58.6251 51.8265 59.2377 51.245 58.1578C50.5701 56.9118 49.6979 54.4509 49.6875 52.9349C49.6875 52.4157 50.0198 51.99 50.0925 51.4709C50.352 49.7264 50.3105 45.978 51.0062 44.5866C51.1516 44.2959 51.4215 44.244 51.4942 44.0363C52.5741 41.1912 54.0901 38.6473 56.011 36.5291C56.1772 36.3422 56.2291 36.041 56.5198 35.7815C58.4823 34.0474 58.6588 35.8645 58.4511 37.8997C58.2954 39.3845 57.5582 40.6617 57.4336 42.1361C57.3816 42.7695 57.5997 43.8286 57.5374 44.4205C57.4855 45.0643 56.8521 45.6354 56.8832 46.4556C56.9248 47.7224 56.8832 47.7847 56.8002 48.9684C56.769 49.4357 56.8209 51.8343 57.1844 51.9173C58.2123 51.7616 59.178 51.1386 59.9256 50.3391L60.154 50.7025C60.5486 49.2696 61.9607 48.1689 62.8433 47.0164C64.1101 45.355 65.3873 43.3198 66.6956 41.565C67.3705 40.6617 69.0007 39.0938 69.3953 38.0866C69.8418 36.934 70.0391 35.283 70.6932 34.1097C71.119 33.3517 72.1469 33.061 72.583 32.7391C72.7076 32.6457 72.9361 31.9396 73.2268 31.7942C73.3099 31.7527 74.3378 32.0538 74.5455 32.1265V32.0953Z" fill="#E36442"/>
<path d="M134.862 59.8502C136.222 60.1617 136.471 59.5076 137.344 58.9884C137.603 58.8327 138.112 58.8638 138.257 58.7184C138.496 58.49 138.818 57.3063 139.015 57.0363C139.244 56.7144 139.711 56.3925 140.137 55.8007C141.435 54.0251 144.197 49.1449 144.934 47.037C145.235 46.1752 145.069 45.168 145.401 44.4308C145.588 44.0258 146.169 43.7247 146.211 43.4548C146.284 43.0498 145.868 42.4787 146.169 41.7623C146.387 41.2431 147.062 41.1704 147.28 40.9731C147.727 40.5578 148.194 39.509 148.796 39.3221C148.942 39.2806 149.98 39.2183 150.094 39.2495C150.364 39.3118 150.624 39.7063 150.894 39.7271C151.133 39.7479 151.351 39.3741 151.756 39.3844C151.86 39.3844 153.261 39.9763 153.438 40.0801C154.362 40.6097 154.487 41.2846 154.673 42.2814C154.975 43.8701 154.476 44.2543 154.393 45.6457C154.269 47.7535 154.736 47.4628 153.781 49.7264C153.677 49.9652 153.064 54.5858 153.126 54.835C153.251 55.3646 153.261 55.1984 153.292 56.133C153.324 56.9325 153.718 57.4932 153.126 58.2096C153.531 58.1162 154.009 58.0747 154.393 57.9397C156.314 57.2959 156.335 57.1713 157.705 55.9149C158.868 54.8454 159.616 53.5786 160.789 52.4884C160.924 52.3638 161.88 51.5746 161.994 51.6992C161.973 52.2495 161.755 52.9972 161.527 53.4956C161.412 53.7448 161.049 53.859 160.945 54.1809C160.717 54.8558 160.634 56.4652 160.332 57.0052C160.114 57.3894 160.011 57.2855 159.637 57.1298L159.606 58.1993L159.128 58.2408C158.993 59.248 158.536 59.9645 157.82 60.6498L158.183 60.8263C157.321 61.1482 157.778 61.6777 157.56 62.3734C157.373 62.9757 156.418 63.7544 156.283 64.3359L155.473 64.1697C155.566 65.1043 153.76 65.3015 153.033 65.2496C152.202 65.1977 151.984 64.7201 151.922 64.7201C149.876 64.6474 147.291 62.2592 146.294 60.2344C145.858 59.3518 145.868 57.9397 144.622 57.8358C144.747 58.6146 143.854 58.6458 143.802 58.7288C143.491 59.2791 143.958 59.6322 142.899 59.6322L142.245 61.7919C141.445 62.0619 141.3 61.387 140.635 62.1761L140.272 61.6362C140.521 62.2384 140.355 62.3526 139.721 62.363C140.51 63.5052 137.967 64.0036 137.748 64.3774C137.655 64.5539 137.894 64.8551 137.811 65.0835C137.769 65.1977 136.98 65.9246 136.804 66.0595C135.786 66.8071 135.859 66.3399 134.945 66.1322C134.592 66.0492 134.249 66.2153 133.948 66.0803C133.844 66.0388 132.775 65.4365 132.712 65.395C132.578 65.2912 130.719 62.8199 130.657 62.6641C129.899 60.9716 129.556 58.0331 129.442 56.1122C129.327 54.1912 129.546 52.5922 129.743 50.6713C129.774 50.3494 129.369 50.0898 129.442 49.6537C129.566 48.9061 130.511 47.6497 130.511 46.5283C130.511 46.1856 130.158 46.2998 130.127 46.1545C130.002 45.4795 131.3 43.5067 131.498 42.8421C131.871 41.6273 132.069 39.4779 133.086 38.5538C133.689 38.0138 134.28 38.1696 134.737 38.8549C134.945 39.1768 136.253 41.9076 136.284 42.188C136.596 44.7838 135.796 46.196 135.163 48.5011C134.851 49.6433 134.093 51.9692 134.135 53.0595C134.156 53.7551 134.197 53.8174 134.166 54.5339C134.104 56.133 134.893 58.22 134.82 59.8399L134.862 59.8502Z" fill="#E36442"/>
</g>
<g clip-path="url(#clip1_272_1546)">
<path d="M116.202 66.7033C116.566 66.9421 116.971 67.0356 117.324 67.3055C118.31 68.1051 120.137 69.7353 119.587 71.1059L120.127 71.1993C118.985 72.3934 117.054 72.435 115.506 72.1546C114.842 72.0404 112.412 70.8255 111.893 70.379C109.993 68.7488 110.522 66.1011 112.277 64.6162L115.839 66.2568C116.046 66.3087 116.098 66.6306 116.202 66.6929V66.7033Z" fill="#72B2BE"/>
<path d="M121.705 78.1666C122.058 78.1978 122.567 78.0732 122.868 78.0109C122.93 78.0005 123.003 77.9901 123.086 77.9901C123.657 77.5955 124.332 77.3256 125.1 77.2321C125.121 77.1698 125.163 77.1075 125.256 77.0556C125.495 76.9414 125.744 77.0556 125.91 77.0348C126.191 76.9829 126.637 76.7545 126.533 76.4118C127.052 76.4845 127.104 76.1626 127.001 75.7265L127.146 75.903L127.25 75.768C127.634 75.8719 128.236 75.8719 128.226 75.3319C128.226 74.7193 127.374 74.9997 126.98 74.9478C126.191 74.8439 126.419 74.9166 125.692 74.9893C125.412 75.0204 125.142 74.8958 124.903 74.927C124.778 74.9374 124.457 75.1866 124.249 75.197C123.19 75.197 123.044 75.0827 121.965 75.3839C120.417 75.82 118.725 75.5396 117.105 75.8303C116.711 75.903 116.171 76.1419 115.786 76.2042C114.79 76.3807 113.793 76.4741 112.775 76.5676C111.976 76.6506 111.072 76.661 110.356 76.7752C109.504 76.9102 108.684 76.7752 107.874 76.8791C107.49 76.931 107.023 77.2633 106.628 76.9829L106.576 77.1283L106.421 77.1075C106.472 76.8583 106.265 77.0141 106.088 76.9621C105.6 76.8168 105.746 76.6922 105.559 76.5364C105.434 76.4326 104.946 76.2561 104.853 76.1211C104.738 75.9757 104.749 75.7057 104.396 75.5708C104.147 75.4773 103.461 76.2042 103.399 76.4118C103.357 76.526 103.409 76.6403 103.378 76.7545C103.347 76.8895 103.212 76.9725 103.181 77.1594C103.16 77.2633 103.42 78.2185 103.482 78.3016C103.607 78.4989 103.565 78.2082 103.721 78.7066C103.845 79.0908 104.063 78.9662 104.282 79.1323C104.562 79.3296 105.071 79.963 105.372 80.046C105.663 80.1291 106.192 80.0772 106.493 80.1083C107.293 80.1914 107.843 80.2745 108.653 80.2329C108.923 80.2226 109.203 80.1706 109.473 80.1499L109.546 80.3264C113.201 79.423 116.918 78.9454 119.618 78.53C119.992 78.4677 120.376 78.4262 120.75 78.3743C120.895 78.2808 121.051 78.2082 121.165 78.3016C121.362 77.8447 121.528 78.1459 121.715 78.1666H121.705Z" fill="#72B2BE"/>
<path d="M96.3808 127.177C95.8512 123.854 95.8201 123.075 95.3943 119.742C94.9686 116.44 94.8752 113.149 94.9686 109.836C94.9894 109.089 94.9998 108.331 94.9686 107.583C95.0517 102.952 95.7162 101.571 95.4151 98.8194C95.3424 98.1964 95.3113 97.5734 95.2801 96.9608C95.3424 96.8258 95.3943 96.6908 95.4151 96.5558C95.4982 95.9744 95.3528 95.4344 95.1659 94.8945C95.1348 94.5311 95.1036 94.1676 95.0621 93.8146C95.0205 93.5031 94.979 93.202 94.9375 92.9009C94.979 92.8386 95.0205 92.7659 95.0102 92.6932C94.9375 90.658 94.574 88.6229 94.1483 86.6604C93.951 85.7259 94.4598 84.9056 94.6156 84.1268C94.8544 82.9743 94.3975 81.6348 95.3009 80.5549C95.5293 80.285 97.3464 79.9735 97.7929 80.0046C98.229 80.0358 99.6931 80.4823 100.254 80.5653C100.524 80.6069 100.815 80.4511 101.043 80.5238C101.24 80.5861 101.728 81.3233 101.759 81.4791C101.811 81.7283 101.292 82.1851 101.23 82.6212C101.022 83.9192 101.458 86.3178 101.666 87.6884C101.801 88.5606 101.656 88.654 101.666 89.3809C101.666 89.9935 101.552 91.198 101.604 91.8729C101.78 94.2092 101.583 96.3482 101.604 98.6325C101.604 98.8194 101.635 99.6086 101.656 99.7436C101.001 103.409 100.835 104.551 100.929 107.323C100.877 107.521 100.846 107.728 100.835 107.936C100.794 109.12 100.596 109.296 100.524 110.013C100.326 110.096 100.41 111.539 100.316 111.736C100.233 111.923 99.9111 112.827 99.8904 113.014C99.745 113.99 99.392 114.8 99.3401 115.776C99.2985 116.627 98.769 117.209 98.7586 118.081L98.7067 118.517V119.057C98.8001 119.441 98.8001 120.199 98.7378 120.573C98.6651 120.957 98.7482 121.196 98.6651 121.414C98.4886 121.85 98.6651 122.276 98.3329 123.221C98.4159 123.376 98.2083 124.03 98.094 124.518C97.9279 125.183 97.9591 124.664 97.6683 125.92C97.5956 126.221 97.6476 128.641 96.8376 128.641C96.765 128.205 96.4638 127.582 96.4015 127.166L96.3808 127.177Z" fill="#72B2BE"/>
<path d="M134.217 128.402C133.822 124.747 133.802 123.895 133.48 120.24C133.158 116.606 133.095 112.993 133.158 109.348C133.168 108.528 133.179 107.697 133.158 106.867C133.22 101.779 133.729 100.263 133.5 97.2307C133.448 96.5454 133.417 95.8705 133.397 95.1852C133.438 95.0398 133.48 94.884 133.5 94.7387C133.563 94.1053 133.448 93.503 133.313 92.9112C133.293 92.5166 133.272 92.122 133.241 91.7171C133.21 91.3848 133.179 91.0422 133.147 90.7099C133.179 90.6372 133.21 90.5645 133.21 90.4815C133.158 88.2386 132.877 86.0166 132.566 83.8464C132.41 82.8185 132.794 81.9151 132.919 81.0637C133.095 79.7969 132.753 78.3224 133.438 77.1387C133.615 76.8376 134.975 76.5053 135.318 76.5365C135.639 76.5676 136.75 77.066 137.176 77.1595C137.384 77.201 137.591 77.0245 137.768 77.1076C137.913 77.1802 138.287 77.9902 138.308 78.1563C138.339 78.4263 137.955 78.935 137.903 79.4127C137.747 80.8456 138.069 83.483 138.225 84.9886C138.329 85.9543 138.214 86.0477 138.225 86.8472C138.225 87.5222 138.142 88.8409 138.183 89.5885C138.318 92.1636 138.163 94.4999 138.183 97.023C138.183 97.2307 138.204 98.0925 138.225 98.2483C137.737 102.277 137.602 103.533 137.675 106.586C137.633 106.804 137.612 107.033 137.602 107.261C137.571 108.569 137.425 108.756 137.363 109.545C137.218 109.639 137.27 111.228 137.207 111.446C137.145 111.653 136.906 112.64 136.885 112.847C136.771 113.927 136.512 114.81 136.47 115.89C136.439 116.824 136.044 117.468 136.034 118.434L135.992 118.911V119.514C136.065 119.939 136.065 120.76 136.013 121.185C135.961 121.611 136.013 121.871 135.951 122.109C135.816 122.587 135.951 123.054 135.702 124.093C135.764 124.259 135.608 124.986 135.515 125.515C135.39 126.252 135.411 125.681 135.193 127.062C135.141 127.395 135.172 130.053 134.56 130.053C134.508 129.575 134.279 128.89 134.227 128.433L134.217 128.402Z" fill="#72B2BE"/>
<path d="M130.811 77.6373C130.146 77.6892 129.513 77.8449 128.869 78.0007C128.547 78.1668 128.319 78.4368 127.965 78.6652C126.439 79.6828 125.131 80.4616 123.75 81.8322C122.41 83.1613 120.292 85.321 118.776 86.5047C118.693 86.567 118.631 86.5047 118.62 86.6086L118.236 86.7436C117.914 87.0031 117.821 86.9616 117.53 87.2108C116.928 87.73 116.533 88.3738 115.755 88.706C115.464 88.1453 114.758 87.813 114.29 87.4289C112.608 86.0479 108.445 84.1892 106.513 83.0886C106.181 82.9017 105.859 82.4863 105.724 82.4033C105.122 82.0191 104.26 82.0191 103.689 82.4552C103.544 82.6213 103.751 84.2411 103.834 84.5215C103.886 84.698 104.395 85.2068 104.54 85.4145C104.603 85.5079 104.561 85.7364 104.644 85.8298C104.821 86.0271 106.316 86.7332 106.762 87.0966C107.282 87.5223 110.075 89.9105 110.552 90.3881C110.968 90.8035 111.383 90.7723 111.809 91.25C112.463 91.8211 112.951 92.3818 112.774 93.2124C112.774 93.2124 112.774 93.254 112.754 93.3059C112.681 93.5032 112.754 93.3682 112.671 93.5551C112.619 93.6901 112.619 93.7005 112.525 93.8251C112.505 93.8562 112.473 93.9601 112.442 93.9912C112.421 94.1366 112.39 94.1885 112.328 94.3131C111.84 95.4034 110.885 96.2444 109.929 96.8363C109.493 97.0959 109.036 97.3347 108.569 97.5112C108.237 97.7293 107.905 97.9265 107.593 98.1134C107.375 98.2484 107.178 98.4042 106.97 98.5599C106.97 98.6845 106.97 98.7987 106.97 98.8091C107.012 98.8507 107.261 98.7261 107.385 98.7676C107.489 98.7987 107.583 98.8922 107.676 98.9545C107.739 98.9337 107.801 98.913 107.863 98.8922C108.143 98.778 108.424 98.643 108.694 98.508C109.348 98.2069 110.012 98.02 110.729 97.9162C111.352 97.8331 111.985 97.8019 112.608 97.7085C112.754 97.6877 112.899 97.667 113.044 97.6358L113.335 97.5527C113.481 97.5112 113.626 97.4593 113.761 97.397C113.823 97.3762 113.875 97.3451 113.937 97.3139C113.948 97.3139 113.979 97.2931 114.031 97.2516C114.052 97.2412 114.072 97.2308 114.104 97.2205C114.353 96.9401 114.612 96.6701 114.903 96.4417C114.955 96.4002 115.017 96.3794 115.069 96.3379C115.173 96.1302 115.329 95.9537 115.495 95.8187C115.775 95.5903 116.16 95.5383 116.502 95.6006C116.824 95.6526 117.167 95.9121 117.343 96.2029C117.364 96.234 117.364 96.2756 117.385 96.3171C117.81 96.5144 118.195 96.8051 118.558 97.1478C118.932 97.5112 119.275 97.9162 119.669 98.2484C119.669 98.2484 119.669 98.2484 119.679 98.2588C119.721 98.29 119.814 98.3419 119.825 98.3523C119.97 98.4353 120.105 98.508 120.251 98.5807C120.375 98.643 120.51 98.6949 120.645 98.7572C120.707 98.7884 120.78 98.8091 120.842 98.8403C121.476 99.0687 122.12 99.2764 122.732 99.5567C122.826 99.5983 122.898 99.6813 122.971 99.7436C123.459 99.7748 123.978 99.7748 124.56 99.7436C125.338 99.7229 127.166 100.045 127.031 98.8403C125.941 98.6326 124.902 98.1446 123.906 97.6047C123.355 97.3035 121.787 96.2963 121.06 95.6318C121.019 95.5591 120.977 95.5072 120.936 95.4345C120.905 95.3826 120.863 95.3411 120.832 95.2891C120.552 95.0503 120.271 94.8219 120.001 94.5727C119.804 94.3962 119.607 94.23 119.41 94.0535C119.347 94.0016 119.285 93.9497 119.223 93.8978C119.212 93.8874 119.202 93.8874 119.191 93.877C119.129 93.8355 119.119 93.8458 119.191 93.877C119.212 93.877 119.243 93.8978 119.275 93.9081C118.89 93.7939 118.153 91.9561 118.278 91.5719C118.35 91.3434 118.506 91.1981 118.683 91.115C118.724 91.0008 118.776 90.8866 118.89 90.7931C119.7 90.0455 120.77 88.3115 121.632 87.6261C122.026 87.3043 122.431 86.9824 122.805 86.6293C123.137 86.3178 123.469 86.0063 123.864 85.7987C124.217 85.6221 124.788 84.6669 125.152 84.5215C125.754 83.8466 126.045 83.857 126.647 83.1924C127.291 82.4863 128.215 81.718 128.931 81.1365C129.513 80.6588 130.001 80.5239 130.707 80.3681C130.759 80.2747 130.831 80.1812 130.883 80.0878C131.299 79.2675 131.164 78.4368 131.216 77.575C131.07 77.5853 130.914 77.5957 130.779 77.6061L130.811 77.6373Z" fill="#72B2BE"/>
<path d="M207.378 87.0447C207.347 87.107 207.181 87.1693 207.098 87.3458C206.662 88.2803 206.35 89.6405 205.644 89.9417L205.686 91.1877C205.603 91.3123 205.146 90.5958 204.481 91.3538C203.952 91.9561 204.502 93.1086 203.516 93.1294L203.91 94.7284L202.986 94.4169L203.111 94.9569L203.62 95.0192C202.955 95.4137 203.163 96.2756 203.111 97.0128L203.754 97.4593C202.882 97.3866 203.37 98.7468 203.194 99.401C203.131 99.6398 202.893 99.6294 202.851 99.7125C202.82 99.7852 202.903 100.875 202.602 101.228L204.118 101.768C204.253 101.114 204.793 100.927 205.125 100.377C205.364 99.9825 205.52 99.1829 205.81 98.9026C206.101 98.6222 206.672 98.5703 207.015 98.3211C209.548 96.5248 210.608 94.4273 213.775 93.7732C214.013 93.7212 214.179 93.4097 214.522 93.4201C214.678 93.4201 217.326 94.1573 217.544 94.2508C218.385 94.6038 221.033 97.2931 221.396 98.2484C221.417 98.3107 221.666 99.2868 221.697 99.4529C221.957 100.689 221.728 101.613 221.791 102.713C221.853 103.814 222.227 104.53 222.185 105.891C222.164 106.669 221.977 107.729 221.967 108.528C221.967 108.871 222.279 108.653 222.32 109.026C222.362 109.442 222.362 112.204 222.299 112.349C222.279 112.401 221.552 112.526 222.372 112.837C222.32 113.169 221.988 113.315 221.905 113.543C221.801 113.865 221.095 117.188 221.105 117.416C221.147 118.185 221.521 118.33 221.604 118.548C222.081 119.888 222.04 120.261 223.203 121.217C224.231 122.068 225.269 122.297 226.484 122.473C229.329 122.868 233.223 122.899 236.026 122.317C237.106 122.089 237.397 121.881 238.57 121.829C238.664 121.829 238.622 121.455 238.913 121.341C239.287 121.196 239.681 121.289 240.024 121.165C241.322 120.687 242.557 119.981 243.824 119.441C244.946 118.974 244.354 119.192 245.008 118.662C246.015 117.863 248.196 117.094 249.39 116.368C250.906 115.433 252.796 113.657 254.415 113.066C254.665 112.972 254.903 112.91 255.163 112.931C255.62 113.419 254.031 115.038 253.502 115.163C253.315 115.205 253.014 115.018 253.003 115.038C252.982 115.08 253.097 115.381 252.941 115.599C252.847 115.734 251.165 117.074 250.885 117.281C250.231 117.769 248.902 118.216 248.663 118.392C248.58 118.455 248.57 118.86 248.362 119.015C248.227 119.109 247.978 118.963 247.905 119.036C247.749 119.181 247.791 119.669 247.593 119.888C247.188 120.324 245.808 120.853 245.486 121.123C245.351 121.237 244.987 122.203 244.676 122.39L243.97 121.892C243.585 122.639 243.887 123.065 243.907 123.594C243.907 123.688 243.71 123.709 243.679 123.792C243.617 123.937 243.648 124.155 243.606 124.217C243.461 124.415 243.025 124.28 242.89 124.415C242.724 124.57 242.713 124.924 242.433 125.1C242.028 125.37 241.021 125.256 241 126.035L240.595 125.515L240.169 126.086L239.609 125.578L239.795 126.294L237.812 126.221L237.989 126.574L236.68 126.481L236.556 126.844L235.933 126.502L235.58 126.886L235.466 126.17C234.998 126.512 234.386 127.26 233.929 127.249L234.209 126.782C233.576 126.979 232.953 127.488 232.454 126.699C232.236 127.208 232.195 127.353 231.655 127.281L231.613 126.554L231.198 127.301L231.021 126.772L230.367 127.177L230.045 126.824C229.952 127.166 229.661 127.519 229.339 127.395C229.173 127.322 229.049 126.751 228.394 126.917C228.28 126.948 228.311 127.27 228.259 127.281C227.906 127.291 227.325 126.388 226.629 126.834C226.494 126.377 226.743 126.533 226.816 126.46C226.972 126.305 226.733 126.128 226.66 126.107C226.255 125.972 226.577 126.647 226.39 126.658C225.695 126.502 224.968 126.502 224.293 126.17C224.116 126.086 223.462 125.391 223.41 125.38C223.223 125.36 222.414 125.682 222.33 125.609L222.123 124.903C221.894 124.944 221.739 125.121 221.489 125.079C221.282 125.048 219.35 124.01 219.101 123.802C217.668 122.639 214.865 117.967 214.647 115.963C214.335 113.169 213.889 110.241 213.712 107.344C213.629 105.994 213.764 104.364 213.629 103.004C213.577 102.433 213.297 100.543 212.767 100.45L212.207 100.813C211.791 100.533 212.051 100.169 212.072 99.7333C210.846 99.3179 211.251 100.273 211.189 100.325C210.981 100.512 210.815 100.263 210.867 99.9825L210.597 100.543L209.974 100.211L210.493 101.363C210.514 101.779 210.182 101.831 209.912 101.841L210.109 102.734C209.497 102.391 209.32 101.415 209.694 100.761C209.009 100.637 209.278 101.166 209.175 101.343C209.05 101.571 208.666 101.436 208.842 101.893L209.133 101.696C209.33 102.796 209.59 103.855 208.52 104.271C208.479 103.679 208.199 103.928 208.074 103.866C208.012 103.835 208.095 103.451 207.804 103.596C207.316 104.053 207.846 105.33 207.347 105.548C207.15 105.631 206.589 105.455 206.413 105.527C206.174 105.631 205.997 106.524 205.457 106.441C205.831 107.282 205.457 107.054 205.364 107.303C205.291 107.5 205.312 107.749 205.219 107.957C204.897 108.632 204.346 108.891 204.575 109.743L204.045 109.764L203.91 111.3L203.474 111.435L203.433 112.339L202.893 112.266L202.498 113.471C201.885 113.086 201.958 113.761 201.73 114.011C201.584 114.177 201.314 114.166 201.221 114.312C201.086 114.53 201.055 115.475 200.878 115.734C200.702 115.994 200.39 115.88 200.214 116.046C200.048 116.201 200.089 116.606 199.965 116.804C199.798 117.053 199.497 117.022 199.404 117.136C199.3 117.281 199.362 117.811 199.051 118.205C198.604 118.766 198.345 118.413 197.846 118.434C197.005 118.465 197.14 118.652 196.206 118.164C195.687 117.894 195.209 117.416 194.825 116.876C194.222 116.035 193.766 115.257 193.921 114.083C194.004 113.471 194.669 112.754 194.773 112.1C195.001 110.646 194.866 109.442 195.552 107.988C195.645 107.791 195.936 107.708 195.967 107.542C196.06 106.929 195.468 106.379 196.175 106.192L196.081 104.219L196.683 104.094L196.206 103.669C196.766 103.606 196.476 103.264 196.559 102.942C196.933 101.55 197.244 100.626 197.524 99.2037C197.597 98.8403 197.244 98.5703 197.732 98.4146L197.701 97.9577L197.41 98.155C197.389 97.667 197.306 97.1685 197.389 96.6805C197.452 96.3483 197.691 96.3586 197.742 96.1821C198.21 94.3546 198.76 92.4545 199.227 90.7412C199.881 88.3322 199.975 85.1964 200.878 83.1509C200.93 83.0263 201.2 82.9744 201.273 82.8082C202.477 80.1293 202.643 77.6373 202.976 74.5949C203.038 74.0342 203.433 73.5981 203.308 72.9959C204.544 73.1205 205.52 74.2107 206.537 74.9895C206.859 75.2387 207.358 75.3321 207.638 75.654C207.835 75.8825 208.998 78.4472 209.06 78.7898C209.486 80.96 209.009 81.1469 208.666 82.8705C208.323 84.5942 208.126 85.3729 207.368 87.0239L207.378 87.0447Z" fill="#72B2BE"/>
<path d="M185.097 90.17C185.222 90.3569 185.066 90.7411 185.305 90.9488C185.367 91.0007 186.343 91.063 186.748 91.3226C187.371 91.7275 187.496 92.4024 187.776 92.8386C188.368 93.7627 189.002 94.7803 189.386 95.9224C189.801 97.1892 190.05 98.5079 189.427 99.7643C188.96 100.72 188.264 100.356 187.714 100.678C186.541 101.374 185.482 102.184 184.277 102.848L183.509 103.876C184.568 103.918 185.45 104.437 186.364 104.904C187.34 105.403 189.23 106.669 189.915 107.687C190.133 108.019 190.362 108.829 190.424 108.891C190.528 108.985 190.819 108.933 190.995 109.12C191.089 109.224 191.992 111.051 191.971 111.165C191.847 111.986 190.611 112.484 190.372 113.097L189.552 112.567C188.898 113.232 186.561 114.685 185.71 114.872C185.305 114.966 185.077 114.706 184.869 114.716C184.765 114.716 184.775 114.997 184.724 115.028C184.64 115.07 184.495 114.924 184.443 114.955C183.966 115.34 183.478 116.17 182.865 116.544C182.595 116.71 182.356 116.461 182.045 116.783C181.733 117.105 181.619 117.738 181.505 118.153L181.152 117.977C180.809 118.891 179.895 119.732 179.283 120.573L176.292 120.645L175.057 119.431C174.953 119.078 175.223 118.081 175.389 117.748C176.147 116.253 179.283 115.474 180.664 114.519C181.183 114.156 182.595 112.443 183.27 111.84C183.519 111.622 184.931 110.812 184.568 110.387C183.986 110.48 183.799 109.909 183.405 109.743C182.948 109.546 180.84 109.12 180.238 109.026C180.02 108.995 179.885 109.244 179.677 109.213C178.016 108.974 176.033 108.154 174.797 107.054C174.267 106.576 173.759 105.714 173.354 105.143L172.544 105.641L171.993 105.319L171.713 106.036L171.36 105.859C171.339 106.264 169.979 107.811 169.657 108.05C169.335 108.289 168.878 108.206 168.505 108.341C168.266 108.435 167.944 109.047 167.726 109.192C167.425 109.39 166.199 109.805 165.961 110.054C165.929 110.085 166.085 110.553 165.888 110.708C165.753 110.812 164.933 110.968 164.517 111.228C164.144 111.466 164.206 112.069 163.572 111.653C163.635 112.91 162.42 112.91 161.641 113.346C161.506 113.419 161.184 113.896 160.842 114.083C160.115 114.457 159.315 114.426 158.723 114.675C158.485 114.779 157.903 115.277 157.664 115.423C157.135 115.744 152.722 117.188 152.078 117.26C151.164 117.364 146.969 116.855 146.18 116.471C145.921 116.347 144.789 115.485 144.54 115.267C144.114 114.903 143.989 114.384 143.771 114.187C143.574 114.01 143.2 113.979 142.93 113.761C142.099 113.066 140.667 109.514 140.822 108.466C140.874 108.081 141.175 107.708 141.227 107.137C141.352 105.787 141.3 103.014 141.736 101.851C141.933 101.343 142.567 100.688 142.754 100.294C143.096 99.5463 143.345 98.3003 143.958 97.5526C144.228 97.2308 144.799 97.0335 145.069 96.7635C146.367 95.4863 147.883 93.3577 149.586 92.5167C151.756 91.4264 154.497 89.9416 157.166 90.2842C157.508 90.3258 157.405 90.6476 157.54 90.658C158.765 90.7619 159.907 91.2291 161.028 91.8625C162.243 92.5478 162.773 93.4408 163.178 94.7906C163.313 95.2475 163.188 95.8186 163.251 95.9744C163.344 96.2339 163.739 96.2132 163.78 96.4001C163.822 96.587 163.386 99.8266 163.282 100.024C163.126 100.325 162.804 100.377 162.742 100.491C162.368 101.166 162.358 102.069 161.247 102.267L161.413 102.776C161.361 102.848 160.592 103.056 160.468 103.149C160.27 103.305 160.374 103.534 160.219 103.7C159.502 104.416 156.584 105.153 155.826 105.776C155.463 106.067 154.746 107.292 154.362 107.708C152.888 109.296 152.504 108.808 150.676 109.307C150.043 109.483 149.399 110.075 148.599 110.034V112.162C149.243 112.359 149.794 112.785 150.427 112.972C152.815 113.678 155.037 112.879 157.249 112.121C157.405 112.069 157.675 112.214 157.851 112.152C158.443 111.944 160.094 110.833 160.468 110.781C160.759 110.74 160.956 111.186 161.06 111.113C161.184 110.615 162.638 109.182 162.69 110.21H162.866C162.866 109.369 163.894 109.888 163.946 109.847C163.998 109.805 164.195 108.85 164.673 108.684C164.881 108.611 165.109 108.798 165.275 108.767C165.338 108.767 165.971 108.092 166.22 108.05L166.667 108.59C166.48 107.635 166.916 107.988 167.144 107.801C167.425 107.552 167.996 106.763 168.224 106.628C168.629 106.399 169.055 106.503 169.387 106.327C169.47 106.285 170.498 105.34 170.644 105.216C171.1 104.821 171.609 103.658 172.191 104.426L172.378 104.25C172.295 103.668 172.793 102.931 172.824 102.516C172.855 102.101 172.533 101.633 172.648 101.114C172.668 101.041 173.063 100.086 173.177 99.7955C174.444 96.5766 177.009 94.9672 179.459 92.7763C180.539 91.821 181.525 90.3258 182.896 89.6093C183.457 89.3186 184.869 89.8274 185.097 90.17ZM157.737 99.837C158.1 99.4113 158.547 98.6637 158.9 98.186C159.066 97.9576 159.398 97.7915 159.512 97.5526C159.731 97.1062 159.45 94.936 159.076 94.5622C158.318 94.0015 157.467 94.7803 156.564 94.4791L156.346 95.3514C154.726 95.1229 153.822 96.182 152.701 97.0646C151.465 98.0407 151.984 97.6876 151.092 98.8817C150.074 100.221 148.008 102.121 147.727 103.835C147.603 104.572 147.779 105.319 147.509 106.057C148.454 106.005 149.191 105.797 150.084 105.475C152.254 104.696 156.211 101.633 157.747 99.837H157.737Z" fill="#72B2BE"/>
</g>
<defs>
<clipPath id="clip0_272_1546">
<rect width="223.421" height="73.4214" fill="white" transform="translate(0.283203 1.11701e-05)"/>
</clipPath>
<clipPath id="clip1_272_1546">
<rect width="161.162" height="65.395" fill="white" transform="translate(94.0957 64.6267)"/>
</clipPath>
</defs>
</svg>
