<svg width="370" height="118" viewBox="0 0 370 118" fill="none" xmlns="http://www.w3.org/2000/svg">
<path d="M69.2102 30.152C69.9942 30.152 70.6582 30.176 71.2022 30.224C71.7622 30.256 72.2742 30.312 72.7382 30.392C73.2022 30.472 73.6822 30.584 74.1782 30.728L73.8902 33.416C73.3622 33.384 72.8742 33.36 72.4262 33.344C71.9942 33.328 71.5222 33.32 71.0102 33.32C70.5142 33.304 69.9142 33.296 69.2102 33.296C68.3942 33.296 67.7542 33.456 67.2902 33.776C66.8422 34.096 66.5222 34.656 66.3302 35.456C66.1382 36.24 66.0422 37.328 66.0422 38.72C66.0422 40.112 66.1382 41.208 66.3302 42.008C66.5222 42.792 66.8422 43.344 67.2902 43.664C67.7542 43.984 68.3942 44.144 69.2102 44.144C70.3142 44.144 71.2422 44.128 71.9942 44.096C72.7462 44.064 73.4902 44.008 74.2262 43.928L74.5382 46.616C73.7702 46.856 72.9862 47.024 72.1862 47.12C71.3862 47.232 70.3942 47.288 69.2102 47.288C67.4982 47.288 66.1222 47.016 65.0822 46.472C64.0582 45.912 63.3142 45.008 62.8502 43.76C62.4022 42.512 62.1782 40.832 62.1782 38.72C62.1782 36.608 62.4022 34.928 62.8502 33.68C63.3142 32.432 64.0582 31.536 65.0822 30.992C66.1222 30.432 67.4982 30.152 69.2102 30.152ZM79.4076 35.144L79.8396 37.496L80.1756 37.808V47H76.6236V35.144H79.4076ZM85.1916 34.832L84.8556 38.12H83.8716C83.3116 38.12 82.7276 38.2 82.1196 38.36C81.5116 38.52 80.7436 38.76 79.8156 39.08L79.5756 37.088C80.4076 36.352 81.2476 35.792 82.0956 35.408C82.9436 35.024 83.7676 34.832 84.5676 34.832H85.1916ZM92.2943 34.832C94.2943 34.832 95.7263 35.176 96.5903 35.864C97.4703 36.536 97.9103 37.544 97.9103 38.888C97.9263 39.976 97.6543 40.792 97.0943 41.336C96.5343 41.864 95.5663 42.128 94.1903 42.128H87.5663V40.136H93.2063C93.7503 40.136 94.0943 40.024 94.2383 39.8C94.3983 39.56 94.4783 39.232 94.4783 38.816C94.4623 38.256 94.2943 37.872 93.9743 37.664C93.6703 37.44 93.1503 37.328 92.4143 37.328C91.7583 37.328 91.2463 37.416 90.8783 37.592C90.5103 37.768 90.2543 38.104 90.1103 38.6C89.9663 39.096 89.8943 39.816 89.8943 40.76C89.8943 41.752 89.9823 42.52 90.1583 43.064C90.3343 43.592 90.6303 43.96 91.0463 44.168C91.4783 44.376 92.0703 44.48 92.8223 44.48C93.3663 44.48 94.0383 44.464 94.8383 44.432C95.6543 44.384 96.4703 44.312 97.2863 44.216L97.6223 46.4C97.1583 46.624 96.6303 46.8 96.0383 46.928C95.4463 47.056 94.8383 47.144 94.2143 47.192C93.5903 47.256 92.9903 47.288 92.4143 47.288C90.9103 47.288 89.6943 47.072 88.7663 46.64C87.8543 46.192 87.1903 45.512 86.7743 44.6C86.3743 43.688 86.1743 42.52 86.1743 41.096C86.1743 39.544 86.3823 38.312 86.7983 37.4C87.2143 36.488 87.8703 35.832 88.7663 35.432C89.6623 35.032 90.8383 34.832 92.2943 34.832ZM106.489 34.832C107.481 34.832 108.321 34.968 109.009 35.24C109.697 35.496 110.217 35.944 110.569 36.584C110.937 37.208 111.121 38.072 111.121 39.176V47H108.289L107.785 44.432L107.545 44.072V39.152C107.545 38.592 107.409 38.184 107.137 37.928C106.881 37.672 106.385 37.544 105.649 37.544C105.041 37.544 104.281 37.568 103.369 37.616C102.457 37.648 101.521 37.696 100.561 37.76L100.225 35.408C100.801 35.296 101.465 35.2 102.217 35.12C102.969 35.04 103.721 34.976 104.473 34.928C105.225 34.864 105.897 34.832 106.489 34.832ZM109.657 39.704L109.633 41.696L104.353 41.72C103.921 41.72 103.609 41.824 103.417 42.032C103.241 42.24 103.153 42.52 103.153 42.872V43.448C103.153 43.848 103.265 44.16 103.489 44.384C103.713 44.592 104.073 44.696 104.569 44.696C104.985 44.696 105.433 44.608 105.913 44.432C106.409 44.256 106.897 44.008 107.377 43.688C107.857 43.368 108.281 42.992 108.649 42.56V44.096C108.505 44.336 108.289 44.64 108.001 45.008C107.729 45.36 107.377 45.712 106.945 46.064C106.513 46.4 106.009 46.688 105.433 46.928C104.857 47.168 104.201 47.288 103.465 47.288C102.745 47.288 102.097 47.16 101.521 46.904C100.945 46.648 100.489 46.272 100.153 45.776C99.8172 45.28 99.6492 44.664 99.6492 43.928V42.704C99.6492 41.76 99.9692 41.024 100.609 40.496C101.249 39.968 102.129 39.704 103.249 39.704H109.657ZM118.545 31.856V43.208C118.545 43.64 118.641 43.952 118.833 44.144C119.041 44.32 119.377 44.408 119.841 44.408H121.377L121.761 46.808C121.473 46.904 121.121 46.984 120.705 47.048C120.289 47.128 119.873 47.184 119.457 47.216C119.041 47.264 118.689 47.288 118.401 47.288C117.329 47.288 116.489 47 115.881 46.424C115.289 45.848 114.993 45.04 114.993 44L114.969 31.856H118.545ZM121.857 35.144V37.472H112.905V35.264L115.209 35.144H121.857ZM127.38 35.144V47H123.852V35.144H127.38ZM126.396 29.912C127.1 29.912 127.452 30.272 127.452 30.992V32.264C127.452 32.984 127.1 33.344 126.396 33.344H124.86C124.156 33.344 123.804 32.984 123.804 32.264V30.992C123.804 30.272 124.156 29.912 124.86 29.912H126.396ZM142.341 35.144L138.429 46.16C138.333 46.416 138.181 46.624 137.973 46.784C137.781 46.928 137.549 47 137.277 47H134.181C133.909 47 133.669 46.928 133.461 46.784C133.269 46.624 133.125 46.416 133.029 46.16L129.117 35.144H132.885L135.069 42.56C135.165 42.912 135.253 43.272 135.333 43.64C135.413 44.008 135.493 44.36 135.573 44.696H135.885C135.981 44.344 136.069 43.992 136.149 43.64C136.245 43.272 136.341 42.912 136.437 42.56L138.573 35.144H142.341ZM149.388 34.832C151.388 34.832 152.82 35.176 153.684 35.864C154.564 36.536 155.004 37.544 155.004 38.888C155.02 39.976 154.748 40.792 154.188 41.336C153.628 41.864 152.66 42.128 151.284 42.128H144.66V40.136H150.3C150.844 40.136 151.188 40.024 151.332 39.8C151.492 39.56 151.572 39.232 151.572 38.816C151.556 38.256 151.388 37.872 151.068 37.664C150.764 37.44 150.244 37.328 149.508 37.328C148.852 37.328 148.34 37.416 147.972 37.592C147.604 37.768 147.348 38.104 147.204 38.6C147.06 39.096 146.988 39.816 146.988 40.76C146.988 41.752 147.076 42.52 147.252 43.064C147.428 43.592 147.724 43.96 148.14 44.168C148.572 44.376 149.164 44.48 149.916 44.48C150.46 44.48 151.132 44.464 151.932 44.432C152.748 44.384 153.564 44.312 154.38 44.216L154.716 46.4C154.252 46.624 153.724 46.8 153.132 46.928C152.54 47.056 151.932 47.144 151.308 47.192C150.684 47.256 150.084 47.288 149.508 47.288C148.004 47.288 146.788 47.072 145.86 46.64C144.948 46.192 144.284 45.512 143.868 44.6C143.468 43.688 143.268 42.52 143.268 41.096C143.268 39.544 143.476 38.312 143.892 37.4C144.308 36.488 144.964 35.832 145.86 35.432C146.756 35.032 147.932 34.832 149.388 34.832ZM170.072 30.44C170.376 30.44 170.64 30.528 170.864 30.704C171.104 30.88 171.264 31.112 171.344 31.4L176.144 47H172.4L169.016 34.832C168.952 34.56 168.888 34.288 168.824 34.016C168.76 33.728 168.704 33.456 168.656 33.2H168.008C167.96 33.456 167.904 33.728 167.84 34.016C167.792 34.288 167.728 34.56 167.648 34.832L164.264 47H160.496L165.32 31.4C165.4 31.112 165.552 30.88 165.776 30.704C166.016 30.528 166.288 30.44 166.592 30.44H170.072ZM172.616 39.872V42.632H164.024V39.872H172.616ZM180.4 35.144L180.832 37.496L181.168 37.808V47H177.616V35.144H180.4ZM186.184 34.832L185.848 38.12H184.864C184.304 38.12 183.72 38.2 183.112 38.36C182.504 38.52 181.736 38.76 180.808 39.08L180.568 37.088C181.4 36.352 182.24 35.792 183.088 35.408C183.936 35.024 184.76 34.832 185.56 34.832H186.184ZM192.49 31.856V43.208C192.49 43.64 192.586 43.952 192.778 44.144C192.986 44.32 193.322 44.408 193.786 44.408H195.322L195.706 46.808C195.418 46.904 195.066 46.984 194.65 47.048C194.234 47.128 193.818 47.184 193.402 47.216C192.986 47.264 192.634 47.288 192.346 47.288C191.274 47.288 190.434 47 189.826 46.424C189.234 45.848 188.938 45.04 188.938 44L188.914 31.856H192.49ZM195.802 35.144V37.472H186.85V35.264L189.154 35.144H195.802ZM202.214 34.832C202.79 34.832 203.414 34.856 204.086 34.904C204.758 34.936 205.414 34.984 206.054 35.048C206.694 35.112 207.262 35.192 207.758 35.288L207.518 37.496C206.75 37.48 205.974 37.472 205.19 37.472C204.422 37.456 203.67 37.448 202.934 37.448C202.31 37.432 201.83 37.44 201.494 37.472C201.158 37.504 200.918 37.584 200.774 37.712C200.646 37.824 200.582 38.032 200.582 38.336C200.582 38.688 200.702 38.928 200.942 39.056C201.182 39.168 201.582 39.296 202.142 39.44L205.238 40.184C206.23 40.44 206.966 40.824 207.446 41.336C207.926 41.832 208.166 42.584 208.166 43.592C208.166 44.584 207.982 45.344 207.614 45.872C207.246 46.4 206.662 46.768 205.862 46.976C205.062 47.168 204.03 47.264 202.766 47.264C202.27 47.264 201.534 47.24 200.558 47.192C199.582 47.144 198.51 47.024 197.342 46.832L197.582 44.624C197.87 44.64 198.238 44.656 198.686 44.672C199.134 44.672 199.622 44.672 200.15 44.672C200.678 44.672 201.206 44.672 201.734 44.672C202.55 44.672 203.174 44.656 203.606 44.624C204.038 44.576 204.334 44.48 204.494 44.336C204.654 44.192 204.734 43.976 204.734 43.688C204.734 43.336 204.598 43.096 204.326 42.968C204.054 42.84 203.622 42.704 203.03 42.56L200.03 41.816C199.278 41.608 198.694 41.344 198.278 41.024C197.862 40.704 197.566 40.312 197.39 39.848C197.23 39.384 197.15 38.832 197.15 38.192C197.15 37.376 197.31 36.728 197.63 36.248C197.966 35.752 198.502 35.392 199.238 35.168C199.99 34.944 200.982 34.832 202.214 34.832ZM222.351 30.2C223.663 30.2 224.767 30.344 225.663 30.632C226.575 30.904 227.303 31.36 227.847 32C228.407 32.64 228.815 33.512 229.071 34.616C229.327 35.704 229.455 37.072 229.455 38.72C229.455 40.368 229.327 41.744 229.071 42.848C228.815 43.936 228.407 44.8 227.847 45.44C227.303 46.08 226.575 46.544 225.663 46.832C224.767 47.104 223.663 47.24 222.351 47.24C221.087 47.24 219.927 47.216 218.871 47.168C217.815 47.12 216.807 47.064 215.847 47L217.383 44.288C217.991 44.32 218.711 44.352 219.543 44.384C220.391 44.4 221.327 44.408 222.351 44.408C223.167 44.408 223.807 44.248 224.271 43.928C224.751 43.592 225.087 43.008 225.279 42.176C225.487 41.344 225.591 40.192 225.591 38.72C225.591 37.248 225.487 36.096 225.279 35.264C225.087 34.432 224.751 33.848 224.271 33.512C223.807 33.176 223.167 33.008 222.351 33.008C221.375 33.008 220.503 33.016 219.735 33.032C218.967 33.032 218.215 33.032 217.479 33.032L215.847 30.44C216.807 30.376 217.807 30.32 218.847 30.272C219.903 30.224 221.071 30.2 222.351 30.2ZM219.519 30.44V47H215.847V30.44H219.519ZM238.278 34.832C239.27 34.832 240.11 34.968 240.798 35.24C241.486 35.496 242.006 35.944 242.358 36.584C242.726 37.208 242.91 38.072 242.91 39.176V47H240.078L239.574 44.432L239.334 44.072V39.152C239.334 38.592 239.198 38.184 238.926 37.928C238.67 37.672 238.174 37.544 237.438 37.544C236.83 37.544 236.07 37.568 235.158 37.616C234.246 37.648 233.31 37.696 232.35 37.76L232.014 35.408C232.59 35.296 233.254 35.2 234.006 35.12C234.758 35.04 235.51 34.976 236.262 34.928C237.014 34.864 237.686 34.832 238.278 34.832ZM241.446 39.704L241.422 41.696L236.142 41.72C235.71 41.72 235.398 41.824 235.206 42.032C235.03 42.24 234.942 42.52 234.942 42.872V43.448C234.942 43.848 235.054 44.16 235.278 44.384C235.502 44.592 235.862 44.696 236.358 44.696C236.774 44.696 237.222 44.608 237.702 44.432C238.198 44.256 238.686 44.008 239.166 43.688C239.646 43.368 240.07 42.992 240.438 42.56V44.096C240.294 44.336 240.078 44.64 239.79 45.008C239.518 45.36 239.166 45.712 238.734 46.064C238.302 46.4 237.798 46.688 237.222 46.928C236.646 47.168 235.99 47.288 235.254 47.288C234.534 47.288 233.886 47.16 233.31 46.904C232.734 46.648 232.278 46.272 231.942 45.776C231.606 45.28 231.438 44.664 231.438 43.928V42.704C231.438 41.76 231.758 41.024 232.398 40.496C233.038 39.968 233.918 39.704 235.038 39.704H241.446ZM257.536 35.144L253.288 47.144C253.096 47.736 252.824 48.328 252.472 48.92C252.136 49.528 251.704 50.072 251.176 50.552C250.664 51.032 250.04 51.392 249.304 51.632C248.584 51.888 247.728 51.952 246.736 51.824L246.472 49.808C247.448 49.552 248.208 49.208 248.752 48.776C249.296 48.344 249.72 47.776 250.024 47.072L250.768 45.416C250.912 45.064 251.048 44.64 251.176 44.144C251.32 43.632 251.44 43.192 251.536 42.824L253.744 35.144H257.536ZM248.128 35.144L250.384 42.824C250.448 43.128 250.512 43.432 250.576 43.736C250.64 44.04 250.696 44.344 250.744 44.648H251.392L250.264 47H249.4C249.128 47 248.888 46.92 248.68 46.76C248.472 46.6 248.328 46.392 248.248 46.136L244.336 35.144H248.128ZM263.834 31.856V43.208C263.834 43.64 263.93 43.952 264.122 44.144C264.33 44.32 264.666 44.408 265.13 44.408H266.666L267.05 46.808C266.762 46.904 266.41 46.984 265.994 47.048C265.578 47.128 265.162 47.184 264.746 47.216C264.33 47.264 263.978 47.288 263.69 47.288C262.618 47.288 261.778 47 261.17 46.424C260.578 45.848 260.282 45.04 260.282 44L260.258 31.856H263.834ZM267.146 35.144V37.472H258.194V35.264L260.498 35.144H267.146ZM272.669 35.144V47H269.141V35.144H272.669ZM271.685 29.912C272.389 29.912 272.741 30.272 272.741 30.992V32.264C272.741 32.984 272.389 33.344 271.685 33.344H270.149C269.445 33.344 269.093 32.984 269.093 32.264V30.992C269.093 30.272 269.445 29.912 270.149 29.912H271.685ZM290.702 34.832C291.774 34.832 292.59 35.112 293.15 35.672C293.71 36.232 293.99 37.048 293.99 38.12V47H290.462V39.224C290.462 38.728 290.366 38.376 290.174 38.168C289.982 37.944 289.646 37.832 289.166 37.832C288.878 37.832 288.606 37.872 288.35 37.952C288.094 38.032 287.798 38.16 287.462 38.336C287.126 38.512 286.718 38.752 286.238 39.056L286.046 37.088C286.814 36.336 287.566 35.776 288.302 35.408C289.054 35.024 289.854 34.832 290.702 34.832ZM278.51 35.144L278.87 37.496L279.23 37.808V47H275.678V35.144H278.51ZM283.31 34.832C284.366 34.832 285.166 35.112 285.71 35.672C286.27 36.216 286.55 37.032 286.55 38.12V47H283.142V39.224C283.142 38.712 283.03 38.352 282.806 38.144C282.598 37.936 282.27 37.832 281.822 37.832C281.55 37.832 281.278 37.872 281.006 37.952C280.75 38.016 280.446 38.136 280.094 38.312C279.758 38.488 279.342 38.736 278.846 39.056L278.63 37.088C279.414 36.336 280.174 35.776 280.91 35.408C281.646 35.024 282.446 34.832 283.31 34.832ZM302.435 34.832C304.435 34.832 305.867 35.176 306.731 35.864C307.611 36.536 308.051 37.544 308.051 38.888C308.067 39.976 307.795 40.792 307.235 41.336C306.675 41.864 305.707 42.128 304.331 42.128H297.707V40.136H303.347C303.891 40.136 304.235 40.024 304.379 39.8C304.539 39.56 304.619 39.232 304.619 38.816C304.603 38.256 304.435 37.872 304.115 37.664C303.811 37.44 303.291 37.328 302.555 37.328C301.899 37.328 301.387 37.416 301.019 37.592C300.651 37.768 300.395 38.104 300.251 38.6C300.107 39.096 300.035 39.816 300.035 40.76C300.035 41.752 300.123 42.52 300.299 43.064C300.475 43.592 300.771 43.96 301.187 44.168C301.619 44.376 302.211 44.48 302.963 44.48C303.507 44.48 304.179 44.464 304.979 44.432C305.795 44.384 306.611 44.312 307.427 44.216L307.763 46.4C307.299 46.624 306.771 46.8 306.179 46.928C305.587 47.056 304.979 47.144 304.355 47.192C303.731 47.256 303.131 47.288 302.555 47.288C301.051 47.288 299.835 47.072 298.907 46.64C297.995 46.192 297.331 45.512 296.915 44.6C296.515 43.688 296.315 42.52 296.315 41.096C296.315 39.544 296.523 38.312 296.939 37.4C297.355 36.488 298.011 35.832 298.907 35.432C299.803 35.032 300.979 34.832 302.435 34.832ZM109.861 59.368C110.757 59.368 111.661 59.376 112.573 59.392C113.485 59.392 114.381 59.408 115.261 59.44C116.141 59.472 116.965 59.528 117.733 59.608L117.565 62.272H111.205C110.805 62.272 110.501 62.376 110.293 62.584C110.101 62.792 110.005 63.096 110.005 63.496V71.944C110.005 72.344 110.101 72.648 110.293 72.856C110.501 73.064 110.805 73.168 111.205 73.168H117.565L117.733 75.832C116.965 75.896 116.141 75.952 115.261 76C114.381 76.032 113.485 76.048 112.573 76.048C111.661 76.064 110.757 76.072 109.861 76.072C108.805 76.072 107.949 75.768 107.293 75.16C106.653 74.536 106.333 73.728 106.333 72.736V62.704C106.333 61.696 106.653 60.888 107.293 60.28C107.949 59.672 108.805 59.368 109.861 59.368ZM106.765 66.088H116.677V68.68H106.765V66.088ZM135.136 63.832C136.208 63.832 137.024 64.112 137.584 64.672C138.144 65.232 138.424 66.048 138.424 67.12V76H134.896V68.224C134.896 67.728 134.8 67.376 134.608 67.168C134.416 66.944 134.08 66.832 133.6 66.832C133.312 66.832 133.04 66.872 132.784 66.952C132.528 67.032 132.232 67.16 131.896 67.336C131.56 67.512 131.152 67.752 130.672 68.056L130.48 66.088C131.248 65.336 132 64.776 132.736 64.408C133.488 64.024 134.288 63.832 135.136 63.832ZM122.944 64.144L123.304 66.496L123.664 66.808V76H120.112V64.144H122.944ZM127.744 63.832C128.8 63.832 129.6 64.112 130.144 64.672C130.704 65.216 130.984 66.032 130.984 67.12V76H127.576V68.224C127.576 67.712 127.464 67.352 127.24 67.144C127.032 66.936 126.704 66.832 126.256 66.832C125.984 66.832 125.712 66.872 125.44 66.952C125.184 67.016 124.88 67.136 124.528 67.312C124.192 67.488 123.776 67.736 123.28 68.056L123.064 66.088C123.848 65.336 124.608 64.776 125.344 64.408C126.08 64.024 126.88 63.832 127.744 63.832ZM156.277 63.832C157.349 63.832 158.165 64.112 158.725 64.672C159.285 65.232 159.565 66.048 159.565 67.12V76H156.037V68.224C156.037 67.728 155.941 67.376 155.749 67.168C155.557 66.944 155.221 66.832 154.741 66.832C154.453 66.832 154.181 66.872 153.924 66.952C153.669 67.032 153.373 67.16 153.036 67.336C152.701 67.512 152.293 67.752 151.812 68.056L151.621 66.088C152.389 65.336 153.141 64.776 153.877 64.408C154.629 64.024 155.429 63.832 156.277 63.832ZM144.085 64.144L144.445 66.496L144.805 66.808V76H141.253V64.144H144.085ZM148.885 63.832C149.941 63.832 150.741 64.112 151.285 64.672C151.845 65.216 152.125 66.032 152.125 67.12V76H148.717V68.224C148.717 67.712 148.605 67.352 148.381 67.144C148.173 66.936 147.845 66.832 147.397 66.832C147.125 66.832 146.853 66.872 146.581 66.952C146.325 67.016 146.021 67.136 145.669 67.312C145.333 67.488 144.917 67.736 144.421 68.056L144.205 66.088C144.989 65.336 145.749 64.776 146.485 64.408C147.221 64.024 148.021 63.832 148.885 63.832ZM174.321 64.144L170.073 76.144C169.881 76.736 169.609 77.328 169.257 77.92C168.921 78.528 168.489 79.072 167.961 79.552C167.449 80.032 166.825 80.392 166.089 80.632C165.369 80.888 164.513 80.952 163.521 80.824L163.257 78.808C164.233 78.552 164.993 78.208 165.537 77.776C166.081 77.344 166.505 76.776 166.809 76.072L167.553 74.416C167.697 74.064 167.833 73.64 167.961 73.144C168.105 72.632 168.225 72.192 168.321 71.824L170.529 64.144H174.321ZM164.913 64.144L167.169 71.824C167.233 72.128 167.297 72.432 167.361 72.736C167.425 73.04 167.481 73.344 167.529 73.648H168.177L167.049 76H166.185C165.913 76 165.673 75.92 165.465 75.76C165.257 75.6 165.113 75.392 165.033 75.136L161.121 64.144H164.913ZM188.201 59.44C188.505 59.44 188.769 59.528 188.993 59.704C189.233 59.88 189.393 60.112 189.473 60.4L194.273 76H190.529L187.145 63.832C187.081 63.56 187.017 63.288 186.953 63.016C186.889 62.728 186.833 62.456 186.785 62.2H186.137C186.089 62.456 186.033 62.728 185.969 63.016C185.921 63.288 185.857 63.56 185.777 63.832L182.393 76H178.625L183.449 60.4C183.529 60.112 183.681 59.88 183.905 59.704C184.145 59.528 184.417 59.44 184.721 59.44H188.201ZM190.745 68.872V71.632H182.153V68.872H190.745ZM214.063 64.144L211.135 75.064C211.071 75.352 210.927 75.584 210.703 75.76C210.479 75.92 210.215 76 209.911 76H207.223C206.903 76 206.623 75.904 206.383 75.712C206.143 75.504 205.999 75.24 205.951 74.92L204.655 68.248C204.607 67.912 204.567 67.584 204.535 67.264C204.503 66.928 204.455 66.592 204.391 66.256H204.103C204.055 66.592 204.007 66.928 203.959 67.264C203.911 67.584 203.863 67.912 203.815 68.248L202.519 74.92C202.471 75.24 202.327 75.504 202.087 75.712C201.847 75.904 201.567 76 201.247 76H198.583C198.279 76 198.015 75.92 197.791 75.76C197.567 75.584 197.423 75.352 197.359 75.064L194.431 64.144H198.007L199.639 71.824C199.703 72.144 199.759 72.472 199.807 72.808C199.855 73.128 199.895 73.448 199.927 73.768H200.239C200.287 73.448 200.335 73.128 200.383 72.808C200.447 72.472 200.503 72.144 200.551 71.824L201.847 65.224C201.895 64.904 202.031 64.648 202.255 64.456C202.479 64.248 202.759 64.144 203.095 64.144H205.399C205.719 64.144 205.991 64.248 206.215 64.456C206.455 64.648 206.599 64.912 206.647 65.248L207.919 71.824C207.967 72.144 208.023 72.464 208.087 72.784C208.151 73.104 208.207 73.432 208.255 73.768H208.543C208.607 73.432 208.655 73.112 208.687 72.808C208.735 72.488 208.791 72.16 208.855 71.824L210.487 64.144H214.063ZM222.024 63.832C223.016 63.832 223.856 63.968 224.544 64.24C225.232 64.496 225.752 64.944 226.104 65.584C226.472 66.208 226.656 67.072 226.656 68.176V76H223.824L223.32 73.432L223.08 73.072V68.152C223.08 67.592 222.944 67.184 222.672 66.928C222.416 66.672 221.92 66.544 221.184 66.544C220.576 66.544 219.816 66.568 218.904 66.616C217.992 66.648 217.056 66.696 216.096 66.76L215.76 64.408C216.336 64.296 217 64.2 217.752 64.12C218.504 64.04 219.256 63.976 220.008 63.928C220.76 63.864 221.432 63.832 222.024 63.832ZM225.192 68.704L225.168 70.696L219.888 70.72C219.456 70.72 219.144 70.824 218.952 71.032C218.776 71.24 218.688 71.52 218.688 71.872V72.448C218.688 72.848 218.8 73.16 219.024 73.384C219.248 73.592 219.608 73.696 220.104 73.696C220.52 73.696 220.968 73.608 221.448 73.432C221.944 73.256 222.432 73.008 222.912 72.688C223.392 72.368 223.816 71.992 224.184 71.56V73.096C224.04 73.336 223.824 73.64 223.536 74.008C223.264 74.36 222.912 74.712 222.48 75.064C222.048 75.4 221.544 75.688 220.968 75.928C220.392 76.168 219.736 76.288 219 76.288C218.28 76.288 217.632 76.16 217.056 75.904C216.48 75.648 216.024 75.272 215.688 74.776C215.352 74.28 215.184 73.664 215.184 72.928V71.704C215.184 70.76 215.504 70.024 216.144 69.496C216.784 68.968 217.664 68.704 218.784 68.704H225.192ZM232.232 64.144L232.664 66.496L233 66.808V76H229.448V64.144H232.232ZM238.016 63.832L237.68 67.12H236.696C236.136 67.12 235.552 67.2 234.944 67.36C234.336 67.52 233.568 67.76 232.64 68.08L232.4 66.088C233.232 65.352 234.072 64.792 234.92 64.408C235.768 64.024 236.592 63.832 237.392 63.832H238.016ZM243.629 63.832C244.461 63.832 245.261 63.952 246.029 64.192C246.813 64.432 247.501 64.824 248.093 65.368L247.853 67C247.309 66.84 246.821 66.696 246.389 66.568C245.957 66.44 245.453 66.376 244.877 66.376C244.381 66.376 243.981 66.464 243.677 66.64C243.373 66.816 243.149 67.16 243.005 67.672C242.861 68.184 242.789 68.944 242.789 69.952C242.789 70.896 242.853 71.616 242.981 72.112C243.125 72.592 243.341 72.928 243.629 73.12C243.933 73.296 244.317 73.384 244.781 73.384C245.197 73.384 245.557 73.344 245.861 73.264C246.165 73.168 246.469 73.032 246.773 72.856C247.077 72.664 247.421 72.432 247.805 72.16L248.069 73.912C247.589 74.584 246.965 75.152 246.197 75.616C245.429 76.064 244.485 76.288 243.365 76.288C241.845 76.288 240.757 75.744 240.101 74.656C239.461 73.568 239.141 72.008 239.141 69.976C239.141 68.392 239.301 67.16 239.621 66.28C239.957 65.384 240.461 64.752 241.133 64.384C241.805 64.016 242.637 63.832 243.629 63.832ZM250.997 59.2V76H248.189L247.829 73.816L247.445 73.552V65.776L247.589 65.464C247.541 64.968 247.501 64.472 247.469 63.976C247.453 63.464 247.445 62.944 247.445 62.416V59.2H250.997ZM258.405 63.832C258.981 63.832 259.605 63.856 260.277 63.904C260.949 63.936 261.605 63.984 262.245 64.048C262.885 64.112 263.453 64.192 263.949 64.288L263.709 66.496C262.941 66.48 262.165 66.472 261.381 66.472C260.613 66.456 259.861 66.448 259.125 66.448C258.501 66.432 258.021 66.44 257.685 66.472C257.349 66.504 257.109 66.584 256.965 66.712C256.837 66.824 256.773 67.032 256.773 67.336C256.773 67.688 256.893 67.928 257.133 68.056C257.373 68.168 257.773 68.296 258.333 68.44L261.429 69.184C262.421 69.44 263.157 69.824 263.637 70.336C264.117 70.832 264.357 71.584 264.357 72.592C264.357 73.584 264.173 74.344 263.805 74.872C263.437 75.4 262.853 75.768 262.053 75.976C261.253 76.168 260.221 76.264 258.957 76.264C258.461 76.264 257.725 76.24 256.749 76.192C255.773 76.144 254.701 76.024 253.533 75.832L253.773 73.624C254.061 73.64 254.429 73.656 254.877 73.672C255.325 73.672 255.813 73.672 256.341 73.672C256.869 73.672 257.397 73.672 257.925 73.672C258.741 73.672 259.365 73.656 259.797 73.624C260.229 73.576 260.525 73.48 260.685 73.336C260.845 73.192 260.925 72.976 260.925 72.688C260.925 72.336 260.789 72.096 260.517 71.968C260.245 71.84 259.813 71.704 259.221 71.56L256.221 70.816C255.469 70.608 254.885 70.344 254.469 70.024C254.053 69.704 253.757 69.312 253.581 68.848C253.421 68.384 253.341 67.832 253.341 67.192C253.341 66.376 253.501 65.728 253.821 65.248C254.157 64.752 254.693 64.392 255.429 64.168C256.181 63.944 257.173 63.832 258.405 63.832Z" fill="white"/>
<path d="M66.8215 106.737C68.3324 107.651 69.7417 108.717 71.0427 109.885C72.3449 111.053 73.5346 112.335 74.5892 113.695C75.6407 115.055 76.5563 116.504 77.2357 118L80 116.473C78.9389 114.834 77.6898 113.399 76.3428 112.101C74.992 110.806 73.5413 109.648 72.0062 108.632C70.4717 107.617 68.858 106.735 67.1762 106.032C65.4972 105.331 63.743 104.803 61.9611 104.581C63.6917 105.063 65.3094 105.828 66.8215 106.737ZM38.0978 3.03906C37.5434 3.62288 34.5698 4.99507 33.6066 4.62995C34.8831 1.69486 35.772 0.384496 37.7935 0.719469C39.6698 1.03137 41.2509 0.61181 41.8293 0C41.7038 3.6804 38.7057 7.11564 33.7146 5.0655C34.9024 5.11011 38.1024 3.75207 38.0978 3.03906ZM33.1863 9.48383C32.6217 9.69207 30.1718 9.62563 29.6465 9.06088C31.4725 7.51521 32.502 6.93046 33.7475 7.82649C34.9039 8.65854 36.1034 8.90155 36.6944 8.68315C35.394 11.1116 32.2473 12.4217 29.5747 9.38909C30.3572 9.81326 32.9531 9.96398 33.1863 9.48383ZM28.6889 8.2682C29.0448 7.2193 28.0368 6.13963 28.0233 4.92093C28.0034 3.06951 29.8779 0.873267 32.5158 0.0525991C31.177 2.1947 33.3305 3.81912 32.1964 6.20884C31.0632 8.59795 29.0488 8.54566 29.0488 8.54566C30.2035 7.67331 31.1209 6.38848 30.6895 4.25683C30.6211 6.01936 29.83 7.63209 28.6889 8.2682ZM29.2943 14.8994C28.5901 15.2888 25.3416 15.6988 24.5343 15.0593C26.6337 12.6465 27.8751 11.6659 29.7015 12.5967C31.3964 13.4607 33.0301 13.5386 33.7662 13.1295C32.5403 16.6013 28.6481 18.9701 24.5045 15.5075C25.6245 15.9086 29.0844 15.5807 29.2943 14.8994ZM23.109 14.2064C23.367 12.7487 21.8178 11.5275 21.5542 9.91969C21.1535 7.47829 23.1854 4.19716 26.5051 2.57797C25.1688 5.67947 28.3403 7.38786 27.3259 10.7745C26.3118 14.1605 23.6392 14.5001 23.6392 14.5001C24.9887 13.1132 25.9417 11.2294 24.9411 8.50228C25.2072 10.844 24.4873 13.1341 23.109 14.2064ZM24.1654 21.1181C23.3974 21.6154 19.7423 22.3386 18.7739 21.6767C20.9669 18.7711 22.2995 17.5589 24.4459 18.4706C26.4382 19.3171 28.2989 19.2756 29.1025 18.7533C27.9844 22.792 23.7537 25.7901 18.7767 22.1876C20.0795 22.5548 23.9804 21.908 24.1654 21.1181ZM17.0894 20.8215C17.2674 19.1458 15.4116 17.8828 14.9854 16.079C14.3376 13.3399 16.3852 9.45245 20.0252 7.35156C18.7531 10.9781 22.4892 12.6662 21.6052 16.5902C20.7218 20.5152 17.7147 21.1128 17.7147 21.1128C19.1372 19.4315 20.07 17.2174 18.7178 14.2008C19.2054 16.8375 18.569 19.4955 17.0894 20.8215ZM20.5162 28.4659C19.8371 29.2374 16.1115 31.1325 14.8672 30.7132C16.3524 26.9086 17.422 25.1946 20.0148 25.5238C22.4232 25.8298 24.418 25.2174 25.1268 24.4084C25.1455 29.1079 21.4892 33.6339 15.025 31.2638C16.5423 31.2626 20.5567 29.3749 20.5162 28.4659ZM12.7887 30.3038C12.4727 28.4416 10.087 27.644 9.07992 25.8274C7.5494 23.0685 8.58008 18.2494 11.8706 14.8714C11.5985 19.1731 16.1425 19.8554 16.3791 24.3607C16.6159 28.8661 13.5524 30.4275 13.5524 30.4275C14.577 28.1789 14.9123 25.505 12.5374 22.6619C13.8636 25.3595 13.9839 28.421 12.7887 30.3038ZM19.1931 36.1882C18.6847 37.2078 15.2318 40.2989 13.7795 40.2051C14.2913 35.7071 14.9513 33.5659 17.8218 33.1792C20.487 32.8209 22.4508 31.5963 22.9798 30.5284C24.3333 35.556 21.7003 41.4459 14.1044 40.7501C15.7295 40.3161 19.4591 37.8876 19.1931 36.1882ZM11.0505 40.274C10.1827 38.3699 7.40151 38.1952 5.80686 36.5364C3.3862 34.0174 3.12261 28.5619 5.68964 24.0064C6.61722 28.6917 11.6789 28.1273 13.2094 32.8852C14.7411 37.6425 11.9026 40.1891 11.9026 40.1891C12.3625 37.4887 11.963 34.529 8.61384 32.1605C10.7985 34.6717 11.7958 37.9168 11.0505 40.274ZM18.65 45.9556C18.3901 47.1786 15.5702 51.4164 14.0013 51.7175C13.3097 46.7972 13.4229 44.3398 16.3674 43.1371C19.1004 42.0205 20.8506 40.1771 21.1197 38.8965C23.9375 43.8652 22.7583 50.8498 14.4969 52.2069C16.9133 50.9654 19.2342 46.8947 18.65 45.9556ZM11.3389 52.1657C9.8949 50.3816 6.89154 50.9642 4.74182 49.6418C1.47765 47.6329 -0.299878 41.9101 1.17541 36.361C3.44849 41.0826 8.67061 39.0866 11.604 43.7187C14.538 48.3518 12.2211 51.8402 12.2211 51.8402C11.9682 48.8442 10.731 45.8101 6.52211 44.2177C9.53344 46.2829 11.484 49.4551 11.3389 52.1657ZM20.6733 55.8433C20.645 57.2053 18.4926 62.3157 16.8755 62.9586C15.1339 57.8371 14.7534 55.186 17.6574 53.2961C20.3533 51.5419 21.8494 49.2127 21.8767 47.7873C25.9034 52.5249 26.0645 60.2364 17.5052 63.3803C20.1323 61.3527 21.4895 56.7285 20.6733 55.8433ZM14.1345 64.0927C12.226 62.4806 9.13239 63.7181 6.56444 62.7445C2.66389 61.2647 -0.404206 55.5074 0.043474 49.2699C3.43652 53.855 8.61568 50.6498 12.6976 55.0045C16.7792 59.3579 15.0121 63.5637 15.0121 63.5637C14.1305 60.4111 12.1895 57.4191 7.36223 56.5784C11.0044 58.1703 13.7372 61.1641 14.1345 64.0927ZM24.5294 66.7205C24.6346 68.1899 22.8258 73.9094 21.1483 74.7642C18.761 69.4228 18.0879 66.6052 21.0274 64.2794C23.7561 62.1198 25.1354 59.4609 25.0228 57.9236C29.8313 62.623 30.7748 70.9121 21.8684 75.1548C24.2342 72.9454 25.4962 67.5919 24.5294 66.7205ZM17.6632 76.5932C15.4469 75.0478 12.2385 76.691 9.3751 75.8989C5.02656 74.6965 1.14872 68.8026 1.0088 62.0398C5.12108 66.6381 10.3794 62.6676 15.2091 66.9481C20.039 71.229 18.5552 75.9361 18.5552 75.9361C17.2925 72.6282 14.9028 69.6002 9.62058 69.1785C13.7016 70.528 16.9439 73.4787 17.6632 76.5932ZM32.2894 77.1401C32.8714 78.6131 32.8598 85.0656 31.4152 86.4864C27.2443 81.7811 25.6447 79.109 27.9101 75.7703C30.0126 72.6716 30.5707 69.4975 29.9589 67.9571C36.4065 71.2179 40.0466 79.416 32.2798 86.6537C33.9125 83.5907 33.5621 77.7202 32.2894 77.1401ZM27.8945 88.3864C25.1225 87.5193 22.3621 90.2443 19.1695 90.3603C14.3214 90.5356 8.44231 85.7466 6.1183 78.8555C11.8188 82.2391 15.9323 76.4624 22.267 79.2883C28.6023 82.1142 28.5981 87.423 28.5981 87.423C26.2357 84.4396 22.8086 82.1081 17.2536 83.3864C21.8758 83.4489 26.1522 85.4252 27.8945 88.3864ZM55.3263 91.6491C56.7172 92.8558 60.1717 99.5202 59.4435 101.766C52.6123 99.1615 49.5267 97.268 50.0711 92.6005C50.5767 88.2671 49.4466 84.691 47.9876 83.431C56.3938 83.3163 64.5536 89.8109 60.4263 101.473C60.5089 97.3519 56.9514 91.5617 55.3263 91.6491ZM58.7476 105.508C55.4221 106.11 54.0364 110.412 50.8038 112.254C45.8947 115.053 37.2568 113.284 31.1571 107.427C38.8576 107.843 39.9987 99.6605 48.0542 99.1569C56.1091 98.6534 58.9553 104.135 58.9553 104.135C54.9161 102.331 50.1269 101.775 45.0815 106.093C49.8845 103.662 55.3589 103.393 58.7476 105.508ZM42.6299 86.8684C43.4534 88.3492 44.347 95.1972 43.0131 96.9081C37.9279 92.5036 35.8567 89.8949 37.7913 86.0339C39.5876 82.4492 39.7336 79.0029 38.8683 77.455C46.1674 80.0056 51.1791 88.1899 43.9548 96.9634C45.2632 93.3495 44.0613 87.3055 42.6299 86.8684ZM40.2991 99.0136C37.216 98.6211 34.8165 102.011 31.4741 102.733C26.3983 103.829 19.3088 99.8881 15.5714 93.064C22.2106 95.558 25.4643 88.6983 32.6677 90.4858C39.8714 92.2723 40.8588 97.8669 40.8588 97.8669C37.8122 95.1674 33.7646 93.3544 28.1519 95.7454C33.0325 94.9425 37.9085 96.2209 40.2991 99.0136Z" fill="white"/>
<path d="M303.178 106.737C301.668 107.651 300.258 108.717 298.957 109.885C297.655 111.053 296.465 112.335 295.411 113.695C294.359 115.055 293.444 116.504 292.764 118L290 116.473C291.061 114.834 292.31 113.399 293.657 112.101C295.008 110.806 296.459 109.648 297.994 108.632C299.528 107.617 301.142 106.735 302.824 106.032C304.503 105.331 306.257 104.803 308.039 104.581C306.308 105.063 304.691 105.828 303.178 106.737ZM331.902 3.03906C332.457 3.62288 335.43 4.99507 336.393 4.62995C335.117 1.69486 334.228 0.384496 332.207 0.719469C330.33 1.03137 328.749 0.61181 328.171 0C328.296 3.6804 331.294 7.11564 336.285 5.0655C335.098 5.11011 331.898 3.75207 331.902 3.03906ZM336.814 9.48383C337.378 9.69207 339.828 9.62563 340.353 9.06088C338.527 7.51521 337.498 6.93046 336.253 7.82649C335.096 8.65854 333.897 8.90155 333.306 8.68315C334.606 11.1116 337.753 12.4217 340.425 9.38909C339.643 9.81326 337.047 9.96398 336.814 9.48383ZM341.311 8.2682C340.955 7.2193 341.963 6.13963 341.977 4.92093C341.997 3.06951 340.122 0.873267 337.484 0.0525991C338.823 2.1947 336.67 3.81912 337.804 6.20884C338.937 8.59795 340.951 8.54566 340.951 8.54566C339.797 7.67331 338.879 6.38848 339.311 4.25683C339.379 6.01936 340.17 7.63209 341.311 8.2682ZM340.706 14.8994C341.41 15.2888 344.658 15.6988 345.466 15.0593C343.366 12.6465 342.125 11.6659 340.299 12.5967C338.604 13.4607 336.97 13.5386 336.234 13.1295C337.46 16.6013 341.352 18.9701 345.495 15.5075C344.376 15.9086 340.916 15.5807 340.706 14.8994ZM346.891 14.2064C346.633 12.7487 348.182 11.5275 348.446 9.91969C348.847 7.47829 346.815 4.19716 343.495 2.57797C344.831 5.67947 341.66 7.38786 342.674 10.7745C343.688 14.1605 346.361 14.5001 346.361 14.5001C345.011 13.1132 344.058 11.2294 345.059 8.50228C344.793 10.844 345.513 13.1341 346.891 14.2064ZM345.835 21.1181C346.603 21.6154 350.258 22.3386 351.226 21.6767C349.033 18.7711 347.7 17.5589 345.554 18.4706C343.562 19.3171 341.701 19.2756 340.898 18.7533C342.016 22.792 346.246 25.7901 351.223 22.1876C349.92 22.5548 346.02 21.908 345.835 21.1181ZM352.911 20.8215C352.733 19.1458 354.588 17.8828 355.015 16.079C355.662 13.3399 353.615 9.45245 349.975 7.35156C351.247 10.9781 347.511 12.6662 348.395 16.5902C349.278 20.5152 352.285 21.1128 352.285 21.1128C350.863 19.4315 349.93 17.2174 351.282 14.2008C350.795 16.8375 351.431 19.4955 352.911 20.8215ZM349.484 28.4659C350.163 29.2374 353.889 31.1325 355.133 30.7132C353.648 26.9086 352.578 25.1946 349.985 25.5238C347.577 25.8298 345.582 25.2174 344.873 24.4084C344.855 29.1079 348.511 33.6339 354.975 31.2638C353.458 31.2626 349.443 29.3749 349.484 28.4659ZM357.211 30.3038C357.527 28.4416 359.913 27.644 360.92 25.8274C362.451 23.0685 361.42 18.2494 358.129 14.8714C358.402 19.1731 353.858 19.8554 353.621 24.3607C353.384 28.8661 356.448 30.4275 356.448 30.4275C355.423 28.1789 355.088 25.505 357.463 22.6619C356.136 25.3595 356.016 28.421 357.211 30.3038ZM350.807 36.1882C351.315 37.2078 354.768 40.2989 356.221 40.2051C355.709 35.7071 355.049 33.5659 352.178 33.1792C349.513 32.8209 347.549 31.5963 347.02 30.5284C345.667 35.556 348.3 41.4459 355.896 40.7501C354.271 40.3161 350.541 37.8876 350.807 36.1882ZM358.95 40.274C359.817 38.3699 362.598 38.1952 364.193 36.5364C366.614 34.0174 366.877 28.5619 364.31 24.0064C363.383 28.6917 358.321 28.1273 356.791 32.8852C355.259 37.6425 358.097 40.1891 358.097 40.1891C357.637 37.4887 358.037 34.529 361.386 32.1605C359.201 34.6717 358.204 37.9168 358.95 40.274ZM351.35 45.9556C351.61 47.1786 354.43 51.4164 355.999 51.7175C356.69 46.7972 356.577 44.3398 353.633 43.1371C350.9 42.0205 349.149 40.1771 348.88 38.8965C346.063 43.8652 347.242 50.8498 355.503 52.2069C353.087 50.9654 350.766 46.8947 351.35 45.9556ZM358.661 52.1657C360.105 50.3816 363.108 50.9642 365.258 49.6418C368.522 47.6329 370.3 41.9101 368.825 36.361C366.552 41.0826 361.329 39.0866 358.396 43.7187C355.462 48.3518 357.779 51.8402 357.779 51.8402C358.032 48.8442 359.269 45.8101 363.478 44.2177C360.467 46.2829 358.516 49.4551 358.661 52.1657ZM349.327 55.8433C349.355 57.2053 351.507 62.3157 353.124 62.9586C354.866 57.8371 355.247 55.186 352.343 53.2961C349.647 51.5419 348.151 49.2127 348.123 47.7873C344.097 52.5249 343.936 60.2364 352.495 63.3803C349.868 61.3527 348.511 56.7285 349.327 55.8433ZM355.865 64.0927C357.774 62.4806 360.868 63.7181 363.436 62.7445C367.336 61.2647 370.404 55.5074 369.957 49.2699C366.563 53.855 361.384 50.6498 357.302 55.0045C353.221 59.3579 354.988 63.5637 354.988 63.5637C355.869 60.4111 357.811 57.4191 362.638 56.5784C358.996 58.1703 356.263 61.1641 355.865 64.0927ZM345.471 66.7205C345.365 68.1899 347.174 73.9094 348.852 74.7642C351.239 69.4228 351.912 66.6052 348.973 64.2794C346.244 62.1198 344.865 59.4609 344.977 57.9236C340.169 62.623 339.225 70.9121 348.132 75.1548C345.766 72.9454 344.504 67.5919 345.471 66.7205ZM352.337 76.5932C354.553 75.0478 357.761 76.691 360.625 75.8989C364.973 74.6965 368.851 68.8026 368.991 62.0398C364.879 66.6381 359.621 62.6676 354.791 66.9481C349.961 71.229 351.445 75.9361 351.445 75.9361C352.707 72.6282 355.097 69.6002 360.379 69.1785C356.298 70.528 353.056 73.4787 352.337 76.5932ZM337.711 77.1401C337.129 78.6131 337.14 85.0656 338.585 86.4864C342.756 81.7811 344.355 79.109 342.09 75.7703C339.987 72.6716 339.429 69.4975 340.041 67.9571C333.593 71.2179 329.953 79.416 337.72 86.6537C336.087 83.5907 336.438 77.7202 337.711 77.1401ZM342.106 88.3864C344.878 87.5193 347.638 90.2443 350.831 90.3603C355.679 90.5356 361.558 85.7466 363.882 78.8555C358.181 82.2391 354.068 76.4624 347.733 79.2883C341.398 82.1142 341.402 87.423 341.402 87.423C343.764 84.4396 347.191 82.1081 352.746 83.3864C348.124 83.4489 343.848 85.4252 342.106 88.3864ZM314.674 91.6491C313.283 92.8558 309.828 99.5202 310.556 101.766C317.388 99.1615 320.473 97.268 319.929 92.6005C319.423 88.2671 320.553 84.691 322.012 83.431C313.606 83.3163 305.446 89.8109 309.574 101.473C309.491 97.3519 313.049 91.5617 314.674 91.6491ZM311.252 105.508C314.578 106.11 315.964 110.412 319.196 112.254C324.105 115.053 332.743 113.284 338.843 107.427C331.142 107.843 330.001 99.6605 321.946 99.1569C313.891 98.6534 311.045 104.135 311.045 104.135C315.084 102.331 319.873 101.775 324.918 106.093C320.115 103.662 314.641 103.393 311.252 105.508ZM327.37 86.8684C326.547 88.3492 325.653 95.1972 326.987 96.9081C332.072 92.5036 334.143 89.8949 332.209 86.0339C330.412 82.4492 330.266 79.0029 331.132 77.455C323.833 80.0056 318.821 88.1899 326.045 96.9634C324.737 93.3495 325.939 87.3055 327.37 86.8684ZM329.701 99.0136C332.784 98.6211 335.184 102.011 338.526 102.733C343.602 103.829 350.691 99.8881 354.429 93.064C347.789 95.558 344.536 88.6983 337.332 90.4858C330.129 92.2723 329.141 97.8669 329.141 97.8669C332.188 95.1674 336.235 93.3544 341.848 95.7454C336.967 94.9425 332.091 96.2209 329.701 99.0136Z" fill="white"/>
</svg>
