<svg width="49" height="49" viewBox="0 0 49 49" fill="none" xmlns="http://www.w3.org/2000/svg">
<g clip-path="url(#clip0_3545_7495)">
<path d="M43.0801 0C46.0541 0 48.4646 2.4108 48.4648 5.38477V43.0811C48.4648 46.0552 46.0542 48.4668 43.0801 48.4668H5.38379C2.40971 48.4667 -0.000976562 46.0552 -0.000976562 43.0811V5.38477C-0.000764436 2.41085 2.40984 7.83221e-05 5.38379 0H43.0801ZM7.4248 41.7354H14.6523V18.3994H7.4248V41.7354ZM33.2402 17.6865C28.2883 17.6866 26.2041 21.543 26.2041 21.543V18.3994H19.2734V41.7354H26.2041V29.4854C26.2041 26.2031 27.7155 24.25 30.6074 24.25C33.2655 24.2502 34.542 26.1269 34.542 29.4854V41.7354H41.7334V26.96C41.7333 20.7089 38.1899 17.6865 33.2402 17.6865ZM11.0039 6.73145C8.64324 6.73155 6.73073 8.65941 6.73047 11.0371C6.73047 13.415 8.64308 15.3436 11.0039 15.3438C13.3648 15.3438 15.2773 13.4151 15.2773 11.0371C15.2771 8.65934 13.3647 6.73145 11.0039 6.73145Z" fill="white"/>
</g>
<defs>
<clipPath id="clip0_3545_7495">
<rect width="48.4665" height="48.4665" fill="white"/>
</clipPath>
</defs>
</svg>
