<svg width="40" height="49" viewBox="0 0 40 49" fill="none" xmlns="http://www.w3.org/2000/svg">
<path d="M24.0648 2.20312H6.56295C5.40251 2.20313 4.2896 2.66733 3.46904 3.49363C2.64848 4.31992 2.1875 5.44062 2.1875 6.60918V41.8576C2.1875 43.0261 2.64848 44.1468 3.46904 44.9731C4.2896 45.7994 5.40251 46.2636 6.56295 46.2636H32.8157C33.9761 46.2636 35.089 45.7994 35.9096 44.9731C36.7301 44.1468 37.1911 43.0261 37.1911 41.8576V15.4213L24.0648 2.20312Z" stroke="white" stroke-width="3.02916" stroke-linecap="round" stroke-linejoin="round"/>
<path d="M24.0645 2.20312V15.4213H37.1908" stroke="white" stroke-width="3.02916" stroke-linecap="round" stroke-linejoin="round"/>
<path d="M15.0046 23.96C15.6579 23.96 16.2113 23.98 16.6646 24.02C17.1313 24.0467 17.5579 24.0933 17.9446 24.16C18.3313 24.2267 18.7313 24.32 19.1446 24.44L18.9046 26.68C18.4646 26.6533 18.0579 26.6333 17.6846 26.62C17.3246 26.6067 16.9313 26.6 16.5046 26.6C16.0913 26.5867 15.5913 26.58 15.0046 26.58C14.3246 26.58 13.7913 26.7133 13.4046 26.98C13.0313 27.2467 12.7646 27.7133 12.6046 28.38C12.4446 29.0333 12.3646 29.94 12.3646 31.1C12.3646 32.26 12.4446 33.1733 12.6046 33.84C12.7646 34.4933 13.0313 34.9533 13.4046 35.22C13.7913 35.4867 14.3246 35.62 15.0046 35.62C15.9246 35.62 16.6979 35.6067 17.3246 35.58C17.9513 35.5533 18.5713 35.5067 19.1846 35.44L19.4446 37.68C18.8046 37.88 18.1513 38.02 17.4846 38.1C16.8179 38.1933 15.9913 38.24 15.0046 38.24C13.5779 38.24 12.4313 38.0133 11.5646 37.56C10.7113 37.0933 10.0913 36.34 9.70461 35.3C9.33128 34.26 9.14461 32.86 9.14461 31.1C9.14461 29.34 9.33128 27.94 9.70461 26.9C10.0913 25.86 10.7113 25.1133 11.5646 24.66C12.4313 24.1933 13.5779 23.96 15.0046 23.96ZM32.6224 24.2L28.8624 37.16C28.7958 37.4 28.6624 37.6 28.4624 37.76C28.2758 37.92 28.0491 38 27.7824 38H24.9824C24.7024 38 24.4624 37.92 24.2624 37.76C24.0758 37.6 23.9558 37.4 23.9024 37.16L20.1224 24.2H23.2824L25.8024 34.16C25.8558 34.4133 25.9091 34.6733 25.9624 34.94C26.0291 35.1933 26.0824 35.4467 26.1224 35.7H26.6424C26.6824 35.4467 26.7291 35.1867 26.7824 34.92C26.8491 34.6533 26.9158 34.3933 26.9824 34.14L29.4824 24.2H32.6224Z" fill="white"/>
</svg>
