<svg width="487" height="473" viewBox="0 0 487 473" fill="none" xmlns="http://www.w3.org/2000/svg">
<path d="M72.1926 172H70.5726C70.2366 172 70.0686 171.832 70.0686 171.496V149.356C70.0686 149.02 70.2366 148.852 70.5726 148.852H78.9966C80.6526 148.852 81.9486 149.332 82.8846 150.292C83.8206 151.228 84.2886 152.524 84.2886 154.18V158.176C84.2886 159.856 83.8206 161.164 82.8846 162.1C81.9486 163.036 80.6526 163.504 78.9966 163.504H73.0566C72.8166 163.504 72.6966 163.612 72.6966 163.828V171.496C72.6966 171.832 72.5286 172 72.1926 172ZM73.0566 161.164H78.6366C80.6526 161.164 81.6606 160.132 81.6606 158.068V154.288C81.6606 152.2 80.6526 151.156 78.6366 151.156H73.0566C72.8166 151.156 72.6966 151.264 72.6966 151.48V160.84C72.6966 161.056 72.8166 161.164 73.0566 161.164ZM101.078 172H89.5218C89.1858 172 89.0178 171.832 89.0178 171.496V149.356C89.0178 149.02 89.1858 148.852 89.5218 148.852H91.1418C91.4778 148.852 91.6458 149.02 91.6458 149.356V169.3C91.6458 169.516 91.7658 169.624 92.0058 169.624H101.078C101.414 169.624 101.582 169.804 101.582 170.164V171.496C101.582 171.832 101.414 172 101.078 172ZM105.548 172H103.748C103.436 172 103.328 171.832 103.424 171.496L110.156 149.356C110.252 149.02 110.48 148.852 110.84 148.852H113.432C113.792 148.852 114.02 149.02 114.116 149.356L120.848 171.496C120.944 171.832 120.836 172 120.524 172H118.688C118.424 172 118.256 171.832 118.184 171.496L116.492 166.24H107.78L106.088 171.496C105.992 171.832 105.812 172 105.548 172ZM112.064 151.552L108.356 164.008H115.916L112.208 151.552H112.064ZM126.789 172H125.205C124.869 172 124.701 171.832 124.701 171.496V149.356C124.701 149.02 124.869 148.852 125.205 148.852H126.681C126.969 148.852 127.161 148.948 127.257 149.14L137.193 166.6H137.337V149.356C137.337 149.02 137.505 148.852 137.841 148.852H139.425C139.761 148.852 139.929 149.02 139.929 149.356V171.496C139.929 171.832 139.761 172 139.425 172H138.093C137.829 172 137.577 171.844 137.337 171.532L127.437 154.252H127.293V171.496C127.293 171.832 127.125 172 126.789 172Z" fill="#15548F"/>
<path fill-rule="evenodd" clip-rule="evenodd" d="M81.0295 114.968V61C81.0295 59.0156 81.574 57.642 82.6721 56.834C83.6994 56.0782 84.9921 56 86.0002 56H101.69C102.242 56 102.69 56.4477 102.69 57C102.69 57.5523 102.242 58 101.69 58H86.0002C85.0086 58 84.3157 58.1075 83.8577 58.4443C83.4707 58.729 83.0295 59.3554 83.0295 61V114.968C83.0296 115.719 83.0993 116.493 83.4241 117.064C83.5742 117.328 83.7788 117.546 84.0735 117.706C84.3741 117.869 84.8227 118 85.5002 118H130C131.089 118 131.729 117.966 132.162 117.67C132.491 117.445 132.952 116.862 132.952 114.968V113.5C132.952 112.948 133.4 112.5 133.952 112.5C134.505 112.5 134.952 112.948 134.952 113.5V114.968C134.952 117.105 134.437 118.538 133.29 119.321C132.291 120.003 131.023 120.001 130.117 120L130 120H85.5002C84.5648 120 83.7729 119.818 83.1204 119.465C82.4619 119.108 82 118.605 81.6858 118.053C81.0819 116.991 81.0295 115.749 81.0295 114.968ZM133 78.5V71C133 70.1358 132.994 69.4951 132.959 69H125C123.865 69 122.899 68.7128 122.382 67.8086C122.158 67.4165 122.074 66.9926 122.036 66.625C122 66.2715 122 65.887 122 65.5358V65.5V58H108.5C107.948 58 107.5 57.5523 107.5 57C107.5 56.4477 107.948 56 108.5 56H123C123.659 56 124.281 56.2953 124.779 56.6104C125.3 56.9393 125.818 57.3746 126.294 57.8184C126.748 58.2415 127.224 58.7324 127.65 59.1816L128.707 60.293L128.74 60.3271L133.74 65.8271H133.739C134.889 66.9998 134.992 68.3504 135 70.1787V78.5C135 79.0523 134.552 79.5 134 79.5C133.448 79.5 133 79.0523 133 78.5ZM124 58.499V65.5C124 65.889 124.001 66.1782 124.026 66.4219C124.051 66.6633 124.092 66.771 124.118 66.8164L124.119 66.818C124.129 66.8362 124.144 66.8624 124.229 66.8975C124.342 66.9448 124.572 67 125 67H132.103L127.26 61.6729V61.6719C127.01 61.4204 126.751 61.1445 126.479 60.8545L126.479 60.8544C126.01 60.3546 125.501 59.8127 124.931 59.2812C124.605 58.978 124.292 58.7117 124 58.499ZM100 67C100 66.4477 99.5524 66 99.0001 66H90.0001C89.4478 66 89.0001 66.4477 89.0001 67C89.0001 67.5523 89.4478 68 90.0001 68H99.0001C99.5524 68 100 67.5523 100 67ZM102 73C102.552 73 103 73.4477 103 74C103 74.5523 102.552 75 102 75H90.0001C89.4478 75 89.0001 74.5523 89.0001 74C89.0001 73.4477 89.4478 73 90.0001 73H102Z" fill="#15548F"/>
<path d="M121.431 90.2297C126.689 89.6975 131 93.7196 131 98.3079C131 102.712 127.067 106.434 122.411 106.434H97.1799C92.6703 106.434 89 102.788 89 98.3079C89 95.7141 90.6336 93.0553 93.1345 91.4823C94.613 82.3193 104.795 78.3253 111.619 84.1892C116.671 83.5482 120.282 86.4143 121.431 90.2297Z" fill="#B3E2FC"/>
<path d="M119.095 90.9054C118.191 87.9047 115.48 86.1062 111.932 86.5565L110.84 86.695L110.012 85.9838C104.663 81.3863 96.7257 84.5114 95.5408 91.8551L95.3701 92.9127L94.4505 93.4911C92.6075 94.6503 91.4362 96.5763 91.4362 98.3079C91.4362 101.477 94.0232 104.047 97.1799 104.047H122.411C125.74 104.047 128.564 101.375 128.564 98.3079C128.564 95.0106 125.375 92.2303 121.682 92.6041L119.668 92.8079L119.095 90.9054ZM121.431 90.2297C126.689 89.6975 131 93.7196 131 98.3079C131 102.712 127.067 106.434 122.411 106.434H97.1799C92.6703 106.434 89 102.788 89 98.3079C89 95.7141 90.6336 93.0553 93.1345 91.4823C94.613 82.3193 104.795 78.3253 111.619 84.1892C116.671 83.5482 120.282 86.4143 121.431 90.2297Z" fill="#15548F"/>
<path d="M67.5019 411H65.8819C65.5459 411 65.3779 410.832 65.3779 410.496V390.48C65.3779 390.264 65.2579 390.156 65.0179 390.156H60.1219C59.7619 390.156 59.5819 389.988 59.5819 389.652V388.356C59.5819 388.02 59.7619 387.852 60.1219 387.852H73.2619C73.6219 387.852 73.8019 388.02 73.8019 388.356V389.652C73.8019 389.988 73.6219 390.156 73.2619 390.156H68.3659C68.1259 390.156 68.0059 390.264 68.0059 390.48V410.496C68.0059 410.832 67.8379 411 67.5019 411ZM79.3371 411H77.7171C77.3811 411 77.2131 410.832 77.2131 410.496V388.356C77.2131 388.02 77.3811 387.852 77.7171 387.852H85.9971C87.6531 387.852 88.9611 388.332 89.9211 389.292C90.8811 390.228 91.3611 391.524 91.3611 393.18V396.456C91.3611 397.8 91.0371 398.916 90.3891 399.804C89.7411 400.668 88.8411 401.244 87.6891 401.532V401.676L91.8651 410.424C92.0811 410.808 91.9611 411 91.5051 411H89.8851C89.4771 411 89.1771 410.832 88.9851 410.496L84.9531 401.784H80.2011C79.9611 401.784 79.8411 401.892 79.8411 402.108V410.496C79.8411 410.832 79.6731 411 79.3371 411ZM80.2011 399.588H85.6371C87.7011 399.588 88.7331 398.556 88.7331 396.492V393.288C88.7331 391.2 87.7011 390.156 85.6371 390.156H80.2011C79.9611 390.156 79.8411 390.264 79.8411 390.48V399.264C79.8411 399.48 79.9611 399.588 80.2011 399.588ZM96.8371 411H95.0371C94.7251 411 94.6171 410.832 94.7131 410.496L101.445 388.356C101.541 388.02 101.769 387.852 102.129 387.852H104.721C105.081 387.852 105.309 388.02 105.405 388.356L112.137 410.496C112.233 410.832 112.125 411 111.813 411H109.977C109.713 411 109.545 410.832 109.473 410.496L107.781 405.24H99.0691L97.3771 410.496C97.2811 410.832 97.1011 411 96.8371 411ZM103.353 390.552L99.6451 403.008H107.205L103.497 390.552H103.353ZM125.278 411H120.958C119.302 411 117.994 410.532 117.034 409.596C116.098 408.66 115.63 407.352 115.63 405.672V393.18C115.63 391.5 116.098 390.192 117.034 389.256C117.994 388.32 119.302 387.852 120.958 387.852H125.278C126.934 387.852 128.23 388.32 129.166 389.256C130.126 390.192 130.606 391.5 130.606 393.18V394.944C130.606 395.28 130.438 395.448 130.102 395.448H128.482C128.146 395.448 127.978 395.28 127.978 394.944V393.288C127.978 391.2 126.97 390.156 124.954 390.156H121.246C119.254 390.156 118.258 391.2 118.258 393.288V405.564C118.258 407.652 119.254 408.696 121.246 408.696H124.954C126.97 408.696 127.978 407.652 127.978 405.564V403.908C127.978 403.572 128.146 403.404 128.482 403.404H130.102C130.438 403.404 130.606 403.572 130.606 403.908V405.672C130.606 407.352 130.126 408.66 129.166 409.596C128.23 410.532 126.934 411 125.278 411ZM137.591 411H135.971C135.635 411 135.467 410.832 135.467 410.496V388.356C135.467 388.02 135.635 387.852 135.971 387.852H137.591C137.927 387.852 138.095 388.02 138.095 388.356V400.776H138.203C138.371 400.272 138.635 399.78 138.995 399.3L147.059 388.356C147.275 388.02 147.587 387.852 147.995 387.852H149.939C150.347 387.852 150.407 388.032 150.119 388.392L142.991 398.04L151.127 410.424C151.391 410.808 151.283 411 150.803 411H149.327C148.823 411 148.475 410.832 148.283 410.496L141.371 399.948L138.095 403.872V410.496C138.095 410.832 137.927 411 137.591 411Z" fill="#15548F"/>
<path fill-rule="evenodd" clip-rule="evenodd" d="M91 296C91.5523 296 92 296.449 92 297.004V356.996C92 357.551 91.5523 358 91 358C90.4477 358 90 357.551 90 356.996V297.004C90 296.449 90.4477 296 91 296Z" fill="#15548F"/>
<path fill-rule="evenodd" clip-rule="evenodd" d="M76 358C76 357.448 76.398 357 76.8889 357H139.111C139.602 357 140 357.448 140 358C140 358.552 139.602 359 139.111 359H76.8889C76.398 359 76 358.552 76 358Z" fill="#15548F"/>
<path fill-rule="evenodd" clip-rule="evenodd" d="M76 296C76 295.448 76.398 295 76.8889 295H139.111C139.602 295 140 295.448 140 296C140 296.552 139.602 297 139.111 297H76.8889C76.398 297 76 296.552 76 296Z" fill="#15548F"/>
<path d="M123 318H98V323H123V318Z" fill="#B3E2FC"/>
<path fill-rule="evenodd" clip-rule="evenodd" d="M96 316.973C96 316.436 96.4191 316 96.9361 316H124.064C124.581 316 125 316.436 125 316.973V324.027C125 324.564 124.581 325 124.064 325H96.9361C96.4191 325 96 324.564 96 324.027V316.973ZM98 318L98.0312 323H123.016V318H98Z" fill="#15548F"/>
<path fill-rule="evenodd" clip-rule="evenodd" d="M96 303.973C96 303.436 96.4101 303 96.916 303H109.084C109.59 303 110 303.436 110 303.973V311.027C110 311.564 109.59 312 109.084 312H96.916C96.4101 312 96 311.564 96 311.027V303.973ZM98 305V310H108V305H98Z" fill="#15548F"/>
<path fill-rule="evenodd" clip-rule="evenodd" d="M101 329.973C101 329.436 101.411 329 101.918 329H124.082C124.589 329 125 329.436 125 329.973V337.027C125 337.564 124.589 338 124.082 338H101.918C101.411 338 101 337.564 101 337.027V329.973ZM103 331V336.053H123V331H103Z" fill="#15548F"/>
<path d="M138 344H105V349H138V344Z" fill="#B3E2FC"/>
<path fill-rule="evenodd" clip-rule="evenodd" d="M103 342.973C103 342.436 103.42 342 103.938 342H139.062C139.58 342 140 342.436 140 342.973V350.027C140 350.564 139.58 351 139.062 351H103.938C103.42 351 103 350.564 103 350.027V342.973ZM105.031 344V349H138V344H105.031Z" fill="#15548F"/>
<path fill-rule="evenodd" clip-rule="evenodd" d="M79 348C79 347.448 79.4456 347 79.9953 347H86.0047C86.5544 347 87 347.448 87 348C87 348.552 86.5544 349 86.0047 349H79.9953C79.4456 349 79 348.552 79 348Z" fill="#15548F"/>
<path fill-rule="evenodd" clip-rule="evenodd" d="M79 334C79 333.448 79.4456 333 79.9953 333H86.0047C86.5544 333 87 333.448 87 334C87 334.552 86.5544 335 86.0047 335H79.9953C79.4456 335 79 334.552 79 334Z" fill="#15548F"/>
<path fill-rule="evenodd" clip-rule="evenodd" d="M79 320C79 319.448 79.4456 319 79.9953 319H86.0047C86.5544 319 87 319.448 87 320C87 320.552 86.5544 321 86.0047 321H79.9953C79.4456 321 79 320.552 79 320Z" fill="#15548F"/>
<path fill-rule="evenodd" clip-rule="evenodd" d="M79 306C79 305.448 79.4456 305 79.9953 305H86.0047C86.5544 305 87 305.448 87 306C87 306.552 86.5544 307 86.0047 307H79.9953C79.4456 307 79 306.552 79 306Z" fill="#15548F"/>
<path d="M323.414 411H320.858C320.546 411 320.342 410.832 320.246 410.496L313.874 388.392C313.802 388.032 313.958 387.852 314.342 387.852H316.106C316.418 387.852 316.61 388.02 316.682 388.356L322.046 408.048H322.19L327.554 388.356C327.626 388.02 327.818 387.852 328.13 387.852H329.93C330.29 387.852 330.434 388.032 330.362 388.392L323.99 410.496C323.894 410.832 323.702 411 323.414 411ZM345.873 411H334.569C334.233 411 334.065 410.832 334.065 410.496V388.356C334.065 388.02 334.233 387.852 334.569 387.852H345.873C346.209 387.852 346.377 388.02 346.377 388.356V389.652C346.377 389.988 346.209 390.156 345.873 390.156H337.053C336.813 390.156 336.693 390.264 336.693 390.48V397.752C336.693 397.968 336.813 398.076 337.053 398.076H344.757C345.093 398.076 345.261 398.244 345.261 398.58V399.876C345.261 400.212 345.093 400.38 344.757 400.38H337.053C336.813 400.38 336.693 400.488 336.693 400.704V408.372C336.693 408.588 336.813 408.696 337.053 408.696H345.873C346.209 408.696 346.377 408.864 346.377 409.2V410.496C346.377 410.832 346.209 411 345.873 411ZM353.486 411H351.866C351.53 411 351.362 410.832 351.362 410.496V388.356C351.362 388.02 351.53 387.852 351.866 387.852H360.146C361.802 387.852 363.11 388.332 364.07 389.292C365.03 390.228 365.51 391.524 365.51 393.18V396.456C365.51 397.8 365.186 398.916 364.538 399.804C363.89 400.668 362.99 401.244 361.838 401.532V401.676L366.014 410.424C366.23 410.808 366.11 411 365.654 411H364.034C363.626 411 363.326 410.832 363.134 410.496L359.102 401.784H354.35C354.11 401.784 353.99 401.892 353.99 402.108V410.496C353.99 410.832 353.822 411 353.486 411ZM354.35 399.588H359.786C361.85 399.588 362.882 398.556 362.882 396.492V393.288C362.882 391.2 361.85 390.156 359.786 390.156H354.35C354.11 390.156 353.99 390.264 353.99 390.48V399.264C353.99 399.48 354.11 399.588 354.35 399.588ZM373.506 388.356V410.496C373.506 410.832 373.338 411 373.002 411H371.382C371.046 411 370.878 410.832 370.878 410.496V388.356C370.878 388.02 371.046 387.852 371.382 387.852H373.002C373.338 387.852 373.506 388.02 373.506 388.356ZM381.505 411H379.885C379.549 411 379.381 410.832 379.381 410.496V388.356C379.381 388.02 379.549 387.852 379.885 387.852H391.081C391.417 387.852 391.585 388.02 391.585 388.356V389.652C391.585 389.988 391.417 390.156 391.081 390.156H382.369C382.129 390.156 382.009 390.264 382.009 390.48V398.328C382.009 398.544 382.129 398.652 382.369 398.652H390.073C390.409 398.652 390.577 398.82 390.577 399.156V400.452C390.577 400.788 390.409 400.956 390.073 400.956H382.369C382.129 400.956 382.009 401.076 382.009 401.316V410.496C382.009 410.832 381.841 411 381.505 411ZM402.782 411H401.162C400.826 411 400.658 410.832 400.658 410.496V402.324L393.818 388.392C393.746 388.224 393.746 388.092 393.818 387.996C393.89 387.9 393.998 387.852 394.142 387.852H396.158C396.422 387.852 396.626 388.02 396.77 388.356L401.918 399.264H402.098L407.21 388.356C407.306 388.02 407.498 387.852 407.786 387.852H409.838C410.246 387.852 410.354 388.032 410.162 388.392L403.286 402.324V410.496C403.286 410.832 403.118 411 402.782 411Z" fill="#15548F"/>
<path fill-rule="evenodd" clip-rule="evenodd" d="M367.688 298.943C368.177 299.2 368.811 299.028 369.103 298.56C369.395 298.091 369.235 297.503 368.746 297.246L364.631 295.088C364.377 294.954 364.084 294.937 363.819 295.016C363.728 295.033 363.638 295.063 363.55 295.107L333.55 310.211C333.213 310.38 333 310.726 333 311.104V311.367C333 311.382 333 311.396 333 311.411V331.936C333 332.488 333.448 332.936 334 332.936C334.552 332.936 335 332.488 335 331.936V312.951L365.178 326.855C365.439 326.975 365.74 326.977 366.002 326.861L395.001 313.968V337.992C395.001 338.549 395.449 339 396.001 339C396.553 339 397 338.549 397 337.992V312.425C396.999 312.058 396.796 311.72 396.47 311.547L375.009 300.109C374.521 299.849 373.916 300.034 373.656 300.521C373.396 301.008 373.581 301.614 374.068 301.874L393.721 312.348L365.604 324.849L336.007 311.213L364.109 297.065L367.688 298.943ZM365.819 340.947C366.371 340.947 366.819 341.395 366.819 341.947V356.267L395.551 341.81C396.044 341.562 396.645 341.761 396.893 342.254C397.142 342.748 396.943 343.349 396.449 343.597L366.268 358.783C365.992 358.922 365.667 358.925 365.388 358.792L333.569 343.606C333.182 343.422 332.968 343.021 333.003 342.617C333.001 342.57 333 342.52 333 342.467V342.087V337.911C333 337.408 333.448 337 334 337C334.552 337 335 337.408 335 337.911V342.073L364.819 356.304V341.947C364.819 341.395 365.266 340.947 365.819 340.947Z" fill="#15548F"/>
<circle cx="365" cy="330" r="13" fill="#B3E2FC"/>
<path d="M361.377 333.43L358.264 330.002C357.808 329.483 357.014 329.43 356.492 329.885C355.969 330.34 355.916 331.128 356.374 331.648L360.366 336.074C360.594 336.333 360.919 336.487 361.265 336.499C361.281 336.5 361.296 336.5 361.311 336.5C361.641 336.5 361.958 336.371 362.194 336.14L373.564 325.638C374.058 325.153 374.063 324.362 373.575 323.871C373.088 323.381 372.293 323.376 371.799 323.86L361.377 333.43Z" fill="#15548F"/>
<path d="M316.797 167.672V166.52C316.797 166.184 316.965 166.016 317.301 166.016H318.921C319.257 166.016 319.425 166.184 319.425 166.52V167.456C319.425 169.616 320.493 170.696 322.629 170.696H325.797C327.933 170.696 329.001 169.592 329.001 167.384V166.16C329.001 164.432 327.573 163.304 324.717 162.776C323.517 162.56 322.317 162.308 321.117 162.02C319.917 161.732 318.897 161.18 318.057 160.364C317.217 159.524 316.797 158.384 316.797 156.944V155.18C316.797 153.524 317.265 152.228 318.201 151.292C319.161 150.332 320.469 149.852 322.125 149.852H326.121C327.753 149.852 329.049 150.332 330.009 151.292C330.969 152.228 331.449 153.524 331.449 155.18V156.08C331.449 156.44 331.293 156.62 330.981 156.62H329.325C329.013 156.62 328.857 156.44 328.857 156.08V155.432C328.857 153.248 327.789 152.156 325.653 152.156H322.593C320.457 152.156 319.389 153.296 319.389 155.576V157.016C319.389 158.24 320.193 159.08 321.801 159.536C322.521 159.728 323.313 159.908 324.177 160.076C325.041 160.22 325.905 160.424 326.769 160.688C327.657 160.928 328.461 161.24 329.181 161.624C329.901 161.984 330.477 162.548 330.909 163.316C331.365 164.06 331.593 164.972 331.593 166.052V167.672C331.593 169.328 331.113 170.636 330.153 171.596C329.193 172.532 327.897 173 326.265 173H322.125C320.493 173 319.197 172.532 318.237 171.596C317.277 170.636 316.797 169.328 316.797 167.672ZM346.306 173H341.986C340.33 173 339.022 172.532 338.062 171.596C337.126 170.66 336.658 169.352 336.658 167.672V155.18C336.658 153.5 337.126 152.192 338.062 151.256C339.022 150.32 340.33 149.852 341.986 149.852H346.306C347.962 149.852 349.258 150.32 350.194 151.256C351.154 152.192 351.634 153.5 351.634 155.18V156.944C351.634 157.28 351.466 157.448 351.13 157.448H349.51C349.174 157.448 349.006 157.28 349.006 156.944V155.288C349.006 153.2 347.998 152.156 345.982 152.156H342.274C340.282 152.156 339.286 153.2 339.286 155.288V167.564C339.286 169.652 340.282 170.696 342.274 170.696H345.982C347.998 170.696 349.006 169.652 349.006 167.564V165.908C349.006 165.572 349.174 165.404 349.51 165.404H351.13C351.466 165.404 351.634 165.572 351.634 165.908V167.672C351.634 169.352 351.154 170.66 350.194 171.596C349.258 172.532 347.962 173 346.306 173ZM361.75 170.696H365.422C367.438 170.696 368.446 169.652 368.446 167.564V155.288C368.446 153.2 367.438 152.156 365.422 152.156H361.75C359.758 152.156 358.762 153.2 358.762 155.288V167.564C358.762 169.652 359.758 170.696 361.75 170.696ZM365.746 173H361.462C359.806 173 358.498 172.532 357.538 171.596C356.602 170.66 356.134 169.352 356.134 167.672V155.18C356.134 153.5 356.602 152.192 357.538 151.256C358.498 150.32 359.806 149.852 361.462 149.852H365.746C367.402 149.852 368.698 150.332 369.634 151.292C370.594 152.228 371.074 153.524 371.074 155.18V167.672C371.074 169.328 370.594 170.636 369.634 171.596C368.698 172.532 367.402 173 365.746 173ZM378.517 173H376.897C376.561 173 376.393 172.832 376.393 172.496V150.356C376.393 150.02 376.561 149.852 376.897 149.852H385.321C386.977 149.852 388.273 150.332 389.209 151.292C390.145 152.228 390.613 153.524 390.613 155.18V159.176C390.613 160.856 390.145 162.164 389.209 163.1C388.273 164.036 386.977 164.504 385.321 164.504H379.381C379.141 164.504 379.021 164.612 379.021 164.828V172.496C379.021 172.832 378.853 173 378.517 173ZM379.381 162.164H384.961C386.977 162.164 387.985 161.132 387.985 159.068V155.288C387.985 153.2 386.977 152.156 384.961 152.156H379.381C379.141 152.156 379.021 152.264 379.021 152.48V161.84C379.021 162.056 379.141 162.164 379.381 162.164ZM407.15 173H395.846C395.51 173 395.342 172.832 395.342 172.496V150.356C395.342 150.02 395.51 149.852 395.846 149.852H407.15C407.486 149.852 407.654 150.02 407.654 150.356V151.652C407.654 151.988 407.486 152.156 407.15 152.156H398.33C398.09 152.156 397.97 152.264 397.97 152.48V159.752C397.97 159.968 398.09 160.076 398.33 160.076H406.034C406.37 160.076 406.538 160.244 406.538 160.58V161.876C406.538 162.212 406.37 162.38 406.034 162.38H398.33C398.09 162.38 397.97 162.488 397.97 162.704V170.372C397.97 170.588 398.09 170.696 398.33 170.696H407.15C407.486 170.696 407.654 170.864 407.654 171.2V172.496C407.654 172.832 407.486 173 407.15 173Z" fill="#15548F"/>
<path fill-rule="evenodd" clip-rule="evenodd" d="M370.897 85.033C370.897 84.4998 371.376 84.0675 371.967 84.0675H388.779C389.37 84.0675 389.849 84.4998 389.849 85.033C389.849 85.5662 389.37 85.9984 388.779 85.9984H371.967C371.376 85.9984 370.897 85.5662 370.897 85.033Z" fill="#15548F"/>
<path fill-rule="evenodd" clip-rule="evenodd" d="M370.897 101.446C370.897 100.913 371.376 100.48 371.967 100.48H388.779C389.37 100.48 389.849 100.913 389.849 101.446C389.849 101.979 389.37 102.411 388.779 102.411H371.967C371.376 102.411 370.897 101.979 370.897 101.446Z" fill="#15548F"/>
<path fill-rule="evenodd" clip-rule="evenodd" d="M343.645 73.7708C344.079 74.1952 344.07 74.8755 343.627 75.2903L340.761 77.9686C340.324 78.3768 339.626 78.3768 339.189 77.9686L336.323 75.2903C335.879 74.8755 335.871 74.1952 336.305 73.7708C336.739 73.3464 337.451 73.3387 337.895 73.7535L339.975 75.6975L342.055 73.7535C342.499 73.3387 343.211 73.3464 343.645 73.7708Z" fill="#15548F"/>
<path d="M387.854 110.135C387.854 113.334 385.261 115.928 382.062 115.928H381.677C378.478 115.928 375.885 113.334 375.885 110.135C375.885 106.936 378.478 104.342 381.677 104.342H382.062C385.261 104.342 387.854 106.936 387.854 110.135Z" fill="#009EF5" fill-opacity="0.3"/>
<rect x="331.995" y="84.0675" width="39.8996" height="1.93093" fill="#15548F"/>
<rect x="370.897" y="65.7236" width="21.9448" height="1.93093" fill="#15548F"/>
<rect x="339.975" y="100.48" width="31.9196" height="1.93093" fill="#15548F"/>
<rect x="341.97" y="84.0675" width="18.3438" height="1.99498" transform="rotate(90 341.97 84.0675)" fill="#15548F"/>
<rect x="371.895" y="59.9309" width="57.9278" height="1.99497" transform="rotate(90 371.895 59.9309)" fill="#15548F"/>
<path d="M387.854 79.1711C387.854 80.2757 386.959 81.1711 385.854 81.1711H377.885C376.78 81.1711 375.885 80.2757 375.885 79.1711V72.551C375.885 71.4465 376.78 70.551 377.885 70.551H385.854C386.959 70.551 387.854 71.4465 387.854 72.551V79.1711Z" fill="#009EF5" fill-opacity="0.3"/>
<path d="M391.845 58.9309C392.397 58.9311 392.845 59.3787 392.845 59.9309V117.859C392.845 118.411 392.397 118.858 391.845 118.859H331.995C331.443 118.859 330.995 118.411 330.995 117.859V67.6545C330.995 67.1023 331.443 66.6545 331.995 66.6545H370.573V59.9309C370.573 59.3786 371.021 58.9309 371.573 58.9309H391.845Z" stroke="#15548F" stroke-width="2" stroke-linecap="round" stroke-linejoin="round"/>
</svg>
